<svg height="148" viewBox="0 0 143 148" width="143" xmlns="http://www.w3.org/2000/svg" xmlns:xlink="http://www.w3.org/1999/xlink"><linearGradient id="a" x1="50%" x2="50%" y1="3.410051%" y2="100%"><stop offset="0" stop-color="#000f24" stop-opacity=".9"/><stop offset="1" stop-color="#011b3e"/></linearGradient><g fill="none" fill-rule="evenodd" transform="translate(2.6 -.6)"><g fill="url(#a)"><g stroke="#b0936d" stroke-width="2.275" transform="translate(0 1.811225)"><path d="m108.113146 39.1513944 28.718241 28.4224581h-28.718241zm-78.9473373.403978.2218376 28.0177017h-28.53532283zm.6691913 10.8284022-16.38 16.965m94.185-16.965 16.38 16.965"/><path d="m29.5721218 77.945734h-28.71824157l29.28256527 28.885593m-.3014455-11.9875524-16.38-16.965"/><path d="m108.113146 106.371306 28.718241-28.4263504h-28.718241m-.473146 16.898819 16.38-16.965"/><path d="m53.381525 129.946806 15.462471 15.291228 15.3534982-15.201714"/><path d="m53.381525.78877465 15.462471 15.29122795 15.3534982-15.20171453" transform="matrix(1 0 0 -1 0 16.868778)"/></g><path d="m40.3 28.6h58.5v92.3h-58.5z"/><path d="m108.1112 28.8584589v102.5317891h-68.6451205v-11.103556l.3138207-.00079.0000998-90.905902 58.4379002-.0000975.0001205-.5214436zm-9.8312.5215411-.0620998-.0000975.0001205 90.9067895-58.4381205-.00079.0000998.354098h58.5zm-.0619793-11.6250975v11.1035564h-58.7519412v91.4282331h-9.8931793v-102.5317895z" stroke="#b0936d" stroke-width="2.275"/></g><path d="m13.1458142 0c7.2643822 0 13.1526216 5.88823942 13.1526216 13.1492179 0 2.2960347-.5882629 4.4546883-1.6223414 6.3334038l.0368295.022271-11.3723827 19.4950127h-2.736l8.1345945-13.9430415c-1.6972801.7985815-3.5930986 1.2449756-5.5933215 1.2449756-7.25930994 0-13.1458142-5.8899744-13.1458142-13.1526216 0-7.25982181 5.88708244-13.1492179 13.1458142-13.1492179zm0 2.36367488c-5.95310221 0-10.78213932 4.83093494-10.78213932 10.78554302 0 5.9575373 4.82856291 10.7889467 10.78213932 10.7889467 5.959435 0 10.7889467-4.8304604 10.7889467-10.7889467 0-5.95555689-4.8299861-10.78554302-10.7889467-10.78554302z" fill="#b0936d" fill-rule="nonzero" transform="translate(56.16 54.99)"/></g></svg>