<svg xmlns="http://www.w3.org/2000/svg" xmlns:xlink="http://www.w3.org/1999/xlink" width="194" height="192" viewBox="0 0 194 192">
  <defs>
    <linearGradient id="alg-logo-a" x1="50%" x2="65.738%" y1="-6.031%" y2="114.68%">
      <stop offset="0%" stop-color="#2268C8"/>
      <stop offset="100%" stop-color="#3B8EDD" stop-opacity="0"/>
    </linearGradient>
    <linearGradient id="alg-logo-b" x1="3.173%" x2="98.947%" y1="47.433%" y2="52.768%">
      <stop offset="0%" stop-color="#004383" stop-opacity="0"/>
      <stop offset="44.467%" stop-color="#003066"/>
      <stop offset="75.565%" stop-color="#00204C" stop-opacity=".6"/>
      <stop offset="100%" stop-color="#00204C" stop-opacity="0"/>
    </linearGradient>
    <path id="alg-logo-d" d="M10.1512612,89 L10.1512612,85.7919922 L3.50087054,85.7919922 L3.50087054,66.3828125 L0.0877845982,66.3828125 L0.0877845982,89 L10.1512612,89 Z M20.0159375,89 L20.0159375,66.3828125 L16.6028516,66.3828125 L16.6028516,89 L20.0159375,89 Z M35.9890123,90.6992188 L46.1403795,66.3828125 L42.4050279,66.3828125 L36.0622545,82.0566406 L29.8073717,66.3828125 L26.0720201,66.3828125 L35.9890123,90.6992188 Z M64.6476339,89 L64.6476339,85.7919922 L55.5802511,85.7919922 L55.5802511,78.2333984 L64.3839621,78.2333984 L64.3839621,75.0253906 L55.5802511,75.0253906 L55.5802511,69.5908203 L64.6476339,69.5908203 L64.6476339,66.3828125 L52.1671652,66.3828125 L52.1671652,89 L64.6476339,89 Z M95.2021819,89.4248047 C98.4443694,89.4248047 101.115268,88.2431641 103.214877,85.8798828 C104.142612,84.8251953 104.801791,83.6923828 105.192416,82.4814453 C105.592807,81.1728516 105.793002,79.6689453 105.793002,77.9697266 L105.793002,77.9697266 L105.793002,77.2226562 L96.4472991,77.2226562 L96.4472991,80.4306641 L102.086948,80.4306641 C101.930698,82.0224609 101.183627,83.3896484 99.8457366,84.5322266 C98.507846,85.6650391 96.9990569,86.2314453 95.3193694,86.2314453 C93.3467132,86.2314453 91.5156585,85.4746094 89.8262054,83.9609375 C88.0195647,82.3300781 87.1162444,80.2548828 87.1162444,77.7353516 C87.1162444,75.2939453 87.9267913,73.2626953 89.547885,71.6416016 C91.1689788,69.9912109 93.1758147,69.1660156 95.5683929,69.1660156 C98.2344085,69.1660156 100.495151,70.4013672 102.350619,72.8720703 L102.350619,72.8720703 L104.78226,70.5429688 C103.366244,68.921875 101.925815,67.75 100.460971,67.0273438 C98.9277679,66.3046875 97.2773772,65.9433594 95.5097991,65.9433594 C92.2187835,65.9433594 89.4258147,67.0908203 87.1308929,69.3857422 C84.835971,71.6708984 83.68851,74.4541016 83.68851,77.7353516 C83.68851,80.9482422 84.8164397,83.7021484 87.0722991,85.9970703 C89.3281585,88.2822266 92.0381194,89.4248047 95.2021819,89.4248047 Z M114.069319,89 L116.079319,83.48 L125.289319,83.48 L127.299319,89 L130.809319,89 L122.559319,67.58 L118.839319,67.58 L110.589319,89 L114.069319,89 Z M124.299319,80.78 L117.069319,80.78 L120.639319,71.09 L120.759319,71.09 L124.299319,80.78 Z M139.393605,89 L139.393605,73.7 L139.513605,73.7 L146.083605,89 L148.903605,89 L155.473605,73.7 L155.593605,73.7 L155.593605,89 L158.863605,89 L158.863605,67.58 L154.993605,67.58 L147.553605,84.74 L147.463605,84.74 L139.993605,67.58 L136.123605,67.58 L136.123605,89 L139.393605,89 Z M182.177891,89 L182.177891,86.21 L169.547891,86.21 L169.547891,79.4 L180.947891,79.4 L180.947891,76.61 L169.547891,76.61 L169.547891,70.37 L181.667891,70.37 L181.667891,67.58 L166.277891,67.58 L166.277891,89 L182.177891,89 Z"/>
    <filter id="alg-logo-c" width="111.5%" height="184.8%" x="-5.2%" y="-30.3%" filterUnits="objectBoundingBox">
      <feOffset dx="1" dy="3" in="SourceAlpha" result="shadowOffsetOuter1"/>
      <feGaussianBlur in="shadowOffsetOuter1" result="shadowBlurOuter1" stdDeviation="3"/>
      <feColorMatrix in="shadowBlurOuter1" values="0 0 0 0 0   0 0 0 0 0   0 0 0 0 0  0 0 0 0.5 0"/>
    </filter>
    <linearGradient id="alg-logo-e" x1="0%" x2="96.215%" y1="102.059%" y2="102.059%">
      <stop offset="0%" stop-color="#89663D" stop-opacity="0"/>
      <stop offset="33.897%" stop-color="#AB8457"/>
      <stop offset="63.011%" stop-color="#B28B5D"/>
      <stop offset="100%" stop-color="#BF996C" stop-opacity="0"/>
      <stop offset="100%" stop-color="#89663D" stop-opacity="0"/>
    </linearGradient>
  </defs>
  <g fill="none" fill-rule="evenodd" transform="translate(5)">
    <polygon fill="url(#alg-logo-a)" points="38 95.999 91.999 192 146 95.999 91.999 0"/>
    <polygon fill="url(#alg-logo-a)" points="38 95.999 91.999 192 146 95.999 91.999 0"/>
    <rect width="170" height="40" x="7" y="57" fill="url(#alg-logo-b)"/>
    <g fill-rule="nonzero">
      <use fill="#000" filter="url(#alg-logo-c)" xlink:href="#alg-logo-d"/>
      <use fill="#FFF" xlink:href="#alg-logo-d"/>
    </g>
    <line x1="7.5" x2="174.5" y1="57" y2="57" stroke="url(#alg-logo-e)" stroke-linecap="square"/>
    <line x1="7.5" x2="174.5" y1="98" y2="98" stroke="url(#alg-logo-e)" stroke-linecap="square" transform="matrix(-1 0 0 1 182 0)"/>
    <path fill="#FFF" d="M15.96288 14.8208L15.96288 15.1568 19.65312 15.1568 19.65312 14.8208C19.28 14.8208 19.0944 14.73696 19.0944 14.56928 19.0944 14.42016 19.12192 14.28064 19.17888 14.15008 19.23392 14.02016 19.30816 13.83392 19.4016 13.59136L23.79008 1.73792C23.9392 1.36544 24.0704 1.11328 24.18176.98208 24.2944.8528 24.47104.78688 24.71296.78688L24.71296.45152 21.19104.45152 21.19104.78688C21.60128.78688 21.80544.91744 21.80544 1.17856 21.80544 1.29056 21.78752 1.38848 21.74976 1.47168 21.71264 1.55552 21.67488 1.66368 21.63776 1.79424L17.92 11.8576 17.86432 11.8576 14.22976 1.93376C14.17472 1.784 14.11776 1.64 14.06208 1.49984 14.0064 1.35968 13.9776 1.24384 13.9776 1.1504 13.9776.90912 14.14592.78688 14.48192.78688L14.48192.45152 10.5952.45152 10.5952.78688C10.87488.78688 11.0144.89888 11.0144 1.12352 11.0144 1.23424 10.98624 1.37376 10.93056 1.54144L7.18464 12.1936 7.1296 12.1936 3.35488 2.07264C3.27936 1.8864 3.2096 1.7232 3.14496 1.58304 3.07904 1.44416 3.0464 1.31808 3.0464 1.20672 3.0464 1.07552 3.08928.97312 3.17312.89888 3.25632.82464 3.41952.78688 3.66208.78688L3.66208.45152-1.34150469e-13.45152-1.34150469e-13.78688C.26048.78688.45568.8656.58752 1.02496.7168 1.1824.8384 1.42112.94976 1.73792L5.42272 13.64704C5.45984 13.7776 5.5072 13.92224 5.56352 14.08032 5.61856 14.23904 5.64672 14.38304 5.64672 14.51424 5.64672 14.62496 5.61856 14.70496 5.56352 14.75104 5.5072 14.7984 5.34912 14.8208 5.088 14.8208L5.088 15.1568 9.05728 15.1568 9.05728 14.8208C8.6848 14.8208 8.49792 14.728 8.49792 14.54112 8.49792 14.41184 8.51648 14.29536 8.55488 14.19232 8.592 14.08992 8.62848 13.98304 8.66688 13.87168L12.4128 3.41472 12.46848 3.41472 16.21504 13.59136C16.27008 13.74048 16.336 13.9024 16.4096 14.08032 16.48384 14.25696 16.52224 14.41184 16.52224 14.54112 16.52224 14.63456 16.49024 14.70496 16.42496 14.75104 16.3584 14.7984 16.2048 14.8208 15.96288 14.8208M39.126336 15.0464C40.190016 14.72704 41.114176 14.23744 41.897536 13.5808 42.680896 12.92288 43.290176 12.11072 43.726016 11.1424 44.161216 10.17536 44.378816 9.06368 44.378816 7.80608 44.378816 6.54848 44.161216 5.43616 43.726016 4.46912 43.290176 3.50144 42.680896 2.68352 41.897536 2.01728 41.114176 1.34912 40.190016.84672 39.126336.50752 38.061376.17024 36.901696 1.70530257e-14 35.644096 1.70530257e-14 34.386496 1.70530257e-14 33.225536.17024 32.161856.50752 31.098176.84672 30.174016 1.34912 29.390656 2.01728 28.607936 2.68352 27.998656 3.50144 27.562816 4.46912 27.127616 5.43616 26.910016 6.54848 26.910016 7.80608 26.910016 9.06368 27.127616 10.17536 27.562816 11.1424 27.998656 12.11072 28.607936 12.92288 29.390656 13.5808 30.174016 14.23744 31.098176 14.72704 32.161856 15.0464 33.225536 15.36512 34.386496 15.52448 35.644096 15.52448 36.901696 15.52448 38.061376 15.36512 39.126336 15.0464M31.073856 12.06016C29.999936 11.02976 29.462976 9.60576 29.462976 7.79072 29.462976 5.9776 29.999936 4.55296 31.073856 3.52192 32.147776 2.4896 33.670976 1.97312 35.644096 1.97312 37.617216 1.97312 39.140416 2.4896 40.214976 3.52192 41.287616 4.55296 41.825216 5.9776 41.825216 7.79072 41.825216 9.60576 41.287616 11.02976 40.214976 12.06016 39.140416 13.09312 37.617216 13.60896 35.644096 13.60896 33.670976 13.60896 32.147776 13.09312 31.073856 12.06016M52.334464 14.82144C52.072064 14.82144 51.895424 14.76064 51.802624 14.63904 51.708544 14.51808 51.662464 14.35552 51.662464 14.15072L51.662464 8.78176 56.806784 8.78176 60.244864 14.26272C60.339584 14.35552 60.384384 14.45792 60.384384 14.56928 60.384384 14.66272 60.353024 14.728 60.287744 14.76512 60.223104 14.80288 60.068864 14.82144 59.826944 14.82144L59.826944 15.15616 63.851264 15.15616 63.851264 14.82144C63.572864 14.82144 63.371904 14.77472 63.250944 14.68192 63.128064 14.58848 62.966784 14.39328 62.762624 14.09376L59.239424 8.64288C60.637184 8.45728 61.642624 8.01824 62.257664 7.3296 62.873344 6.63968 63.181184 5.7072 63.181184 4.5328 63.181184 3.20992 62.781184 2.19872 61.979264 1.49984 61.176064.8016 59.855104.45088 58.009344.45088L48.643584.45088 48.643584.78688C48.904704.78688 49.080704.84768 49.174144.968 49.267584 1.09024 49.314304 1.2528 49.314304 1.4576L49.314304 14.15072C49.314304 14.35552 49.267584 14.51808 49.174144 14.63904 49.080704 14.76064 48.904704 14.82144 48.643584 14.82144L48.643584 15.15616 52.334464 15.15616 52.334464 14.82144zM51.662464 2.3536L57.645824 2.3536C58.299264 2.3536 58.834944 2.39456 59.252864 2.47776 59.671424 2.5616 60.002304 2.69216 60.244864 2.86944 60.488064 3.04736 60.655744 3.26624 60.748544 3.52736 60.841344 3.78912 60.888064 4.10464 60.888064 4.47776 60.888064 5.22336 60.655744 5.8096 60.188544 6.23776 59.723904 6.66784 58.921344 6.88096 57.785344 6.88096L51.662464 6.88096 51.662464 2.3536zM81.939712 15.68832L82.275712 15.68832 82.275712 12.47296 81.939712 12.47296C81.939712 13.03232 81.613312 13.31072 80.961152 13.31072L71.567872 13.31072 71.567872 1.56928C71.567872 1.3088 71.613952 1.11424 71.706752.9824 71.800192.85248 71.976832.7872 72.238592.7872L72.238592.4512 68.548352.4512 68.548352.7872C68.809472.7872 68.985472.848 69.078912.96832 69.171712 1.08992 69.219712 1.25312 69.219712 1.45792L69.219712 14.15104C69.219712 14.35584 69.171712 14.5184 69.078912 14.63872 68.985472 14.76096 68.809472 14.82176 68.548352 14.82176L68.548352 15.15648 80.961152 15.15648C81.613312 15.15648 81.939712 15.33312 81.939712 15.68832M100.977856 4.855168C100.622656 3.950848 100.124736 3.173248 99.480896 2.520448 98.838976 1.867648 98.056256 1.360128 97.133376.997248 96.209856.632448 95.171776.450688 94.016576.450688L85.349696.450688 85.349696.787328C85.610176.787328 85.786816.846848 85.881536.968448 85.974336 1.090048 86.020416 1.253248 86.020416 1.457408L86.020416 14.150528C86.020416 14.355968 85.974336 14.518528 85.881536 14.638848 85.786816 14.761088 85.610176 14.821248 85.349696 14.821248L85.349696 15.156608 94.547776 15.156608C95.684416 15.156608 96.686016 14.975488 97.551296 14.610688 98.419136 14.247808 99.146176 13.740288 99.733056 13.086848 100.320576 12.435968 100.763456 11.657728 101.061696 10.754048 101.359936 9.849728 101.509056 8.866688 101.509056 7.803648 101.509056 6.741248 101.331776 5.758208 100.977856 4.855168M97.985856 11.914368C97.165376 12.845568 95.935936 13.311488 94.296256 13.311488L88.369216 13.311488 88.369216 2.296448 93.791936 2.296448C95.525056 2.296448 96.862656 2.762368 97.804736 3.694848 98.744896 4.627328 99.215936 5.996288 99.215936 7.803648 99.215936 9.612928 98.805696 10.981888 97.985856 11.914368M6.568512 26.310784C6.494272 26.364544 6.400832 26.391424 6.284352 26.391424L2.408512 26.391424 2.408512 24.789504 4.683072 24.789504C4.837952 24.789504 4.956992 24.815104 5.042752 24.865024 5.127872 24.916224 5.170112 25.029504 5.170112 25.207424L5.378752 25.207424 5.378752 23.398144 5.170112 23.398144C5.170112 23.576064 5.127872 23.685504 5.042752 23.728384 4.956992 23.771904 4.837952 23.791104 4.683072 23.791104L2.408512 23.791104 2.408512 22.353024 6.167872 22.353024C6.330432 22.353024 6.444992 22.374784 6.510272 22.417664 6.576192 22.459904 6.608832 22.523264 6.608832 22.609024L6.817472 22.609024 6.817472 21.076864 6.608832 21.076864C6.608832 21.162624 6.576192 21.230464 6.510272 21.279744 6.444992 21.331584 6.330432 21.355904 6.167872 21.355904L.876352 21.355904.876352 21.564544C.930112 21.564544.979392 21.581824 1.022272 21.616384 1.064512 21.652224 1.085632 21.703424 1.085632 21.772544L1.085632 27.041664C1.085632 27.110784 1.064512 27.163264 1.022272 27.197824.979392 27.231744.930112 27.250304.876352 27.250304L.876352 27.459584 6.284352 27.459584C6.400832 27.459584 6.494272 27.466624 6.568512 27.482624 6.642752 27.497344 6.679232 27.563904 6.679232 27.679104L6.887232 27.679104 6.887232 26.089984 6.679232 26.089984C6.679232 26.182784 6.642752 26.255744 6.568512 26.310784M13.826304 21.564544C14.027264 21.564544 14.127744 21.633664 14.127744 21.772544L14.127744 25.463424 10.797824 22.004864C10.642304 21.850624 10.566144 21.742464 10.566144 21.681024 10.566144 21.603584 10.596224 21.564544 10.658304 21.564544L10.658304 21.355264 8.673664 21.355264 8.673664 21.564544C8.821504 21.564544 8.894464 21.633664 8.894464 21.772544L8.894464 27.041664C8.894464 27.180544 8.821504 27.250304 8.673664 27.250304L8.673664 27.458944 10.391424 27.458944 10.391424 27.250304C10.212864 27.250304 10.124544 27.180544 10.124544 27.041664L10.124544 23.189504 13.663104 26.879104C13.787264 27.003264 13.849344 27.091584 13.849344 27.145984 13.849344 27.215104 13.799424 27.250304 13.698304 27.250304L13.698304 27.458944 15.578624 27.458944 15.578624 27.250304C15.431424 27.250304 15.357824 27.180544 15.357824 27.041664L15.357824 21.772544C15.357824 21.633664 15.431424 21.564544 15.578624 21.564544L15.578624 21.355264 13.826304 21.355264 13.826304 21.564544zM20.846656 27.041408L20.846656 22.422528 22.761536 22.422528C22.830656 22.422528 22.897856 22.442368 22.964416 22.480768 23.029696 22.519808 23.062336 22.593408 23.062336 22.701568L23.271616 22.701568 23.271616 21.077248 23.062336 21.077248C23.062336 21.184768 23.029696 21.259008 22.964416 21.298048 22.897856 21.336448 22.830656 21.355648 22.761536 21.355648L17.608256 21.355648C17.539776 21.355648 17.471936 21.336448 17.406016 21.298048 17.340096 21.259008 17.308096 21.184768 17.308096 21.077248L17.098176 21.077248 17.098176 22.701568 17.308096 22.701568C17.308096 22.593408 17.340096 22.519808 17.406016 22.480768 17.471936 22.442368 17.539776 22.422528 17.608256 22.422528L19.523776 22.422528 19.523776 27.041408C19.523776 27.110528 19.501376 27.162368 19.459776 27.197568 19.416896 27.232128 19.368256 27.250048 19.314496 27.250048L19.314496 27.458688 21.101376 27.458688 21.101376 27.250048C20.931776 27.250048 20.846656 27.180928 20.846656 27.041408M30.425344 26.310784C30.351104 26.364544 30.257024 26.391424 30.140544 26.391424L26.265344 26.391424 26.265344 24.789504 28.539264 24.789504C28.694784 24.789504 28.813184 24.815104 28.899584 24.865024 28.984704 24.916224 29.026304 25.029504 29.026304 25.207424L29.235584 25.207424 29.235584 23.398144 29.026304 23.398144C29.026304 23.576064 28.984704 23.685504 28.899584 23.728384 28.813184 23.771904 28.694784 23.791104 28.539264 23.791104L26.265344 23.791104 26.265344 22.353024 30.024064 22.353024C30.187904 22.353024 30.301184 22.374784 30.366464 22.417664 30.433024 22.459904 30.465664 22.523264 30.465664 22.609024L30.674944 22.609024 30.674944 21.076864 30.465664 21.076864C30.465664 21.162624 30.433024 21.230464 30.366464 21.279744 30.301184 21.331584 30.187904 21.355904 30.024064 21.355904L24.733184 21.355904 24.733184 21.564544C24.786944 21.564544 24.836224 21.581824 24.878464 21.616384 24.921344 21.652224 24.942464 21.703424 24.942464 21.772544L24.942464 27.041664C24.942464 27.110784 24.921344 27.163264 24.878464 27.197824 24.836224 27.231744 24.786944 27.250304 24.733184 27.250304L24.733184 27.459584 30.140544 27.459584C30.257024 27.459584 30.351104 27.466624 30.425344 27.482624 30.498304 27.497344 30.535424 27.563904 30.535424 27.679104L30.744064 27.679104 30.744064 26.089984 30.535424 26.089984C30.535424 26.182784 30.498304 26.255744 30.425344 26.310784M37.10848 27.215808C37.05856 27.239488 36.9984 27.250368 36.92928 27.250368L36.92928 27.459008 39.09888 27.459008 39.09888 27.250368C39.03552 27.250368 38.96896 27.243328 38.89536 27.227328 38.82176 27.211968 38.75776 27.165888 38.70336 27.087808L37.16032 24.883648C37.67168 24.790208 38.07744 24.608448 38.37888 24.337728 38.68096 24.067008 38.83072 23.676608 38.83072 23.165888 38.83072 22.832448 38.77376 22.552768 38.65728 22.323648 38.54144 22.096448 38.37504 21.910848 38.15872 21.766848 37.94176 21.624128 37.68256 21.520448 37.38112 21.453888 37.07968 21.388608 36.7424 21.355328 36.3712 21.355328L32.4032 21.355328 32.4032 21.564608C32.62784 21.564608 32.73984 21.633728 32.73984 21.773248L32.73984 27.041728C32.73984 27.181248 32.62784 27.250368 32.4032 27.250368L32.4032 27.459008 34.41088 27.459008 34.41088 27.250368C34.27904 27.250368 34.18816 27.232448 34.1376 27.198528 34.08768 27.162688 34.06272 27.110848 34.06272 27.041728L34.06272 24.976448 35.7216 24.976448 36.9984 26.786368C37.0592 26.871488 37.10656 26.938688 37.13728 26.989248 37.168 27.039808 37.18336 27.083968 37.18336 27.122368 37.18336 27.161408 37.15904 27.192128 37.10848 27.215808M36.76544 24.006208C36.58048 24.050368 36.3488 24.070848 36.06976 24.070848L34.06272 24.070848 34.06272 22.353088 36.06976 22.353088C36.3488 22.353088 36.58048 22.375488 36.76544 22.417088 36.95232 22.460608 37.09888 22.519488 37.20704 22.596928 37.3152 22.675008 37.39264 22.765248 37.43936 22.869568 37.48544 22.974528 37.50848 23.088448 37.50848 23.211328 37.50848 23.336128 37.48544 23.450048 37.43936 23.553728 37.39264 23.658688 37.3152 23.749568 37.20704 23.827008 37.09888 23.904448 36.95232 23.963968 36.76544 24.006208M40.612544 21.298304C40.546624 21.259264 40.514624 21.184384 40.514624 21.076864L40.305344 21.076864 40.305344 22.701184 40.514624 22.701184C40.514624 22.592384 40.546624 22.519424 40.612544 22.481024 40.678464 22.442624 40.746304 22.422784 40.815424 22.422784L42.730944 22.422784 42.730944 27.041664C42.730944 27.110784 42.708544 27.163264 42.666944 27.197824 42.624064 27.232384 42.574784 27.250304 42.521024 27.250304L42.521024 27.458944 44.307904 27.458944 44.307904 27.250304C44.138304 27.250304 44.053184 27.180544 44.053184 27.041664L44.053184 22.422784 45.967424 22.422784C46.037184 22.422784 46.105024 22.442624 46.170944 22.481024 46.236864 22.519424 46.269504 22.592384 46.269504 22.701184L46.478784 22.701184 46.478784 21.076864 46.269504 21.076864C46.269504 21.184384 46.236864 21.259264 46.170944 21.298304 46.105024 21.336704 46.037184 21.355904 45.967424 21.355904L40.815424 21.355904C40.746304 21.355904 40.678464 21.336704 40.612544 21.298304M53.986304 26.948928L51.573504 22.225728C51.517824 22.125888 51.476864 22.043968 51.449984 21.982528 51.423104 21.920448 51.409024 21.858368 51.409024 21.796288 51.409024 21.711168 51.437184 21.655488 51.490944 21.628608 51.544704 21.602368 51.599104 21.579968 51.653504 21.564608L51.653504 21.355968 49.691904 21.355968 49.691904 21.564608C49.753984 21.579968 49.811584 21.603648 49.865984 21.633728 49.919744 21.665088 49.947264 21.718848 49.947264 21.796288 49.947264 21.858368 49.926144 21.931968 49.883904 22.017728 49.840384 22.102208 49.793024 22.195008 49.737984 22.295488L47.592064 26.809408C47.538304 26.917568 47.481344 27.014848 47.423104 27.099328 47.365504 27.184448 47.286144 27.235008 47.186304 27.250368L47.186304 27.459008 48.833664 27.459008 48.833664 27.250368C48.686464 27.250368 48.612864 27.207488 48.612864 27.122368 48.612864 27.052608 48.651904 26.936768 48.728704 26.774848L49.147264 25.950528 51.979264 25.950528 52.418944 26.809408C52.481664 26.933568 52.511104 27.034048 52.511104 27.110848 52.511104 27.156928 52.489344 27.191488 52.441344 27.215168 52.397184 27.238848 52.357504 27.250368 52.326784 27.250368L52.326784 27.459008 54.368384 27.459008 54.368384 27.250368C54.283904 27.211328 54.209024 27.173568 54.141824 27.134528 54.076544 27.095488 54.023424 27.034048 53.986304 26.948928L53.986304 26.948928zM49.494144 25.092288L50.585344 22.933568 51.560704 25.092288 49.494144 25.092288zM57.571328 21.564544L57.571328 21.355264 55.645568 21.355264 55.645568 21.564544C55.846528 21.564544 55.947648 21.633664 55.947648 21.772544L55.947648 27.041664C55.947648 27.180544 55.846528 27.250304 55.645568 27.250304L55.645568 27.458944 57.571328 27.458944 57.571328 27.250304C57.370368 27.250304 57.269248 27.180544 57.269248 27.041664L57.269248 21.772544C57.269248 21.633664 57.370368 21.564544 57.571328 21.564544M64.754112 21.564544C64.955072 21.564544 65.055552 21.633664 65.055552 21.772544L65.055552 25.463424 61.725632 22.004864C61.569472 21.850624 61.493312 21.742464 61.493312 21.681024 61.493312 21.603584 61.524672 21.564544 61.586112 21.564544L61.586112 21.355264 59.602112 21.355264 59.602112 21.564544C59.748032 21.564544 59.821632 21.633664 59.821632 21.772544L59.821632 27.041664C59.821632 27.180544 59.748032 27.250304 59.602112 27.250304L59.602112 27.458944 61.319232 27.458944 61.319232 27.250304C61.140672 27.250304 61.051712 27.180544 61.051712 27.041664L61.051712 23.189504 64.590912 26.879104C64.715072 27.003264 64.775872 27.091584 64.775872 27.145984 64.775872 27.215104 64.726592 27.250304 64.625472 27.250304L64.625472 27.458944 66.505152 27.458944 66.505152 27.250304C66.357952 27.250304 66.284352 27.180544 66.284352 27.041664L66.284352 21.772544C66.284352 21.633664 66.357952 21.564544 66.505152 21.564544L66.505152 21.355264 64.754112 21.355264 64.754112 21.564544zM74.70944 23.188928L74.70944 27.041728C74.70944 27.180608 74.60512 27.250368 74.39648 27.250368L74.39648 27.459008 76.21856 27.459008 76.21856 27.250368C76.15584 27.250368 76.10144 27.231808 76.05536 27.197888 76.00928 27.162688 75.9856 27.110848 75.9856 27.041728L75.9856 21.750208C75.9856 21.681088 76.00928 21.631168 76.05536 21.605568 76.10144 21.578048 76.15584 21.564608 76.21856 21.564608L76.21856 21.355328 74.07136 21.355328 74.07136 21.564608C74.1712 21.564608 74.22176 21.606848 74.22176 21.691968 74.22176 21.738048 74.20832 21.790528 74.1808 21.848768 74.15392 21.906368 74.11296 21.985728 74.05984 22.086848L72.38816 25.068608 70.72928 22.052288C70.69088 21.982528 70.65632 21.916608 70.62496 21.854528 70.5936 21.792448 70.57888 21.742528 70.57888 21.704128 70.57888 21.656768 70.6 21.622848 70.64224 21.599168 70.68448 21.576128 70.72544 21.564608 70.76384 21.564608L70.76384 21.355328 68.59488 21.355328 68.59488 21.564608C68.65632 21.564608 68.71008 21.578048 68.75616 21.605568 68.80288 21.631168 68.82656 21.681088 68.82656 21.750208L68.82656 27.041728C68.82656 27.110848 68.80288 27.162688 68.75616 27.197888 68.71008 27.231808 68.65632 27.250368 68.59488 27.250368L68.59488 27.459008 70.33504 27.459008 70.33504 27.250368C70.11744 27.250368 70.01056 27.180608 70.01056 27.041728L70.01056 23.176768 70.0336 23.176768 72.31904 27.459008 72.35424 27.459008 74.68704 23.188928 74.70944 23.188928zM83.929088 26.310784C83.856128 26.364544 83.760768 26.391424 83.643648 26.391424L79.769088 26.391424 79.769088 24.789504 82.043648 24.789504C82.197248 24.789504 82.318208 24.815104 82.402688 24.865024 82.488448 24.916224 82.530688 25.029504 82.530688 25.207424L82.739968 25.207424 82.739968 23.398144 82.530688 23.398144C82.530688 23.576064 82.488448 23.685504 82.402688 23.728384 82.318208 23.771904 82.197248 23.791104 82.043648 23.791104L79.769088 23.791104 79.769088 22.353024 83.527808 22.353024C83.691648 22.353024 83.804288 22.374784 83.870848 22.417664 83.936128 22.459904 83.970048 22.523264 83.970048 22.609024L84.178048 22.609024 84.178048 21.076864 83.970048 21.076864C83.970048 21.162624 83.936128 21.230464 83.870848 21.279744 83.804288 21.331584 83.691648 21.355904 83.527808 21.355904L78.237568 21.355904 78.237568 21.564544C78.291968 21.564544 78.339328 21.581824 78.382208 21.616384 78.424448 21.652224 78.445568 21.703424 78.445568 21.772544L78.445568 27.041664C78.445568 27.110784 78.424448 27.163264 78.382208 27.197824 78.339328 27.231744 78.291968 27.250304 78.237568 27.250304L78.237568 27.459584 83.643648 27.459584C83.760768 27.459584 83.856128 27.466624 83.929088 27.482624 84.002048 27.497344 84.039168 27.563904 84.039168 27.679104L84.248448 27.679104 84.248448 26.089984 84.039168 26.089984C84.039168 26.182784 84.002048 26.255744 83.929088 26.310784M91.187264 21.564544C91.388224 21.564544 91.488704 21.633664 91.488704 21.772544L91.488704 25.463424 88.158784 22.004864C88.002624 21.850624 87.925184 21.742464 87.925184 21.681024 87.925184 21.603584 87.957184 21.564544 88.019264 21.564544L88.019264 21.355264 86.034624 21.355264 86.034624 21.564544C86.181824 21.564544 86.254784 21.633664 86.254784 21.772544L86.254784 27.041664C86.254784 27.180544 86.181824 27.250304 86.034624 27.250304L86.034624 27.458944 87.752384 27.458944 87.752384 27.250304C87.573824 27.250304 87.484864 27.180544 87.484864 27.041664L87.484864 23.189504 91.024704 26.879104C91.148224 27.003264 91.209024 27.091584 91.209024 27.145984 91.209024 27.215104 91.159744 27.250304 91.059264 27.250304L91.059264 27.458944 92.938944 27.458944 92.938944 27.250304C92.791104 27.250304 92.717504 27.180544 92.717504 27.041664L92.717504 21.772544C92.717504 21.633664 92.791104 21.564544 92.938944 21.564544L92.938944 21.355264 91.187264 21.355264 91.187264 21.564544zM100.325056 21.298304C100.258496 21.336704 100.190656 21.355904 100.121536 21.355904L94.969536 21.355904C94.899776 21.355904 94.831936 21.336704 94.766656 21.298304 94.700096 21.259264 94.667456 21.184384 94.667456 21.076864L94.458176 21.076864 94.458176 22.701184 94.667456 22.701184C94.667456 22.592384 94.700096 22.519424 94.766656 22.481024 94.831936 22.442624 94.899776 22.422784 94.969536 22.422784L96.884416 22.422784 96.884416 27.041664C96.884416 27.110784 96.862016 27.163264 96.819776 27.197824 96.778176 27.232384 96.728896 27.250304 96.675136 27.250304L96.675136 27.458944 98.462016 27.458944 98.462016 27.250304C98.291776 27.250304 98.206656 27.180544 98.206656 27.041664L98.206656 22.422784 100.121536 22.422784C100.190656 22.422784 100.258496 22.442624 100.325056 22.481024 100.390336 22.519424 100.422976 22.592384 100.422976 22.701184L100.632256 22.701184 100.632256 21.076864 100.422976 21.076864C100.422976 21.184384 100.390336 21.259264 100.325056 21.298304" transform="translate(41 111)"/>
  </g>
</svg>
