<svg height="192" viewBox="0 0 194 192" width="194" xmlns="http://www.w3.org/2000/svg" xmlns:xlink="http://www.w3.org/1999/xlink"><defs><linearGradient id="a" x1="50%" x2="65.738%" y1="-6.031%" y2="114.68%"><stop offset="0" stop-color="#2268c8"/><stop offset="1" stop-color="#3b8edd" stop-opacity="0"/></linearGradient><linearGradient id="b" x1="3.173%" x2="98.947%" y1="47.433%" y2="52.768%"><stop offset="0" stop-color="#004383" stop-opacity="0"/><stop offset=".44467" stop-color="#003066"/><stop offset=".75565" stop-color="#00204c" stop-opacity=".6"/><stop offset="1" stop-color="#00204c" stop-opacity="0"/></linearGradient><path id="c" d="m10.1512612 89v-3.2080078h-6.65039066v-19.4091797h-3.41308594v22.6171875zm9.8646763 0v-22.6171875h-3.4130859v22.6171875zm15.9730748 1.6992188 10.1513672-24.3164063h-3.7353516l-6.3427734 15.6738281-6.2548828-15.6738281h-3.7353516zm28.6586216-1.6992188v-3.2080078h-9.0673828v-7.5585938h8.803711v-3.2080078h-8.803711v-5.4345703h9.0673828v-3.2080078h-12.4804687v22.6171875zm30.554548.4248047c3.2421875 0 5.9130861-1.1816406 8.0126951-3.5449219.927735-1.0546875 1.586914-2.1875 1.977539-3.3984375.400391-1.3085937.600586-2.8125.600586-4.5117187v-.7470704h-9.3457029v3.2080079h5.6396489c-.15625 1.5917968-.903321 2.9589843-2.2412114 4.1015625-1.3378906 1.1328125-2.8466797 1.6992187-4.5263672 1.6992187-1.9726562 0-3.8037109-.7568359-5.493164-2.2705078-1.8066407-1.6308594-2.709961-3.7060547-2.709961-6.2255859 0-2.4414063.8105469-4.4726563 2.4316406-6.09375 1.6210938-1.6503907 3.6279297-2.475586 6.0205079-2.475586 2.6660156 0 4.9267581 1.2353516 6.7822261 3.7060547l2.431641-2.3291015c-1.416016-1.6210938-2.856445-2.7929688-4.321289-3.515625-1.5332031-.7226563-3.1835938-1.0839844-4.9511719-1.0839844-3.2910156 0-6.0839844 1.1474609-8.3789062 3.4423828-2.2949219 2.2851562-3.4423829 5.0683594-3.4423829 8.3496094 0 3.2128906 1.1279297 5.9667968 3.3837891 8.2617187 2.2558594 2.2851563 4.9658203 3.4277344 8.1298828 3.4277344zm18.8671371-.4248047 2.01-5.52h9.21l2.01 5.52h3.51l-8.25-21.42h-3.72l-8.25 21.42zm10.23-8.22h-7.23l3.57-9.69h.12zm15.094286 8.22v-15.3h.12l6.57 15.3h2.82l6.57-15.3h.12v15.3h3.27v-21.42h-3.87l-7.44 17.16h-.09l-7.47-17.16h-3.87v21.42zm42.784286 0v-2.79h-12.63v-6.81h11.4v-2.79h-11.4v-6.24h12.12v-2.79h-15.39v21.42z"/><filter id="d" height="184.8%" width="111.5%" x="-5.2%" y="-30.3%"><feOffset dx="1" dy="3" in="SourceAlpha" result="shadowOffsetOuter1"/><feGaussianBlur in="shadowOffsetOuter1" result="shadowBlurOuter1" stdDeviation="3"/><feColorMatrix in="shadowBlurOuter1" values="0 0 0 0 0   0 0 0 0 0   0 0 0 0 0  0 0 0 0.5 0"/></filter><linearGradient id="e" x1="0%" x2="96.215%" y1="102.059%" y2="102.059%"><stop offset="0" stop-color="#89663d" stop-opacity="0"/><stop offset=".33897" stop-color="#ab8457"/><stop offset=".63011" stop-color="#b28b5d"/><stop offset="1" stop-color="#bf996c" stop-opacity="0"/><stop offset="1" stop-color="#89663d" stop-opacity="0"/></linearGradient></defs><g fill="none" fill-rule="evenodd" transform="translate(5)"><path d="m38 95.999 53.999 96.001 54.001-96.001-54.001-95.999z" fill="url(#a)"/><path d="m38 95.999 53.999 96.001 54.001-96.001-54.001-95.999z" fill="url(#a)"/><path d="m7 57h170v40h-170z" fill="url(#b)"/><g fill-rule="nonzero"><use fill="#000" filter="url(#d)" xlink:href="#c"/><use fill="#fff" xlink:href="#c"/></g><path d="m7.5 57h167" stroke="url(#e)" stroke-linecap="square"/><path d="m7.5 98h167" stroke="url(#e)" stroke-linecap="square" transform="matrix(-1 0 0 1 182 0)"/><path d="m15.96288 14.8208v.336h3.69024v-.336c-.37312 0-.55872-.08384-.55872-.25152 0-.14912.02752-.28864.08448-.4192.05504-.12992.12928-.31616.22272-.55872l4.38848-11.85344c.14912-.37248.28032-.62464.39168-.75584.11264-.12928.28928-.1952.5312-.1952v-.33536h-3.52192v.33536c.41024 0 .6144.13056.6144.39168 0 .112-.01792.20992-.05568.29312-.03712.08384-.07488.192-.112.32256l-3.71776 10.06336h-.05568l-3.63456-9.92384c-.05504-.14976-.112-.29376-.16768-.43392s-.08448-.256-.08448-.34944c0-.24128.16832-.36352.50432-.36352v-.33536h-3.88672v.33536c.27968 0 .4192.112.4192.33664 0 .11072-.02816.25024-.08384.41792l-3.74592 10.65216h-.05504l-3.77472-10.12096c-.07552-.18624-.14528-.34944-.20992-.4896-.06592-.13888-.09856-.26496-.09856-.37632 0-.1312.04288-.2336.12672-.30784.0832-.07424.2464-.112.48896-.112v-.33536h-3.66208v.33536c.26048 0 .45568.07872.58752.23808.12928.15744.25088.39616.36224.71296l4.47296 11.90912c.03712.13056.08448.2752.1408.43328.05504.15872.0832.30272.0832.43392 0 .11072-.02816.19072-.0832.2368-.05632.04736-.2144.06976-.47552.06976v.336h3.96928v-.336c-.37248 0-.55936-.0928-.55936-.27968 0-.12928.01856-.24576.05696-.3488.03712-.1024.0736-.20928.112-.32064l3.74592-10.45696h.05568l3.74656 10.17664c.05504.14912.12096.31104.19456.48896.07424.17664.11264.33152.11264.4608 0 .09344-.032.16384-.09728.20992-.06656.04736-.22016.06976-.46208.06976m23.163456.2256c1.06368-.31936 1.98784-.80896 2.7712-1.4656.78336-.65792 1.39264-1.47008 1.82848-2.4384.4352-.96704.6528-2.07872.6528-3.33632s-.2176-2.36992-.6528-3.33696c-.43584-.96768-1.04512-1.7856-1.82848-2.45184-.78336-.66816-1.70752-1.17056-2.7712-1.50976-1.06496-.33728-2.22464-.50752-3.48224-.50752s-2.41856.17024-3.48224.50752c-1.06368.3392-1.98784.8416-2.7712 1.50976-.78272.66624-1.392 1.48416-1.82784 2.45184-.4352.96704-.6528 2.07936-.6528 3.33696s.2176 2.36928.6528 3.33632c.43584.96832 1.04512 1.78048 1.82784 2.4384.78336.65664 1.70752 1.14624 2.7712 1.4656 1.06368.31872 2.22464.47808 3.48224.47808s2.41728-.15936 3.48224-.47808m-8.05248-2.98624c-1.07392-1.0304-1.61088-2.4544-1.61088-4.26944 0-1.81312.53696-3.23776 1.61088-4.2688 1.07392-1.03232 2.59712-1.5488 4.57024-1.5488s3.49632.51648 4.57088 1.5488c1.07264 1.03104 1.61024 2.45568 1.61024 4.2688 0 1.81504-.5376 3.23904-1.61024 4.26944-1.07456 1.03296-2.59776 1.5488-4.57088 1.5488s-3.49632-.51584-4.57024-1.5488m21.260608 2.76128c-.2624 0-.43904-.0608-.53184-.1824-.09408-.12096-.14016-.28352-.14016-.48832v-5.36896h5.14432l3.43808 5.48096c.09472.0928.13952.1952.13952.30656 0 .09344-.03136.15872-.09664.19584-.06464.03776-.21888.05632-.4608.05632v.33472h4.02432v-.33472c-.2784 0-.47936-.04672-.60032-.13952-.12288-.09344-.28416-.28864-.48832-.58816l-3.5232-5.45088c1.39776-.1856 2.4032-.62464 3.01824-1.31328.61568-.68992.92352-1.6224.92352-2.7968 0-1.32288-.4-2.33408-1.20192-3.03296-.8032-.69824-2.12416-1.04896-3.96992-1.04896h-9.36576v.336c.26112 0 .43712.0608.53056.18112.09344.12224.14016.2848.14016.4896v12.69312c0 .2048-.04672.36736-.14016.48832-.09344.1216-.26944.1824-.53056.1824v.33472h3.69088zm-.672-12.46784h5.98336c.65344 0 1.18912.04096 1.60704.12416.41856.08384.74944.2144.992.39168.2432.17792.41088.3968.50368.65792.0928.26176.13952.57728.13952.9504 0 .7456-.23232 1.33184-.69952 1.76-.46464.43008-1.2672.6432-2.4032.6432h-6.12288zm30.277248 13.33472h.336v-3.21536h-.336c0 .55936-.3264.83776-.97856.83776h-9.39328v-11.74144c0-.26048.04608-.45504.13888-.58688.09344-.12992.27008-.1952.53184-.1952v-.336h-3.69024v.336c.26112 0 .43712.0608.53056.18112.0928.1216.1408.2848.1408.4896v12.69312c0 .2048-.048.36736-.1408.48768-.09344.12224-.26944.18304-.53056.18304v.33472h12.4128c.65216 0 .97856.17664.97856.53184m19.038144-10.833152c-.3552-.90432-.85312-1.68192-1.49696-2.33472-.64192-.6528-1.42464-1.16032-2.34752-1.5232-.92352-.3648-1.9616-.54656-3.1168-.54656h-8.66688v.33664c.26048 0 .43712.05952.53184.18112.0928.1216.13888.2848.13888.48896v12.69312c0 .20544-.04608.368-.13888.48832-.09472.12224-.27136.1824-.53184.1824v.33536h9.19808c1.13664 0 2.13824-.18112 3.00352-.54592.86784-.36288 1.59488-.8704 2.18176-1.52384.58752-.65088 1.0304-1.42912 1.32864-2.3328.29824-.90432.44736-1.88736.44736-2.9504 0-1.0624-.17728-2.04544-.5312-2.94848m-2.992 7.0592c-.82048.9312-2.04992 1.39712-3.6896 1.39712h-5.92704v-11.01504h5.42272c1.73312 0 3.07072.46592 4.0128 1.3984.94016.93248 1.4112 2.30144 1.4112 4.1088 0 1.80928-.41024 3.17824-1.23008 4.11072m-91.417344 14.396416c-.07424.05376-.16768.08064-.28416.08064h-3.87584v-1.60192h2.27456c.15488 0 .27392.0256.35968.07552.08512.0512.12736.16448.12736.3424h.20864v-1.80928h-.20864c0 .17792-.04224.28736-.12736.33024-.08576.04352-.2048.06272-.35968.06272h-2.27456v-1.43808h3.75936c.16256 0 .27712.02176.3424.06464.06592.04224.09856.1056.09856.19136h.20864v-1.53216h-.20864c0 .08576-.03264.1536-.09856.20288-.06528.05184-.17984.07616-.3424.07616h-5.29152v.20864c.05376 0 .10304.01728.14592.05184.04224.03584.06336.08704.06336.15616v5.26912c0 .06912-.02112.1216-.06336.15616-.04288.03392-.09216.05248-.14592.05248v.20928h5.408c.11648 0 .20992.00704.28416.02304.07424.01472.11072.08128.11072.19648h.208v-1.58912h-.208c0 .0928-.03648.16576-.11072.2208m7.257792-4.74624c.20096 0 .30144.06912.30144.208v3.69088l-3.32992-3.45856c-.15552-.15424-.23168-.2624-.23168-.32384 0-.07744.03008-.11648.09216-.11648v-.20928h-1.98464v.20928c.14784 0 .2208.06912.2208.208v5.26912c0 .13888-.07296.20864-.2208.20864v.20864h1.71776v-.20864c-.17856 0-.26688-.06976-.26688-.20864v-3.85216l3.53856 3.6896c.12416.12416.18624.21248.18624.26688 0 .06912-.04992.10432-.15104.10432v.20864h1.88032v-.20864c-.1472 0-.2208-.06976-.2208-.20864v-5.26912c0-.13888.0736-.208.2208-.208v-.20928h-1.75232zm7.020352 5.476864v-4.61888h1.91488c.06912 0 .13632.01984.20288.05824.06528.03904.09792.11264.09792.2208h.20928v-1.62432h-.20928c0 .10752-.03264.18176-.09792.2208-.06656.0384-.13376.0576-.20288.0576h-5.15328c-.06848 0-.13632-.0192-.20224-.0576-.06592-.03904-.09792-.11328-.09792-.2208h-.20992v1.62432h.20992c0-.10816.032-.18176.09792-.2208.06592-.0384.13376-.05824.20224-.05824h1.91552v4.61888c0 .06912-.0224.12096-.064.15616-.04288.03456-.09152.05248-.14528.05248v.20864h1.78688v-.20864c-.1696 0-.25472-.06912-.25472-.20864m9.578688-.730624c-.07424.05376-.16832.08064-.2848.08064h-3.8752v-1.60192h2.27392c.15552 0 .27392.0256.36032.07552.08512.0512.12672.16448.12672.3424h.20928v-1.80928h-.20928c0 .17792-.0416.28736-.12672.33024-.0864.04352-.2048.06272-.36032.06272h-2.27392v-1.43808h3.75872c.16384 0 .27712.02176.3424.06464.06656.04224.0992.1056.0992.19136h.20928v-1.53216h-.20928c0 .08576-.03264.1536-.0992.20288-.06528.05184-.17856.07616-.3424.07616h-5.29088v.20864c.05376 0 .10304.01728.14528.05184.04288.03584.064.08704.064.15616v5.26912c0 .06912-.02112.1216-.064.15616-.04224.03392-.09152.05248-.14528.05248v.20928h5.40736c.11648 0 .21056.00704.2848.02304.07296.01472.11008.08128.11008.19648h.20864v-1.58912h-.20864c0 .0928-.03712.16576-.11008.2208m6.683136.905024c-.04992.02368-.11008.03456-.1792.03456v.20864h2.1696v-.20864c-.06336 0-.12992-.00704-.20352-.02304-.0736-.01536-.1376-.06144-.192-.13952l-1.54304-2.20416c.51136-.09344.91712-.2752 1.21856-.54592.30208-.27072.45184-.66112.45184-1.17184 0-.33344-.05696-.61312-.17344-.84224-.11584-.2272-.28224-.4128-.49856-.5568-.21696-.14272-.47616-.2464-.7776-.31296-.30144-.06528-.63872-.09856-1.00992-.09856h-3.968v.20928c.22464 0 .33664.06912.33664.20864v5.26848c0 .13952-.112.20864-.33664.20864v.20864h2.00768v-.20864c-.13184 0-.22272-.01792-.27328-.05184-.04992-.03584-.07488-.08768-.07488-.1568v-2.06528h1.65888l1.2768 1.80992c.0608.08512.10816.15232.13888.20288s.04608.09472.04608.13312c0 .03904-.02432.06976-.07488.09344m-.34304-3.2096c-.18496.04416-.41664.06464-.69568.06464h-2.00704v-1.71776h2.00704c.27904 0 .51072.0224.69568.064.18688.04352.33344.1024.4416.17984.10816.07808.1856.16832.23232.27264.04608.10496.06912.21888.06912.34176 0 .1248-.02304.23872-.06912.3424-.04672.10496-.12416.19584-.23232.27328s-.25472.13696-.4416.1792m3.847104-2.707904c-.06592-.03904-.09792-.11392-.09792-.22144h-.20928v1.62432h.20928c0-.1088.032-.18176.09792-.22016s.13376-.05824.20288-.05824h1.91552v4.61888c0 .06912-.0224.1216-.064.15616-.04288.03456-.09216.05248-.14592.05248v.20864h1.78688v-.20864c-.1696 0-.25472-.06976-.25472-.20864v-4.61888h1.91424c.06976 0 .1376.01984.20352.05824s.09856.11136.09856.22016h.20928v-1.62432h-.20928c0 .10752-.03264.1824-.09856.22144-.06592.0384-.13376.0576-.20352.0576h-5.152c-.06912 0-.13696-.0192-.20288-.0576m13.37376 5.650624-2.4128-4.7232c-.05568-.09984-.09664-.18176-.12352-.2432-.02688-.06208-.04096-.12416-.04096-.18624 0-.08512.02816-.1408.08192-.16768.05376-.02624.10816-.04864.16256-.064v-.20864h-1.9616v.20864c.06208.01536.11968.03904.17408.06912.05376.03136.08128.08512.08128.16256 0 .06208-.02112.13568-.06336.22144-.04352.08448-.09088.17728-.14592.27776l-2.14592 4.51392c-.05376.10816-.11072.20544-.16896.28992-.0576.08512-.13696.13568-.2368.15104v.20864h1.64736v-.20864c-.1472 0-.2208-.04288-.2208-.128 0-.06976.03904-.1856.11584-.34752l.41856-.82432h2.832l.43968.85888c.06272.12416.09216.22464.09216.30144 0 .04608-.02176.08064-.06976.10432-.04416.02368-.08384.0352-.11456.0352v.20864h2.0416v-.20864c-.08448-.03904-.15936-.0768-.22656-.11584-.06528-.03904-.1184-.10048-.15552-.1856zm-4.49216-1.85664 1.0912-2.15872.97536 2.15872zm8.077184-3.527744v-.20928h-1.92576v.20928c.20096 0 .30208.06912.30208.208v5.26912c0 .13888-.10112.20864-.30208.20864v.20864h1.92576v-.20864c-.20096 0-.30208-.06976-.30208-.20864v-5.26912c0-.13888.10112-.208.30208-.208m7.182784 0c.20096 0 .30144.06912.30144.208v3.69088l-3.32992-3.45856c-.15616-.15424-.23232-.2624-.23232-.32384 0-.07744.03136-.11648.0928-.11648v-.20928h-1.984v.20928c.14592 0 .21952.06912.21952.208v5.26912c0 .13888-.0736.20864-.21952.20864v.20864h1.71712v-.20864c-.17856 0-.26752-.06976-.26752-.20864v-3.85216l3.5392 3.6896c.12416.12416.18496.21248.18496.26688 0 .06912-.04928.10432-.1504.10432v.20864h1.87968v-.20864c-.1472 0-.2208-.06976-.2208-.20864v-5.26912c0-.13888.0736-.208.2208-.208v-.20928h-1.75104zm9.955328 1.624384v3.8528c0 .13888-.10432.20864-.31296.20864v.20864h1.82208v-.20864c-.06272 0-.11712-.01856-.1632-.05248-.04608-.0352-.06976-.08704-.06976-.15616v-5.29152c0-.06912.02368-.11904.06976-.14464.04608-.02752.10048-.04096.1632-.04096v-.20928h-2.1472v.20928c.09984 0 .1504.04224.1504.12736 0 .04608-.01344.09856-.04096.1568-.02688.0576-.06784.13696-.12096.23808l-1.67168 2.98176-1.65888-3.01632c-.0384-.06976-.07296-.13568-.10432-.19776s-.04608-.112-.04608-.1504c0-.04736.02112-.08128.06336-.10496.04224-.02304.0832-.03456.1216-.03456v-.20928h-2.16896v.20928c.06144 0 .1152.01344.16128.04096.04672.0256.0704.07552.0704.14464v5.29152c0 .06912-.02368.12096-.0704.15616-.04608.03392-.09984.05248-.16128.05248v.20864h1.74016v-.20864c-.2176 0-.32448-.06976-.32448-.20864v-3.86496h.02304l2.28544 4.28224h.0352l2.3328-4.27008zm9.219648 3.121856c-.07296.05376-.16832.08064-.28544.08064h-3.87456v-1.60192h2.27456c.1536 0 .27456.0256.35904.07552.08576.0512.128.16448.128.3424h.20928v-1.80928h-.20928c0 .17792-.04224.28736-.128.33024-.08448.04352-.20544.06272-.35904.06272h-2.27456v-1.43808h3.75872c.16384 0 .27648.02176.34304.06464.06528.04224.0992.1056.0992.19136h.208v-1.53216h-.208c0 .08576-.03392.1536-.0992.20288-.06656.05184-.1792.07616-.34304.07616h-5.29024v.20864c.0544 0 .10176.01728.14464.05184.04224.03584.06336.08704.06336.15616v5.26912c0 .06912-.02112.1216-.06336.15616-.04288.03392-.09024.05248-.14464.05248v.20928h5.40608c.11712 0 .21248.00704.28544.02304.07296.01472.11008.08128.11008.19648h.20928v-1.58912h-.20928c0 .0928-.03712.16576-.11008.2208m7.258176-4.74624c.20096 0 .30144.06912.30144.208v3.69088l-3.32992-3.45856c-.15616-.15424-.2336-.2624-.2336-.32384 0-.07744.032-.11648.09408-.11648v-.20928h-1.98464v.20928c.1472 0 .22016.06912.22016.208v5.26912c0 .13888-.07296.20864-.22016.20864v.20864h1.71776v-.20864c-.17856 0-.26752-.06976-.26752-.20864v-3.85216l3.53984 3.6896c.12352.12416.18432.21248.18432.26688 0 .06912-.04928.10432-.14976.10432v.20864h1.87968v-.20864c-.14784 0-.22144-.06976-.22144-.20864v-5.26912c0-.13888.0736-.208.22144-.208v-.20928h-1.75168zm9.137792-.26624c-.06656.0384-.1344.0576-.20352.0576h-5.152c-.06976 0-.1376-.0192-.20288-.0576-.06656-.03904-.0992-.11392-.0992-.22144h-.20928v1.62432h.20928c0-.1088.03264-.18176.0992-.22016.06528-.0384.13312-.05824.20288-.05824h1.91488v4.61888c0 .06912-.0224.1216-.06464.15616-.0416.03456-.09088.05248-.14464.05248v.20864h1.78688v-.20864c-.17024 0-.25536-.06976-.25536-.20864v-4.61888h1.91488c.06912 0 .13696.01984.20352.05824.06528.0384.09792.11136.09792.22016h.20928v-1.62432h-.20928c0 .10752-.03264.1824-.09792.22144" fill="#fff" transform="translate(41 111)"/></g></svg>