<svg height="124" viewBox="0 0 128 124" width="128" xmlns="http://www.w3.org/2000/svg" xmlns:xlink="http://www.w3.org/1999/xlink"><linearGradient id="a" x1="50%" x2="50%" y1="3.410051%" y2="100%"><stop offset="0" stop-color="#000f24" stop-opacity=".9"/><stop offset="1" stop-color="#011b3e"/></linearGradient><linearGradient id="b"><stop offset="0" stop-color="#c8aa82"/><stop offset=".399718033" stop-color="#7c6341"/><stop offset="1" stop-color="#afa286"/></linearGradient><linearGradient id="c" x1="46.554259%" x2="77.056787%" xlink:href="#b" y1="0%" y2="133.886978%"/><linearGradient id="d" x1="24.132775%" x2="253.115655%" xlink:href="#b" y1="11.876546%" y2="113.961228%"/><linearGradient id="e" x1="50%" x2="50%" y1="50.750897%" y2="100%"><stop offset="0" stop-color="#000f24"/><stop offset="1" stop-color="#011b3e"/></linearGradient><linearGradient id="f" x1="24.132775%" x2="253.115655%" xlink:href="#b" y1="19.458601%" y2="101.240513%"/><linearGradient id="g" x1="24.132775%" x2="253.115655%" xlink:href="#b" y1="49.742658%" y2="50.431752%"/><linearGradient id="h" x1="24.134962%" x2="253.098483%" xlink:href="#b" y1="0%" y2="133.886978%"/><linearGradient id="i" x1="-42.729576%" x2="89.800119%" y1="74.270422%" y2="245.956717%"><stop offset="0" stop-color="#a78c68"/><stop offset=".524440456" stop-color="#7c6341"/><stop offset="1" stop-color="#afa286"/></linearGradient><linearGradient id="j" x1="-61.943305%" x2="253.115655%" xlink:href="#b" y1="22.929763%" y2="72.416283%"/><linearGradient id="k" x1="84.779615%" x2="253.115655%" y1="44.857805%" y2="72.416283%"><stop offset="0" stop-color="#c8aa82"/><stop offset=".731462007" stop-color="#7c6341"/><stop offset="1" stop-color="#afa286"/></linearGradient><g fill="none" fill-rule="evenodd" transform="translate(1.923077 1.538462)"><g stroke-width="2.288462"><path d="m14.8015552 54.8266406 12.8733986 60.7492024 10.21807-1.845035-9.7776392-61.4231157z" fill="url(#a)" stroke="url(#c)"/><path d="m110.043782 54.8266406-12.8733988 60.7492024-10.2180699-1.845035 9.8169175-61.4231157z" fill="url(#a)" stroke="url(#c)"/><path d="m89.2587972 11.9404196c3.963972.6543217 9.6892867 1.8412307 13.6304338 2.8303217l-17.0656226 105.9772867c-8.8333427-1.415161-15.1863497-1.883077-23.3958042-1.871664h-.0913007c-8.2094545-.011413-14.5624615.456503-23.3958042 1.871664l-17.0694266-105.9772867c3.9449511-.989091 9.6664616-2.176 13.6304336-2.8303217zm-65.2758154 16.3302713 3.9753846 24.2973986-20.04811185 3.4808392c-2.40425175.4222657-4.69437763-1.1869091-5.10523077-3.5949651l-2.62489511-15.4298181c-.40324475-2.3776224 1.1793007-4.6373147 3.54931469-5.0671889zm76.8812752.0019021 20.249735 3.6824615c2.370014.4336784 3.952559 2.6933707 3.549314 5.0709931l-2.624895 15.4260139c-.410853 2.408056-2.700979 4.021035-5.101426 3.5949651l-20.120392-3.5683357z" fill="url(#a)" stroke="url(#d)"/><path d="m41.6165706 44.9186126c-2.6477203-16.7194406-5.2954405-25.8266853-7.9431608-42.54612589 18.9905454-3.00911888 38.3348811-3.00911888 57.3254266 0-2.6477203 16.71944059-5.2954406 25.82668529-7.9431609 42.54612589m-15.5119888-44.6175105 20.6681958 19.6791049m-31.4211356-19.6791049-19.7666014 19.6791049m20.6674349 23.7313343-19.7970349-18.8497903m30.5499748 18.8497903 18.1802517-18.1003637" fill="url(#e)" stroke="url(#f)"/><path d="m28.0732531 48.4405371s15.0874406-4.8503497 34.2605875-4.9226294h.0913007c19.1731468.0722797 34.2643916 4.9226294 34.2643916 4.9226294" fill="url(#a)" stroke="url(#g)"/></g><path d="m78.833779 65.0915021c-.369007-.3956364-.7494266-.7760559-1.1450629-1.1450629-4.0134266 3.7395244-9.3887553 6.0448671-15.3080839 6.0448671-5.9193287 0-11.2908532-2.3053427-15.3080839-6.0448671-.3956364.369007-.776056.7494265-1.145063 1.1450629 3.7395245 4.0172308 6.0448671 9.3887552 6.0448671 15.3080839 0 5.9231329-2.3053426 11.2908532-6.0448671 15.3118881.369007.3918322.7494266.7722518 1.145063 1.1412588 4.0172307-3.7395245 9.3887552-6.0448672 15.3080839-6.0448672 5.9193286 0 11.2946573 2.3053427 15.3080839 6.0448672.3956363-.369007.7760559-.7494266 1.1450629-1.1412588-3.7395245-4.0210349-6.0448671-9.3887552-6.0448671-15.3118881 0-5.9193287 2.3053426-11.2908531 6.0448671-15.3080839z" stroke="#231f20" stroke-width="2.853147"/><path d="m62.3802517 90.8063441c5.9231329 0 11.2946574 2.3091468 15.308084 6.0448671-4.0134266 3.7395248-9.3849511 6.0486718-15.308084 6.0486718-5.9193286 0-11.2908531-2.309147-15.3080839-6.0486718 4.0172308-3.7357203 9.3887553-6.0448671 15.3080839-6.0448671zm16.4535273-25.714842c3.7395245 4.0172308 6.0448672 9.3887552 6.0448672 15.3080839 0 5.9231329-2.3053427 11.2908532-6.0448672 15.3118881-3.7395245-4.0210349-6.0448671-9.3887552-6.0448671-15.3118881 0-5.9193287 2.3053426-11.2908531 6.0448671-15.3080839zm-32.9059133 0c3.7395245 4.0172308 6.0448672 9.3887552 6.0448672 15.3080839 0 5.9231329-2.3053427 11.2908532-6.0448672 15.3118881-3.7395244-4.0210349-6.0448671-9.3887552-6.0448671-15.3118881 0-5.9193287 2.3053427-11.2908531 6.0448671-15.3080839zm16.4535273-7.1891692c5.9193287 0 11.2908532 2.3053426 15.3080839 6.0448671-4.0172307 3.7357203-9.3887552 6.0448671-15.3080839 6.0448671-5.9231329 0-11.2946573-2.3091468-15.3080839-6.0448671 4.0134266-3.7395245 9.384951-6.0448671 15.3080839-6.0448671z" stroke="url(#h)" stroke-width="2.288462"/><path d="m62.3353622 11.2012643-11.3174825 11.3174826 11.3174825 11.3174825 11.3174826-11.3174825z" stroke="url(#i)" stroke-width="2.853147"/><path d="m98.4379413 44.0641902 14.5282237 2.525986c.874965.1521679 1.70428-.4336783 1.852643-1.3086433l.738014-4.3405874c.148364-.8711609-.437482-1.7004756-1.308643-1.845035l-7.695888-1.3428811" stroke="url(#j)" stroke-width="2.288462"/><path d="m26.4073958 44.0641902-14.5282238 2.525986c-.874965.1521679-1.7042797-.4336783-1.8526433-1.3086433l-.73801401-4.3405874c-.14836364-.8711609.43748251-1.7004756 1.30864331-1.845035l7.6958882-1.3428811" stroke="url(#k)" stroke-width="2.288462"/></g></svg>