<?xml version="1.0" encoding="UTF-8"?>
<svg width="321px" height="34px" viewBox="0 0 321 34" version="1.1" xmlns="http://www.w3.org/2000/svg" xmlns:xlink="http://www.w3.org/1999/xlink">
    <title>Group 12 Copy 2</title>
    <defs>
        <linearGradient x1="9.03037792%" y1="245.956717%" x2="89.8001189%" y2="245.956717%" id="linearGradient-1">
            <stop stop-color="#A78C68" stop-opacity="0" offset="0%"></stop>
            <stop stop-color="#7C6341" offset="52.4440456%"></stop>
            <stop stop-color="#AFA286" stop-opacity="0" offset="100%"></stop>
        </linearGradient>
    </defs>
    <g id="About-WE" stroke="none" stroke-width="1" fill="none" fill-rule="evenodd">
        <g id="WE_aboutus-Copy-3" transform="translate(1.000000, -300.000000)">
            <g id="Group-12-Copy-2" transform="translate(-1.000000, 300.000000)">
                <g id="Group-5-Copy" transform="translate(160.500000, 17.000000) rotate(-180.000000) translate(-160.500000, -17.000000) translate(0.000000, 0.000000)" fill-rule="nonzero">
                    <g id="Group-38-Copy" transform="translate(159.000000, 17.000000) rotate(-270.000000) translate(-159.000000, -17.000000) translate(142.000000, -6.000000)" fill="#B0936D">
                        <g id="Group-11" transform="translate(-0.000000, 0.000000)">
                            <path d="M5,5 L28.9022222,5.09777778 L29,29 L5.09777778,28.9022222 L5,5 Z M5.501,5.501 L5.595,28.404 L28.498,28.498 L28.404,5.595 L5.501,5.501 Z" id="Rectangle" transform="translate(17.000000, 17.000000) rotate(-315.000000) translate(-17.000000, -17.000000) "></path>
                            <path d="M5,17 L28.9022222,17.0977778 L29,41 L5.09777778,40.9022222 L5,17 Z M5.501,17.501 L5.595,40.404 L28.498,40.498 L28.404,17.595 L5.501,17.501 Z" id="Rectangle-Copy-9" transform="translate(17.000000, 29.000000) rotate(-315.000000) translate(-17.000000, -29.000000) "></path>
                        </g>
                    </g>
                    <polygon id="Line-3" fill="url(#linearGradient-1)" points="320.875 16.125 320.875 16.875 0.125 16.875 0.125 16.125"></polygon>
                </g>
                <polyline id="Path-5-Copy" stroke="#B0936D" stroke-width="0.5" transform="translate(203.750000, 17.000000) scale(-1, 1) translate(-203.750000, -17.000000) " points="231.5 8.5 184.5 8.5 176 17 184.5 25.5 231.5 25.5"></polyline>
                <polygon id="Path-5-Copy-2" fill="#B0936D" fill-rule="nonzero" points="148.5 8.25 148.5 8.75 101.602 8.75 93.353 17 101.603 25.25 148.5 25.25 148.5 25.75 101.5 25.75 101.323223 25.6767767 92.6464466 17 101.323223 8.3232233 101.5 8.25"></polygon>
            </g>
        </g>
    </g>
</svg>