<?xml version="1.0" encoding="UTF-8"?>
<svg width="802px" height="491px" viewBox="0 0 802 491" version="1.1" xmlns="http://www.w3.org/2000/svg" xmlns:xlink="http://www.w3.org/1999/xlink">
    <title>Group 25</title>
    <g id="What's-New" stroke="none" stroke-width="1" fill="none" fill-rule="evenodd">
        <g id="Group-25">
            <g id="Group-9">
                <path d="M786,10 L786,432 L14,432 L14,10 L786,10 Z M785.2,10.8 L14.8,10.8 L14.8,431.2 L785.2,431.2 L785.2,10.8 Z" id="Rectangle" fill="#B0936D" fill-rule="nonzero"></path>
                <g id="Group-2" transform="translate(399.620019, 394.000000)" stroke="#B0936D" stroke-linecap="square" stroke-width="0.802500039">
                    <line x1="2.1650005" y1="0.535000026" x2="1.63000047" y2="78.9125039" id="Line"></line>
                </g>
                <path d="M802,-3.17612603e-11 L802,369.982 L729.722108,442.295545 L730.427,443 L0,443 L0,72.542855 L72.5079114,-3.17612603e-11 L802,-3.17612603e-11 Z M801.197,0.802 L72.84,0.802 L0.802,72.875 L0.802,442.197 L728.685,442.197 L801.197,369.649 L801.197,0.802 Z" id="Combined-Shape" fill="#B0936D" fill-rule="nonzero"></path>
            </g>
            <path d="M407.840001,475 L407.840001,487.840001 L395,487.840001 L395,475 L407.840001,475 Z M407.037,475.802 L395.802,475.802 L395.802,487.037 L407.037,487.037 L407.037,475.802 Z" id="Rectangle" fill="#B0936D" fill-rule="nonzero" transform="translate(401.420000, 481.420000) rotate(-45.000000) translate(-401.420000, -481.420000) "></path>
        </g>
    </g>
</svg>