<svg height="27" viewBox="0 0 40 27" width="40" xmlns="http://www.w3.org/2000/svg"><g fill="#8a7454" fill-rule="evenodd"><path d="m0 21.666667h40v5h-40z"/><path d="m40 22.214876v-2.040411c-.0576935-.5826217-.1490649-1.1616479-.2736835-1.7343493-1.19559-5.1952559-4.7570412-9.58498196-9.6841858-11.93640447l3.0526238-5.46830152c.1241024-.21869059.1183999-.48493757-.0149596-.69844826-.1333594-.2135107-.3741154-.34184775-.6315773-.33681891-.257462.00533099-.4925154.14324093-.6166178.36193154l-3.094729 5.6315344c-5.5810481-2.28790903-11.882994-2.27317361-17.452587.04080822l-3.11578153-5.65193851c-.12410247-.21869059-.35915584-.35660051-.61661778-.36178042-.25746194-.00517992-.49821786.12315713-.63157733.33666781-.13335948.21351068-.13906203.47975765-.01495956.69844824l3.07367637 5.50910974c-4.66312141 2.2368216-8.11800925 6.29804724-9.49471262 11.16104824-.32494319 1.2542426-.48759586 2.5427994-.4842611 3.8359727v.5917192zm-10.8841828-12.1404455c.7682058-.0082732 1.4655288.4338604 1.7654421 1.1193682s.1430459 1.4786864-.3971479 2.0081236c-.5401937.5294372-1.3567767.6903253-2.0673776.4073272-.7106008-.2829981-1.1745486-.9538599-1.174596-1.6984491-.0000641-1.0062839.8354787-1.825189 1.8736794-1.8363699zm-18.7157417 0c.7682058-.0082732 1.4655288.4338604 1.7654421 1.1193682s.1430459 1.4786864-.3971479 2.0081236c-.5401937.5294372-1.3567768.6903253-2.06737761.4073272-.71060084-.2829981-1.17454857-.9538599-1.174596-1.6984491-.00006409-1.0062839.83547864-1.825189 1.87367941-1.8363699z"/></g></svg>