<svg height="58" viewBox="0 0 56 58" width="56" xmlns="http://www.w3.org/2000/svg" xmlns:xlink="http://www.w3.org/1999/xlink"><mask id="a" fill="#fff"><path d="m.965.667h1.692v1.745h-1.692z" fill="#fff" fill-rule="evenodd"/></mask><g fill="#fff" fill-rule="evenodd" transform="translate(0 -.667)"><path d="m22.9298 38.5985-2.3296302-5.9829139-3.6103698-9.2720861h2.849v.145l-.231.239c-.04.043-.071.094-.091.155-.019.064-.03.136-.03.22 0 .068.005.135.015.196.011.063.026.125.045.189l3.543 9.112 4.763-10.517 4.782 10.342 3.403-8.927c.019-.063.036-.127.045-.193.01-.065.015-.134.015-.202 0-.084-.009-.156-.03-.22-.02-.061-.05-.112-.09-.155l-.221-.239v-.145h2.798l-5.81 15.255-4.932-11.067z"/><path d="m2.6568 1.5399c0 .481-.379.872-.846.872-.466 0-.846-.391-.846-.872 0-.482.38-.873.846-.873.467 0 .846.391.846.873" mask="url(#a)" transform="translate(26)"/><path d="m38.274 5.367c0 .482-.378.873-.846.873-.467 0-.845-.391-.845-.873s.378-.872.845-.872c.468 0 .846.39.846.872m9.4112 4.3408c0 .482-.379.873-.846.873s-.846-.391-.846-.873c0-.481.379-.872.846-.872s.846.391.846.872m4.1782 9.7266c0 .482-.378.873-.846.873-.467 0-.846-.391-.846-.873 0-.481.379-.872.846-.872.468 0 .846.391.846.872m3.6806 9.9385c0 .482-.378.872-.846.872-.467 0-.845-.39-.845-.872s.378-.872.845-.872c.468 0 .846.39.846.872m-3.708 9.9277c0 .482-.379.872-.846.872s-.846-.39-.846-.872.379-.873.846-.873.846.391.846.873m-4.2055 9.7139c0 .482-.379.873-.846.873s-.846-.391-.846-.873c0-.481.379-.872.846-.872s.846.391.846.872m-9.4229 4.3135c0 .481-.379.872-.846.872s-.846-.391-.846-.872c0-.482.379-.873.846-.873s.846.391.846.873m6.645-40.7041c0 .482-.378.873-.846.873-.467 0-.845-.391-.845-.873 0-.481.378-.872.845-.872.468 0 .846.391.846.872m3.0401 6.6328c0 .482-.378.873-.846.873-.467 0-.844-.391-.844-.873s.377-.872.844-.872c.468 0 .846.39.846.872m1.2768 3.1943c0 .481-.379.872-.846.872s-.846-.391-.846-.872c0-.482.379-.873.846-.873s.846.391.846.873m2.3745 6.916c0 .482-.379.873-.846.873s-.845-.391-.845-.873c0-.481.378-.872.845-.872s.846.391.846.872m-2.394 6.9092c0 .482-.378.873-.846.873-.467 0-.845-.391-.845-.873 0-.481.378-.872.845-.872.468 0 .846.391.846.872m-1.2852 3.1904c0 .482-.379.872-.846.872s-.846-.39-.846-.872.379-.873.846-.873.846.391.846.873m-3.059 6.6241c0 .482-.379.872-.846.872s-.846-.39-.846-.872.379-.873.846-.873.846.391.846.873m-6.4258 3.1386c0 .482-.379.872-.846.872s-.846-.39-.846-.872.379-.873.846-.873.846.391.846.873m-3.0943 1.3174c0 .482-.379.872-.846.872s-.846-.39-.846-.872.379-.873.846-.873.846.391.846.873m.0591-42.4072c0 .482-.379.872-.846.872s-.846-.39-.846-.872.379-.873.846-.873.846.391.846.873m3.0908 1.3262c0 .482-.379.873-.846.873s-.846-.391-.846-.873c0-.481.379-.872.846-.872s.846.391.846.872m-19.5791-.0284c0 .482-.379.872-.846.872s-.846-.39-.846-.872.379-.873.846-.873.846.391.846.873m-6.4257 3.1387c0 .482-.378.872-.846.872-.467 0-.846-.39-.846-.872s.379-.873.846-.873c.468 0 .846.391.846.873m-2.8252-2.9248c0 .482-.378.873-.846.873-.467 0-.846-.391-.846-.873 0-.481.379-.872.846-.872.468 0 .846.391.846.872m-4.2051 9.7148c0 .482-.378.872-.846.872-.467 0-.845-.39-.845-.872s.378-.873.845-.873c.468 0 .846.391.846.873m3.9712-.166c0 .481-.378.872-.846.872-.467 0-.846-.391-.846-.872 0-.482.379-.873.846-.873.468 0 .846.391.846.873m-1.2852 3.1895c0 .482-.379.873-.846.873s-.846-.391-.846-.873c0-.481.379-.872.846-.872s.846.391.846.872m-2.394 6.9092c0 .482-.379.873-.846.873s-.846-.391-.846-.873c0-.481.379-.872.846-.872s.846.391.846.872m-4.0005-.0059c0 .482-.379.873-.846.873s-.846-.391-.846-.873.379-.872.846-.872.846.39.846.872m3.6807 9.9385c0 .482-.378.873-.846.873-.467 0-.846-.391-.846-.873 0-.481.379-.872.846-.872.468 0 .846.391.846.872m4.1782 9.7265c0 .482-.379.873-.846.873s-.846-.391-.846-.873c0-.481.379-.872.846-.872s.846.391.846.872m9.4111 4.3409c0 .482-.378.873-.846.873-.467 0-.846-.391-.846-.873 0-.481.379-.872.846-.872.468 0 .846.391.846.872m9.6177 3.8291c0 .481-.379.872-.846.872s-.846-.391-.846-.872c0-.482.379-.873.846-.873s.846.391.846.873m-20.5127-20.9121c0 .481-.378.872-.846.872-.467 0-.846-.391-.846-.872 0-.482.379-.873.846-.873.468 0 .846.391.846.873m1.2764 3.1933c0 .482-.379.873-.846.873s-.846-.391-.846-.873c0-.481.379-.872.846-.872s.846.391.846.872m3.0405 6.6328c0 .482-.379.872-.846.872s-.846-.39-.846-.872.379-.873.846-.873.846.391.846.873m6.417 3.1582c0 .482-.378.872-.846.872-.467 0-.845-.39-.845-.872s.378-.872.845-.872c.468 0 .846.39.846.872m3.0903 1.3272c0 .481-.378.872-.846.872-.467 0-.845-.391-.845-.872 0-.482.378-.873.845-.873.468 0 .846.391.846.873m6.6939 2.4707c0 .482-.379.872-.846.872s-.846-.39-.846-.872.379-.872.846-.872.846.39.846.872m-6.6343-44.878c0 .481-.379.872-.846.872s-.846-.391-.846-.872c0-.482.379-.873.846-.873s.846.391.846.873m-2.9219-2.7812c0 .482-.379.873-.846.873s-.846-.391-.846-.873.379-.872.846-.872.846.39.846.872m9.6221.3301c0 .482-.379.873-.846.873s-.846-.391-.846-.873.379-.872.846-.872.846.39.846.872m.2202 3.5371c0 .611-.48 1.106-1.071 1.106-.592 0-1.072-.495-1.072-1.106s.48-1.106 1.072-1.106c.591 0 1.071.495 1.071 1.106m4.02 1.4297c0 .611-.479 1.106-1.071 1.106s-1.072-.495-1.072-1.106.48-1.106 1.072-1.106 1.071.495 1.071 1.106m5.9439 2.5517c0 .611-.479 1.105-1.071 1.105s-1.072-.494-1.072-1.105.48-1.106 1.072-1.106 1.071.495 1.071 1.106m3.8164 1.9336c0 .611-.48 1.106-1.071 1.106-.592 0-1.072-.495-1.072-1.106s.48-1.105 1.072-1.105c.591 0 1.071.494 1.071 1.105m1.8628 3.9453c0 .611-.479 1.106-1.071 1.106s-1.072-.495-1.072-1.106.48-1.106 1.072-1.106 1.071.495 1.071 1.106m2.455 6.1426c0 .611-.48 1.106-1.071 1.106-.592 0-1.072-.495-1.072-1.106s.48-1.106 1.072-1.106c.591 0 1.071.495 1.071 1.106m1.3741 4.1533c0 .611-.48 1.106-1.071 1.106-.592 0-1.072-.495-1.072-1.106s.48-1.106 1.072-1.106c.591 0 1.071.495 1.071 1.106m-1.3863 4.1495c0 .611-.479 1.105-1.071 1.105s-1.072-.494-1.072-1.105.48-1.106 1.072-1.106 1.071.495 1.071 1.106m-2.4717 6.1347c0 .611-.48 1.106-1.071 1.106-.592 0-1.072-.495-1.072-1.106s.48-1.105 1.072-1.105c.591 0 1.071.494 1.071 1.105m-1.873 3.9395c0 .611-.48 1.106-1.071 1.106-.592 0-1.072-.495-1.072-1.106s.48-1.105 1.072-1.105c.591 0 1.071.494 1.071 1.105m-3.8223 1.9228c0 .611-.48 1.106-1.071 1.106-.592 0-1.072-.495-1.072-1.106s.48-1.105 1.072-1.105c.591 0 1.071.494 1.071 1.105m-5.9507 2.5342c0 .611-.48 1.106-1.071 1.106-.592 0-1.072-.495-1.072-1.106s.48-1.106 1.072-1.106c.591 0 1.071.495 1.071 1.106m-4.0239 1.418c0 .61-.479 1.105-1.071 1.105s-1.072-.495-1.072-1.105c0-.611.48-1.106 1.072-1.106s1.071.495 1.071 1.106m-4.0195-1.4307c0 .611-.48 1.106-1.071 1.106-.592 0-1.072-.495-1.072-1.106s.48-1.105 1.072-1.105c.591 0 1.071.494 1.071 1.105m-5.9439-2.5508c0 .611-.48 1.106-1.071 1.106-.592 0-1.072-.495-1.072-1.106s.48-1.106 1.072-1.106c.591 0 1.071.495 1.071 1.106m-3.8164-1.9345c0 .611-.479 1.106-1.071 1.106s-1.072-.495-1.072-1.106c0-.61.48-1.105 1.072-1.105s1.071.495 1.071 1.105m-1.8628-3.9444c0 .611-.48 1.105-1.071 1.105-.592 0-1.072-.494-1.072-1.105s.48-1.106 1.072-1.106c.591 0 1.071.495 1.071 1.106m-2.455-6.1426c0 .61-.479 1.105-1.071 1.105s-1.072-.495-1.072-1.105c0-.611.48-1.106 1.072-1.106s1.071.495 1.071 1.106m-1.3736-4.1533c0 .61-.48 1.105-1.071 1.105-.592 0-1.072-.495-1.072-1.105 0-.611.48-1.106 1.072-1.106.591 0 1.071.495 1.071 1.106m15.5034-18.6816c0 .611-.479 1.106-1.071 1.106s-1.072-.495-1.072-1.106c0-.61.48-1.105 1.072-1.105s1.071.495 1.071 1.105m-5.9501 2.5342c0 .61-.48 1.106-1.071 1.106-.592 0-1.072-.496-1.072-1.106s.48-1.105 1.072-1.105c.591 0 1.071.495 1.071 1.105m-3.8223 1.9228c0 .611-.48 1.106-1.071 1.106-.592 0-1.072-.495-1.072-1.106s.48-1.106 1.072-1.106c.591 0 1.071.495 1.071 1.106m-1.8735 3.9395c0 .611-.48 1.106-1.071 1.106-.592 0-1.072-.495-1.072-1.106 0-.61.48-1.105 1.072-1.105.591 0 1.071.495 1.071 1.105m-2.4717 6.1357c0 .611-.48 1.105-1.071 1.105-.592 0-1.072-.494-1.072-1.105s.48-1.106 1.072-1.106c.591 0 1.071.495 1.071 1.106m18.7568-12.0996c0 .965-.757 1.746-1.692 1.746-.933 0-1.69-.781-1.69-1.746 0-.964.757-1.746 1.69-1.746.935 0 1.692.782 1.692 1.746m-11.1572 4.751c0 .965-.757 1.746-1.692 1.746-.933 0-1.691-.781-1.691-1.746 0-.964.758-1.746 1.691-1.746.935 0 1.692.782 1.692 1.746m-4.6353 11.5029c0 .964-.757 1.746-1.691 1.746s-1.691-.782-1.691-1.746.757-1.746 1.691-1.746 1.691.782 1.691 1.746m26.9361-11.4687c0 .964-.757 1.746-1.691 1.746s-1.691-.782-1.691-1.746c0-.965.757-1.746 1.691-1.746s1.691.781 1.691 1.746m4.6025 11.5156c0 .965-.757 1.746-1.692 1.746-.933 0-1.69-.781-1.69-1.746 0-.964.757-1.746 1.69-1.746.935 0 1.692.782 1.692 1.746m-4.6348 11.5029c0 .965-.757 1.746-1.691 1.746-.935 0-1.691-.781-1.691-1.746 0-.964.756-1.746 1.691-1.746.934 0 1.691.782 1.691 1.746m-11.1572 4.751c0 .964-.757 1.746-1.691 1.746s-1.691-.782-1.691-1.746.757-1.746 1.691-1.746 1.691.782 1.691 1.746m-11.144-4.7842c0 .965-.757 1.746-1.691 1.746s-1.691-.781-1.691-1.746c0-.964.757-1.746 1.691-1.746s1.691.782 1.691 1.746"/></g></svg>