<?xml version="1.0" encoding="UTF-8"?>
<svg width="56px" height="58px" viewBox="0 0 56 58" version="1.1" xmlns="http://www.w3.org/2000/svg" xmlns:xlink="http://www.w3.org/1999/xlink">
    <!-- Generator: Sketch 64 (93537) - https://sketch.com -->
    <title>Group</title>
    <desc>Created with Sketch.</desc>
    <defs>
        <polygon id="path-1" points="0.9648 0.667 2.6568 0.667 2.6568 2.4119 0.9648 2.4119"></polygon>
    </defs>
    <g id="Symbol" stroke="none" stroke-width="1" fill="none" fill-rule="evenodd">
        <g id="navbar" transform="translate(-26.000000, -23.000000)">
            <g id="Group" transform="translate(26.000000, 22.333100)">
                <path d="M22.9298,38.5985 L16.9898,23.3435 L19.8388,23.3435 L19.8388,23.4885 L19.6078,23.7275 C19.5678,23.7705 19.5368,23.8215 19.5168,23.8825 C19.4978,23.9465 19.4868,24.0185 19.4868,24.1025 C19.4868,24.1705 19.4918,24.2375 19.5018,24.2985 C19.5128,24.3615 19.5278,24.4235 19.5468,24.4875 L23.0898,33.5995 L27.8528,23.0825 L32.6348,33.4245 L36.0378,24.4975 C36.0568,24.4345 36.0738,24.3705 36.0828,24.3045 C36.0928,24.2395 36.0978,24.1705 36.0978,24.1025 C36.0978,24.0185 36.0888,23.9465 36.0678,23.8825 C36.0478,23.8215 36.0178,23.7705 35.9778,23.7275 L35.7568,23.4885 L35.7568,23.3435 L38.5548,23.3435 L32.7448,38.5985 L27.8128,27.5315 L22.9298,38.5985 Z" id="Fill-1" fill="#FFFFFF"></path>
                <g id="Group-5" transform="translate(26.000000, 0.000000)">
                    <mask id="mask-2" fill="white">
                        <use xlink:href="#path-1"></use>
                    </mask>
                    <g id="Clip-4"></g>
                    <path d="M2.6568,1.5399 C2.6568,2.0209 2.2778,2.4119 1.8108,2.4119 C1.3448,2.4119 0.9648,2.0209 0.9648,1.5399 C0.9648,1.0579 1.3448,0.6669 1.8108,0.6669 C2.2778,0.6669 2.6568,1.0579 2.6568,1.5399" id="Fill-3" fill="#FFFFFF" mask="url(#mask-2)"></path>
                </g>
                <path d="M38.274,5.367 C38.274,5.849 37.896,6.24 37.428,6.24 C36.961,6.24 36.583,5.849 36.583,5.367 C36.583,4.885 36.961,4.495 37.428,4.495 C37.896,4.495 38.274,4.885 38.274,5.367" id="Fill-6" fill="#FFFFFF"></path>
                <path d="M47.6852,9.7078 C47.6852,10.1898 47.3062,10.5808 46.8392,10.5808 C46.3722,10.5808 45.9932,10.1898 45.9932,9.7078 C45.9932,9.2268 46.3722,8.8358 46.8392,8.8358 C47.3062,8.8358 47.6852,9.2268 47.6852,9.7078" id="Fill-8" fill="#FFFFFF"></path>
                <path d="M51.8634,19.4344 C51.8634,19.9164 51.4854,20.3074 51.0174,20.3074 C50.5504,20.3074 50.1714,19.9164 50.1714,19.4344 C50.1714,18.9534 50.5504,18.5624 51.0174,18.5624 C51.4854,18.5624 51.8634,18.9534 51.8634,19.4344" id="Fill-10" fill="#FFFFFF"></path>
                <path d="M55.544,29.3729 C55.544,29.8549 55.166,30.2449 54.698,30.2449 C54.231,30.2449 53.853,29.8549 53.853,29.3729 C53.853,28.8909 54.231,28.5009 54.698,28.5009 C55.166,28.5009 55.544,28.8909 55.544,29.3729" id="Fill-12" fill="#FFFFFF"></path>
                <path d="M51.836,39.3006 C51.836,39.7826 51.457,40.1726 50.99,40.1726 C50.523,40.1726 50.144,39.7826 50.144,39.3006 C50.144,38.8186 50.523,38.4276 50.99,38.4276 C51.457,38.4276 51.836,38.8186 51.836,39.3006" id="Fill-14" fill="#FFFFFF"></path>
                <path d="M47.6305,49.0145 C47.6305,49.4965 47.2515,49.8875 46.7845,49.8875 C46.3175,49.8875 45.9385,49.4965 45.9385,49.0145 C45.9385,48.5335 46.3175,48.1425 46.7845,48.1425 C47.2515,48.1425 47.6305,48.5335 47.6305,49.0145" id="Fill-16" fill="#FFFFFF"></path>
                <path d="M38.2076,53.328 C38.2076,53.809 37.8286,54.2 37.3616,54.2 C36.8946,54.2 36.5156,53.809 36.5156,53.328 C36.5156,52.846 36.8946,52.455 37.3616,52.455 C37.8286,52.455 38.2076,52.846 38.2076,53.328" id="Fill-18" fill="#FFFFFF"></path>
                <path d="M44.8526,12.6239 C44.8526,13.1059 44.4746,13.4969 44.0066,13.4969 C43.5396,13.4969 43.1616,13.1059 43.1616,12.6239 C43.1616,12.1429 43.5396,11.7519 44.0066,11.7519 C44.4746,11.7519 44.8526,12.1429 44.8526,12.6239" id="Fill-20" fill="#FFFFFF"></path>
                <path d="M47.8927,19.2567 C47.8927,19.7387 47.5147,20.1297 47.0467,20.1297 C46.5797,20.1297 46.2027,19.7387 46.2027,19.2567 C46.2027,18.7747 46.5797,18.3847 47.0467,18.3847 C47.5147,18.3847 47.8927,18.7747 47.8927,19.2567" id="Fill-22" fill="#FFFFFF"></path>
                <path d="M49.1695,22.451 C49.1695,22.932 48.7905,23.323 48.3235,23.323 C47.8565,23.323 47.4775,22.932 47.4775,22.451 C47.4775,21.969 47.8565,21.578 48.3235,21.578 C48.7905,21.578 49.1695,21.969 49.1695,22.451" id="Fill-24" fill="#FFFFFF"></path>
                <path d="M51.544,29.367 C51.544,29.849 51.165,30.24 50.698,30.24 C50.231,30.24 49.853,29.849 49.853,29.367 C49.853,28.886 50.231,28.495 50.698,28.495 C51.165,28.495 51.544,28.886 51.544,29.367" id="Fill-26" fill="#FFFFFF"></path>
                <path d="M49.15,36.2762 C49.15,36.7582 48.772,37.1492 48.304,37.1492 C47.837,37.1492 47.459,36.7582 47.459,36.2762 C47.459,35.7952 47.837,35.4042 48.304,35.4042 C48.772,35.4042 49.15,35.7952 49.15,36.2762" id="Fill-28" fill="#FFFFFF"></path>
                <path d="M47.8648,39.4666 C47.8648,39.9486 47.4858,40.3386 47.0188,40.3386 C46.5518,40.3386 46.1728,39.9486 46.1728,39.4666 C46.1728,38.9846 46.5518,38.5936 47.0188,38.5936 C47.4858,38.5936 47.8648,38.9846 47.8648,39.4666" id="Fill-30" fill="#FFFFFF"></path>
                <path d="M44.8058,46.0907 C44.8058,46.5727 44.4268,46.9627 43.9598,46.9627 C43.4928,46.9627 43.1138,46.5727 43.1138,46.0907 C43.1138,45.6087 43.4928,45.2177 43.9598,45.2177 C44.4268,45.2177 44.8058,45.6087 44.8058,46.0907" id="Fill-32" fill="#FFFFFF"></path>
                <path d="M38.38,49.2293 C38.38,49.7113 38.001,50.1013 37.534,50.1013 C37.067,50.1013 36.688,49.7113 36.688,49.2293 C36.688,48.7473 37.067,48.3563 37.534,48.3563 C38.001,48.3563 38.38,48.7473 38.38,49.2293" id="Fill-34" fill="#FFFFFF"></path>
                <path d="M35.2857,50.5467 C35.2857,51.0287 34.9067,51.4187 34.4397,51.4187 C33.9727,51.4187 33.5937,51.0287 33.5937,50.5467 C33.5937,50.0647 33.9727,49.6737 34.4397,49.6737 C34.9067,49.6737 35.2857,50.0647 35.2857,50.5467" id="Fill-36" fill="#FFFFFF"></path>
                <path d="M35.3448,8.1395 C35.3448,8.6215 34.9658,9.0115 34.4988,9.0115 C34.0318,9.0115 33.6528,8.6215 33.6528,8.1395 C33.6528,7.6575 34.0318,7.2665 34.4988,7.2665 C34.9658,7.2665 35.3448,7.6575 35.3448,8.1395" id="Fill-38" fill="#FFFFFF"></path>
                <path d="M38.4356,9.4657 C38.4356,9.9477 38.0566,10.3387 37.5896,10.3387 C37.1226,10.3387 36.7436,9.9477 36.7436,9.4657 C36.7436,8.9847 37.1226,8.5937 37.5896,8.5937 C38.0566,8.5937 38.4356,8.9847 38.4356,9.4657" id="Fill-40" fill="#FFFFFF"></path>
                <path d="M18.8565,9.4373 C18.8565,9.9193 18.4775,10.3093 18.0105,10.3093 C17.5435,10.3093 17.1645,9.9193 17.1645,9.4373 C17.1645,8.9553 17.5435,8.5643 18.0105,8.5643 C18.4775,8.5643 18.8565,8.9553 18.8565,9.4373" id="Fill-42" fill="#FFFFFF"></path>
                <path d="M12.4308,12.576 C12.4308,13.058 12.0528,13.448 11.5848,13.448 C11.1178,13.448 10.7388,13.058 10.7388,12.576 C10.7388,12.094 11.1178,11.703 11.5848,11.703 C12.0528,11.703 12.4308,12.094 12.4308,12.576" id="Fill-44" fill="#FFFFFF"></path>
                <path d="M9.6056,9.6512 C9.6056,10.1332 9.2276,10.5242 8.7596,10.5242 C8.2926,10.5242 7.9136,10.1332 7.9136,9.6512 C7.9136,9.1702 8.2926,8.7792 8.7596,8.7792 C9.2276,8.7792 9.6056,9.1702 9.6056,9.6512" id="Fill-46" fill="#FFFFFF"></path>
                <path d="M5.4005,19.366 C5.4005,19.848 5.0225,20.238 4.5545,20.238 C4.0875,20.238 3.7095,19.848 3.7095,19.366 C3.7095,18.884 4.0875,18.493 4.5545,18.493 C5.0225,18.493 5.4005,18.884 5.4005,19.366" id="Fill-48" fill="#FFFFFF"></path>
                <path d="M9.3717,19.2 C9.3717,19.681 8.9937,20.072 8.5257,20.072 C8.0587,20.072 7.6797,19.681 7.6797,19.2 C7.6797,18.718 8.0587,18.327 8.5257,18.327 C8.9937,18.327 9.3717,18.718 9.3717,19.2" id="Fill-50" fill="#FFFFFF"></path>
                <path d="M8.0865,22.3895 C8.0865,22.8715 7.7075,23.2625 7.2405,23.2625 C6.7735,23.2625 6.3945,22.8715 6.3945,22.3895 C6.3945,21.9085 6.7735,21.5175 7.2405,21.5175 C7.7075,21.5175 8.0865,21.9085 8.0865,22.3895" id="Fill-52" fill="#FFFFFF"></path>
                <path d="M5.6925,29.2987 C5.6925,29.7807 5.3135,30.1717 4.8465,30.1717 C4.3795,30.1717 4.0005,29.7807 4.0005,29.2987 C4.0005,28.8177 4.3795,28.4267 4.8465,28.4267 C5.3135,28.4267 5.6925,28.8177 5.6925,29.2987" id="Fill-54" fill="#FFFFFF"></path>
                <path d="M1.692,29.2928 C1.692,29.7748 1.313,30.1658 0.846,30.1658 C0.379,30.1658 -4.51083615e-13,29.7748 -4.51083615e-13,29.2928 C-4.51083615e-13,28.8108 0.379,28.4208 0.846,28.4208 C1.313,28.4208 1.692,28.8108 1.692,29.2928" id="Fill-56" fill="#FFFFFF"></path>
                <path d="M5.3727,39.2313 C5.3727,39.7133 4.9947,40.1043 4.5267,40.1043 C4.0597,40.1043 3.6807,39.7133 3.6807,39.2313 C3.6807,38.7503 4.0597,38.3593 4.5267,38.3593 C4.9947,38.3593 5.3727,38.7503 5.3727,39.2313" id="Fill-58" fill="#FFFFFF"></path>
                <path d="M9.5509,48.9578 C9.5509,49.4398 9.1719,49.8308 8.7049,49.8308 C8.2379,49.8308 7.8589,49.4398 7.8589,48.9578 C7.8589,48.4768 8.2379,48.0858 8.7049,48.0858 C9.1719,48.0858 9.5509,48.4768 9.5509,48.9578" id="Fill-60" fill="#FFFFFF"></path>
                <path d="M18.962,53.2987 C18.962,53.7807 18.584,54.1717 18.116,54.1717 C17.649,54.1717 17.27,53.7807 17.27,53.2987 C17.27,52.8177 17.649,52.4267 18.116,52.4267 C18.584,52.4267 18.962,52.8177 18.962,53.2987" id="Fill-62" fill="#FFFFFF"></path>
                <path d="M28.5797,57.1278 C28.5797,57.6088 28.2007,57.9998 27.7337,57.9998 C27.2667,57.9998 26.8877,57.6088 26.8877,57.1278 C26.8877,56.6458 27.2667,56.2548 27.7337,56.2548 C28.2007,56.2548 28.5797,56.6458 28.5797,57.1278" id="Fill-64" fill="#FFFFFF"></path>
                <path d="M8.067,36.2157 C8.067,36.6967 7.689,37.0877 7.221,37.0877 C6.754,37.0877 6.375,36.6967 6.375,36.2157 C6.375,35.7337 6.754,35.3427 7.221,35.3427 C7.689,35.3427 8.067,35.7337 8.067,36.2157" id="Fill-66" fill="#FFFFFF"></path>
                <path d="M9.3434,39.409 C9.3434,39.891 8.9644,40.282 8.4974,40.282 C8.0304,40.282 7.6514,39.891 7.6514,39.409 C7.6514,38.928 8.0304,38.537 8.4974,38.537 C8.9644,38.537 9.3434,38.928 9.3434,39.409" id="Fill-68" fill="#FFFFFF"></path>
                <path d="M12.3839,46.0418 C12.3839,46.5238 12.0049,46.9138 11.5379,46.9138 C11.0709,46.9138 10.6919,46.5238 10.6919,46.0418 C10.6919,45.5598 11.0709,45.1688 11.5379,45.1688 C12.0049,45.1688 12.3839,45.5598 12.3839,46.0418" id="Fill-70" fill="#FFFFFF"></path>
                <path d="M18.8009,49.2 C18.8009,49.682 18.4229,50.072 17.9549,50.072 C17.4879,50.072 17.1099,49.682 17.1099,49.2 C17.1099,48.718 17.4879,48.328 17.9549,48.328 C18.4229,48.328 18.8009,48.718 18.8009,49.2" id="Fill-72" fill="#FFFFFF"></path>
                <path d="M21.8912,50.5272 C21.8912,51.0082 21.5132,51.3992 21.0452,51.3992 C20.5782,51.3992 20.2002,51.0082 20.2002,50.5272 C20.2002,50.0452 20.5782,49.6542 21.0452,49.6542 C21.5132,49.6542 21.8912,50.0452 21.8912,50.5272" id="Fill-74" fill="#FFFFFF"></path>
                <path d="M28.5851,52.9979 C28.5851,53.4799 28.2061,53.8699 27.7391,53.8699 C27.2721,53.8699 26.8931,53.4799 26.8931,52.9979 C26.8931,52.5159 27.2721,52.1259 27.7391,52.1259 C28.2061,52.1259 28.5851,52.5159 28.5851,52.9979" id="Fill-76" fill="#FFFFFF"></path>
                <path d="M21.9508,8.1199 C21.9508,8.6009 21.5718,8.9919 21.1048,8.9919 C20.6378,8.9919 20.2588,8.6009 20.2588,8.1199 C20.2588,7.6379 20.6378,7.2469 21.1048,7.2469 C21.5718,7.2469 21.9508,7.6379 21.9508,8.1199" id="Fill-78" fill="#FFFFFF"></path>
                <path d="M19.0289,5.3387 C19.0289,5.8207 18.6499,6.2117 18.1829,6.2117 C17.7159,6.2117 17.3369,5.8207 17.3369,5.3387 C17.3369,4.8567 17.7159,4.4667 18.1829,4.4667 C18.6499,4.4667 19.0289,4.8567 19.0289,5.3387" id="Fill-80" fill="#FFFFFF"></path>
                <path d="M28.651,5.6688 C28.651,6.1508 28.272,6.5418 27.805,6.5418 C27.338,6.5418 26.959,6.1508 26.959,5.6688 C26.959,5.1868 27.338,4.7968 27.805,4.7968 C28.272,4.7968 28.651,5.1868 28.651,5.6688" id="Fill-82" fill="#FFFFFF"></path>
                <path d="M28.8712,9.2059 C28.8712,9.8169 28.3912,10.3119 27.8002,10.3119 C27.2082,10.3119 26.7282,9.8169 26.7282,9.2059 C26.7282,8.5949 27.2082,8.0999 27.8002,8.0999 C28.3912,8.0999 28.8712,8.5949 28.8712,9.2059" id="Fill-84" fill="#FFFFFF"></path>
                <path d="M32.8912,10.6356 C32.8912,11.2466 32.4122,11.7416 31.8202,11.7416 C31.2282,11.7416 30.7482,11.2466 30.7482,10.6356 C30.7482,10.0246 31.2282,9.5296 31.8202,9.5296 C32.4122,9.5296 32.8912,10.0246 32.8912,10.6356" id="Fill-86" fill="#FFFFFF"></path>
                <path d="M38.8351,13.1873 C38.8351,13.7983 38.3561,14.2923 37.7641,14.2923 C37.1721,14.2923 36.6921,13.7983 36.6921,13.1873 C36.6921,12.5763 37.1721,12.0813 37.7641,12.0813 C38.3561,12.0813 38.8351,12.5763 38.8351,13.1873" id="Fill-88" fill="#FFFFFF"></path>
                <path d="M42.6515,15.1209 C42.6515,15.7319 42.1715,16.2269 41.5805,16.2269 C40.9885,16.2269 40.5085,15.7319 40.5085,15.1209 C40.5085,14.5099 40.9885,14.0159 41.5805,14.0159 C42.1715,14.0159 42.6515,14.5099 42.6515,15.1209" id="Fill-90" fill="#FFFFFF"></path>
                <path d="M44.5143,19.0662 C44.5143,19.6772 44.0353,20.1722 43.4433,20.1722 C42.8513,20.1722 42.3713,19.6772 42.3713,19.0662 C42.3713,18.4552 42.8513,17.9602 43.4433,17.9602 C44.0353,17.9602 44.5143,18.4552 44.5143,19.0662" id="Fill-92" fill="#FFFFFF"></path>
                <path d="M46.9693,25.2088 C46.9693,25.8198 46.4893,26.3148 45.8983,26.3148 C45.3063,26.3148 44.8263,25.8198 44.8263,25.2088 C44.8263,24.5978 45.3063,24.1028 45.8983,24.1028 C46.4893,24.1028 46.9693,24.5978 46.9693,25.2088" id="Fill-94" fill="#FFFFFF"></path>
                <path d="M48.3434,29.3621 C48.3434,29.9731 47.8634,30.4681 47.2724,30.4681 C46.6804,30.4681 46.2004,29.9731 46.2004,29.3621 C46.2004,28.7511 46.6804,28.2561 47.2724,28.2561 C47.8634,28.2561 48.3434,28.7511 48.3434,29.3621" id="Fill-96" fill="#FFFFFF"></path>
                <path d="M46.9571,33.5116 C46.9571,34.1226 46.4781,34.6166 45.8861,34.6166 C45.2941,34.6166 44.8141,34.1226 44.8141,33.5116 C44.8141,32.9006 45.2941,32.4056 45.8861,32.4056 C46.4781,32.4056 46.9571,32.9006 46.9571,33.5116" id="Fill-98" fill="#FFFFFF"></path>
                <path d="M44.4854,39.6463 C44.4854,40.2573 44.0054,40.7523 43.4144,40.7523 C42.8224,40.7523 42.3424,40.2573 42.3424,39.6463 C42.3424,39.0353 42.8224,38.5413 43.4144,38.5413 C44.0054,38.5413 44.4854,39.0353 44.4854,39.6463" id="Fill-100" fill="#FFFFFF"></path>
                <path d="M42.6124,43.5858 C42.6124,44.1968 42.1324,44.6918 41.5414,44.6918 C40.9494,44.6918 40.4694,44.1968 40.4694,43.5858 C40.4694,42.9748 40.9494,42.4808 41.5414,42.4808 C42.1324,42.4808 42.6124,42.9748 42.6124,43.5858" id="Fill-102" fill="#FFFFFF"></path>
                <path d="M38.7901,45.5086 C38.7901,46.1196 38.3101,46.6146 37.7191,46.6146 C37.1271,46.6146 36.6471,46.1196 36.6471,45.5086 C36.6471,44.8976 37.1271,44.4036 37.7191,44.4036 C38.3101,44.4036 38.7901,44.8976 38.7901,45.5086" id="Fill-104" fill="#FFFFFF"></path>
                <path d="M32.8394,48.0428 C32.8394,48.6538 32.3594,49.1488 31.7684,49.1488 C31.1764,49.1488 30.6964,48.6538 30.6964,48.0428 C30.6964,47.4318 31.1764,46.9368 31.7684,46.9368 C32.3594,46.9368 32.8394,47.4318 32.8394,48.0428" id="Fill-106" fill="#FFFFFF"></path>
                <path d="M28.8155,49.4608 C28.8155,50.0708 28.3365,50.5658 27.7445,50.5658 C27.1525,50.5658 26.6725,50.0708 26.6725,49.4608 C26.6725,48.8498 27.1525,48.3548 27.7445,48.3548 C28.3365,48.3548 28.8155,48.8498 28.8155,49.4608" id="Fill-108" fill="#FFFFFF"></path>
                <path d="M24.796,48.0301 C24.796,48.6411 24.316,49.1361 23.725,49.1361 C23.133,49.1361 22.653,48.6411 22.653,48.0301 C22.653,47.4191 23.133,46.9251 23.725,46.9251 C24.316,46.9251 24.796,47.4191 24.796,48.0301" id="Fill-110" fill="#FFFFFF"></path>
                <path d="M18.8521,45.4793 C18.8521,46.0903 18.3721,46.5853 17.7811,46.5853 C17.1891,46.5853 16.7091,46.0903 16.7091,45.4793 C16.7091,44.8683 17.1891,44.3733 17.7811,44.3733 C18.3721,44.3733 18.8521,44.8683 18.8521,45.4793" id="Fill-112" fill="#FFFFFF"></path>
                <path d="M15.0357,43.5448 C15.0357,44.1558 14.5567,44.6508 13.9647,44.6508 C13.3727,44.6508 12.8927,44.1558 12.8927,43.5448 C12.8927,42.9348 13.3727,42.4398 13.9647,42.4398 C14.5567,42.4398 15.0357,42.9348 15.0357,43.5448" id="Fill-114" fill="#FFFFFF"></path>
                <path d="M13.1729,39.6004 C13.1729,40.2114 12.6929,40.7054 12.1019,40.7054 C11.5099,40.7054 11.0299,40.2114 11.0299,39.6004 C11.0299,38.9894 11.5099,38.4944 12.1019,38.4944 C12.6929,38.4944 13.1729,38.9894 13.1729,39.6004" id="Fill-116" fill="#FFFFFF"></path>
                <path d="M10.7179,33.4578 C10.7179,34.0678 10.2389,34.5628 9.6469,34.5628 C9.0549,34.5628 8.5749,34.0678 8.5749,33.4578 C8.5749,32.8468 9.0549,32.3518 9.6469,32.3518 C10.2389,32.3518 10.7179,32.8468 10.7179,33.4578" id="Fill-118" fill="#FFFFFF"></path>
                <path d="M9.3443,29.3045 C9.3443,29.9145 8.8643,30.4095 8.2733,30.4095 C7.6813,30.4095 7.2013,29.9145 7.2013,29.3045 C7.2013,28.6935 7.6813,28.1985 8.2733,28.1985 C8.8643,28.1985 9.3443,28.6935 9.3443,29.3045" id="Fill-120" fill="#FFFFFF"></path>
                <path d="M24.8477,10.6229 C24.8477,11.2339 24.3687,11.7289 23.7767,11.7289 C23.1847,11.7289 22.7047,11.2339 22.7047,10.6229 C22.7047,10.0129 23.1847,9.5179 23.7767,9.5179 C24.3687,9.5179 24.8477,10.0129 24.8477,10.6229" id="Fill-122" fill="#FFFFFF"></path>
                <path d="M18.8976,13.1571 C18.8976,13.7671 18.4176,14.2631 17.8266,14.2631 C17.2346,14.2631 16.7546,13.7671 16.7546,13.1571 C16.7546,12.5471 17.2346,12.0521 17.8266,12.0521 C18.4176,12.0521 18.8976,12.5471 18.8976,13.1571" id="Fill-124" fill="#FFFFFF"></path>
                <path d="M15.0753,15.0799 C15.0753,15.6909 14.5953,16.1859 14.0043,16.1859 C13.4123,16.1859 12.9323,15.6909 12.9323,15.0799 C12.9323,14.4689 13.4123,13.9739 14.0043,13.9739 C14.5953,13.9739 15.0753,14.4689 15.0753,15.0799" id="Fill-126" fill="#FFFFFF"></path>
                <path d="M13.2018,19.0194 C13.2018,19.6304 12.7218,20.1254 12.1308,20.1254 C11.5388,20.1254 11.0588,19.6304 11.0588,19.0194 C11.0588,18.4094 11.5388,17.9144 12.1308,17.9144 C12.7218,17.9144 13.2018,18.4094 13.2018,19.0194" id="Fill-128" fill="#FFFFFF"></path>
                <path d="M10.7301,25.1551 C10.7301,25.7661 10.2501,26.2601 9.6591,26.2601 C9.0671,26.2601 8.5871,25.7661 8.5871,25.1551 C8.5871,24.5441 9.0671,24.0491 9.6591,24.0491 C10.2501,24.0491 10.7301,24.5441 10.7301,25.1551" id="Fill-130" fill="#FFFFFF"></path>
                <path d="M29.4869,13.0555 C29.4869,14.0205 28.7299,14.8015 27.7949,14.8015 C26.8619,14.8015 26.1049,14.0205 26.1049,13.0555 C26.1049,12.0915 26.8619,11.3095 27.7949,11.3095 C28.7299,11.3095 29.4869,12.0915 29.4869,13.0555" id="Fill-132" fill="#FFFFFF"></path>
                <path d="M18.3297,17.8065 C18.3297,18.7715 17.5727,19.5525 16.6377,19.5525 C15.7047,19.5525 14.9467,18.7715 14.9467,17.8065 C14.9467,16.8425 15.7047,16.0605 16.6377,16.0605 C17.5727,16.0605 18.3297,16.8425 18.3297,17.8065" id="Fill-134" fill="#FFFFFF"></path>
                <path d="M13.6944,29.3094 C13.6944,30.2734 12.9374,31.0554 12.0034,31.0554 C11.0694,31.0554 10.3124,30.2734 10.3124,29.3094 C10.3124,28.3454 11.0694,27.5634 12.0034,27.5634 C12.9374,27.5634 13.6944,28.3454 13.6944,29.3094" id="Fill-136" fill="#FFFFFF"></path>
                <path d="M40.6305,17.8407 C40.6305,18.8047 39.8735,19.5867 38.9395,19.5867 C38.0055,19.5867 37.2485,18.8047 37.2485,17.8407 C37.2485,16.8757 38.0055,16.0947 38.9395,16.0947 C39.8735,16.0947 40.6305,16.8757 40.6305,17.8407" id="Fill-138" fill="#FFFFFF"></path>
                <path d="M45.233,29.3563 C45.233,30.3213 44.476,31.1023 43.541,31.1023 C42.608,31.1023 41.851,30.3213 41.851,29.3563 C41.851,28.3923 42.608,27.6103 43.541,27.6103 C44.476,27.6103 45.233,28.3923 45.233,29.3563" id="Fill-140" fill="#FFFFFF"></path>
                <path d="M40.5982,40.8592 C40.5982,41.8242 39.8412,42.6052 38.9072,42.6052 C37.9722,42.6052 37.2162,41.8242 37.2162,40.8592 C37.2162,39.8952 37.9722,39.1132 38.9072,39.1132 C39.8412,39.1132 40.5982,39.8952 40.5982,40.8592" id="Fill-142" fill="#FFFFFF"></path>
                <path d="M29.441,45.6102 C29.441,46.5742 28.684,47.3562 27.75,47.3562 C26.816,47.3562 26.059,46.5742 26.059,45.6102 C26.059,44.6462 26.816,43.8642 27.75,43.8642 C28.684,43.8642 29.441,44.6462 29.441,45.6102" id="Fill-144" fill="#FFFFFF"></path>
                <path d="M18.297,40.826 C18.297,41.791 17.54,42.572 16.606,42.572 C15.672,42.572 14.915,41.791 14.915,40.826 C14.915,39.862 15.672,39.08 16.606,39.08 C17.54,39.08 18.297,39.862 18.297,40.826" id="Fill-146" fill="#FFFFFF"></path>
            </g>
        </g>
    </g>
</svg>