<svg xmlns="http://www.w3.org/2000/svg" width="94" height="104" viewBox="0 0 94 104">
  <defs>
    <linearGradient id="gamemenu_icon1_mahjong_front-a" x1="-17.241%" x2="50%" y1="-56.359%" y2="100%">
      <stop offset="0%" stop-color="#000F24" stop-opacity=".9"/>
      <stop offset="100%" stop-color="#011B3E"/>
    </linearGradient>
    <linearGradient id="gamemenu_icon1_mahjong_front-b" x1="-50.085%" x2="36.804%" y1="-49.005%" y2="42.789%">
      <stop offset="0%" stop-color="#000F24" stop-opacity=".9"/>
      <stop offset="100%" stop-color="#011B3E"/>
    </linearGradient>
    <linearGradient id="gamemenu_icon1_mahjong_front-c" x1="39.624%" x2="176.665%" y1="0%" y2="178.389%">
      <stop offset="0%" stop-color="#C8AA82"/>
      <stop offset="79.666%" stop-color="#7C6341"/>
      <stop offset="100%" stop-color="#AFA286"/>
    </linearGradient>
    <linearGradient id="gamemenu_icon1_mahjong_front-d" x1="50%" x2="50%" y1="3.41%" y2="100%">
      <stop offset="0%" stop-color="#000F24" stop-opacity=".9"/>
      <stop offset="100%" stop-color="#011B3E"/>
    </linearGradient>
    <linearGradient id="gamemenu_icon1_mahjong_front-e" x1="24.133%" x2="349.233%" y1="0%" y2="179.944%">
      <stop offset="0%" stop-color="#C8AA82"/>
      <stop offset="91.341%" stop-color="#7C6341"/>
      <stop offset="100%" stop-color="#AFA286"/>
    </linearGradient>
  </defs>
  <g fill="none" fill-rule="evenodd" transform="translate(1 2)">
    <g transform="translate(0 8.36)">
      <circle cx="45.98" cy="45.98" r="45.98" fill="url(#gamemenu_icon1_mahjong_front-a)" stroke="#B0936D" stroke-width="1.829"/>
      <line x1="13.467" x2="78.493" y1="13.467" y2="78.493" stroke="#B0936D" stroke-width="1.829"/>
      <line x1="78.493" x2="13.467" y1="13.467" y2="78.493" stroke="#B0936D" stroke-width="1.829"/>
      <line x1="91.96" y1="48.103" y2="48.103" stroke="#B0936D" stroke-width="1.829"/>
      <line x1="45.98" x2="45.98" y1="91.96" stroke="#B0936D" stroke-width="1.829"/>
      <circle cx="45.98" cy="45.98" r="33.44" fill="url(#gamemenu_icon1_mahjong_front-b)" stroke="#B0936D" stroke-width="1.829"/>
      <circle cx="45.98" cy="45.98" r="21.945" stroke="#B0936D" stroke-width="1.829"/>
      <circle cx="45.98" cy="45.98" r="4.18" stroke="#B0936D" stroke-width="1.829"/>
      <path stroke="#979797" stroke-width="1.045"/>
      <circle cx="45.98" cy="45.98" r="45.98" stroke="#B0936D" stroke-width="1.829"/>
    </g>
    <polygon fill="#001127" stroke="url(#gamemenu_icon1_mahjong_front-c)" stroke-width="1.829" points="46.502 31.35 56.43 8.872 46.502 0 36.575 8.872"/>
    <rect width="8.36" height="8.36" x="41.8" y="50.16" fill="url(#gamemenu_icon1_mahjong_front-d)" stroke="url(#gamemenu_icon1_mahjong_front-e)" stroke-width="1.829" transform="rotate(45 45.98 54.34)"/>
    <polygon fill="#001127" stroke="#B0936D" stroke-width="1.829" points="46.502 20.9 50.16 9.528 46.502 6.27 42.845 9.528"/>
  </g>
</svg>
