<svg height="91" viewBox="0 0 88 91" width="88" xmlns="http://www.w3.org/2000/svg" xmlns:xlink="http://www.w3.org/1999/xlink"><linearGradient id="a" x1="50%" x2="50%" y1="3.41%" y2="100%"><stop offset="0" stop-color="#000f24" stop-opacity=".9"/><stop offset="1" stop-color="#011b3e"/></linearGradient><g fill="none" fill-rule="evenodd" transform="translate(1.6 -.6)"><g fill="url(#a)"><g stroke="#b0936d" stroke-width="1.4" transform="translate(0 1.115)"><path d="m66.5311667 24.0931658 17.6727641 17.4907434h-17.6727641zm-48.5829767.2486018.1365154 17.2416626h-17.56019865zm.41181 6.6636322-10.08 10.44m57.96-10.44 10.08 10.44"/><path d="m18.1982288 47.9666056h-17.67276404l18.02004014 17.7757493m-.1855049-7.3769551-10.08-10.44"/><path d="m66.5311667 65.459265 17.6727641-17.4931384h-17.6727641m-.2911667 10.3992732 10.08-10.44"/><path d="m32.85 79.967 9.516 9.41 9.448-9.355"/><path d="m32.85.485 9.516 9.41 9.448-9.355" transform="matrix(1 0 0 -1 0 10.38)"/></g><path d="m24.8 17.6h36v56.8h-36z"/><path d="m66.5299692 17.7590516v63.0964858h-42.2431511v-6.8329578l.1928897-.0004858.0002922-55.9420938 35.9617078-.0009062.0001511-.3200422zm-6.0499692.3209484-.0382922-.0009062.0001511 55.9434858-35.9621511-.0004858.0002922.2179062h36zm-.0381411-7.1539062v6.8329578h-36.1550408v56.263528h-6.0881103v-63.0964858z" stroke="#b0936d" stroke-width="1.4"/></g><path d="m8.08973181 0c4.47038899 0 8.09392099 3.62353195 8.09392099 8.09182639 0 1.41299835-.3620356 2.74144801-.9984368 3.89761161l.0227372.0135729-6.9990817 11.9970847h-1.682l5.004987-8.5805259c-1.0445012.4914592-2.21118783.7661777-3.44212669.7661777-4.46726765 0-8.08973181-3.6245997-8.08973181-8.09392101 0-4.46758264 3.62281997-8.09182639 8.08973181-8.09182639zm0 1.45456915c-3.66344751 0-6.63516266 2.97288305-6.63516266 6.63725724 0 3.66617681 2.97142333 6.63935181 6.63516266 6.63935181 3.66734459 0 6.63935179-2.972591 6.63935179-6.63935181 0-3.66495808-2.9722991-6.63725724-6.63935179-6.63725724z" fill="#b0936d" fill-rule="nonzero" transform="translate(34.56 33.84)"/></g></svg>