<svg height="78" viewBox="0 0 75 78" width="75" xmlns="http://www.w3.org/2000/svg" xmlns:xlink="http://www.w3.org/1999/xlink"><linearGradient id="a" x1="50%" x2="50%" y1="3.41%" y2="100%"><stop offset="0" stop-color="#000f24" stop-opacity=".9"/><stop offset="1" stop-color="#011b3e"/></linearGradient><linearGradient id="b"><stop offset="0" stop-color="#a78c68"/><stop offset=".52444" stop-color="#7c6341"/><stop offset="1" stop-color="#afa286"/></linearGradient><linearGradient id="c" x1="7.122%" x2="89.8%" xlink:href="#b" y1="245.957%" y2="245.957%"/><linearGradient id="d" x1="-42.73%" x2="89.8%" xlink:href="#b" y1="74.259%" y2="245.867%"/><g fill="none" fill-rule="evenodd" stroke-width="1.4" transform="translate(-9.4 .6)"><g fill="url(#a)"><path d="m65.078784 23.8544384c7.736832 2.034432 15.259392 4.743936 22.454784 8.119296l-18.528768 39.13344c-3.6864-1.721088-7.501824-3.174912-11.4048-4.379904l2.51-14.390832 3.6661024-21.0209568c.0003339.0000895.0006678.0001789.0010017.0002684l-3.6671041 21.0206884-1.2022496 6.8989152c2.138112.638208 4.264704 1.3248 6.35904 2.110464l12.096-25.546752c-4.4463973-1.7647359-8.9849412-3.2507283-13.5856863-4.4833156z" stroke="#b0936d" transform="matrix(.96592583 -.25881905 .25881905 .96592583 -9.816068 20.399563)"/><path d="m28.81408 23.674496 7.098624 42.988032c-3.704832 1.188864-7.299072 2.60352-10.75968 4.243968l-18.749952-39.022848c7.114752-3.384576 14.614272-6.130944 22.411008-8.209152zm1.2351744 7.481088c-4.566528 1.246464-9.059328 2.734848-13.450752 4.499712l12.238848 25.473024c1.921536-.732672 3.87072-1.375488 5.833728-1.98144z" stroke="#b0936d" transform="matrix(.96592583 .25881905 -.25881905 .96592583 12.960494 -3.864726)"/><path d="m69.3170432 12.8237568 1.649664-10.734336c-12.098304-2.158848-35.126784-2.317824-47.93472-.188928l1.536768 10.699776c-2.912256.343296-5.831424.741888-8.7552 1.228032l10.158336 61.961472c14.059008-2.308608 27.965952-2.11968 41.269248.239616l10.865664-61.880832c-2.907648-.5184-5.842944-.946944-8.78976-1.3248z" stroke="#b0936d"/><path d="m69.2854784 12.8011776-8.165376 54.690048c-5.038848-.592128-10.121472-.889344-15.178752-.889344-4.566528 0-9.167616.244224-13.747968.728064l-7.633152-54.528768zm-22.4243712 27.3816576c-4.472064 0-8.09856 3.6288-8.09856 8.100864 0 4.474368 3.626496 8.103168 8.09856 8.103168 4.476672 0 8.103168-3.6288 8.103168-8.103168 0-4.472064-3.626496-8.100864-8.103168-8.100864z" stroke="url(#c)"/><path d="m66.6372608 30.2544384 4.329216-28.1664c-12.098304-2.156544-35.126784-2.31552-47.93472-.188928l4.05504 28.219392c10.741248-2.025216 28.747008-1.930752 39.550464.135936zm-30.9735936-1.2623616-4.359168-28.136448m26.9063424 28.136448 4.359168-28.136448" stroke="#b0936d"/></g><path d="m46.862 19.27-5.037-5.037 5.037-5.036 5.039 5.036z" stroke="url(#d)"/></g></svg>