<svg xmlns="http://www.w3.org/2000/svg" width="88" height="91" viewBox="0 0 88 91">
  <defs>
    <linearGradient id="gamemenu_icon_front_1x-a" x1="50%" x2="50%" y1="3.41%" y2="100%">
      <stop offset="0%" stop-color="#000F24" stop-opacity=".9"/>
      <stop offset="100%" stop-color="#011B3E"/>
    </linearGradient>
    <linearGradient id="gamemenu_icon_front_1x-b" x1="50%" x2="50%" y1="3.41%" y2="100%">
      <stop offset="0%" stop-color="#000F24" stop-opacity=".9"/>
      <stop offset="100%" stop-color="#011B3E"/>
    </linearGradient>
    <linearGradient id="gamemenu_icon_front_1x-c" x1="50%" x2="50%" y1="3.41%" y2="100%">
      <stop offset="0%" stop-color="#000F24" stop-opacity=".9"/>
      <stop offset="100%" stop-color="#011B3E"/>
    </linearGradient>
    <linearGradient id="gamemenu_icon_front_1x-d" x1="50%" x2="50%" y1="3.41%" y2="100%">
      <stop offset="0%" stop-color="#000F24" stop-opacity=".9"/>
      <stop offset="100%" stop-color="#011B3E"/>
    </linearGradient>
    <linearGradient id="gamemenu_icon_front_1x-e" x1="50%" x2="50%" y1="3.41%" y2="100%">
      <stop offset="0%" stop-color="#000F24" stop-opacity=".9"/>
      <stop offset="100%" stop-color="#011B3E"/>
    </linearGradient>
    <linearGradient id="gamemenu_icon_front_1x-f" x1="50%" x2="50%" y1="3.41%" y2="100%">
      <stop offset="0%" stop-color="#000F24" stop-opacity=".9"/>
      <stop offset="100%" stop-color="#011B3E"/>
    </linearGradient>
  </defs>
  <g fill="none" fill-rule="evenodd" transform="translate(1.6 -.6)">
    <g stroke="#B0936D" stroke-width="1.4" transform="translate(0 1.115)">
      <path fill="url(#gamemenu_icon_front_1x-a)" d="M66.5311667,24.0931658 L84.2039308,41.5839092 L66.5311667,41.5839092 L66.5311667,24.0931658 Z M17.94819,24.3417676 L18.0847054,41.5834302 L0.524506752,41.5834302 L17.94819,24.3417676 Z M18.36,31.0053998 L8.28,41.4453998 M66.24,31.0053998 L76.32,41.4453998"/>
      <path fill="url(#gamemenu_icon_front_1x-b)" d="M18.1982288,47.9666056 L0.525464755,47.9666056 L18.5455049,65.7423549 M18.36,58.3653998 L8.28,47.9253998"/>
      <path fill="url(#gamemenu_icon_front_1x-c)" d="M66.5311667,65.459265 L84.2039308,47.9661266 L66.5311667,47.9661266 M66.24,58.3653998 L76.32,47.9253998"/>
      <polyline fill="url(#gamemenu_icon_front_1x-d)" points="32.85 79.967 42.366 89.377 51.814 80.022"/>
      <polyline fill="url(#gamemenu_icon_front_1x-d)" points="32.85 .485 42.366 9.895 51.814 .54" transform="matrix(1 0 0 -1 0 10.38)"/>
    </g>
    <rect width="36" height="56.8" x="24.8" y="17.6" fill="url(#gamemenu_icon_front_1x-e)"/>
    <path fill="url(#gamemenu_icon_front_1x-f)" stroke="#B0936D" stroke-width="1.4" d="M66.5299692,17.7590516 L66.5299692,80.8555374 L24.2868181,80.8555374 L24.2868181,74.0225796 L24.4797078,74.0220938 L24.48,18.08 L60.4417078,18.0790938 L60.4418589,17.7590516 L66.5299692,17.7590516 Z M60.48,18.08 L60.4417078,18.0790938 L60.4418589,74.0225796 L24.4797078,74.0220938 L24.48,74.24 L60.48,74.24 L60.48,18.08 Z M60.4418589,10.9260938 L60.4418589,17.7590516 L24.2868181,17.7590516 L24.2868181,74.0225796 L18.1987078,74.0225796 L18.1987078,10.9260938 L60.4418589,10.9260938 Z"/>
    <path fill="#B0936D" fill-rule="nonzero" d="M8.08973181,7.10542736e-15 C12.5601208,7.10542736e-15 16.1836528,3.62353195 16.1836528,8.09182639 C16.1836528,9.50482474 15.8216172,10.8332744 15.185216,11.989438 L15.2079532,12.0030109 L8.2088715,24.0000956 L6.5268715,24.0000956 L11.5318585,15.4195697 C10.4873573,15.9110289 9.32067067,16.1857474 8.08973181,16.1857474 C3.62246416,16.1857474 -5.82645043e-13,12.5611477 -5.82645043e-13,8.09182639 C-5.82645043e-13,3.62424375 3.62281997,7.10542736e-15 8.08973181,7.10542736e-15 Z M8.08973181,1.45456915 C4.4262843,1.45456915 1.45456915,4.4274522 1.45456915,8.09182639 C1.45456915,11.7580032 4.42599248,14.7311782 8.08973181,14.7311782 C11.7570764,14.7311782 14.7290836,11.7585872 14.7290836,8.09182639 C14.7290836,4.42686831 11.7567845,1.45456915 8.08973181,1.45456915 Z" transform="translate(34.56 33.84)"/>
  </g>
</svg>
