<svg height="104" viewBox="0 0 94 104" width="94" xmlns="http://www.w3.org/2000/svg" xmlns:xlink="http://www.w3.org/1999/xlink"><linearGradient id="a"><stop offset="0" stop-color="#000f24" stop-opacity=".9"/><stop offset="1" stop-color="#011b3e"/></linearGradient><linearGradient id="b" x1="-17.241%" x2="50%" xlink:href="#a" y1="-56.359%" y2="100%"/><linearGradient id="c" x1="-50.085%" x2="36.804%" xlink:href="#a" y1="-49.005%" y2="42.789%"/><linearGradient id="d" x1="39.624%" x2="176.665%" y1="0%" y2="178.389%"><stop offset="0" stop-color="#c8aa82"/><stop offset=".79666" stop-color="#7c6341"/><stop offset="1" stop-color="#afa286"/></linearGradient><linearGradient id="e" x1="50%" x2="50%" xlink:href="#a" y1="3.41%" y2="100%"/><linearGradient id="f" x1="24.133%" x2="349.233%" y1="0%" y2="179.944%"><stop offset="0" stop-color="#c8aa82"/><stop offset=".91341" stop-color="#7c6341"/><stop offset="1" stop-color="#afa286"/></linearGradient><g fill="none" fill-rule="evenodd" stroke-width="1.829" transform="translate(1 2)"><g stroke="#b0936d" transform="translate(0 8.36)"><circle cx="45.98" cy="45.98" fill="url(#b)" r="45.98"/><path d="m13.467 13.467 65.026 65.026"/><path d="m78.493 13.467-65.026 65.026"/><path d="m91.96 48.103h-91.96"/><path d="m45.98 91.96v-91.96"/><circle cx="45.98" cy="45.98" fill="url(#c)" r="33.44"/><circle cx="45.98" cy="45.98" r="21.945"/><circle cx="45.98" cy="45.98" r="4.18"/><circle cx="45.98" cy="45.98" r="45.98"/></g><path d="m46.502 31.35 9.928-22.478-9.928-8.872-9.927 8.872z" fill="#001127" stroke="url(#d)"/><path d="m41.8 50.16h8.36v8.36h-8.36z" fill="url(#e)" stroke="url(#f)" transform="matrix(.70710678 .70710678 -.70710678 .70710678 51.891413 -16.596952)"/><path d="m46.502 20.9 3.658-11.372-3.658-3.258-3.657 3.258z" fill="#001127" stroke="#b0936d"/></g></svg>