<svg height="100" viewBox="0 0 91 100" width="91" xmlns="http://www.w3.org/2000/svg" xmlns:xlink="http://www.w3.org/1999/xlink"><linearGradient id="a" x1="50%" x2="50%" y1="3.41%" y2="100%"><stop offset="0" stop-color="#000f24" stop-opacity=".9"/><stop offset="1" stop-color="#011b3e"/></linearGradient><g fill="none" fill-rule="evenodd" stroke="#b0936d" transform="translate(1 1)"><path d="m46 11.5h-4c-5.6609187 0-10.7859187 2.2945407-14.495689 6.004311s-6.004311 8.8347703-6.004311 14.495689v54.5h45v-54.5c0-5.6609187-2.2945407-10.7859187-6.004311-14.495689s-8.8347703-6.004311-14.495689-6.004311z" fill="url(#a)"/><g stroke-width="1.75"><path d="m44.76942.44946c18.6381 0 33.75 13.5594 33.75 30.2913v56.1087l-10.8-.001v.001h-45.9v-.001h45.9v-56.1077c0-10.641213-10.0902275-19.3162474-22.5710689-19.488684l-.3789311-.002616c-12.6549 0-22.95 8.7426-22.95 19.4913v56.1077l-10.8.001v-56.1087c0-16.7319 15.1092-30.2913 33.75-30.2913z" fill="url(#a)"/><path d="m32.61942 76.04946v-45.3087c0-4.6305 5.6781-8.6913 12.15-8.6913s12.15 4.0608 12.15 8.6913v45.3087z" fill="url(#a)"/><path d="m86.024 98.087h-82.512l-2.7-11.237h87.912z" fill="url(#a)"/><path d="m44.769 39.127-5.4-5.4 5.4-5.399 5.4 5.399z"/><path d="m44.769 54.6-5.4-5.4 5.4-5.4 5.4 5.4z"/><path d="m44.769 70.075-5.4-5.4 5.4-5.4 5.4 5.4z"/></g></g></svg>