<?xml version="1.0" encoding="UTF-8"?>
<svg width="91px" height="100px" viewBox="0 0 91 100" version="1.1" xmlns="http://www.w3.org/2000/svg" xmlns:xlink="http://www.w3.org/1999/xlink">
    <title>game_icon_Sicbo</title>
    <defs>
        <linearGradient x1="50%" y1="3.41005068%" x2="50%" y2="100%" id="linearGradient-1">
            <stop stop-color="#000F24" stop-opacity="0.9" offset="0%"></stop>
            <stop stop-color="#011B3E" offset="100%"></stop>
        </linearGradient>
        <linearGradient x1="50%" y1="3.41005068%" x2="50%" y2="100%" id="linearGradient-2">
            <stop stop-color="#000F24" stop-opacity="0.9" offset="0%"></stop>
            <stop stop-color="#011B3E" offset="100%"></stop>
        </linearGradient>
        <linearGradient x1="50%" y1="3.41005068%" x2="50%" y2="100%" id="linearGradient-3">
            <stop stop-color="#000F24" stop-opacity="0.9" offset="0%"></stop>
            <stop stop-color="#011B3E" offset="100%"></stop>
        </linearGradient>
        <linearGradient x1="50%" y1="3.41005068%" x2="50%" y2="100%" id="linearGradient-4">
            <stop stop-color="#000F24" stop-opacity="0.9" offset="0%"></stop>
            <stop stop-color="#011B3E" offset="100%"></stop>
        </linearGradient>
    </defs>
    <g id="Symbol" stroke="none" stroke-width="1" fill="none" fill-rule="evenodd">
        <g id="game_icon_Sicbo" transform="translate(-20.000000, -15.000000)" stroke="#B0936D">
            <g id="Group" transform="translate(5.000000, 5.000000)">
                <g transform="translate(16.000000, 11.000000)">
                    <path d="M47,11.5 C52.6609187,11.5 57.7859187,13.7945407 61.495689,17.504311 C65.2054593,21.2140813 67.5,26.3390813 67.5,32 L67.5,32 L67.5,86.5 L21.5,86.5 L21.5,32 C21.5,26.3390813 23.7945407,21.2140813 27.504311,17.504311 C31.2140813,13.7945407 36.3390813,11.5 42,11.5 L42,11.5 Z" id="Rectangle" fill="url(#linearGradient-1)"></path>
                    <g id="Group-17">
                        <path d="M44.76942,0.44946 C63.40752,0.44946 78.51942,14.00886 78.51942,30.74076 L78.51942,30.74076 L78.51942,86.84946 L67.71942,86.84846 L67.71942,86.84946 L21.81942,86.84946 L21.81942,86.84846 L67.71942,86.84846 L67.71942,30.74076 C67.71942,20.099547 57.6291925,11.4245126 45.1483511,11.252076 L44.76942,11.24946 C32.11452,11.24946 21.81942,19.99206 21.81942,30.74076 L21.81942,30.74076 L21.81942,86.84846 L11.01942,86.84946 L11.01942,30.74076 C11.01942,14.00886 26.12862,0.44946 44.76942,0.44946 Z" id="Combined-Shape" stroke-width="1.7496" fill="url(#linearGradient-2)"></path>
                        <path d="M32.61942,76.04946 L32.61942,30.74076 C32.61942,26.11026 38.29752,22.04946 44.76942,22.04946 C51.24132,22.04946 56.91942,26.11026 56.91942,30.74076 L56.91942,76.04946 L32.61942,76.04946 Z" id="Stroke-5" stroke-width="1.7496" fill="url(#linearGradient-3)"></path>
                        <polygon id="Stroke-7" stroke-width="1.7496" fill="url(#linearGradient-4)" points="86.02353 98.0874 3.51153 98.0874 0.81153 86.85 88.72353 86.85"></polygon>
                        <polygon id="Stroke-11" stroke-width="1.75" points="44.76942 39.1275 39.36942 33.7275 44.76942 28.3275 50.16942 33.7275"></polygon>
                        <polygon id="Stroke-13" stroke-width="1.75" points="44.76942 54.59985 39.36942 49.19985 44.76942 43.79985 50.16942 49.19985"></polygon>
                        <polygon id="Stroke-15" stroke-width="1.75" points="44.76942 70.0749 39.36942 64.6749 44.76942 59.2749 50.16942 64.6749"></polygon>
                    </g>
                </g>
            </g>
        </g>
    </g>
</svg>