<svg height="76" viewBox="0 0 74 76" width="74" xmlns="http://www.w3.org/2000/svg" xmlns:xlink="http://www.w3.org/1999/xlink"><linearGradient id="a"><stop offset="0" stop-color="#c8aa82"/><stop offset=".39972" stop-color="#7c6341"/><stop offset="1" stop-color="#afa286"/></linearGradient><linearGradient id="b" x1="24.133%" x2="253.116%" xlink:href="#a" y1="39.774%" y2="67.156%"/><linearGradient id="c" x1="24.133%" x2="253.116%" xlink:href="#a" y1="39.777%" y2="67.152%"/><linearGradient id="d" x1="25.568%" x2="241.843%" xlink:href="#a" y1="0%" y2="133.887%"/><mask id="e" fill="#fff"><path d="m0 0h72.828v74.938h-72.828z" fill="#fff" fill-rule="evenodd"/></mask><g fill="none" fill-rule="evenodd" transform="translate(.815 .338)"><path d="m51.4700817 48.1803818s-.1162412 0-.3143631.0219323m6.3243272 3.7869785s-.0804185 0-.2273649.0146215m-43.7472045-31.9264217c-.0073107.0080419-.0146215.0080419-.0146215.0080419v-.0080419zm.3220394-.3362954c-.1096615.1096616-.2200541.227365-.3216738.3362954" fill="#021b3b"/><path d="m43.9473002 31.0728894c0 3.6341833 2.94624 6.5796923 6.5796923 6.5796923 1.9527065 0 3.6926695-.85536 4.8982154-2.1932308h16.6685538v4.0209231s-1.4621538 3.6553846-7.3107692 3.6553846h-7.3107692s-3.6553847 3.6553846-7.3107693 3.6553846c-1.1916554 0-2.785403-.3143631-4.3864615-.8692505l-.8107643.2412554c2.1639877.4452259 4.2395151 1.1324382 6.1914904 2.0397046 2.2005416 1.0088862 4.248288 2.2882708 6.0971816 3.8016 6.4415188 5.2418216 10.5501711 13.2251816 10.5501711 22.1808739l-2.727648.0212012h-57.22870158c-3.88128738 0-7.03296-3.1509415-7.03296-7.0322289v-.256608c1.0235077.5929034 2.20858339.9291988 3.47261539.9291988 3.83084307 0 6.93060919-3.0997662 6.93060919-6.9313403 0-3.8308431-3.09976612-6.93792-6.93060919-6.93792-1.264032 0-2.44910769.3362953-3.47261539.9291987v-9.3212307h3.14436185v-1.0607927s.21932308-14.7816443 9.53324303-24.4325907v-.0065797s.0073108 0 .0138905-.0080419h-.0138905c-6.01749411 0-6.17759995-6.1768689-6.17759995-6.1768689-3.63345231 0-6.57969231-2.9469711-6.57969231-6.58773415 0-3.6334523 2.94624-6.5796923 6.57969231-6.5796923 0 0 2.92430765 8.75172184 10.96615385 8.75172184h22.743072s4.0209231-.29974154 4.0209231 4.40766281h4.7673526s4.7366474-.160837 4.7366474 5.8486153h8.0133341c0-2.6318769 2.1347446-4.7666215 4.7658905-4.7666215 2.6318769 0 4.7666215 2.1347446 4.7666215 4.7666215v6.9452308h-16.6685538c-1.2055459-1.3451815-2.9455089-2.1932308-4.8982154-2.1932308-3.6334523 0-6.5796923 2.94624-6.5796923 6.5796924" fill="#021b3b"/><path d="m40.0120593 17.5280079.4232936.4232935c1.6186043 1.6193354 3.8147593 2.5287951 6.1044923 2.5287951v-2.9520886h-5.5064714z" fill="url(#b)"/><path d="m23.7969925 48.1839641-.4225625.4225624c-1.6193354 1.6193354-3.8154904 2.5287951-6.1044923 2.5287951v-2.9513575h5.5057403z" fill="url(#c)"/><path d="m28.5232586 53.3072049v-5.1270424h-1.4621539v5.1270424c0 4.7534622-3.8673969 8.6208591-8.6215901 8.6208591h-1.1697231v1.4621538h1.1697231c5.5605711 0 10.083744-4.523904 10.083744-10.0830129" fill="#957e5c"/><path d="m34.0884354 52.3069455v-4.1269293h-1.4621538v4.1269293c0 9.6801895-5.2096542 15.9352837-13.2727015 15.9352837h-2.0835693v1.4621538h2.0835693c8.9513058 0 14.7348553-6.8289895 14.7348553-17.3974375" fill="#957e5c"/><path d="m43.2198055 31.0707692c0 4.0311582 3.2796111 7.3107693 7.3107693 7.3107693 1.957824 0 3.8381538-.7954117 5.2103852-2.1932308h15.6253071v3.1275471c-.2968173.5812061-1.8510868 3.0866067-6.5796923 3.0866067h-7.6134351l-.2142055.2142056c-.0343607.0343606-3.4799262 3.4411791-6.7938979 3.4411791-1.035936 0-2.4169403-.2639188-3.8140283-.7157244.9262745-1.7063335 1.2552591-3.7226436 1.2552591-5.132891v-.731077h-7.6763077v-6.3128492h.0182769l-.0182769-.7493538v-10.9793133l-.4605785-.1835003c-.0650658-.0255877-6.1308111-2.490048-6.7917046-6.6199015h12.3698215v-.0116972l4.7856296-.0007311c.0080418-.0138905 1.5038252-.0138905 2.6252972 1.0710277.9036111.8736369 1.3619963 2.2356332 1.3619963 4.0472418v.7310769h9.4718326v-.7310769c0-2.2261292 1.8108776-4.0362757 4.0370068-4.0362757 2.2253982 0 4.0370068 1.8101465 4.0370068 4.0362757v6.2141539h-15.6253071c-1.3729625-1.3978191-3.2532923-2.1932308-5.2103852-2.1932308-4.0311582 0-7.3107693 3.2796111-7.3107693 7.3107692zm19.7237243 28.568293c-4.837536 8.5104664-13.8312443 13.7917661-23.6349858 13.8319753l-4.1766425.0021933h-5.626368c3.5391434-1.5557317 6.4671065-4.2526745 8.3072271-7.6273256h1.3839286c8.2078006 0 15.4469243-5.028347 18.3595348-12.6096147 2.1047705 1.85328 3.9214966 4.0143433 5.3873058 6.4027717zm-14.6997636 13.829051c6.4078892-2.1223163 11.9450658-6.4605267 15.5405021-12.374939 1.9943779 3.7321476 3.1604455 7.946075 3.2759557 12.3668972zm-40.40004189.0051176c-3.15825231 0-5.78208739-2.3365219-6.23096862-5.3726843.85097354.3165563 1.75604677.4803175 2.67208616.4803175 4.22708677 0 7.66607265-3.4389858 7.66607265-7.6668037 0-4.2270868-3.43898588-7.6660726-7.66607265-7.6660726-.94016493 0-1.8693637.1725341-2.74007631.5044431v-7.4394388h12.54162466v-.7310769c0-2.5595003 2.0828381-4.6416074 4.6423384-4.6416074h2.9908357 16.746048v16.5998326c0 8.7590326-7.1024123 15.8877637-15.8504788 15.9330905h-5.8968664zm33.18285049-26.3187693h-1.0988086v-6.2141538h6.1768689c-.1586437 1.7918695-.969408 6.2141538-5.0780603 6.2141538zm-1.0988086 10.3856788v-1.5783951c4.4537206-.3297157 8.0893661-3.6290658 8.9213316-7.9256049 2.7430007 1.0140037 5.2725268 2.4410659 7.5162019 4.2066166-2.5726597 7.2786019-9.4023803 12.1409945-17.1686105 12.1409945h-.6740529c.9036111-2.1018462 1.4051299-4.4149736 1.4051299-6.8436111zm5.2301243-10.5838006c.7764037.1696098 1.5389169.3699249 2.2860775.6016763-.627264 3.7182572-3.70656 6.6096665-7.5162018 6.9415754v-5.882976h1.0988086c1.8086843 0 3.1450929-.6718597 4.1313157-1.6602757zm-40.47168742-2.42352c.00219323-.1403668.31582523-13.4912935 8.30722712-22.8110622.5556184 2.2444062 2.2202806 4.9391557 6.0021415 5.2301243.3048591 2.4673847 1.9929157 6.2134228 6.8531151 6.2134228h12.6191187v6.3128492h-16.7482412-2.9908357c-3.1187741 0-5.6987446 2.3504124-6.0606277 5.3726844h-7.98189782zm3.44410338-29.899584h12.53577604c4.0889132 0 5.1094966 3.212352 5.3631803 4.7154461h-12.535045c-.0219323 0-.0416713-.0029243-.0636036-.0029243l-.122821-.123552c-.0372849.0365539-.0701834.075301-.1074683.1118548-3.83815382-.1542572-4.82291444-3.2372086-5.07001844-4.7008246zm24.89097604 12.3552c4.0881821 0 5.1094966 3.212352 5.3639113 4.7147151h-12.536507c-4.0889133 0-5.1094966-3.2130831-5.3639114-4.7147151zm-18.713376-6.1776h12.535776c4.0881821 0 5.1094966 3.212352 5.3639113 4.7154461h-12.536507c-4.0896443 0-5.1094966-3.2138141-5.3631803-4.7154461zm-12.84575265-13.49421785c0-3.06321231 2.36357169-5.58396554 5.3631803-5.83399385.8144197 1.95270646 4.17006275 8.7312517 11.45743755 8.7312517l22.7935163-.0014622c.0168148-.0029243 1.3261735-.0723766 2.2487926.7939496.5278376.4956701.836352 1.2282092.9423582 2.1647187h-13.1104025v.731077c0 4.8207212 5.6256369 7.7428357 7.3107692 8.5104664v5.6892406c-.9591729-1.3100898-2.4798129-2.3628406-4.771008-2.5390301-.2909686-2.3482191-1.8408517-5.8434979-6.178331-6.1776-.3048591-2.4681157-1.9914536-6.2141539-6.852384-6.2141539h-13.34946465c-3.22770462 0-5.854464-2.6267593-5.854464-5.85446395zm49.06842095 17.90553595c1.6529649 0 3.2386707.7113379 4.3499077 1.9505133l.2178609.2427175h17.7300775v-7.6763077c0-3.031776-2.4673846-5.4984295-5.4991606-5.4984295-2.784672 0-5.0919508 2.0791828-5.4509095 4.7673526h-6.6184394c-.1213588-1.8708258-.7208419-3.3373662-1.7852899-4.3674535-1.5835126-1.5323373-3.5983606-1.4782376-3.6656197-1.4811619h-4.0618633c-.123552-1.3751557-.6053317-2.4608049-1.4380283-3.23428429-1.4007434-1.29985477-3.2576788-1.178496-3.2825354-1.17337846h-22.7438031c-7.4094646 0-10.15977601-7.91610093-10.27309293-8.25312739l-.16814769-.49859446h-.52491323c-4.03481354 0-7.31661785 3.28180431-7.31661785 7.31661785 0 3.80671755 2.92284554 6.94011325 6.64110277 7.28225725.27122954 2.1881132 1.63761231 5.36976 5.33320613 6.0650141-8.43077905 9.7021219-8.74148675 23.246784-8.75025967 23.8572333v.3297157h-3.14143754v11.3258436l1.09734646-.6353058c.93870277-.5431902 2.01265477-.8312345 3.1048837-.8312345 3.42144 0 6.20391875 2.7832099 6.20391875 6.2039188 0 3.42144-2.78247875 6.2046499-6.20391875 6.2046499-1.09222893 0-2.16618093-.2880444-3.1048837-.8312345l-1.09734646-.6353059v1.5228333c0 4.2789932 3.48211939 7.7603815 7.76111262 7.7603815h8.87454279 5.8127926v.0021932c.028512 0 .0562929-.0021932.0840738-.0021932h2.0733342 8.6691101v.0007311h5.8391114v.0014621c.0116973 0 .0226634-.0014621.0343606-.0014621l25.850149.0014621 3.450683-.0263187v-.7252283c0-11.6877268-6.9898264-22.1048419-17.3045907-26.7596086 3.0193477-.4817797 5.7506511-2.8278056 6.5409452-3.5618068h7.0183385c6.2711778 0 7.9226806-3.9463532 7.9899397-4.115232l.0519064-.1308628v-4.8923668h-17.7300775l-.218592.2434487c-1.1105059 1.2384443-2.6954806 1.9497821-4.3491766 1.9497821-3.2247803 0-5.8486154-2.6238351-5.8486154-5.8486154s2.6238351-5.8486154 5.8486154-5.8486154z" fill="url(#d)" mask="url(#e)"/></g></svg>