<svg xmlns="http://www.w3.org/2000/svg" viewBox="0 0 369.89 125.86"><defs><style>.cls-1{fill:#545454;}</style></defs><g id="Layer_2" data-name="Layer 2"><g id="Layer_2-2" data-name="Layer 2"><path class="cls-1" d="M0,0V122.59H120.66V0ZM116.58,13.28c-6.84,8.07-13.9,16-20.48,24.26C78.84,59.27,63.7,82.22,55.16,109c-3.46,10.82-18.87,15.76-28.57,9.56a8.49,8.49,0,0,1-2-1.94c-7.14-9-14.35-17.93-21.27-27.09a6.06,6.06,0,0,1-.38-5.43,61.5,61.5,0,0,1,7.65-10.75c3.8-4.2,9.23-4.73,14.72-1.08,4.82,3.19,9,7.29,13,10.55C46.6,69.21,54.8,54.83,64,41.16A298.84,298.84,0,0,1,88.39,9.8C95.54,1.79,106,3,115.57,3.88,119.79,4.26,120.11,9.12,116.58,13.28Z"/><path class="cls-1" d="M365.59,116a4.3,4.3,0,1,1-4.31,4.3A4.29,4.29,0,0,1,365.59,116Zm0,7.73a3.43,3.43,0,1,0-3.43-3.43A3.44,3.44,0,0,0,365.59,123.76Z"/><path class="cls-1" d="M364.86,120.79v1.69H363.7V118h2a2.28,2.28,0,0,1,.73.12,1,1,0,0,1,.74,1,1.38,1.38,0,0,1-.13.72,1.08,1.08,0,0,1-.63.52l-.1,0a1.21,1.21,0,0,1,.74.71l.68,1.35a.08.08,0,0,0,0,0H366.6a.1.1,0,0,1-.1-.06c-.17-.36-.34-.71-.52-1.06a2.54,2.54,0,0,0-.16-.28.64.64,0,0,0-.48-.3C365.18,120.78,365,120.79,364.86,120.79Zm0-2V120c.23,0,.46,0,.69,0a.46.46,0,0,0,.45-.35,1,1,0,0,0,0-.42.42.42,0,0,0-.3-.32l-.14,0C365.33,118.83,365.1,118.84,364.87,118.84Z"/><path class="cls-1" d="M193.73,41V12.34c2.73,0,5.34-.11,7.92.08.53,0,1,1.18,1.57,1.94,4.58-2.59,9.51-4.71,14.25.69a23.35,23.35,0,0,1,2.89-1.87,17.13,17.13,0,0,1,4-1.4c5.11-1,9,2,9.2,7.59.25,7,.06,13.92,0,20.88a2.73,2.73,0,0,1-.22.65H225c0-.67-.09-1.33-.09-2,0-5.78,0-11.56,0-17.35,0-2.23-1.22-3.12-3.38-2.54a4.44,4.44,0,0,0-3.37,4.32V40.92H209.4c-.05-.69-.14-1.35-.13-2q0-8.67.13-17.34c0-1.81-.76-2.57-2.63-2.55a4.12,4.12,0,0,0-4.24,4.19c0,5.35,0,10.69,0,16,0,1.35-.32,1.89-1.77,1.82C198.5,41,196.2,41,193.73,41Z"/><path class="cls-1" d="M293.47,44.65c2.77-.16,5.35-.35,7.93-.4.28,0,.77.73.83,1.17a3.18,3.18,0,0,0,3.18,3.06c1.87.11,2.65-1.28,3-2.78.45-1.91.63-3.88.95-5.94-1.82.42-3.3.87-4.81,1.09a9.4,9.4,0,0,1-10.36-6.18,22.2,22.2,0,0,1,.31-17.6c2.32-5.19,7.75-7.08,13-4.85.65.28,1.31.88,1.85-.17.08-.14.46-.16.7-.16h7.72V14q0,14,0,28c0,4.46-1,8.56-5.39,10.67-4.78,2.32-9.76,2.42-14.45-.38C295.23,50.71,294,48.08,293.47,44.65Zm15.68-18.24h-.1c0-1.62-.05-3.24,0-4.85.08-1.86-1.15-2.66-2.56-3.25a2.42,2.42,0,0,0-3.29,1.34A22.5,22.5,0,0,0,301.5,26a9.05,9.05,0,0,0,1.84,7A3.06,3.06,0,0,0,307,34.15a3,3,0,0,0,2.19-3.27C309.05,29.4,309.15,27.9,309.15,26.41Z"/><path class="cls-1" d="M148.43,27.1,144,26.89V20.7H156.9c0,.67.1,1.34.1,2,0,4-.12,8-.05,11.93a4.1,4.1,0,0,1-1.42,3.23c-8.29,8.09-22.22,5-25.85-5.9a32.59,32.59,0,0,1,1.2-24.35c2.57-5.72,7.63-8.25,13.85-7.47A13.37,13.37,0,0,1,156.5,11c.31,1.48.09,2.13-1.63,2.12-2.33,0-4.66.27-6.56.39a33.75,33.75,0,0,0-2.12-5.41c-1.34-2.22-3.28-2.38-4.8-.27a19.12,19.12,0,0,0-3,6.13,31.17,31.17,0,0,0,.19,16.21c1.25,4.62,4.18,6.26,8.35,4.87,1-.33,1.55-.8,1.49-2C148.36,31.12,148.43,29.2,148.43,27.1Z"/><path class="cls-1" d="M199.26,82.19a7.4,7.4,0,0,1-2.09.75c-2.34.1-4.7,0-7.19,0,0-.74-.12-1.28-.12-1.82,0-11.63,0-23.26,0-34.89,0-1.58.49-2.07,2-2a48.82,48.82,0,0,0,5.41,0c1.25-.05,1.6.46,1.58,1.64-.06,3.16,0,6.32,0,9.66a39.25,39.25,0,0,1,4.43-1.74,10.22,10.22,0,0,1,11.88,6.38A22.51,22.51,0,0,1,216,74.69c-2.05,7.91-8.6,10.87-16,7.39l-.67-.3ZM208,69.09c-.33-2.73-.6-5.32-2.22-7.65a3.13,3.13,0,0,0-4.07-1.14c-1.46.57-2.79,1.56-2.78,3.49,0,3.34,0,6.69,0,10a3,3,0,0,0,.59,1.86,4.39,4.39,0,0,0,7.23-1.21A36.85,36.85,0,0,0,208,69.09Z"/><path class="cls-1" d="M348.32,86.13h8.84v38c-3.17,1-8.45.42-9-.9a39.75,39.75,0,0,1-4.57,1.46,9.82,9.82,0,0,1-11.53-6,20.67,20.67,0,0,1-.09-16.5c2.05-4.91,7.83-9.33,14.9-5.38.36.2.75.36,1.4.66Zm0,24.06c0-1.67.11-3.35,0-5a3.77,3.77,0,0,0-1-2.23c-2.39-2.15-5.86-1.44-6.73,1.61a32.56,32.56,0,0,0-.89,8,8.68,8.68,0,0,0,1.13,3.87c.93,1.85,2.63,2.41,4.78,1.74,1.74-.54,3-1.21,2.81-3.72C348.23,113.05,348.32,111.62,348.32,110.19Z"/><path class="cls-1" d="M145.17,110.76c2.81.16,5.47.26,8.11.51.31,0,.82.86.77,1.25a27.07,27.07,0,0,1-1,4.74c-1.48,4.59-4.33,7.87-9.37,8.46-5.52.64-10.07-1.11-12.95-6.14-2.69-4.69-3.19-9.87-3.09-15.14.09-4.69.7-9.29,2.91-13.54a12.25,12.25,0,0,1,13.87-6.63,12.09,12.09,0,0,1,9.15,12.43c0,.37-.46,1-.75,1-2.64.24-5.29.37-8,.53-.22-1.74-.32-3.27-.62-4.77s-.74-2.8-2.42-2.91-2.76,1.11-3.16,2.63a21.06,21.06,0,0,0-.94,5.47c0,5.2.2,10.41.57,15.59a8.38,8.38,0,0,0,1.78,4,2,2,0,0,0,3.67-.43A27.91,27.91,0,0,0,145,113,18.25,18.25,0,0,0,145.17,110.76Z"/><path class="cls-1" d="M261.22,12h8.63l.18,2.47a12.32,12.32,0,0,1,10.86-2.9c3.19.57,5.64,2.79,5.73,6,.22,7.62.07,15.25.07,23.13-2.62,0-5.15.06-7.66-.08-.35,0-.9-1-.91-1.59-.07-5.34,0-10.68,0-16,0-1.68.15-3.49-1.88-4.23A5.78,5.78,0,0,0,270.28,21a3.94,3.94,0,0,0-.4,1.94c0,5.4-.06,10.81,0,16.21,0,1.34-.32,1.92-1.76,1.84-1.92-.1-3.85,0-5.78,0-.86,0-1.43-.16-1.43-1.21,0-9.06,0-18.13.08-27.2C261,12.45,261.08,12.34,261.22,12Z"/><path class="cls-1" d="M309.17,112.32c.38,1.82.44,3.5,1.13,4.86a5.49,5.49,0,0,0,2.87,2.52c1.43.48,2.7-.63,3.24-1.94.66-1.61,1.74-1.76,3.23-1.68,2.13.12,4.28,0,6.49,0-.93,5.26-5.94,8.36-9.79,8.9-9.2,1.3-15.54-3.78-16.13-13.08a26.52,26.52,0,0,1,.35-6.48C302,98,307.48,94.91,314.42,95.38c6.46.45,10.36,4.34,11.46,11,.23,1.34.25,2.72.42,4.07s-.31,2-1.85,1.93c-4.34-.1-8.7,0-13.05,0Zm-.28-5.08h8.17A28.64,28.64,0,0,0,316,103c-1.05-2.54-3.74-2.79-5.19-.45A30.68,30.68,0,0,0,308.89,107.24Z"/><path class="cls-1" d="M184.87,112.7H167.81c.42,1.86.5,3.61,1.22,5a4.47,4.47,0,0,0,2.93,2.33,4.38,4.38,0,0,0,3.17-2,2.84,2.84,0,0,1,2.93-1.59c2.21.1,4.43,0,7,0a12.1,12.1,0,0,1-5.83,7.48c-9.36,5.17-19.86-.87-20.45-11.77a20.09,20.09,0,0,1,1.39-9.48,11,11,0,0,1,7.52-6.42C177,93.82,184.2,99,184.85,108.77,184.94,110,184.87,111.22,184.87,112.7Zm-17.45-5h8.4a29.67,29.67,0,0,0-1.36-4.72,2.55,2.55,0,0,0-4.55-.5A33.56,33.56,0,0,0,167.42,107.75Z"/><path class="cls-1" d="M182.61,83.6c-2.79-.53-6,1-9.3-1.09a9.58,9.58,0,0,1-7.76,1.6c-3.1-.63-5.49-2-6.4-5.22s-.53-6.3,1.92-8.82,5.85-3.64,9.3-4.33c1-.21,2.06-.34,3.41-.56a35.23,35.23,0,0,0-.91-4.33,2.21,2.21,0,0,0-1.58-1.28,2.83,2.83,0,0,0-1.87,1.19,10.9,10.9,0,0,0-1,2.51h-8.87a24.1,24.1,0,0,1,1.64-4.14c3.25-5.11,12.4-6.78,17.34-3.25a8.91,8.91,0,0,1,3.7,7.56c.06,3.48,0,7,0,10.44C182.31,77,182.48,80.14,182.61,83.6Zm-9-13.32c-3.62.7-5.73,2.66-6,5.42-.14,1.22.1,2.23,1.47,2.59a3.58,3.58,0,0,0,4.57-3.41Z"/><path class="cls-1" d="M178,22.65a19,19,0,0,0-.65-3.63c-.28-.71-1.11-1.66-1.71-1.66a2.63,2.63,0,0,0-2.1,1.37c-.48,2.44-2.12,2.28-3.9,2.16s-3.68-.19-5.54-.29c.58-4.53,4.67-8.08,9.69-8.58a22.82,22.82,0,0,1,2.61-.14c6.64.14,10.11,3.73,10.1,10.43,0,3.86,0,7.71,0,11.57,0,2.26.31,4.51.5,7.13-2.89-.39-6.17,1-9.52-1.07a9.44,9.44,0,0,1-7.62,1.6c-3.1-.62-5.51-2-6.48-5.15a8.43,8.43,0,0,1,2.12-9.1c3.05-3,7-3.81,11-4.45C176.9,22.78,177.26,22.74,178,22.65Zm-.2,5c-3.88.92-6,3.08-6,5.86a1.91,1.91,0,0,0,1.92,2.22c1.84.15,4-.91,4.07-2C177.83,31.72,177.78,29.75,177.78,27.65Z"/><path class="cls-1" d="M138.87,76.8h14.91v6.27c-.49,0-1,.13-1.55.13-6.9,0-13.8,0-20.7,0-1.47,0-1.91-.4-1.91-1.88q.09-18.18,0-36.37c0-1.6.54-2.05,2-2a41.33,41.33,0,0,0,5.22,0c1.52-.1,2,.39,2,2-.06,9.75,0,19.51,0,29.27Z"/><path class="cls-1" d="M276.71,92.18c-5.85-1.82-7.73-.81-7.5,4,1.15,0,2.31,0,3.47,0s1.66.31,1.69,1.57c.1,3.8.15,3.8-3.6,3.91-.43,0-.85.08-1.44.14,0,.73-.08,1.39-.08,2,0,6.4-.05,12.81,0,19.21,0,1.49-.43,2-1.9,1.9a55.05,55.05,0,0,0-5.6,0c-1.43.08-1.8-.51-1.79-1.86,0-6.46,0-12.93,0-19.4v-1.88l-2.7-.32V96.07l2.84-.18c.18-1.18.31-2.29.52-3.37.85-4.15,3.31-6.77,7.53-7.06,2.91-.2,5.88.45,8.81.84.34,0,.87.88.8,1.26C277.57,89.08,277.12,90.56,276.71,92.18Z"/><path class="cls-1" d="M235,61.46c-.17-.55-.17-1.32-.53-1.56-.8-.52-1.94-1.23-2.62-1a2.86,2.86,0,0,0-1.3,2.42c.17,1.74,1.56,2.7,3.17,3.3a38.24,38.24,0,0,1,4.82,2,8.72,8.72,0,0,1,4.67,9.84c-.74,3.87-3.4,6.37-7.81,6.75a25.13,25.13,0,0,1-7.89-.41c-3.31-.79-5.27-3.28-6-6.89h8c.12.22.21.64.47.82a8.92,8.92,0,0,0,2.83,1.63c.49.1,1.43-.83,1.78-1.5a2.44,2.44,0,0,0-.75-3.33c-1.43-1-3.07-1.61-4.51-2.57-1.89-1.26-4-2.4-5.43-4.09a7.55,7.55,0,0,1,2.24-11.76,12.89,12.89,0,0,1,12-.43,8.18,8.18,0,0,1,4.38,5.08c.31.9.3,1.69-.88,1.72C239.5,61.51,237.33,61.46,235,61.46Z"/><path class="cls-1" d="M230.39,118.05c.31.85.53,1.35.69,1.87,1.26,4.06,1.29,4.19-3,5a16.41,16.41,0,0,1-6.24.19c-3.7-.72-6.16-4.5-6.24-8.91-.06-4-.08-8-.12-11.94,0-.67,0-1.34,0-2.11l-3.22-.32c0-1.6-.06-3.14.05-4.67,0-.36.6-.83,1-1a10.86,10.86,0,0,1,2.22-.19c0-1.72,0-3.31,0-4.91,0-1,.4-1.31,1.32-1.29,2.3,0,4.59,0,7.09,0,.12,2.14.24,4.08.36,6.19a36,36,0,0,1,4.06,0c.48.05,1.24.63,1.28,1,.15,1.53.06,3.08.06,4.86h-5.59v4.81c0,2.67,0,5.35,0,8a8.44,8.44,0,0,0,.37,2.56c.72,2.09,2.1,2.61,4.09,1.65C229.11,118.76,229.64,118.46,230.39,118.05Z"/><path class="cls-1" d="M200.28,97.54a7.14,7.14,0,0,1,6.44-1.63c1.24.34,1.71.92,1.46,2.27-.34,1.8-.46,3.64-.68,5.49-4.19-1.25-5.3-1.06-7.07,1.48a5.21,5.21,0,0,0-.83,2.74q-.12,7.65,0,15.28c0,1.47-.43,2-1.9,1.87-1.92-.12-3.85-.06-5.78,0-1,0-1.32-.35-1.32-1.3q0-13,0-25.9c0-1,.37-1.45,1.42-1.43,2,0,4-.05,6,.06A8.4,8.4,0,0,1,200.28,97.54Z"/><path class="cls-1" d="M242.48,12h9.08c0,.72.08,1.32.08,1.92,0,8.32,0,16.64.05,25,0,1.81-.59,2.25-2.24,2.14-1.85-.12-3.72,0-5.58-.08-.48,0-1.33-.65-1.33-1C242.47,30.68,242.48,21.44,242.48,12Z"/><path class="cls-1" d="M239.54,124.92c-.06-.68-.13-1.1-.13-1.52,0-8.63,0-17.26,0-25.9,0-1.3.4-1.75,1.69-1.7,2,.08,4,0,6,0,1.05,0,1.59.24,1.58,1.45,0,8.76,0,17.52-.05,26.27,0,.47-.52,1.31-.82,1.32C245,125,242.31,124.92,239.54,124.92Z"/><path class="cls-1" d="M292.29,96.22V125.3c-2.74,0-5.39,0-8-.06-.33,0-.91-.79-.91-1.22q-.09-13.24,0-26.47c0-.44.55-1.26.87-1.27C286.86,96.18,289.51,96.22,292.29,96.22Z"/><path class="cls-1" d="M251.51,7.44h-8.08c-.07,0-.14,0-.19,0-1.77-1-.63-2.61-.83-3.93-.11-.73-.66-2.12.85-2.19,2.7-.12,5.41,0,8.25,0Z"/><path class="cls-1" d="M239.47,91.42v-6h9.18c0,1.75.06,3.46-.05,5.16,0,.32-.7.84-1.09.85C244.91,91.46,242.31,91.42,239.47,91.42Z"/><path class="cls-1" d="M283.16,91.67c0-1.71-.05-3.38,0-5a1.3,1.3,0,0,1,.93-.84q3.72-.1,7.46,0c.3,0,.81.59.83.92.09,1.6,0,3.2,0,4.94Z"/></g></g></svg>