<svg height="32" viewBox="0 0 32 32" width="32" xmlns="http://www.w3.org/2000/svg"><g fill="none" fill-rule="evenodd"><path d="m0 0h31.267176v31.288889h-31.267176z"/><ellipse cx="15.633588" cy="15.644444" fill="#979797" rx="15.633588" ry="15.644444"/><path d="m19.9930565 8.53333333h-8.7189374c-1.51415702 0-2.74670758 1.2325703-2.74670758 2.74861507v8.7249921c0 1.5160448 1.23255056 2.7486151 2.74670758 2.7486151h8.7189374c1.514157 0 2.7467076-1.2325703 2.7467076-2.7486151v-8.7249921c0-1.51604477-1.2325506-2.74861507-2.7467076-2.74861507zm.7879967 1.63980347.3141959-.0016724v2.4107871l-2.4015934.0075259-.0083563-2.4107871zm-7.1755334 4.0112888c.4545814-.6305006 1.1932761-1.0435873 2.028068-1.0435873s1.5734866.4130867 2.0280679 1.0435873c.2966478.4114143.4738008.9148114.4738008 1.4600188 0 1.3797429-1.1222477 2.50277-2.5018687 2.50277-1.3787854 0-2.5010331-1.1230271-2.5010331-2.50277 0-.5452074.177153-1.0486045.4729651-1.4600188zm7.7496095 5.8225149c0 .7517508-.6108437 1.3630187-1.3620728 1.3630187h-8.7189374c-.7512291 0-1.36207281-.6112679-1.36207281-1.3630187v-5.8225149h2.12249381c-.183838.4515522-.2866202.9440786-.2866202 1.4600188 0 2.1440368 1.743119 3.8892025 3.8856679 3.8892025 2.1433845 0 3.8865035-1.7451657 3.8865035-3.8892025 0-.5159402-.1044534-1.0084666-.2866202-1.4600188h2.1216582z" fill="#000"/></g></svg>