<?xml version="1.0" encoding="UTF-8"?>
<svg width="36px" height="45px" viewBox="0 0 36 45" version="1.1" xmlns="http://www.w3.org/2000/svg" xmlns:xlink="http://www.w3.org/1999/xlink">
    <title>Group 28</title>
    <g id="Game" stroke="none" stroke-width="1" fill="none" fill-rule="evenodd">
        <g id="WE_games_roulette" transform="translate(-811.000000, -3025.000000)" fill="#8A7454">
            <g id="Group-20" transform="translate(511.000000, 2950.000000)">
                <g id="Group-4" transform="translate(0.000000, 75.000000)">
                    <g id="Group-28" transform="translate(300.000000, 0.000000)">
                        <path d="M33.0477153,31.2183774 C33.8936193,32.0624646 34.8957809,32.7389917 36,33.2113701 C35.7573465,33.9089176 35.5146929,34.5666051 35.2518183,35.2043628 C34.6382439,36.6519408 33.8652059,38.0287175 32.9466097,39.3099278 C32.1082662,40.6033086 31.1172505,41.7941338 29.994325,42.8574548 C28.9912646,43.8745136 27.6306471,44.4736944 26.1927529,44.5315687 C24.9754841,44.4833475 23.779828,44.1988971 22.6742766,43.6945118 C21.4907277,43.1655739 20.2121506,42.8742455 18.9131468,42.8375249 C17.5673433,42.8642873 16.24051,43.1556459 15.0104691,43.6945118 C13.9441813,44.1557823 12.8118721,44.4515903 11.6537619,44.5714286 C10.1685638,44.5556833 8.75607767,43.9353492 7.75108416,42.8574548 C6.56647496,41.7174019 5.52751189,40.4390737 4.65725158,39.0508388 C3.26136563,37.0545284 2.15853422,34.8739194 1.38142884,32.5736124 C0.496227107,30.0945771 0.0316549809,27.4886904 0.00639213288,24.8607306 C-0.0711375903,22.2987632 0.557824872,19.764041 1.82629365,17.5265174 C3.69937702,14.237942 7.20112745,12.1747339 11.0269069,12.1055773 C12.4195973,12.1863227 13.7877248,12.5032026 15.0711325,13.0422838 C16.104922,13.4884927 17.192111,13.8032554 18.306513,13.9789904 C19.5404214,13.7237855 20.7459737,13.3499724 21.9058738,12.8629145 C23.4519802,12.2457231 25.111896,11.9538206 26.7791656,12.0059276 C30.0009742,12.0947077 32.9945576,13.6658348 34.8676168,16.2510021 C31.8711917,17.8855368 30.0470058,21.0280482 30.1358729,24.4023423 C30.0585975,26.9828648 31.120911,29.4695261 33.0477153,31.2183774 L33.0477153,31.2183774 Z" id="Path"></path>
                        <path d="M25.1575087,7.11298765 C26.5711856,5.38761805 27.3687633,3.18419753 27.4094382,0.891715653 C27.4349492,0.595101713 27.4349492,0.29661394 27.4094382,1.98063788e-13 C26.2407222,0.0920265148 25.1031366,0.445280241 24.0703703,1.03687867 C22.9605682,1.60736781 21.9700966,2.41148014 21.1583924,3.40096203 C19.7241162,5.03348801 18.9078589,7.17639923 18.8676365,9.41485829 C18.853645,9.69807475 18.853645,9.98188235 18.8676365,10.2650988 C21.3356987,10.4598203 23.7200418,9.26492889 25.1575087,7.11298765 Z" id="Path"></path>
                    </g>
                </g>
            </g>
        </g>
    </g>
</svg>