<svg height="47" viewBox="0 0 128 47" width="128" xmlns="http://www.w3.org/2000/svg" xmlns:xlink="http://www.w3.org/1999/xlink"><mask id="a" fill="#fff"><path d="m.772.531h1.353v1.39h-1.353z" fill="#fff" fill-rule="evenodd"/></mask><g fill="#fff" fill-rule="evenodd"><path d="m18.34384 31.0133085-4.752-12.1522882h2.2792v.1155085l-.1848.1903898c-.032.0342543-.0568.0748814-.0728.1234746-.0152.0509831-.024.108339-.024.1752543 0 .0541694.004.1075423.012.1561356.0088.0501864.0208.0995762.036.1505593l2.8344 7.2587118 3.8104-8.3779491 3.8256 8.2385424 2.7224-7.111339c.0152-.0501865.0288-.1011695.036-.1537458.008-.0517796.012-.1067458.012-.1609152 0-.0669153-.0072-.1242712-.024-.1752543-.016-.0485932-.04-.0892203-.072-.1234746l-.1768-.1903898v-.1155085h2.2384l-4.648 12.1522882-3.9456-8.8160848z"/><path d="m2.12544 1.2267c0 .38316949-.3032.69464407-.6768.69464407-.3728 0-.6768-.31147458-.6768-.69464407 0-.3839661.304-.69544068.6768-.69544068.3736 0 .6768.31147458.6768.69544068" mask="url(#a)" transform="translate(20.8 .265)"/><path d="m30.6192 4.54075763c0 .3839661-.3024.69544068-.6768.69544068-.3736 0-.676-.31147458-.676-.69544068s.3024-.69464407.676-.69464407c.3744 0 .6768.31067797.6768.69464407m7.52896 3.45792542c0 .3839661-.3032.69544068-.6768.69544068s-.6768-.31147458-.6768-.69544068c0-.38316949.3032-.69464407.6768-.69464407s.6768.31147458.6768.69464407m3.34256 7.74830845c0 .3839661-.3024.6954407-.6768.6954407-.3736 0-.6768-.3114746-.6768-.6954407 0-.3831695.3032-.694644.6768-.694644.3744 0 .6768.3114745.6768.694644m2.94448 7.9171102c0 .3839661-.3024.6946441-.6768.6946441-.3736 0-.676-.310678-.676-.6946441s.3024-.6946441.676-.6946441c.3744 0 .6768.310678.6768.6946441m-2.9664 7.9085068c0 .3839661-.3032.694644-.6768.694644s-.6768-.3106779-.6768-.694644.3032-.6954407.6768-.6954407.6768.3114746.6768.6954407m-3.3644 7.7381915c0 .3839661-.3032.6954407-.6768.6954407s-.6768-.3114746-.6768-.6954407c0-.3831695.3032-.6946441.6768-.6946441s.6768.3114746.6768.6946441m-7.53832 3.436178c0 .3831695-.3032.694644-.6768.694644s-.6768-.3114745-.6768-.694644c0-.3839661.3032-.6954407.6768-.6954407s.6768.3114746.6768.6954407m5.316-32.4253c0 .3839661-.3024.6954406-.6768.6954406-.3736 0-.676-.3114745-.676-.6954406 0-.38316953.3024-.6946441.676-.6946441.3744 0 .6768.31147457.6768.6946441m2.43208 5.2837559c0 .3839661-.3024.6954407-.6768.6954407-.3736 0-.6752-.3114746-.6752-.6954407s.3016-.6946441.6752-.6946441c.3744 0 .6768.310678.6768.6946441m1.02144 2.5446119c0 .3831695-.3032.694644-.6768.694644s-.6768-.3114745-.6768-.694644c0-.3839661.3032-.6954407.6768-.6954407s.6768.3114746.6768.6954407m1.8996 5.5093559c0 .3839661-.3032.6954407-.6768.6954407s-.676-.3114746-.676-.6954407c0-.3831695.3024-.6946441.676-.6946441s.6768.3114746.6768.6946441m-1.9152 5.503939c0 .3839661-.3024.6954407-.6768.6954407-.3736 0-.676-.3114746-.676-.6954407 0-.3831695.3024-.6946441.676-.6946441.3744 0 .6768.3114746.6768.6946441m-1.02816 2.5415051c0 .3839661-.3032.694644-.6768.694644s-.6768-.3106779-.6768-.694644.3032-.6954407.6768-.6954407.6768.3114746.6768.6954407m-2.4472 5.2768254c0 .3839661-.3032.6946441-.6768.6946441s-.6768-.310678-.6768-.6946441.3032-.6954407.6768-.6954407.6768.3114746.6768.6954407m-5.14064 2.5002407c0 .3839661-.3032.694644-.6768.694644s-.6768-.3106779-.6768-.694644.3032-.6954407.6768-.6954407.6768.3114746.6768.6954407m-2.47544 1.0494542c0 .3839661-.3032.6946441-.6768.6946441s-.6768-.310678-.6768-.6946441.3032-.6954407.6768-.6954407.6768.3114746.6768.6954407m.04728-33.78200678c0 .3839661-.3032.69464407-.6768.69464407s-.6768-.31067797-.6768-.69464407.3032-.69544068.6768-.69544068.6768.31147458.6768.69544068m2.47264 1.05646441c0 .3839661-.3032.69544068-.6768.69544068s-.6768-.31147458-.6768-.69544068c0-.38316949.3032-.69464407.6768-.69464407s.6768.31147458.6768.69464407m-15.66328-.02262373c0 .3839661-.3032.69464407-.6768.69464407s-.6768-.31067797-.6768-.69464407.3032-.69544068.6768-.69544068.6768.31147458.6768.69544068m-5.14056 2.5003203c0 .3839661-.3024.6946441-.6768.6946441-.3736 0-.6768-.310678-.6768-.6946441 0-.38396606.3032-.69544064.6768-.69544064.3744 0 .6768.31147458.6768.69544064m-2.26016-2.32992538c0 .3839661-.3024.69544067-.6768.69544067-.3736 0-.6768-.31147457-.6768-.69544067 0-.3831695.3032-.69464407.6768-.69464407.3744 0 .6768.31147457.6768.69464407m-3.36408 7.73890848c0 .3839661-.3024.6946441-.6768.6946441-.3736 0-.676-.310678-.676-.6946441s.3024-.6954407.676-.6954407c.3744 0 .6768.3114746.6768.6954407m3.17696-.1322373c0 .3831695-.3024.6946441-.6768.6946441-.3736 0-.6768-.3114746-.6768-.6946441 0-.3839661.3032-.6954407.6768-.6954407.3744 0 .6768.3114746.6768.6954407m-1.02816 2.5407881c0 .3839661-.3032.6954407-.6768.6954407s-.6768-.3114746-.6768-.6954407c0-.3831695.3032-.694644.6768-.694644s.6768.3114745.6768.694644m-1.9152 5.503939c0 .3839661-.3032.6954407-.6768.6954407s-.6768-.3114746-.6768-.6954407c0-.3831695.3032-.694644.6768-.694644s.6768.3114745.6768.694644m-3.2004-.0047c0 .3839661-.3032.6954407-.6768.6954407s-.6768-.3114746-.6768-.6954407.3032-.694644.6768-.694644.6768.3106779.6768.694644m2.94456 7.9171102c0 .3839661-.3024.6954407-.6768.6954407-.3736 0-.6768-.3114746-.6768-.6954407 0-.3831695.3032-.6946441.6768-.6946441.3744 0 .6768.3114746.6768.6946441m3.34256 7.7482288c0 .3839661-.3032.6954407-.6768.6954407s-.6768-.3114746-.6768-.6954407c0-.3831695.3032-.6946441.6768-.6946441s.6768.3114746.6768.6946441m7.52888 3.4580051c0 .3839661-.3024.6954407-.6768.6954407-.3736 0-.6768-.3114746-.6768-.6954407 0-.3831695.3032-.6946441.6768-.6946441.3744 0 .6768.3114746.6768.6946441m7.69416 3.0503c0 .3831695-.3032.6946441-.6768.6946441s-.6768-.3114746-.6768-.6946441c0-.3839661.3032-.6954407.6768-.6954407s.6768.3114746.6768.6954407m-16.41016-16.6587915c0 .3831695-.3024.694644-.6768.694644-.3736 0-.6768-.3114745-.6768-.694644 0-.3839661.3032-.6954407.6768-.6954407.3744 0 .6768.3114746.6768.6954407m1.02112 2.5438152c0 .3839661-.3032.6954407-.6768.6954407s-.6768-.3114746-.6768-.6954407c0-.3831695.3032-.6946441.6768-.6946441s.6768.3114746.6768.6946441m2.4324 5.2837559c0 .3839662-.3032.6946441-.6768.6946441s-.6768-.3106779-.6768-.6946441c0-.3839661.3032-.6954406.6768-.6954406s.6768.3114745.6768.6954406m5.1336 2.5158543c0 .3839661-.3024.6946441-.6768.6946441-.3736 0-.676-.310678-.676-.6946441s.3024-.6946441.676-.6946441c.3744 0 .6768.310678.6768.6946441m2.47224 1.057261c0 .3831695-.3024.6946441-.6768.6946441-.3736 0-.676-.3114746-.676-.6946441 0-.3839661.3024-.6954407.676-.6954407.3744 0 .6768.3114746.6768.6954407m5.35512 1.9681847c0 .3839662-.3032.6946441-.6768.6946441s-.6768-.3106779-.6768-.6946441c0-.3839661.3032-.694644.6768-.694644s.6768.3106779.6768.694644m-5.30744-35.75027114c0 .38316949-.3032.69464407-.6768.69464407s-.6768-.31147458-.6768-.69464407c0-.3839661.3032-.69544068.6768-.69544068s.6768.31147458.6768.69544068m-2.33752-2.2155322c0 .3839661-.3032.69544068-.6768.69544068s-.6768-.31147458-.6768-.69544068.3032-.69464407.6768-.69464407.6768.31067797.6768.69464407m7.69768.26296102c0 .3839661-.3032.69544067-.6768.69544067s-.6768-.31147457-.6768-.69544067c0-.38396611.3032-.69464407.6768-.69464407s.6768.31067796.6768.69464407m.17616 2.81768983c0 .48672881-.384.88105084-.8568.88105084-.4736 0-.8576-.39432203-.8576-.88105084 0-.48672882.384-.88105085.8576-.88105085.4728 0 .8568.39432203.8568.88105085m3.216 1.13891356c0 .48672881-.3832.88105084-.8568.88105084s-.8576-.39432203-.8576-.88105084c0-.48672882.384-.88105085.8576-.88105085s.8568.39432203.8568.88105085m4.75512 2.03271013c0 .4867288-.3832.8802543-.8568.8802543s-.8576-.3935255-.8576-.8802543.384-.88105081.8576-.88105081.8568.39432201.8568.88105081m3.05312 1.5403255c0 .4867288-.384.8810508-.8568.8810508-.4736 0-.8576-.394322-.8576-.8810508 0-.4867289.384-.8802543.8576-.8802543.4728 0 .8568.3935254.8568.8802543m1.49024 3.1428661c0 .4867288-.3832.8810508-.8568.8810508s-.8576-.394322-.8576-.8810508c0-.4867289.384-.8810509.8576-.8810509s.8568.394322.8568.8810509m1.964 4.8932576c0 .4867288-.384.8810508-.8568.8810508-.4736 0-.8576-.394322-.8576-.8810508s.384-.8810509.8576-.8810509c.4728 0 .8568.3943221.8568.8810509m1.09928 3.308561c0 .4867288-.384.8810509-.8568.8810509-.4736 0-.8576-.3943221-.8576-.8810509s.384-.8810508.8576-.8810508c.4728 0 .8568.394322.8568.8810508m-1.10904 3.3055339c0 .4867288-.3832.8802542-.8568.8802542s-.8576-.3935254-.8576-.8802542.384-.8810508.8576-.8810508.8568.394322.8568.8810508m-1.97736 4.8869644c0 .4867288-.384.8810509-.8568.8810509-.4736 0-.8576-.3943221-.8576-.8810509s.384-.8802542.8576-.8802542c.4728 0 .8568.3935254.8568.8802542m-1.4984 3.1382458c0 .4867288-.384.8810508-.8568.8810508-.4736 0-.8576-.394322-.8576-.8810508s.384-.8802543.8576-.8802543c.4728 0 .8568.3935255.8568.8802543m-3.05784 1.531722c0 .4867288-.384.8810509-.8568.8810509-.4736 0-.8576-.3943221-.8576-.8810509s.384-.8802542.8576-.8802542c.4728 0 .8568.3935254.8568.8802542m-4.76056 2.0187695c0 .4867288-.384.8810508-.8568.8810508-.4736 0-.8576-.394322-.8576-.8810508s.384-.8810508.8576-.8810508c.4728 0 .8568.394322.8568.8810508m-3.21912 1.1295932c0 .4859322-.3832.8802543-.8568.8802543s-.8576-.3943221-.8576-.8802543c0-.4867288.384-.8810508.8576-.8810508s.8568.394322.8568.8810508m-3.2156-1.1397102c0 .4867289-.384.8810509-.8568.8810509-.4736 0-.8576-.394322-.8576-.8810509 0-.4867288.384-.8802542.8576-.8802542.4728 0 .8568.3935254.8568.8802542m-4.75512-2.0319932c0 .4867288-.384.8810509-.8568.8810509-.4736 0-.8576-.3943221-.8576-.8810509s.384-.8810508.8576-.8810508c.4728 0 .8568.394322.8568.8810508m-3.05312-1.5410423c0 .4867288-.3832.8810508-.8568.8810508s-.8576-.394322-.8576-.8810508c0-.4859322.384-.8802543.8576-.8802543s.8568.3943221.8568.8802543m-1.49024-3.1421492c0 .4867288-.384.8802542-.8568.8802542-.4736 0-.8576-.3935254-.8576-.8802542s.384-.8810508.8576-.8810508c.4728 0 .8568.394322.8568.8810508m-1.964-4.8932576c0 .4859322-.3832.8802542-.8568.8802542s-.8576-.394322-.8576-.8802542c0-.4867288.384-.8810509.8576-.8810509s.8568.3943221.8568.8810509m-1.09888-3.308561c0 .4859322-.384.8802542-.8568.8802542-.4736 0-.8576-.394322-.8576-.8802542 0-.4867289.384-.8810509.8576-.8810509.4728 0 .8568.394322.8568.8810509m12.40272-14.88195258c0 .48672881-.3832.88105084-.8568.88105084s-.8576-.39432203-.8576-.88105084c0-.48593221.384-.88025424.8576-.88025424s.8568.39432203.8568.88025424m-4.76008 2.01876948c0 .4859322-.384.8810509-.8568.8810509-.4736 0-.8576-.3951187-.8576-.8810509s.384-.88025423.8576-.88025423c.4728 0 .8568.39432203.8568.88025423m-3.05784 1.531722c0 .4867289-.384.8810509-.8568.8810509-.4736 0-.8576-.394322-.8576-.8810509 0-.4867288.384-.8810508.8576-.8810508.4728 0 .8568.394322.8568.8810508m-1.4988 3.1382458c0 .4867288-.384.8810509-.8568.8810509-.4736 0-.8576-.3943221-.8576-.8810509 0-.4859322.384-.8802542.8576-.8802542.4728 0 .8568.394322.8568.8802542m-1.97736 4.887761c0 .4867288-.384.8802543-.8568.8802543-.4736 0-.8576-.3935255-.8576-.8802543s.384-.8810508.8576-.8810508c.4728 0 .8568.394322.8568.8810508m15.00544-9.6386644c0 .7687288-.6056 1.3908814-1.3536 1.3908814-.7464 0-1.352-.6221526-1.352-1.3908814 0-.76793219.6056-1.39088134 1.352-1.39088134.748 0 1.3536.62294915 1.3536 1.39088134m-8.92576 3.7846949c0 .7687288-.6056 1.3908814-1.3536 1.3908814-.7464 0-1.3528-.6221526-1.3528-1.3908814 0-.7679322.6064-1.3908813 1.3528-1.3908813.748 0 1.3536.6229491 1.3536 1.3908813m-3.70824 9.1633271c0 .7679323-.6056 1.3908814-1.3528 1.3908814s-1.3528-.6229491-1.3528-1.3908814c0-.7679322.6056-1.3908813 1.3528-1.3908813s1.3528.6229491 1.3528 1.3908813m21.54888-9.136083c0 .7679322-.6056 1.3908814-1.3528 1.3908814s-1.3528-.6229492-1.3528-1.3908814c0-.7687288.6056-1.3908814 1.3528-1.3908814s1.3528.6221526 1.3528 1.3908814m3.682 9.1734441c0 .7687288-.6056 1.3908813-1.3536 1.3908813-.7464 0-1.352-.6221525-1.352-1.3908813 0-.7679322.6056-1.3908814 1.352-1.3908814.748 0 1.3536.6229492 1.3536 1.3908814m-3.70784 9.1633271c0 .7687288-.6056 1.3908813-1.3528 1.3908813-.748 0-1.3528-.6221525-1.3528-1.3908813 0-.7679322.6048-1.3908814 1.3528-1.3908814.7472 0 1.3528.6229492 1.3528 1.3908814m-8.92576 3.7846949c0 .7679322-.6056 1.3908814-1.3528 1.3908814s-1.3528-.6229492-1.3528-1.3908814.6056-1.3908814 1.3528-1.3908814 1.3528.6229492 1.3528 1.3908814m-8.9152-3.8111424c0 .7687288-.6056 1.3908814-1.3528 1.3908814s-1.3528-.6221526-1.3528-1.3908814c0-.7679322.6056-1.3908813 1.3528-1.3908813s1.3528.6229491 1.3528 1.3908813m41.75624-8.4063881c.1936 0 .3112-.0167288.3528-.0525763.0416-.0350508.0632-.0963898.0632-.1816271 0-.0995763-.0216-.2103051-.0632-.3305932-.0416-.1210848-.076-.231017-.1032-.3305932l-3.3224-9.0909153c-.0832-.2413729-.1736-.423-.2696-.5440847-.0976-.1210848-.2424-.1816272-.436-.1816272v-.257305h2.7192v.257305c-.18 0-.3008.028678-.3632.0860339-.0624.0557628-.0936.1338305-.0936.2342034 0 .0852373.024.1816271.0728.2875763.0488.1075424.1008.231017.1568.3736102l2.8024 7.7247288h.0416l2.7816-8.1302034c.0416-.1282542.0624-.2357966.0624-.3194407 0-.1704746-.104-.2565085-.312-.2565085v-.257305h2.8864v.257305c-.2488 0-.3736.0924068-.3736.2764238 0 .0724915.02.1617118.0624.2668644.0416.1075424.0824.2182712.124.3313898l2.6992 7.5757627h.0416l2.7608-7.6817118c.028-.0995763.056-.1824238.084-.2461526.0272-.0637288.0416-.1386102.0416-.2230508 0-.1999492-.1528-.2995255-.4576-.2995255v-.257305h2.6168v.257305c-.18 0-.312.0501865-.3952.1497628-.0832.0987796-.18.2907627-.2904.5759491l-3.26 9.0478983c-.0696.1856102-.1248.3266102-.1648.4269831-.0424.0995762-.064.2055254-.064.3202373 0 .1282542.1384.1911864.416.1911864v.2565085h-2.74v-.2565085c.1792 0 .2936-.0167288.3416-.0525763.0488-.0350508.0728-.0892203.0728-.1609152 0-.0987797-.028-.2158814-.0824-.3513051-.056-.1362204-.104-.2596949-.1448-.3736102l-2.7832-7.7677458h-.0408l-2.7816 7.9820339c-.028.0844407-.056.1672882-.084.2437628-.028.079661-.0416.1680847-.0416.2668644 0 .1425932.1376.2134915.4152.2134915v.2565085h-2.948zm22.69216-11.3128203c.9336 0 1.7952.1298474 2.5856.3871525.7904.2588983 1.476.6428644 2.0584 1.1526949.5816.5090339 1.0352 1.1335763 1.3576 1.8720339.3232.7384576.484 1.5860509.484 2.5459661 0 .9615085-.1608 1.8098983-.484 2.5483559-.3224.7376611-.776 1.3582204-1.3576 1.8608814-.5824.5010678-1.268.8738814-2.0584 1.1176441-.7904.2445593-1.652.365644-2.5856.365644-.9344 0-1.7968-.1210847-2.5856-.365644-.7904-.2437627-1.476-.6165763-2.0584-1.1176441-.5816-.502661-1.0344-1.1232203-1.3576-1.8608814-.3232-.7384576-.4848-1.5868474-.4848-2.5483559 0-.9599152.1616-1.8075085.4848-2.5459661s.776-1.363 1.3576-1.8720339c.5824-.5098305 1.268-.8937966 2.0584-1.1526949.7888-.2573051 1.6512-.3871525 2.5856-.3871525m0 1.5063898c-1.4656 0-2.5968.394322-3.3944 1.1821695-.7976.7878474-1.196 1.8744237-1.196 3.2589322s.3984 2.4702881 1.196 3.2589322c.7976.7878474 1.9288 1.1813729 3.3944 1.1813729s2.5968-.3935255 3.3944-1.1813729c.7968-.7886441 1.1952-1.8744237 1.1952-3.2589322s-.3984-2.4710848-1.1952-3.2589322c-.7976-.7878475-1.9288-1.1821695-3.3944-1.1821695m11.89568 9.2953254c0 .1561356.0352.2804068.104.3728136.0696.0924067.2008.1386101.3952.1386101v.2565085h-2.7408v-.2565085c.1936 0 .3248-.0462034.3944-.1386101.0688-.0924068.104-.216678.104-.3728136v-9.6883729c0-.1561356-.0352-.2812034-.104-.3736101-.0696-.0932034-.2008-.1394068-.3944-.1394068v-.2557119h6.9544c1.3704 0 2.3528.2668644 2.9496.8005932.5944.5337288.892 1.3056441.892 2.3141526 0 .8977796-.228 1.6091525-.6856 2.1349152-.4568.5265594-1.204.8611356-2.2416 1.0029322l2.616 4.1606949c.152.2286272.2728.3783899.3632.4492882.0896.0708983.2384.1059491.4456.1059491v.2565085h-2.9888v-.2565085c.18 0 .2944-.0135423.3416-.0430169.0488-.0278814.0728-.0780678.0728-.1489661 0-.0852373-.0328-.1633051-.1032-.2342034l-2.5528-4.183h-3.8216zm4.548-5.5491864c.8424 0 1.4392-.1633051 1.7848-.4907119.3464-.3266102.5192-.7743051.5192-1.3438814 0-.2843898-.0352-.5265593-.104-.7265084-.0688-.1991526-.1936-.3656441-.3736-.5010678-.18-.1346271-.4264-.2342034-.7384-.2995254-.3096-.0637289-.708-.0947967-1.192-.0947967h-4.444v3.4564916zm10.73288-4.6519644c-.1952 0-.3256.0501864-.3944.1497627-.0696.0987796-.1032.249339-.1032.4476949v8.962661h6.9752c.4848 0 .7264-.2134915.7264-.6404746h.2496v2.454356h-.2496c0-.2708475-.2416-.404678-.7264-.404678h-9.2184v-.2565085c.1944 0 .3256-.0454068.3944-.1386102.0696-.0932033.1048-.2166779.1048-.3728135v-9.6891695c0-.1569322-.0352-.2804068-.1048-.3736102-.0688-.0924068-.2-.1386101-.3944-.1386101v-.2557119h2.7408zm10.2348.5119017c0-.1561356-.0344-.2804068-.1032-.3728136-.0704-.0924068-.2016-.1386102-.3944-.1386102v-.2565084h6.436c.8584 0 1.6288.1386101 2.3136.4166271.6856.2764237 1.2672.6643729 1.7448 1.1638474.4776.4978814.848 1.091356 1.1104 1.7812204.2632.6890678.3952 1.4386779.3952 2.2504237s-.1104 1.5621525-.3328 2.2520169c-.2208.6898645-.5504 1.2841356-.9864 1.7812204-.4352.4986779-.9752.8866271-1.6192 1.1630508-.644.278017-1.388.4166271-2.2312.4166271h-6.8304v-.2557118c.1928 0 .324-.047.3944-.1394068.0688-.0924068.1032-.2174746.1032-.3736102zm6.1456 9.0478983c1.2176 0 2.1312-.3552882 2.7408-1.0658644.6088-.7113729.9136-1.7573221.9136-3.1378475 0-1.3789322-.3504-2.4248814-1.0488-3.1362542-.6992-.7105763-1.6928-1.0666611-2.9792-1.0666611h-4.028v8.4066272zm-65.11944 7.0974779c0-.065322-.0248-.1131186-.0736-.1465762-.048-.0318645-.1328-.0485933-.2544-.0485933h-2.7912v1.0985255h1.6888c.1144 0 .204-.0167289.2672-.0493899s.0952-.1155084.0952-.2509322h.1544v1.3797288h-.1544c0-.1346271-.032-.2222542-.0952-.2604915s-.1528-.0573559-.2672-.0573559h-1.6888v1.2227966h2.8776c.0864 0 .1576-.0207119.212-.0621356.0544-.0422203.0816-.0979831.0816-.1680847h.1544v1.2124406h-.1544c0-.0876271-.0272-.1378135-.0816-.1497627-.0544-.0119491-.1256-.018322-.212-.018322h-4.0152v-.1593221c.0408 0 .076-.0135423.108-.0406271.032-.0254915.0472-.0661186.0472-.1178983v-4.0220847c0-.0533729-.0152-.0924068-.0472-.1186949-.032-.0270848-.0672-.0414238-.108-.0414238v-.1585254h3.9288c.1216 0 .2064-.0191186.2544-.0573559.0488-.0382373.0736-.090017.0736-.155339h.1552v1.1694237zm1.5336 3.5426848c.1096 0 .164-.0533729.164-.1593221v-4.0212881c0-.1059492-.0544-.159322-.164-.159322v-.1593221h1.4736v.1593221c-.0456 0-.0688.0294745-.0688.0892203 0 .0477966.0568.1298475.172.2469492l2.4728 2.6399661v-2.8168136c0-.1059492-.0736-.159322-.2232-.159322v-.1593221h1.3016v.1593221c-.1096 0-.164.0533728-.164.159322v4.0212881c0 .1059492.0544.1593221.164.1593221v.1601186h-1.396v-.1601186c.0736 0 .1112-.0262882.1112-.0804577 0-.0406271-.0456-.1075423-.1384-.2031355l-2.628-2.816017v2.9402881c0 .1059492.0664.1593221.1984.1593221v.1601186h-1.2752zm9.03984-.1594814c0 .1067458.0632.1601187.1896.1601187v.1585254h-1.3272v-.1585254c.04 0 .076-.0135424.1072-.0414238.032-.0262881.048-.0661186.048-.1186949v-3.525h-1.4224c-.0512 0-.1016.0151356-.1504.0438136-.0488.0302712-.0736.0860339-.0736.1688813h-.1544v-1.240322h.1544c0 .0828475.0248.1394068.0736.1680847.0488.0294746.0992.0446102.1504.0446102h3.8264c.052 0 .1016-.0151356.1512-.0446102.048-.0286779.0736-.0852372.0736-.1680847h.1536v1.240322h-.1536c0-.0828474-.0256-.1386101-.0736-.1688813-.0496-.028678-.0992-.0438136-.1512-.0438136h-1.4216zm7.14336-3.3832034c0-.065322-.0248-.1131186-.0736-.1465762-.048-.0318645-.1328-.0485933-.2544-.0485933h-2.7912v1.0985255h1.6888c.1144 0 .2032-.0167289.2672-.0493899.0632-.032661.0952-.1155084.0952-.2509322h.1544v1.3797288h-.1544c0-.1346271-.032-.2222542-.0952-.2604915-.064-.0382373-.1528-.0573559-.2672-.0573559h-1.6888v1.2227966h2.8776c.0864 0 .1576-.0207119.212-.0621356.0544-.0422203.0816-.0979831.0816-.1680847h.1544v1.2124406h-.1544c0-.0876271-.0272-.1378135-.0816-.1497627-.0544-.0119491-.1256-.018322-.212-.018322h-4.0152v-.1593221c.0408 0 .076-.0135423.108-.0406271.032-.0254915.0472-.0661186.0472-.1178983v-4.0220847c0-.0533729-.0152-.0924068-.0472-.1186949-.032-.0270848-.0672-.0414238-.108-.0414238v-.1585254h3.9288c.1216 0 .2064-.0191186.2544-.0573559.0488-.0382373.0736-.090017.0736-.155339h.1552v1.1694237zm4.38592-.9568881c.276 0 .5256.0254915.7496.075678.224.0501864.416.1298474.5776.238983.1608.1091356.2848.2517288.3704.4245932.0864.1744577.1296.3887458.1296.6420678 0 .3911356-.112.6890678-.3368.8945932-.224.2071187-.5248.3457289-.904.4174238l1.1464 1.681644c.0392.0597458.0872.0955933.1416.1067458.0544.0127458.1048.018322.1504.018322v.1593221h-1.6112v-.1593221c.0528 0 .096-.0087627.1336-.0270847.0368-.0175254.056-.0422203.056-.0708983 0-.0294746-.012-.0637288-.0344-.1019661-.0224-.0374407-.0576-.090017-.1024-.155339l-.9488-1.3805254h-1.232v1.5756949c0 .0533729.0176.0924068.0552.1194915.0376.0262882.1056.0406271.2024.0406271v.1593221h-1.4904v-.1593221c.1672 0 .2504-.0533728.2504-.1601186v-4.0212881c0-.1059492-.0832-.1601187-.2504-.1601187v-.1585254zm-.2232 2.0727797c.2064 0 .3784-.0167289.5168-.0485933.1376-.032661.2464-.0788644.3264-.1378135.0816-.0581526.1384-.1282543.1728-.2087119.0352-.0788644.052-.1664915.052-.2604915s-.0168-.1816271-.052-.2612882c-.0344-.079661-.0912-.1489661-.1728-.2087118-.08-.0581526-.1888-.1027627-.3264-.1362204-.1384-.0318644-.3104-.0493898-.5168-.0493898h-1.4912v1.3112204zm5.92832 2.2673118c0 .1067458.0624.1601187.1896.1601187v.1585254h-1.3272v-.1585254c.04 0 .076-.0135424.1072-.0414238.032-.0262881.048-.0661186.048-.1186949v-3.525h-1.4224c-.0512 0-.1016.0151356-.1512.0438136-.048.0302712-.0728.0860339-.0728.1688813h-.1544v-1.240322h.1544c0 .0828475.0248.1394068.0728.1680847.0496.0294746.1.0446102.1512.0446102h3.8264c.0512 0 .1016-.0151356.1512-.0446102.048-.0286779.0728-.0852372.0728-.1680847h.1544v1.240322h-.1544c0-.0828474-.0248-.1386101-.0728-.1688813-.0496-.028678-.1-.0438136-.1512-.0438136h-1.4216zm2.32576.1594814c.0752-.0119492.1336-.0493899.1768-.1147119.0424-.065322.0848-.1386102.1256-.2214576l1.5936-3.445339c.04-.0772712.076-.1489661.108-.2134915.0312-.0653221.0464-.1210848.0464-.1680848 0-.0589491-.0192-.1011695-.0592-.1234746-.0408-.0238983-.084-.0422203-.1296-.0533728v-.1593221h1.4568v.1593221c-.0408.0111525-.0808.0286779-.1208.0477966-.04.0215085-.0616.0645254-.0616.1290508 0 .047.0112.0947966.0304.1425932.02.047.0512.108339.092.1864068l1.7912 3.6038644c.0288.0653221.068.1123221.1168.1425933.0496.0294745.1048.0581525.168.0876271v.1601186h-1.516v-.1601186c.0224 0 .0512-.0087627.0848-.0262882.0352-.018322.052-.0454067.052-.079661 0-.0589491-.0216-.1362203-.068-.2302203l-.3272-.6564068h-2.1032l-.3104.6301186c-.0576.1234746-.0864.212695-.0864.2652712 0 .0653221.0544.0971865.164.0971865v.1601186h-1.224zm3.2488-1.6473899-.724-1.6481864-.8096 1.6481864zm3.0336 1.6473899c.1496 0 .224-.0533729.224-.1593221v-4.0212881c0-.1059492-.0744-.159322-.224-.159322v-.1593221h1.4304v.1593221c-.1496 0-.224.0533728-.224.159322v4.0212881c0 .1059492.0744.1593221.224.1593221v.1601186h-1.4304zm2.93832 0c.1096 0 .164-.0533729.164-.1593221v-4.0212881c0-.1059492-.0544-.159322-.164-.159322v-.1593221h1.4736v.1593221c-.0456 0-.0688.0294745-.0688.0892203 0 .0477966.0568.1298475.172.2469492l2.4728 2.6399661v-2.8168136c0-.1059492-.0736-.159322-.2232-.159322v-.1593221h1.3016v.1593221c-.1104 0-.1648.0533728-.1648.159322v4.0212881c0 .1059492.0544.1593221.1648.1593221v.1601186h-1.3968v-.1601186c.0744 0 .1112-.0262882.1112-.0804577 0-.0406271-.0448-.1075423-.1376-.2031355l-2.628-2.816017v2.9402881c0 .1059492.0656.1593221.1992.1593221v.1601186h-1.276zm6.67848 0c.0456 0 .0864-.0135424.12-.0398305.0352-.0270848.0512-.0661187.0512-.1194916v-4.0396101c0-.0517797-.016-.0892204-.0512-.1099322-.0336-.0207119-.0744-.0310678-.12-.0310678v-.1593221h1.6112v.1593221c-.028 0-.0592.0087627-.0904.0262881-.032.0175254-.0472.0454068-.0472.079661 0 .0310678.0112.0685085.0344.1155085.0232.0477966.0488.097983.0776.1505593l1.232 2.3022034 1.2408-2.2751186c.04-.0772712.0704-.1378136.0904-.1816272.0192-.0438135.0312-.0852372.0312-.1194915 0-.0645254-.0376-.097983-.1136-.097983v-.1593221h1.5952v.1593221c-.0456 0-.0872.0103559-.1208.0310678-.0344.0207118-.052.0581525-.052.1099322v4.0396101c0 .0533729.0176.0924068.052.1194916.0336.0262881.0752.0398305.1208.0398305v.1601186h-1.3528v-.1601186c.1552 0 .2328-.0533729.2328-.1593221v-2.9402881h-.0184l-1.732 3.2597288h-.0256l-1.6976-3.2684915h-.0168v2.9490508c0 .1059492.0808.1593221.2408.1593221v.1601186h-1.292zm11.418-3.5426848c0-.065322-.0248-.1131186-.0736-.1465762-.0488-.0318645-.1328-.0485933-.2544-.0485933h-2.7912v1.0985255h1.6888c.1144 0 .204-.0167289.2664-.0493899.064-.032661.096-.1155084.096-.2509322h.1544v1.3797288h-.1544c0-.1346271-.032-.2222542-.096-.2604915-.0624-.0382373-.152-.0573559-.2664-.0573559h-1.6888v1.2227966h2.8776c.0864 0 .1568-.0207119.2112-.0621356.0552-.0422203.0824-.0979831.0824-.1680847h.1544v1.2124406h-.1544c0-.0876271-.0272-.1378135-.0824-.1497627-.0544-.0119491-.1248-.018322-.2112-.018322h-4.016v-.1593221c.0408 0 .0768-.0135423.108-.0406271.0312-.0254915.048-.0661186.048-.1178983v-4.0220847c0-.0533729-.0168-.0924068-.048-.1186949-.0312-.0270848-.0672-.0414238-.108-.0414238v-.1585254h3.9296c.1216 0 .2056-.0191186.2544-.0573559s.0736-.090017.0736-.155339h.1552v1.1694237zm1.5336 3.5426848c.1096 0 .164-.0533729.164-.1593221v-4.0212881c0-.1059492-.0544-.159322-.164-.159322v-.1593221h1.4736v.1593221c-.0456 0-.0688.0294745-.0688.0892203 0 .0477966.0568.1298475.172.2469492l2.4728 2.6399661v-2.8168136c0-.1059492-.0736-.159322-.2232-.159322v-.1593221h1.3016v.1593221c-.1104 0-.1648.0533728-.1648.159322v4.0212881c0 .1059492.0544.1593221.1648.1593221v.1601186h-1.3968v-.1601186c.0744 0 .1112-.0262882.1112-.0804577 0-.0406271-.0448-.1075423-.1376-.2031355l-2.628-2.816017v2.9402881c0 .1059492.0656.1593221.1992.1593221v.1601186h-1.276zm9.03944-.1594814c0 .1067458.0632.1601187.1896.1601187v.1585254h-1.3272v-.1585254c.04 0 .0768-.0135424.1072-.0414238.032-.0262881.048-.0661186.048-.1186949v-3.525h-1.4216c-.052 0-.1024.0151356-.1512.0438136-.0488.0302712-.0728.0860339-.0728.1688813h-.1552v-1.240322h.1552c0 .0828475.024.1394068.0728.1680847.0488.0294746.0992.0446102.1512.0446102h3.8256c.052 0 .1024-.0151356.1512-.0446102.048-.0286779.0736-.0852372.0736-.1680847h.1544v1.240322h-.1544c0-.0828474-.0256-.1386101-.0736-.1688813-.0488-.028678-.0992-.0438136-.1512-.0438136h-1.4216z"/></g></svg>