<svg xmlns="http://www.w3.org/2000/svg" xmlns:xlink="http://www.w3.org/1999/xlink" width="128" height="47" viewBox="0 0 128 47">
  <defs>
    <polygon id="logo-a" points=".772 .531 2.125 .531 2.125 1.921 .772 1.921"/>
  </defs>
  <g fill="none" fill-rule="evenodd">
    <path fill="#FFF" d="M18.34384,31.0133085 L13.59184,18.8610203 L15.87104,18.8610203 L15.87104,18.9765288 L15.68624,19.1669186 C15.65424,19.2011729 15.62944,19.2418 15.61344,19.2903932 C15.59824,19.3413763 15.58944,19.3987322 15.58944,19.4656475 C15.58944,19.5198169 15.59344,19.5731898 15.60144,19.6217831 C15.61024,19.6719695 15.62224,19.7213593 15.63744,19.7723424 L18.47184,27.0310542 L22.28224,18.6531051 L26.10784,26.8916475 L28.83024,19.7803085 C28.84544,19.730122 28.85904,19.679139 28.86624,19.6265627 C28.87424,19.5747831 28.87824,19.5198169 28.87824,19.4656475 C28.87824,19.3987322 28.87104,19.3413763 28.85424,19.2903932 C28.83824,19.2418 28.81424,19.2011729 28.78224,19.1669186 L28.60544,18.9765288 L28.60544,18.8610203 L30.84384,18.8610203 L26.19584,31.0133085 L22.25024,22.1972237 L18.34384,31.0133085 Z"/>
    <g transform="translate(20.8 .265)">
      <mask id="logo-b" fill="#fff">
        <use xlink:href="#logo-a"/>
      </mask>
      <path fill="#FFF" d="M2.12544,1.2267 C2.12544,1.60986949 1.82224,1.92134407 1.44864,1.92134407 C1.07584,1.92134407 0.77184,1.60986949 0.77184,1.2267 C0.77184,0.842733898 1.07584,0.531259322 1.44864,0.531259322 C1.82224,0.531259322 2.12544,0.842733898 2.12544,1.2267" mask="url(#logo-b)"/>
    </g>
    <path fill="#FFF" d="M30.6192 4.54075763C30.6192 4.92472373 30.3168 5.23619831 29.9424 5.23619831 29.5688 5.23619831 29.2664 4.92472373 29.2664 4.54075763 29.2664 4.15679153 29.5688 3.84611356 29.9424 3.84611356 30.3168 3.84611356 30.6192 4.15679153 30.6192 4.54075763M38.14816 7.99868305C38.14816 8.38264915 37.84496 8.69412373 37.47136 8.69412373 37.09776 8.69412373 36.79456 8.38264915 36.79456 7.99868305 36.79456 7.61551356 37.09776 7.30403898 37.47136 7.30403898 37.84496 7.30403898 38.14816 7.61551356 38.14816 7.99868305M41.49072 15.7469915C41.49072 16.1309576 41.18832 16.4424322 40.81392 16.4424322 40.44032 16.4424322 40.13712 16.1309576 40.13712 15.7469915 40.13712 15.363822 40.44032 15.0523475 40.81392 15.0523475 41.18832 15.0523475 41.49072 15.363822 41.49072 15.7469915M44.4352 23.6641017C44.4352 24.0480678 44.1328 24.3587458 43.7584 24.3587458 43.3848 24.3587458 43.0824 24.0480678 43.0824 23.6641017 43.0824 23.2801356 43.3848 22.9694576 43.7584 22.9694576 44.1328 22.9694576 44.4352 23.2801356 44.4352 23.6641017M41.4688 31.5726085C41.4688 31.9565746 41.1656 32.2672525 40.792 32.2672525 40.4184 32.2672525 40.1152 31.9565746 40.1152 31.5726085 40.1152 31.1886424 40.4184 30.8771678 40.792 30.8771678 41.1656 30.8771678 41.4688 31.1886424 41.4688 31.5726085M38.1044 39.3108C38.1044 39.6947661 37.8012 40.0062407 37.4276 40.0062407 37.054 40.0062407 36.7508 39.6947661 36.7508 39.3108 36.7508 38.9276305 37.054 38.6161559 37.4276 38.6161559 37.8012 38.6161559 38.1044 38.9276305 38.1044 39.3108M30.56608 42.746978C30.56608 43.1301475 30.26288 43.441622 29.88928 43.441622 29.51568 43.441622 29.21248 43.1301475 29.21248 42.746978 29.21248 42.3630119 29.51568 42.0515373 29.88928 42.0515373 30.26288 42.0515373 30.56608 42.3630119 30.56608 42.746978M35.88208 10.321678C35.88208 10.7056441 35.57968 11.0171186 35.20528 11.0171186 34.83168 11.0171186 34.52928 10.7056441 34.52928 10.321678 34.52928 9.93850847 34.83168 9.6270339 35.20528 9.6270339 35.57968 9.6270339 35.88208 9.93850847 35.88208 10.321678M38.31416 15.6054339C38.31416 15.9894 38.01176 16.3008746 37.63736 16.3008746 37.26376 16.3008746 36.96216 15.9894 36.96216 15.6054339 36.96216 15.2214678 37.26376 14.9107898 37.63736 14.9107898 38.01176 14.9107898 38.31416 15.2214678 38.31416 15.6054339M39.3356 18.1500458C39.3356 18.5332153 39.0324 18.8446898 38.6588 18.8446898 38.2852 18.8446898 37.982 18.5332153 37.982 18.1500458 37.982 17.7660797 38.2852 17.4546051 38.6588 17.4546051 39.0324 17.4546051 39.3356 17.7660797 39.3356 18.1500458M41.2352 23.6594017C41.2352 24.0433678 40.932 24.3548424 40.5584 24.3548424 40.1848 24.3548424 39.8824 24.0433678 39.8824 23.6594017 39.8824 23.2762322 40.1848 22.9647576 40.5584 22.9647576 40.932 22.9647576 41.2352 23.2762322 41.2352 23.6594017M39.32 29.1633407C39.32 29.5473068 39.0176 29.8587814 38.6432 29.8587814 38.2696 29.8587814 37.9672 29.5473068 37.9672 29.1633407 37.9672 28.7801712 38.2696 28.4686966 38.6432 28.4686966 39.0176 28.4686966 39.32 28.7801712 39.32 29.1633407M38.29184 31.7048458C38.29184 32.0888119 37.98864 32.3994898 37.61504 32.3994898 37.24144 32.3994898 36.93824 32.0888119 36.93824 31.7048458 36.93824 31.3208797 37.24144 31.0094051 37.61504 31.0094051 37.98864 31.0094051 38.29184 31.3208797 38.29184 31.7048458M35.84464 36.9816712C35.84464 37.3656373 35.54144 37.6763153 35.16784 37.6763153 34.79424 37.6763153 34.49104 37.3656373 34.49104 36.9816712 34.49104 36.5977051 34.79424 36.2862305 35.16784 36.2862305 35.54144 36.2862305 35.84464 36.5977051 35.84464 36.9816712M30.704 39.4819119C30.704 39.865878 30.4008 40.1765559 30.0272 40.1765559 29.6536 40.1765559 29.3504 39.865878 29.3504 39.4819119 29.3504 39.0979458 29.6536 38.7864712 30.0272 38.7864712 30.4008 38.7864712 30.704 39.0979458 30.704 39.4819119M28.22856 40.5313661C28.22856 40.9153322 27.92536 41.2260102 27.55176 41.2260102 27.17816 41.2260102 26.87496 40.9153322 26.87496 40.5313661 26.87496 40.1474 27.17816 39.8359254 27.55176 39.8359254 27.92536 39.8359254 28.22856 40.1474 28.22856 40.5313661M28.27584 6.74935932C28.27584 7.13332542 27.97264 7.44400339 27.59904 7.44400339 27.22544 7.44400339 26.92224 7.13332542 26.92224 6.74935932 26.92224 6.36539322 27.22544 6.05391864 27.59904 6.05391864 27.97264 6.05391864 28.27584 6.36539322 28.27584 6.74935932M30.74848 7.80582373C30.74848 8.18978983 30.44528 8.50126441 30.07168 8.50126441 29.69808 8.50126441 29.39488 8.18978983 29.39488 7.80582373 29.39488 7.42265424 29.69808 7.11117966 30.07168 7.11117966 30.44528 7.11117966 30.74848 7.42265424 30.74848 7.80582373M15.0852 7.7832C15.0852 8.1671661 14.782 8.47784407 14.4084 8.47784407 14.0348 8.47784407 13.7316 8.1671661 13.7316 7.7832 13.7316 7.3992339 14.0348 7.08775932 14.4084 7.08775932 14.782 7.08775932 15.0852 7.3992339 15.0852 7.7832M9.94464 10.2835203C9.94464 10.6674864 9.64224 10.9781644 9.26784 10.9781644 8.89424 10.9781644 8.59104 10.6674864 8.59104 10.2835203 8.59104 9.89955424 8.89424 9.58807966 9.26784 9.58807966 9.64224 9.58807966 9.94464 9.89955424 9.94464 10.2835203M7.68448 7.95359492C7.68448 8.33756102 7.38208 8.64903559 7.00768 8.64903559 6.63408 8.64903559 6.33088 8.33756102 6.33088 7.95359492 6.33088 7.57042542 6.63408 7.25895085 7.00768 7.25895085 7.38208 7.25895085 7.68448 7.57042542 7.68448 7.95359492M4.3204 15.6925034C4.3204 16.0764695 4.018 16.3871475 3.6436 16.3871475 3.27 16.3871475 2.9676 16.0764695 2.9676 15.6925034 2.9676 15.3085373 3.27 14.9970627 3.6436 14.9970627 4.018 14.9970627 4.3204 15.3085373 4.3204 15.6925034M7.49736 15.5602661C7.49736 15.9434356 7.19496 16.2549102 6.82056 16.2549102 6.44696 16.2549102 6.14376 15.9434356 6.14376 15.5602661 6.14376 15.1763 6.44696 14.8648254 6.82056 14.8648254 7.19496 14.8648254 7.49736 15.1763 7.49736 15.5602661M6.4692 18.1010542C6.4692 18.4850203 6.166 18.7964949 5.7924 18.7964949 5.4188 18.7964949 5.1156 18.4850203 5.1156 18.1010542 5.1156 17.7178847 5.4188 17.4064102 5.7924 17.4064102 6.166 17.4064102 6.4692 17.7178847 6.4692 18.1010542M4.554 23.6049932C4.554 23.9889593 4.2508 24.3004339 3.8772 24.3004339 3.5036 24.3004339 3.2004 23.9889593 3.2004 23.6049932 3.2004 23.2218237 3.5036 22.9103492 3.8772 22.9103492 4.2508 22.9103492 4.554 23.2218237 4.554 23.6049932M1.3536 23.6002932C1.3536 23.9842593 1.0504 24.2957339.6768 24.2957339.3032 24.2957339 0 23.9842593 0 23.6002932 0 23.2163271.3032 22.9056492.6768 22.9056492 1.0504 22.9056492 1.3536 23.2163271 1.3536 23.6002932M4.29816 31.5174034C4.29816 31.9013695 3.99576 32.2128441 3.62136 32.2128441 3.24776 32.2128441 2.94456 31.9013695 2.94456 31.5174034 2.94456 31.1342339 3.24776 30.8227593 3.62136 30.8227593 3.99576 30.8227593 4.29816 31.1342339 4.29816 31.5174034M7.64072 39.2656322C7.64072 39.6495983 7.33752 39.9610729 6.96392 39.9610729 6.59032 39.9610729 6.28712 39.6495983 6.28712 39.2656322 6.28712 38.8824627 6.59032 38.5709881 6.96392 38.5709881 7.33752 38.5709881 7.64072 38.8824627 7.64072 39.2656322M15.1696 42.7236373C15.1696 43.1076034 14.8672 43.419078 14.4928 43.419078 14.1192 43.419078 13.816 43.1076034 13.816 42.7236373 13.816 42.3404678 14.1192 42.0289932 14.4928 42.0289932 14.8672 42.0289932 15.1696 42.3404678 15.1696 42.7236373M22.86376 45.7739373C22.86376 46.1571068 22.56056 46.4685814 22.18696 46.4685814 21.81336 46.4685814 21.51016 46.1571068 21.51016 45.7739373 21.51016 45.3899712 21.81336 45.0784966 22.18696 45.0784966 22.56056 45.0784966 22.86376 45.3899712 22.86376 45.7739373M6.4536 29.1151458C6.4536 29.4983153 6.1512 29.8097898 5.7768 29.8097898 5.4032 29.8097898 5.1 29.4983153 5.1 29.1151458 5.1 28.7311797 5.4032 28.4197051 5.7768 28.4197051 6.1512 28.4197051 6.4536 28.7311797 6.4536 29.1151458M7.47472 31.658961C7.47472 32.0429271 7.17152 32.3544017 6.79792 32.3544017 6.42432 32.3544017 6.12112 32.0429271 6.12112 31.658961 6.12112 31.2757915 6.42432 30.9643169 6.79792 30.9643169 7.17152 30.9643169 7.47472 31.2757915 7.47472 31.658961M9.90712 36.9427169C9.90712 37.3266831 9.60392 37.637361 9.23032 37.637361 8.85672 37.637361 8.55352 37.3266831 8.55352 36.9427169 8.55352 36.5587508 8.85672 36.2472763 9.23032 36.2472763 9.60392 36.2472763 9.90712 36.5587508 9.90712 36.9427169M15.04072 39.4585712C15.04072 39.8425373 14.73832 40.1532153 14.36392 40.1532153 13.99032 40.1532153 13.68792 39.8425373 13.68792 39.4585712 13.68792 39.0746051 13.99032 38.7639271 14.36392 38.7639271 14.73832 38.7639271 15.04072 39.0746051 15.04072 39.4585712M17.51296 40.5158322C17.51296 40.8990017 17.21056 41.2104763 16.83616 41.2104763 16.46256 41.2104763 16.16016 40.8990017 16.16016 40.5158322 16.16016 40.1318661 16.46256 39.8203915 16.83616 39.8203915 17.21056 39.8203915 17.51296 40.1318661 17.51296 40.5158322M22.86808 42.4840169C22.86808 42.8679831 22.56488 43.178661 22.19128 43.178661 21.81768 43.178661 21.51448 42.8679831 21.51448 42.4840169 21.51448 42.1000508 21.81768 41.7893729 22.19128 41.7893729 22.56488 41.7893729 22.86808 42.1000508 22.86808 42.4840169M17.56064 6.73374576C17.56064 7.11691525 17.25744 7.42838983 16.88384 7.42838983 16.51024 7.42838983 16.20704 7.11691525 16.20704 6.73374576 16.20704 6.34977966 16.51024 6.03830508 16.88384 6.03830508 17.25744 6.03830508 17.56064 6.34977966 17.56064 6.73374576M15.22312 4.51821356C15.22312 4.90217966 14.91992 5.21365424 14.54632 5.21365424 14.17272 5.21365424 13.86952 4.90217966 13.86952 4.51821356 13.86952 4.13424746 14.17272 3.82356949 14.54632 3.82356949 14.91992 3.82356949 15.22312 4.13424746 15.22312 4.51821356M22.9208 4.78117458C22.9208 5.16514068 22.6176 5.47661525 22.244 5.47661525 21.8704 5.47661525 21.5672 5.16514068 21.5672 4.78117458 21.5672 4.39720847 21.8704 4.08653051 22.244 4.08653051 22.6176 4.08653051 22.9208 4.39720847 22.9208 4.78117458M23.09696 7.59886441C23.09696 8.08559322 22.71296 8.47991525 22.24016 8.47991525 21.76656 8.47991525 21.38256 8.08559322 21.38256 7.59886441 21.38256 7.11213559 21.76656 6.71781356 22.24016 6.71781356 22.71296 6.71781356 23.09696 7.11213559 23.09696 7.59886441M26.31296 8.73777797C26.31296 9.22450678 25.92976 9.61882881 25.45616 9.61882881 24.98256 9.61882881 24.59856 9.22450678 24.59856 8.73777797 24.59856 8.25104915 24.98256 7.85672712 25.45616 7.85672712 25.92976 7.85672712 26.31296 8.25104915 26.31296 8.73777797M31.06808 10.7704881C31.06808 11.2572169 30.68488 11.6507424 30.21128 11.6507424 29.73768 11.6507424 29.35368 11.2572169 29.35368 10.7704881 29.35368 10.2837593 29.73768 9.88943729 30.21128 9.88943729 30.68488 9.88943729 31.06808 10.2837593 31.06808 10.7704881M34.1212 12.3108136C34.1212 12.7975424 33.7372 13.1918644 33.2644 13.1918644 32.7908 13.1918644 32.4068 12.7975424 32.4068 12.3108136 32.4068 11.8240847 32.7908 11.4305593 33.2644 11.4305593 33.7372 11.4305593 34.1212 11.8240847 34.1212 12.3108136M35.61144 15.4536797C35.61144 15.9404085 35.22824 16.3347305 34.75464 16.3347305 34.28104 16.3347305 33.89704 15.9404085 33.89704 15.4536797 33.89704 14.9669508 34.28104 14.5726288 34.75464 14.5726288 35.22824 14.5726288 35.61144 14.9669508 35.61144 15.4536797M37.57544 20.3469373C37.57544 20.8336661 37.19144 21.2279881 36.71864 21.2279881 36.24504 21.2279881 35.86104 20.8336661 35.86104 20.3469373 35.86104 19.8602085 36.24504 19.4658864 36.71864 19.4658864 37.19144 19.4658864 37.57544 19.8602085 37.57544 20.3469373M38.67472 23.6554983C38.67472 24.1422271 38.29072 24.5365492 37.81792 24.5365492 37.34432 24.5365492 36.96032 24.1422271 36.96032 23.6554983 36.96032 23.1687695 37.34432 22.7744475 37.81792 22.7744475 38.29072 22.7744475 38.67472 23.1687695 38.67472 23.6554983M37.56568 26.9610322C37.56568 27.447761 37.18248 27.8412864 36.70888 27.8412864 36.23528 27.8412864 35.85128 27.447761 35.85128 26.9610322 35.85128 26.4743034 36.23528 26.0799814 36.70888 26.0799814 37.18248 26.0799814 37.56568 26.4743034 37.56568 26.9610322M35.58832 31.8479966C35.58832 32.3347254 35.20432 32.7290475 34.73152 32.7290475 34.25792 32.7290475 33.87392 32.3347254 33.87392 31.8479966 33.87392 31.3612678 34.25792 30.9677424 34.73152 30.9677424 35.20432 30.9677424 35.58832 31.3612678 35.58832 31.8479966M34.08992 34.9862424C34.08992 35.4729712 33.70592 35.8672932 33.23312 35.8672932 32.75952 35.8672932 32.37552 35.4729712 32.37552 34.9862424 32.37552 34.4995136 32.75952 34.1059881 33.23312 34.1059881 33.70592 34.1059881 34.08992 34.4995136 34.08992 34.9862424M31.03208 36.5179644C31.03208 37.0046932 30.64808 37.3990153 30.17528 37.3990153 29.70168 37.3990153 29.31768 37.0046932 29.31768 36.5179644 29.31768 36.0312356 29.70168 35.6377102 30.17528 35.6377102 30.64808 35.6377102 31.03208 36.0312356 31.03208 36.5179644M26.27152 38.5367339C26.27152 39.0234627 25.88752 39.4177847 25.41472 39.4177847 24.94112 39.4177847 24.55712 39.0234627 24.55712 38.5367339 24.55712 38.0500051 24.94112 37.6556831 25.41472 37.6556831 25.88752 37.6556831 26.27152 38.0500051 26.27152 38.5367339M23.0524 39.6663271C23.0524 40.1522593 22.6692 40.5465814 22.1956 40.5465814 21.722 40.5465814 21.338 40.1522593 21.338 39.6663271 21.338 39.1795983 21.722 38.7852763 22.1956 38.7852763 22.6692 38.7852763 23.0524 39.1795983 23.0524 39.6663271M19.8368 38.5266169C19.8368 39.0133458 19.4528 39.4076678 18.98 39.4076678 18.5064 39.4076678 18.1224 39.0133458 18.1224 38.5266169 18.1224 38.0398881 18.5064 37.6463627 18.98 37.6463627 19.4528 37.6463627 19.8368 38.0398881 19.8368 38.5266169M15.08168 36.4946237C15.08168 36.9813525 14.69768 37.3756746 14.22488 37.3756746 13.75128 37.3756746 13.36728 36.9813525 13.36728 36.4946237 13.36728 36.0078949 13.75128 35.6135729 14.22488 35.6135729 14.69768 35.6135729 15.08168 36.0078949 15.08168 36.4946237M12.02856 34.9535814C12.02856 35.4403102 11.64536 35.8346322 11.17176 35.8346322 10.69816 35.8346322 10.31416 35.4403102 10.31416 34.9535814 10.31416 34.4676492 10.69816 34.0733271 11.17176 34.0733271 11.64536 34.0733271 12.02856 34.4676492 12.02856 34.9535814M10.53832 31.8114322C10.53832 32.298161 10.15432 32.6916864 9.68152 32.6916864 9.20792 32.6916864 8.82392 32.298161 8.82392 31.8114322 8.82392 31.3247034 9.20792 30.9303814 9.68152 30.9303814 10.15432 30.9303814 10.53832 31.3247034 10.53832 31.8114322M8.57432 26.9181746C8.57432 27.4041068 8.19112 27.7984288 7.71752 27.7984288 7.24392 27.7984288 6.85992 27.4041068 6.85992 26.9181746 6.85992 26.4314458 7.24392 26.0371237 7.71752 26.0371237 8.19112 26.0371237 8.57432 26.4314458 8.57432 26.9181746M7.47544 23.6096136C7.47544 24.0955458 7.09144 24.4898678 6.61864 24.4898678 6.14504 24.4898678 5.76104 24.0955458 5.76104 23.6096136 5.76104 23.1228847 6.14504 22.7285627 6.61864 22.7285627 7.09144 22.7285627 7.47544 23.1228847 7.47544 23.6096136M19.87816 8.72766102C19.87816 9.21438983 19.49496 9.60871186 19.02136 9.60871186 18.54776 9.60871186 18.16376 9.21438983 18.16376 8.72766102 18.16376 8.24172881 18.54776 7.84740678 19.02136 7.84740678 19.49496 7.84740678 19.87816 8.24172881 19.87816 8.72766102M15.11808 10.7464305C15.11808 11.2323627 14.73408 11.6274814 14.26128 11.6274814 13.78768 11.6274814 13.40368 11.2323627 13.40368 10.7464305 13.40368 10.2604983 13.78768 9.86617627 14.26128 9.86617627 14.73408 9.86617627 15.11808 10.2604983 15.11808 10.7464305M12.06024 12.2781525C12.06024 12.7648814 11.67624 13.1592034 11.20344 13.1592034 10.72984 13.1592034 10.34584 12.7648814 10.34584 12.2781525 10.34584 11.7914237 10.72984 11.3971017 11.20344 11.3971017 11.67624 11.3971017 12.06024 11.7914237 12.06024 12.2781525M10.56144 15.4163983C10.56144 15.9031271 10.17744 16.2974492 9.70464 16.2974492 9.23104 16.2974492 8.84704 15.9031271 8.84704 15.4163983 8.84704 14.9304661 9.23104 14.5361441 9.70464 14.5361441 10.17744 14.5361441 10.56144 14.9304661 10.56144 15.4163983M8.58408 20.3041593C8.58408 20.7908881 8.20008 21.1844136 7.72728 21.1844136 7.25368 21.1844136 6.86968 20.7908881 6.86968 20.3041593 6.86968 19.8174305 7.25368 19.4231085 7.72728 19.4231085 8.20008 19.4231085 8.58408 19.8174305 8.58408 20.3041593M23.58952 10.6654949C23.58952 11.4342237 22.98392 12.0563763 22.23592 12.0563763 21.48952 12.0563763 20.88392 11.4342237 20.88392 10.6654949 20.88392 9.89756271 21.48952 9.27461356 22.23592 9.27461356 22.98392 9.27461356 23.58952 9.89756271 23.58952 10.6654949M14.66376 14.4501898C14.66376 15.2189186 14.05816 15.8410712 13.31016 15.8410712 12.56376 15.8410712 11.95736 15.2189186 11.95736 14.4501898 11.95736 13.6822576 12.56376 13.0593085 13.31016 13.0593085 14.05816 13.0593085 14.66376 13.6822576 14.66376 14.4501898M10.95552 23.6135169C10.95552 24.3814492 10.34992 25.0043983 9.60272 25.0043983 8.85552 25.0043983 8.24992 24.3814492 8.24992 23.6135169 8.24992 22.8455847 8.85552 22.2226356 9.60272 22.2226356 10.34992 22.2226356 10.95552 22.8455847 10.95552 23.6135169M32.5044 14.4774339C32.5044 15.2453661 31.8988 15.8683153 31.1516 15.8683153 30.4044 15.8683153 29.7988 15.2453661 29.7988 14.4774339 29.7988 13.7087051 30.4044 13.0865525 31.1516 13.0865525 31.8988 13.0865525 32.5044 13.7087051 32.5044 14.4774339M36.1864 23.650878C36.1864 24.4196068 35.5808 25.0417593 34.8328 25.0417593 34.0864 25.0417593 33.4808 24.4196068 33.4808 23.650878 33.4808 22.8829458 34.0864 22.2599966 34.8328 22.2599966 35.5808 22.2599966 36.1864 22.8829458 36.1864 23.650878M32.47856 32.8142051C32.47856 33.5829339 31.87296 34.2050864 31.12576 34.2050864 30.37776 34.2050864 29.77296 33.5829339 29.77296 32.8142051 29.77296 32.0462729 30.37776 31.4233237 31.12576 31.4233237 31.87296 31.4233237 32.47856 32.0462729 32.47856 32.8142051M23.5528 36.5989C23.5528 37.3668322 22.9472 37.9897814 22.2 37.9897814 21.4528 37.9897814 20.8472 37.3668322 20.8472 36.5989 20.8472 35.8309678 21.4528 35.2080186 22.2 35.2080186 22.9472 35.2080186 23.5528 35.8309678 23.5528 36.5989M14.6376 32.7877576C14.6376 33.5564864 14.032 34.178639 13.2848 34.178639 12.5376 34.178639 11.932 33.5564864 11.932 32.7877576 11.932 32.0198254 12.5376 31.3968763 13.2848 31.3968763 14.032 31.3968763 14.6376 32.0198254 14.6376 32.7877576M56.39384 24.3813695C56.58744 24.3813695 56.70504 24.3646407 56.74664 24.3287932 56.78824 24.2937424 56.80984 24.2324034 56.80984 24.1471661 56.80984 24.0475898 56.78824 23.936861 56.74664 23.8165729 56.70504 23.6954881 56.67064 23.5855559 56.64344 23.4859797L53.32104 14.3950644C53.23784 14.1536915 53.14744 13.9720644 53.05144 13.8509797 52.95384 13.7298949 52.80904 13.6693525 52.61544 13.6693525L52.61544 13.4120475 55.33464 13.4120475 55.33464 13.6693525C55.15464 13.6693525 55.03384 13.6980305 54.97144 13.7553864 54.90904 13.8111492 54.87784 13.8892169 54.87784 13.9895898 54.87784 14.0748271 54.90184 14.1712169 54.95064 14.2771661 54.99944 14.3847085 55.05144 14.5081831 55.10744 14.6507763L57.90984 22.3755051 57.95144 22.3755051 60.73304 14.2453017C60.77464 14.1170475 60.79544 14.0095051 60.79544 13.925861 60.79544 13.7553864 60.69144 13.6693525 60.48344 13.6693525L60.48344 13.4120475 63.36984 13.4120475 63.36984 13.6693525C63.12104 13.6693525 62.99624 13.7617593 62.99624 13.9457763 62.99624 14.0182678 63.01624 14.1074881 63.05864 14.2126407 63.10024 14.3201831 63.14104 14.4309119 63.18264 14.5440305L65.88184 22.1197932 65.92344 22.1197932 68.68424 14.4380814C68.71224 14.3385051 68.74024 14.2556576 68.76824 14.1919288 68.79544 14.1282 68.80984 14.0533186 68.80984 13.968878 68.80984 13.7689288 68.65704 13.6693525 68.35224 13.6693525L68.35224 13.4120475 70.96904 13.4120475 70.96904 13.6693525C70.78904 13.6693525 70.65704 13.719539 70.57384 13.8191153 70.49064 13.9178949 70.39384 14.109878 70.28344 14.3950644L67.02344 23.4429627C66.95384 23.6285729 66.89864 23.7695729 66.85864 23.8699458 66.81624 23.969522 66.79464 24.0754712 66.79464 24.1901831 66.79464 24.3184373 66.93304 24.3813695 67.21064 24.3813695L67.21064 24.637878 64.47064 24.637878 64.47064 24.3813695C64.64984 24.3813695 64.76424 24.3646407 64.81224 24.3287932 64.86104 24.2937424 64.88504 24.2395729 64.88504 24.167878 64.88504 24.0690983 64.85704 23.9519966 64.80264 23.8165729 64.74664 23.6803525 64.69864 23.556878 64.65784 23.4429627L61.87464 15.6752169 61.83384 15.6752169 59.05224 23.6572508C59.02424 23.7416915 58.99624 23.824539 58.96824 23.9010136 58.94024 23.9806746 58.92664 24.0690983 58.92664 24.167878 58.92664 24.3104712 59.06424 24.3813695 59.34184 24.3813695L59.34184 24.637878 56.39384 24.637878 56.39384 24.3813695zM79.086 13.0685492C80.0196 13.0685492 80.8812 13.1983966 81.6716 13.4557017 82.462 13.7146 83.1476 14.0985661 83.73 14.6083966 84.3116 15.1174305 84.7652 15.7419729 85.0876 16.4804305 85.4108 17.2188881 85.5716 18.0664814 85.5716 19.0263966 85.5716 19.9879051 85.4108 20.8362949 85.0876 21.5747525 84.7652 22.3124136 84.3116 22.9329729 83.73 23.4356339 83.1476 23.9367017 82.462 24.3095153 81.6716 24.553278 80.8812 24.7978373 80.0196 24.918922 79.086 24.918922 78.1516 24.918922 77.2892 24.7978373 76.5004 24.553278 75.71 24.3095153 75.0244 23.9367017 74.442 23.4356339 73.8604 22.9329729 73.4076 22.3124136 73.0844 21.5747525 72.7612 20.8362949 72.5996 19.9879051 72.5996 19.0263966 72.5996 18.0664814 72.7612 17.2188881 73.0844 16.4804305 73.4076 15.7419729 73.8604 15.1174305 74.442 14.6083966 75.0244 14.0985661 75.71 13.7146 76.5004 13.4557017 77.2892 13.1983966 78.1516 13.0685492 79.086 13.0685492M79.086 14.574939C77.6204 14.574939 76.4892 14.969261 75.6916 15.7571085 74.894 16.5449559 74.4956 17.6315322 74.4956 19.0160407 74.4956 20.4005492 74.894 21.4863288 75.6916 22.2749729 76.4892 23.0628203 77.6204 23.4563458 79.086 23.4563458 80.5516 23.4563458 81.6828 23.0628203 82.4804 22.2749729 83.2772 21.4863288 83.6756 20.4005492 83.6756 19.0160407 83.6756 17.6315322 83.2772 16.5449559 82.4804 15.7571085 81.6828 14.969261 80.5516 14.574939 79.086 14.574939M90.98168 23.8702644C90.98168 24.0264 91.01688 24.1506712 91.08568 24.243078 91.15528 24.3354847 91.28648 24.3816881 91.48088 24.3816881L91.48088 24.6381966 88.74008 24.6381966 88.74008 24.3816881C88.93368 24.3816881 89.06488 24.3354847 89.13448 24.243078 89.20328 24.1506712 89.23848 24.0264 89.23848 23.8702644L89.23848 14.1818915C89.23848 14.0257559 89.20328 13.9006881 89.13448 13.8082814 89.06488 13.715078 88.93368 13.6688746 88.74008 13.6688746L88.74008 13.4131627 95.69448 13.4131627C97.06488 13.4131627 98.04728 13.6800271 98.64408 14.2137559 99.23848 14.7474847 99.53608 15.5194 99.53608 16.5279085 99.53608 17.4256881 99.30808 18.137061 98.85048 18.6628237 98.39368 19.1893831 97.64648 19.5239593 96.60888 19.6657559L99.22488 23.8264508C99.37688 24.055078 99.49768 24.2048407 99.58808 24.275739 99.67768 24.3466373 99.82648 24.3816881 100.03368 24.3816881L100.03368 24.6381966 97.04488 24.6381966 97.04488 24.3816881C97.22488 24.3816881 97.33928 24.3681458 97.38648 24.3386712 97.43528 24.3107898 97.45928 24.2606034 97.45928 24.1897051 97.45928 24.1044678 97.42648 24.0264 97.35608 23.9555017L94.80328 19.7725017 90.98168 19.7725017 90.98168 23.8702644zM95.52968 18.321078C96.37208 18.321078 96.96888 18.1577729 97.31448 17.8303661 97.66088 17.5037559 97.83368 17.056061 97.83368 16.4864847 97.83368 16.2020949 97.79848 15.9599254 97.72968 15.7599763 97.66088 15.5608237 97.53608 15.3943322 97.35608 15.2589085 97.17608 15.1242814 96.92968 15.0247051 96.61768 14.9593831 96.30808 14.8956542 95.90968 14.8645864 95.42568 14.8645864L90.98168 14.8645864 90.98168 18.321078 95.52968 18.321078zM106.26256 13.6691136C106.06736 13.6691136 105.93696 13.7193 105.86816 13.8188763 105.79856 13.9176559 105.76496 14.0682153 105.76496 14.2665712L105.76496 23.2292322 112.74016 23.2292322C113.22496 23.2292322 113.46656 23.0157407 113.46656 22.5887576L113.71616 22.5887576 113.71616 25.0431136 113.46656 25.0431136C113.46656 24.7722661 113.22496 24.6384356 112.74016 24.6384356L103.52176 24.6384356 103.52176 24.3819271C103.71616 24.3819271 103.84736 24.3365203 103.91616 24.2433169 103.98576 24.1501136 104.02096 24.026639 104.02096 23.8705034L104.02096 14.1813339C104.02096 14.0244017 103.98576 13.9009271 103.91616 13.8077237 103.84736 13.7153169 103.71616 13.6691136 103.52176 13.6691136L103.52176 13.4134017 106.26256 13.4134017 106.26256 13.6691136zM116.49736 14.1810153C116.49736 14.0248797 116.46296 13.9006085 116.39416 13.8082017 116.32376 13.7157949 116.19256 13.6695915 115.99976 13.6695915L115.99976 13.4130831 122.43576 13.4130831C123.29416 13.4130831 124.06456 13.5516932 124.74936 13.8297102 125.43496 14.1061339 126.01656 14.4940831 126.49416 14.9935576 126.97176 15.491439 127.34216 16.0849136 127.60456 16.774778 127.86776 17.4638458 127.99976 18.2134559 127.99976 19.0252017 127.99976 19.8369475 127.88936 20.5873542 127.66696 21.2772186 127.44616 21.9670831 127.11656 22.5613542 126.68056 23.058439 126.24536 23.5571169 125.70536 23.9450661 125.06136 24.2214898 124.41736 24.4995068 123.67336 24.6381169 122.83016 24.6381169L115.99976 24.6381169 115.99976 24.3824051C116.19256 24.3824051 116.32376 24.3354051 116.39416 24.2429983 116.46296 24.1505915 116.49736 24.0255237 116.49736 23.8693881L116.49736 14.1810153zM122.64296 23.2289136C123.86056 23.2289136 124.77416 22.8736254 125.38376 22.1630492 125.99256 21.4516763 126.29736 20.4057271 126.29736 19.0252017 126.29736 17.6462695 125.94696 16.6003203 125.24856 15.8889475 124.54936 15.1783712 123.55576 14.8222864 122.26936 14.8222864L118.24136 14.8222864 118.24136 23.2289136 122.64296 23.2289136zM57.52352 30.3263915C57.52352 30.2610695 57.49872 30.2132729 57.44992 30.1798153 57.40192 30.1479508 57.31712 30.131222 57.19552 30.131222L54.40432 30.131222 54.40432 31.2297475 56.09312 31.2297475C56.20752 31.2297475 56.29712 31.2130186 56.36032 31.1803576 56.42352 31.1476966 56.45552 31.0648492 56.45552 30.9294254L56.60992 30.9294254 56.60992 32.3091542 56.45552 32.3091542C56.45552 32.1745271 56.42352 32.0869 56.36032 32.0486627 56.29712 32.0104254 56.20752 31.9913068 56.09312 31.9913068L54.40432 31.9913068 54.40432 33.2141034 57.28192 33.2141034C57.36832 33.2141034 57.43952 33.1933915 57.49392 33.1519678 57.54832 33.1097475 57.57552 33.0539847 57.57552 32.9838831L57.72992 32.9838831 57.72992 34.1963237 57.57552 34.1963237C57.57552 34.1086966 57.54832 34.0585102 57.49392 34.046561 57.43952 34.0346119 57.36832 34.028239 57.28192 34.028239L53.26672 34.028239 53.26672 33.8689169C53.30752 33.8689169 53.34272 33.8553746 53.37472 33.8282898 53.40672 33.8027983 53.42192 33.7621712 53.42192 33.7103915L53.42192 29.6883068C53.42192 29.6349339 53.40672 29.5959 53.37472 29.5696119 53.34272 29.5425271 53.30752 29.5281881 53.26672 29.5281881L53.26672 29.3696627 57.19552 29.3696627C57.31712 29.3696627 57.40192 29.3505441 57.44992 29.3123068 57.49872 29.2740695 57.52352 29.2222898 57.52352 29.1569678L57.67872 29.1569678 57.67872 30.3263915 57.52352 30.3263915zM59.05712 33.8690763C59.16672 33.8690763 59.22112 33.8157034 59.22112 33.7097542L59.22112 29.6884661C59.22112 29.5825169 59.16672 29.5291441 59.05712 29.5291441L59.05712 29.369822 60.53072 29.369822 60.53072 29.5291441C60.48512 29.5291441 60.46192 29.5586186 60.46192 29.6183644 60.46192 29.666161 60.51872 29.7482119 60.63392 29.8653136L63.10672 32.5052797 63.10672 29.6884661C63.10672 29.5825169 63.03312 29.5291441 62.88352 29.5291441L62.88352 29.369822 64.18512 29.369822 64.18512 29.5291441C64.07552 29.5291441 64.02112 29.5825169 64.02112 29.6884661L64.02112 33.7097542C64.02112 33.8157034 64.07552 33.8690763 64.18512 33.8690763L64.18512 34.0291949 62.78912 34.0291949 62.78912 33.8690763C62.86272 33.8690763 62.90032 33.8427881 62.90032 33.7886186 62.90032 33.7479915 62.85472 33.6810763 62.76192 33.5854831L60.13392 30.7694661 60.13392 33.7097542C60.13392 33.8157034 60.20032 33.8690763 60.33232 33.8690763L60.33232 34.0291949 59.05712 34.0291949 59.05712 33.8690763zM68.09696 33.7095949C68.09696 33.8163407 68.16016 33.8697136 68.28656 33.8697136L68.28656 34.028239 66.95936 34.028239 66.95936 33.8697136C66.99936 33.8697136 67.03536 33.8561712 67.06656 33.8282898 67.09856 33.8020017 67.11456 33.7621712 67.11456 33.7095949L67.11456 30.1845949 65.69216 30.1845949C65.64096 30.1845949 65.59056 30.1997305 65.54176 30.2284085 65.49296 30.2586797 65.46816 30.3144424 65.46816 30.3972898L65.31376 30.3972898 65.31376 29.1569678 65.46816 29.1569678C65.46816 29.2398153 65.49296 29.2963746 65.54176 29.3250525 65.59056 29.3545271 65.64096 29.3696627 65.69216 29.3696627L69.51856 29.3696627C69.57056 29.3696627 69.62016 29.3545271 69.66976 29.3250525 69.71776 29.2963746 69.74336 29.2398153 69.74336 29.1569678L69.89696 29.1569678 69.89696 30.3972898 69.74336 30.3972898C69.74336 30.3144424 69.71776 30.2586797 69.66976 30.2284085 69.62016 30.1997305 69.57056 30.1845949 69.51856 30.1845949L68.09696 30.1845949 68.09696 33.7095949zM75.24032 30.3263915C75.24032 30.2610695 75.21552 30.2132729 75.16672 30.1798153 75.11872 30.1479508 75.03392 30.131222 74.91232 30.131222L72.12112 30.131222 72.12112 31.2297475 73.80992 31.2297475C73.92432 31.2297475 74.01312 31.2130186 74.07712 31.1803576 74.14032 31.1476966 74.17232 31.0648492 74.17232 30.9294254L74.32672 30.9294254 74.32672 32.3091542 74.17232 32.3091542C74.17232 32.1745271 74.14032 32.0869 74.07712 32.0486627 74.01312 32.0104254 73.92432 31.9913068 73.80992 31.9913068L72.12112 31.9913068 72.12112 33.2141034 74.99872 33.2141034C75.08512 33.2141034 75.15632 33.1933915 75.21072 33.1519678 75.26512 33.1097475 75.29232 33.0539847 75.29232 32.9838831L75.44672 32.9838831 75.44672 34.1963237 75.29232 34.1963237C75.29232 34.1086966 75.26512 34.0585102 75.21072 34.046561 75.15632 34.0346119 75.08512 34.028239 74.99872 34.028239L70.98352 34.028239 70.98352 33.8689169C71.02432 33.8689169 71.05952 33.8553746 71.09152 33.8282898 71.12352 33.8027983 71.13872 33.7621712 71.13872 33.7103915L71.13872 29.6883068C71.13872 29.6349339 71.12352 29.5959 71.09152 29.5696119 71.05952 29.5425271 71.02432 29.5281881 70.98352 29.5281881L70.98352 29.3696627 74.91232 29.3696627C75.03392 29.3696627 75.11872 29.3505441 75.16672 29.3123068 75.21552 29.2740695 75.24032 29.2222898 75.24032 29.1569678L75.39552 29.1569678 75.39552 30.3263915 75.24032 30.3263915zM79.62624 29.3695034C79.90224 29.3695034 80.15184 29.3949949 80.37584 29.4451814 80.59984 29.4953678 80.79184 29.5750288 80.95344 29.6841644 81.11424 29.7933 81.23824 29.9358932 81.32384 30.1087576 81.41024 30.2832153 81.45344 30.4975034 81.45344 30.7508254 81.45344 31.141961 81.34144 31.4398932 81.11664 31.6454186 80.89264 31.8525373 80.59184 31.9911475 80.21264 32.0628424L81.35904 33.7444864C81.39824 33.8042322 81.44624 33.8400797 81.50064 33.8512322 81.55504 33.863978 81.60544 33.8695542 81.65104 33.8695542L81.65104 34.0288763 80.03984 34.0288763 80.03984 33.8695542C80.09264 33.8695542 80.13584 33.8607915 80.17344 33.8424695 80.21024 33.8249441 80.22944 33.8002492 80.22944 33.7715712 80.22944 33.7420966 80.21744 33.7078424 80.19504 33.6696051 80.17264 33.6321644 80.13744 33.5795881 80.09264 33.5142661L79.14384 32.1337407 77.91184 32.1337407 77.91184 33.7094356C77.91184 33.7628085 77.92944 33.8018424 77.96704 33.8289271 78.00464 33.8552153 78.07264 33.8695542 78.16944 33.8695542L78.16944 34.0288763 76.67904 34.0288763 76.67904 33.8695542C76.84624 33.8695542 76.92944 33.8161814 76.92944 33.7094356L76.92944 29.6881475C76.92944 29.5821983 76.84624 29.5280288 76.67904 29.5280288L76.67904 29.3695034 79.62624 29.3695034zM79.40304 31.4422831C79.60944 31.4422831 79.78144 31.4255542 79.91984 31.3936898 80.05744 31.3610288 80.16624 31.3148254 80.24624 31.2558763 80.32784 31.1977237 80.38464 31.127622 80.41904 31.0471644 80.45424 30.9683 80.47104 30.8806729 80.47104 30.7866729 80.47104 30.6926729 80.45424 30.6050458 80.41904 30.5253847 80.38464 30.4457237 80.32784 30.3764186 80.24624 30.3166729 80.16624 30.2585203 80.05744 30.2139102 79.91984 30.1804525 79.78144 30.1485881 79.60944 30.1310627 79.40304 30.1310627L77.91184 30.1310627 77.91184 31.4422831 79.40304 31.4422831zM85.33136 33.7095949C85.33136 33.8163407 85.39376 33.8697136 85.52096 33.8697136L85.52096 34.028239 84.19376 34.028239 84.19376 33.8697136C84.23376 33.8697136 84.26976 33.8561712 84.30096 33.8282898 84.33296 33.8020017 84.34896 33.7621712 84.34896 33.7095949L84.34896 30.1845949 82.92656 30.1845949C82.87536 30.1845949 82.82496 30.1997305 82.77536 30.2284085 82.72736 30.2586797 82.70256 30.3144424 82.70256 30.3972898L82.54816 30.3972898 82.54816 29.1569678 82.70256 29.1569678C82.70256 29.2398153 82.72736 29.2963746 82.77536 29.3250525 82.82496 29.3545271 82.87536 29.3696627 82.92656 29.3696627L86.75296 29.3696627C86.80416 29.3696627 86.85456 29.3545271 86.90416 29.3250525 86.95216 29.2963746 86.97696 29.2398153 86.97696 29.1569678L87.13136 29.1569678 87.13136 30.3972898 86.97696 30.3972898C86.97696 30.3144424 86.95216 30.2586797 86.90416 30.2284085 86.85456 30.1997305 86.80416 30.1845949 86.75296 30.1845949L85.33136 30.1845949 85.33136 33.7095949zM87.65712 33.8690763C87.73232 33.8571271 87.79072 33.8196864 87.83392 33.7543644 87.87632 33.6890424 87.91872 33.6157542 87.95952 33.5329068L89.55312 30.0875678C89.59312 30.0102966 89.62912 29.9386017 89.66112 29.8740763 89.69232 29.8087542 89.70752 29.7529915 89.70752 29.7059915 89.70752 29.6470424 89.68832 29.604822 89.64832 29.5825169 89.60752 29.5586186 89.56432 29.5402966 89.51872 29.5291441L89.51872 29.369822 90.97552 29.369822 90.97552 29.5291441C90.93472 29.5402966 90.89472 29.557822 90.85472 29.5769407 90.81472 29.5984492 90.79312 29.6414661 90.79312 29.7059915 90.79312 29.7529915 90.80432 29.8007881 90.82352 29.8485847 90.84352 29.8955847 90.87472 29.9569237 90.91552 30.0349915L92.70672 33.6388559C92.73552 33.704178 92.77472 33.751178 92.82352 33.7814492 92.87312 33.8109237 92.92832 33.8396017 92.99152 33.8690763L92.99152 34.0291949 91.47552 34.0291949 91.47552 33.8690763C91.49792 33.8690763 91.52672 33.8603136 91.56032 33.8427881 91.59552 33.8244661 91.61232 33.7973814 91.61232 33.7631271 91.61232 33.704178 91.59072 33.6269068 91.54432 33.5329068L91.21712 32.8765 89.11392 32.8765 88.80352 33.5066186C88.74592 33.6300932 88.71712 33.7193136 88.71712 33.7718898 88.71712 33.8372119 88.77152 33.8690763 88.88112 33.8690763L88.88112 34.0291949 87.65712 34.0291949 87.65712 33.8690763zM90.90592 32.2216864L90.18192 30.5735 89.37232 32.2216864 90.90592 32.2216864zM93.93952 33.8690763C94.08912 33.8690763 94.16352 33.8157034 94.16352 33.7097542L94.16352 29.6884661C94.16352 29.5825169 94.08912 29.5291441 93.93952 29.5291441L93.93952 29.369822 95.36992 29.369822 95.36992 29.5291441C95.22032 29.5291441 95.14592 29.5825169 95.14592 29.6884661L95.14592 33.7097542C95.14592 33.8157034 95.22032 33.8690763 95.36992 33.8690763L95.36992 34.0291949 93.93952 34.0291949 93.93952 33.8690763zM96.87784 33.8690763C96.98744 33.8690763 97.04184 33.8157034 97.04184 33.7097542L97.04184 29.6884661C97.04184 29.5825169 96.98744 29.5291441 96.87784 29.5291441L96.87784 29.369822 98.35144 29.369822 98.35144 29.5291441C98.30584 29.5291441 98.28264 29.5586186 98.28264 29.6183644 98.28264 29.666161 98.33944 29.7482119 98.45464 29.8653136L100.92744 32.5052797 100.92744 29.6884661C100.92744 29.5825169 100.85384 29.5291441 100.70424 29.5291441L100.70424 29.369822 102.00584 29.369822 102.00584 29.5291441C101.89544 29.5291441 101.84104 29.5825169 101.84104 29.6884661L101.84104 33.7097542C101.84104 33.8157034 101.89544 33.8690763 102.00584 33.8690763L102.00584 34.0291949 100.60904 34.0291949 100.60904 33.8690763C100.68344 33.8690763 100.72024 33.8427881 100.72024 33.7886186 100.72024 33.7479915 100.67544 33.6810763 100.58264 33.5854831L97.95464 30.7694661 97.95464 33.7097542C97.95464 33.8157034 98.02024 33.8690763 98.15384 33.8690763L98.15384 34.0291949 96.87784 34.0291949 96.87784 33.8690763zM103.55632 33.8690763C103.60192 33.8690763 103.64272 33.8555339 103.67632 33.8292458 103.71152 33.802161 103.72752 33.7631271 103.72752 33.7097542L103.72752 29.6701441C103.72752 29.6183644 103.71152 29.5809237 103.67632 29.5602119 103.64272 29.5395 103.60192 29.5291441 103.55632 29.5291441L103.55632 29.369822 105.16752 29.369822 105.16752 29.5291441C105.13952 29.5291441 105.10832 29.5379068 105.07712 29.5554322 105.04512 29.5729576 105.02992 29.600839 105.02992 29.6350932 105.02992 29.666161 105.04112 29.7036017 105.06432 29.7506017 105.08752 29.7983983 105.11312 29.8485847 105.14192 29.901161L106.37392 32.2033644 107.61472 29.9282458C107.65472 29.8509746 107.68512 29.7904322 107.70512 29.7466186 107.72432 29.7028051 107.73632 29.6613814 107.73632 29.6271271 107.73632 29.5626017 107.69872 29.5291441 107.62272 29.5291441L107.62272 29.369822 109.21792 29.369822 109.21792 29.5291441C109.17232 29.5291441 109.13072 29.5395 109.09712 29.5602119 109.06272 29.5809237 109.04512 29.6183644 109.04512 29.6701441L109.04512 33.7097542C109.04512 33.7631271 109.06272 33.802161 109.09712 33.8292458 109.13072 33.8555339 109.17232 33.8690763 109.21792 33.8690763L109.21792 34.0291949 107.86512 34.0291949 107.86512 33.8690763C108.02032 33.8690763 108.09792 33.8157034 108.09792 33.7097542L108.09792 30.7694661 108.07952 30.7694661 106.34752 34.0291949 106.32192 34.0291949 104.62432 30.7607034 104.60752 30.7607034 104.60752 33.7097542C104.60752 33.8157034 104.68832 33.8690763 104.84832 33.8690763L104.84832 34.0291949 103.55632 34.0291949 103.55632 33.8690763zM114.97432 30.3263915C114.97432 30.2610695 114.94952 30.2132729 114.90072 30.1798153 114.85192 30.1479508 114.76792 30.131222 114.64632 30.131222L111.85512 30.131222 111.85512 31.2297475 113.54392 31.2297475C113.65832 31.2297475 113.74792 31.2130186 113.81032 31.1803576 113.87432 31.1476966 113.90632 31.0648492 113.90632 30.9294254L114.06072 30.9294254 114.06072 32.3091542 113.90632 32.3091542C113.90632 32.1745271 113.87432 32.0869 113.81032 32.0486627 113.74792 32.0104254 113.65832 31.9913068 113.54392 31.9913068L111.85512 31.9913068 111.85512 33.2141034 114.73272 33.2141034C114.81912 33.2141034 114.88952 33.1933915 114.94392 33.1519678 114.99912 33.1097475 115.02632 33.0539847 115.02632 32.9838831L115.18072 32.9838831 115.18072 34.1963237 115.02632 34.1963237C115.02632 34.1086966 114.99912 34.0585102 114.94392 34.046561 114.88952 34.0346119 114.81912 34.028239 114.73272 34.028239L110.71672 34.028239 110.71672 33.8689169C110.75752 33.8689169 110.79352 33.8553746 110.82472 33.8282898 110.85592 33.8027983 110.87272 33.7621712 110.87272 33.7103915L110.87272 29.6883068C110.87272 29.6349339 110.85592 29.5959 110.82472 29.5696119 110.79352 29.5425271 110.75752 29.5281881 110.71672 29.5281881L110.71672 29.3696627 114.64632 29.3696627C114.76792 29.3696627 114.85192 29.3505441 114.90072 29.3123068 114.94952 29.2740695 114.97432 29.2222898 114.97432 29.1569678L115.12952 29.1569678 115.12952 30.3263915 114.97432 30.3263915zM116.50792 33.8690763C116.61752 33.8690763 116.67192 33.8157034 116.67192 33.7097542L116.67192 29.6884661C116.67192 29.5825169 116.61752 29.5291441 116.50792 29.5291441L116.50792 29.369822 117.98152 29.369822 117.98152 29.5291441C117.93592 29.5291441 117.91272 29.5586186 117.91272 29.6183644 117.91272 29.666161 117.96952 29.7482119 118.08472 29.8653136L120.55752 32.5052797 120.55752 29.6884661C120.55752 29.5825169 120.48392 29.5291441 120.33432 29.5291441L120.33432 29.369822 121.63592 29.369822 121.63592 29.5291441C121.52552 29.5291441 121.47112 29.5825169 121.47112 29.6884661L121.47112 33.7097542C121.47112 33.8157034 121.52552 33.8690763 121.63592 33.8690763L121.63592 34.0291949 120.23912 34.0291949 120.23912 33.8690763C120.31352 33.8690763 120.35032 33.8427881 120.35032 33.7886186 120.35032 33.7479915 120.30552 33.6810763 120.21272 33.5854831L117.58472 30.7694661 117.58472 33.7097542C117.58472 33.8157034 117.65032 33.8690763 117.78392 33.8690763L117.78392 34.0291949 116.50792 34.0291949 116.50792 33.8690763zM125.54736 33.7095949C125.54736 33.8163407 125.61056 33.8697136 125.73696 33.8697136L125.73696 34.028239 124.40976 34.028239 124.40976 33.8697136C124.44976 33.8697136 124.48656 33.8561712 124.51696 33.8282898 124.54896 33.8020017 124.56496 33.7621712 124.56496 33.7095949L124.56496 30.1845949 123.14336 30.1845949C123.09136 30.1845949 123.04096 30.1997305 122.99216 30.2284085 122.94336 30.2586797 122.91936 30.3144424 122.91936 30.3972898L122.76416 30.3972898 122.76416 29.1569678 122.91936 29.1569678C122.91936 29.2398153 122.94336 29.2963746 122.99216 29.3250525 123.04096 29.3545271 123.09136 29.3696627 123.14336 29.3696627L126.96896 29.3696627C127.02096 29.3696627 127.07136 29.3545271 127.12016 29.3250525 127.16816 29.2963746 127.19376 29.2398153 127.19376 29.1569678L127.34816 29.1569678 127.34816 30.3972898 127.19376 30.3972898C127.19376 30.3144424 127.16816 30.2586797 127.12016 30.2284085 127.07136 30.1997305 127.02096 30.1845949 126.96896 30.1845949L125.54736 30.1845949 125.54736 33.7095949z"/>
  </g>
</svg>
