<?xml version="1.0" encoding="UTF-8"?>
<svg width="36px" height="33px" viewBox="0 0 36 33" version="1.1" xmlns="http://www.w3.org/2000/svg" xmlns:xlink="http://www.w3.org/1999/xlink">
    <title>Group 14</title>
    <g id="Game" stroke="none" stroke-width="1" fill="none" fill-rule="evenodd">
        <g id="WE_games_roulette" transform="translate(-711.000000, -3034.000000)" fill="#8A7454">
            <g id="Group-20" transform="translate(511.000000, 2950.000000)">
                <g id="Group-4" transform="translate(0.000000, 75.000000)">
                    <g id="Group-14" transform="translate(200.000000, 9.000000)">
                        <path d="M17.8036243,25.813188 C12.8368111,25.813188 9.04494294,24.5492319 6.49922865,21.9857154 C6.27662471,21.7631115 6.18968797,21.4386592 6.27116667,21.1345765 C6.35264537,20.8304939 6.59016095,20.5929783 6.8942436,20.5114996 C7.19832624,20.4300209 7.52277856,20.5169576 7.7453825,20.7395616 C9.9409869,22.935166 13.2937341,24.0329682 17.8036243,24.0329682 L19.7974704,24.0329682 C19.6164276,22.2588407 19.5450831,20.4752285 19.583844,18.6923088 L17.1271407,18.6923088 C15.1332946,18.6923088 14.8306572,16.5738473 15.5249429,12.7463748 C16.4170983,8.4207315 17.6067382,4.16182067 19.0853825,5.69376621e-07 L1.78164624,5.69376621e-07 C1.2969019,-0.00038681662 0.832960821,0.196914645 0.496980188,0.546334504 C0.160999555,0.895754363 -0.0179634781,1.36707318 0.00142645686,1.85142971 L0.00142645686,30.3349462 C0.00142645686,31.3181344 0.798458001,32.115166 1.78164624,32.115166 L21.0614265,32.115166 C20.5828383,30.0062998 20.2203154,27.8727637 19.9754924,25.724177 C19.2540253,25.7980592 18.5287176,25.827785 17.8036243,25.813188 Z M8.90252536,9.79120993 C8.90252536,9.29961581 9.30104113,8.90110004 9.79263525,8.90110004 C10.2842294,8.90110004 10.6827451,9.29961581 10.6827451,9.79120993 L10.6827451,13.3516495 C10.6827451,13.8432436 10.2842294,14.2417594 9.79263525,14.2417594 C9.30104113,14.2417594 8.90252536,13.8432436 8.90252536,13.3516495 L8.90252536,9.79120993 Z" id="Shape"></path>
                        <path d="M33.8256023,0.0712099316 L20.9546133,0.0712099316 C19.4149776,4.31321651 18.1659356,8.65512434 17.2161517,13.0668143 C16.7176902,15.7727484 16.8957122,16.9120891 17.0737341,16.9120891 L21.5242836,16.9120891 L21.5242836,17.8734077 C21.5242836,19.9206605 21.5242836,21.8789022 21.73791,23.7659352 C24.0324401,23.4271823 26.1689305,22.3962015 27.861866,20.8107704 C28.2059819,20.4666545 28.763904,20.4666545 29.1080199,20.8107704 C29.4521357,21.1548863 29.4521357,21.7128083 29.1080199,22.0569242 C27.1361031,23.9784536 24.6055446,25.2250341 21.8803276,25.6173638 C22.0939995,27.8020296 22.4387971,29.9718766 22.912855,32.115166 L33.8256023,32.115166 C34.8087905,32.115166 35.6058221,31.3181344 35.6058221,30.3349462 L35.6058221,1.85142971 C35.6058221,0.868241476 34.8087905,0.0712099316 33.8256023,0.0712099316 Z M26.7047232,13.4228583 C26.7047232,13.9144524 26.3062074,14.3129682 25.8146133,14.3129682 C25.3230192,14.3129682 24.9245034,13.9144524 24.9245034,13.4228583 L24.9245034,9.86241872 C24.9245034,9.3708246 25.3230192,8.97230883 25.8146133,8.97230883 C26.3062074,8.97230883 26.7047232,9.3708246 26.7047232,9.86241872 L26.7047232,13.4228583 Z" id="Shape"></path>
                    </g>
                </g>
            </g>
        </g>
    </g>
</svg>