<svg xmlns="http://www.w3.org/2000/svg" width="22" height="15" viewBox="0 0 22 15">
  <g fill="#89663D">
    <polygon points="14.461 7.326 21.541 11.802 21.541 2.662"/>
    <polygon points=".54 2.662 .54 11.802 7.62 7.326"/>
    <path d="M20.22775-5.32907052e-15L1.85275-5.32907052e-15C1.1978125-5.32907052e-15.6780625.48825.579625 1.1169375L11.04025 8.008875 21.500875 1.1169375C21.4024375.48825 20.8826875-5.32907052e-15 20.22775-5.32907052e-15zM13.258375 8.119125L11.4011875 9.342375C11.2909375 9.4145625 11.16625 9.45 11.04025 9.45 10.91425 9.45 10.7895625 9.4145625 10.6793125 9.342375L8.822125 8.1178125.58225 13.32975C.6833125 13.9531875 1.2004375 14.4375 1.85275 14.4375L20.22775 14.4375C20.8800625 14.4375 21.3971875 13.9531875 21.49825 13.32975L13.258375 8.119125z"/>
  </g>
</svg>
