<svg xmlns="http://www.w3.org/2000/svg" viewBox="0 0 31.27 31.65"><defs><style>.cls-1{fill:none;}.cls-2{fill:#979797;}</style></defs><g id="Layer_2" data-name="Layer 2"><g id="Layer_1-2" data-name="Layer 1"><rect class="cls-1" width="31.27" height="31.29"/><ellipse class="cls-2" cx="15.63" cy="16.01" rx="15.63" ry="15.64"/><polygon points="18.45 16.8 24.06 20.35 24.06 13.11 18.45 16.8"/><polygon points="7.43 13.11 7.43 20.35 13.04 16.8 7.43 13.11"/><path d="M23,11H8.47a1,1,0,0,0-1,.88l8.28,5.46L24,11.88A1,1,0,0,0,23,11ZM17.5,17.43,16,18.4a.51.51,0,0,1-.29.08.48.48,0,0,1-.28-.08l-1.47-1L7.46,21.56a1,1,0,0,0,1,.87H23a1,1,0,0,0,1-.87Z"/></g></g></svg>