<svg xmlns="http://www.w3.org/2000/svg" viewBox="0 0 630.08 624.27"><defs><style>.cls-1{fill:#545454;}</style></defs><g id="Layer_2" data-name="Layer 2"><g id="Layer_1-2" data-name="Layer 1"><path class="cls-1" d="M231.65,8a54.54,54.54,0,0,1,47.2-4.71c-1.51,8-3,16-4.48,24-8.52-2.36-18-3.66-26.33.11a23,23,0,0,0-13.67,20c-.3,7.92,2.7,16.51,9.58,21,7.77,5.52,18.71,4.53,26.44-.55-1.75-7.51-3.44-15-5.14-22.55,7.87-1.75,15.72-3.57,23.6-5.3,3.3,14.41,6.68,28.81,10,43.22A82.19,82.19,0,0,1,258,97.07c-12.72.86-25.91-3.63-34.7-13-8.94-9.52-13.12-22.78-13.41-35.67A47.2,47.2,0,0,1,231.65,8"/><path class="cls-1" d="M345.55,12c13.77-11.92,34.2-14.48,51-7.89Q395.25,17.85,394,31.6c-5.18-3-11-5.14-17.07-5-7.68-.14-15.5,3.62-19.63,10.19-5.2,8.31-3.93,20.16,3.31,26.91,7.51,7.52,19.45,8.52,29.12,5.08Q386.86,82.64,384,96.52c-13.47,1.1-27.67-2.38-38.45-10.72A43.61,43.61,0,0,1,329.1,55.38c-1.41-15.87,3.84-33.05,16.45-43.39"/><path class="cls-1" d="M519.87,81.62C515.45,58.13,490,41,466.53,46.1c-20.37,3.39-37.07,20.9-40.32,41.15-2.8,14.7,1.63,30.83,12.46,41.34a46.5,46.5,0,0,0,32.4,13.82,50.76,50.76,0,0,0,42.19-23.88A49.36,49.36,0,0,0,519.87,81.62ZM495.69,94.45c-.73,10.86-9.7,20.83-20.68,22-11,1.63-22.42-6.78-23.93-17.86-2.36-11.89,6.47-24.29,18.09-26.93a21.61,21.61,0,0,1,20,5.57A21.94,21.94,0,0,1,495.69,94.45Z"/><path class="cls-1" d="M122.09,62.18c-6.91,6-13.83,12-20.68,18q18.16,45.72,36.39,91.41c6.5-5.35,12.66-11.08,19.07-16.52-1.37-3.41-2.75-6.81-4-10.26,8.28-7,16.39-14.28,24.57-21.44q4.73,2.83,9.43,5.72,9.62-8.43,19.26-16.82C178.13,95.57,150,79.05,122.09,62.18Zm20.54,60.72c-4.47-9.82-8.82-19.69-13.18-29.56,9.27,5.52,18.37,11.35,27.49,17.12C152.17,114.6,147.38,118.73,142.63,122.9Z"/><path class="cls-1" d="M591.91,161.44c-4.43-8-8.77-16-13.28-23.89-27.13,14.95-54.18,30-81.32,45,3.87,7.1,7.81,14.16,11.73,21.23,11.59-6.36,23.14-12.79,34.72-19.18q-12.71,17.9-25.41,35.79c4.37,7.69,8.47,15.54,13,23.12,8.42-12.53,17-24.92,25.55-37.4a21.36,21.36,0,0,0,16.16,5.13c12-1.27,23.68-10.43,25.47-22.76C599.83,179,596.32,169.65,591.91,161.44Zm-32.77,26.77c-3.38-1.78-5.11-5.36-6.95-8.52,6.81-3.64,13.61-7.31,20.31-11.17,1.65,3.07,3.72,6.22,3.62,9.85C576,186.3,566,192,559.14,188.21Z"/><path class="cls-1" d="M93.68,203.25c.27-2,1.7-3.78,2.52-5.65,4.62-8.7,6.43-19.5,2.41-28.77-4.26-10-13.84-16.56-23.73-20.19-7.46-2.95-16.27-2.78-23.27,1.33-8.15,4.81-13.75,12.81-18.26,20.93-3.72,6.83-7.52,13.63-11.19,20.5,27.18,14.8,54.17,29.93,81.24,44.91,3.82-7.08,7.86-14.05,11.81-21.06C108,211.37,100.73,207.47,93.68,203.25ZM72.91,191.9c-6.54-3.6-13-7.38-19.56-10.9,2-4.41,5.32-9.05,10.53-9.58,5.65-.12,12.14,3.91,12.43,10C76.59,185.25,74.6,188.65,72.91,191.9Z"/><path class="cls-1" d="M13,257.47c6.07-1.14,13.39.35,17,5.81,2,3,1.73,6.69,1.09,10.05-10.48,70.85,7.5,145.13,48.24,203.92q79.2.21,158.4.21c7.43-22.4,15-44.75,22.42-67.13,1.59-4.77,2.91-9.78,6-13.84,3.77-5.28,10.23-9,16.84-8.17a15.57,15.57,0,0,1,11.95,8.2c2.62,4.79,2.92,10.47,2.2,15.78q-13.69,106-27.33,212c-68.13-9.78-132.39-43.15-180.09-92.69-45.3-46.65-76.07-107.37-86-171.7a305.75,305.75,0,0,1-.06-94.43c.73-4.52,5.2-7.21,9.38-8"/><path class="cls-1" d="M602.89,260.26c5.82-4.13,14.43-4.32,20.27-.13,3.48,2.4,3.56,6.95,4.12,10.73a308.7,308.7,0,0,1-8.67,124.89,320.12,320.12,0,0,1-97.23,154,313.1,313.1,0,0,1-160.92,74.51Q346.72,518.33,333,412.39c-.76-5.78-.31-12,3-17A15.46,15.46,0,0,1,350,388.25c10.51.69,17,10.7,19.32,20.05,7.63,23.05,15.42,46,23,69.1,52.79.2,105.57-.1,158.36-.11,41-59,58.94-133.79,48.17-205-1.12-4.39.22-9.41,4-12.08"/><path class="cls-1" d="M42.67,270.87c1.72-7.27,10.91-9.52,17.25-7.35a12.27,12.27,0,0,1,8.64,14C59,341.51,75.75,408.88,114,461c-10.76,0-21.52.08-32.28,0-17.8-30.14-31.42-63-37.95-97.46a263.2,263.2,0,0,1-1.1-92.66"/><path class="cls-1" d="M562.55,269.92c4.4-9.63,21.77-9.85,24.84.85a264,264,0,0,1-7.26,118.58c-7.36,25.16-18.44,49.13-31.79,71.66-10.75.09-21.51,0-32.26,0,38.11-51.72,54.85-118.59,45.62-182.16-.53-3-.63-6.21.85-9"/><path class="cls-1" d="M82,278.37c1.34-7.48,10.23-11.12,17-9,6.14,1.31,10.72,7.66,9.28,13.94a209.13,209.13,0,0,0,16,115.6A214.38,214.38,0,0,0,166.59,461c-11.82.08-23.63,0-35.45.06C90.21,410.6,71.93,342.58,82,278.37"/><path class="cls-1" d="M521.73,282.36c-1-6.36,4.2-12.19,10.29-13.2,6.6-1.68,14.85,2,16.1,9.14A236,236,0,0,1,499.32,461c-12,.08-24,0-36,0a208.94,208.94,0,0,0,58.37-178.68"/><path class="cls-1" d="M121.42,285.33a12.08,12.08,0,0,1,9.65-10.18c5.85-1.31,12.83.89,15.79,6.36,1.72,3,1.2,6.55.75,9.81-5.5,39.86,4.22,81.45,26.24,115.06,14.49,22.49,34.55,41.08,57.45,54.8-14.44.08-28.89-.11-43.33-.12a4,4,0,0,1-3.4-1.28,196.7,196.7,0,0,1-63.15-174.45"/><path class="cls-1" d="M483.64,281c4.8-7.6,17.42-8.4,22.92-1.17,2.64,3.23,2.5,7.61,3.07,11.53A197.86,197.86,0,0,1,445.51,460c-1.15,1.36-3,1-4.57,1.1-14.07,0-28.14.2-42.21.11,25.65-15.16,47.58-36.7,62.39-62.6a169.66,169.66,0,0,0,21.26-108c-.55-3.23-.62-6.78,1.26-9.61"/><path class="cls-1" d="M310.78,141.48c1.28-8.35,2-16.8,3.65-25.09,5,35.69,9.68,71.41,14.65,107.1,12.33-15.44,24.52-31,36.89-46.39-1.68,20.39-3.68,40.75-5.42,61.14,22.71-14.59,45.31-29.34,68.06-43.87q-22,34-43.89,68,32.07-3.78,64.13-7.58c-17.14,12.74-34.49,25.21-51.56,38.06,24.65,5.3,49.38,10.25,74,15.7-25.36,6.45-51,12-76.36,18.26,17.24,12.48,34.52,24.9,51.68,37.5-22.27-2.4-44.51-5-66.76-7.48,14.7,22,29.9,43.64,44.51,65.68-21.57-13.23-43-26.72-64.43-40.18-9.57-5.31-22.67-1.82-28.8,7.12a21.77,21.77,0,0,0-3.69,9.88q-6.48,47.61-13,95.2c-4.81-32.33-8.67-64.82-13.38-97.17-2.47-13.88-20-21.9-32.19-15.1-21.54,13.45-43,27.12-64.68,40.28,14.91-21.95,30-43.79,44.9-65.71-22.39,2.44-44.76,5.14-67.17,7.46q25.95-18.7,51.8-37.54-38.17-9-76.35-18.09c24.57-5.68,49.39-10.32,74-15.91-16.93-12.68-34.11-25-51-37.79,21.29,2.27,42.53,5,63.81,7.41-14.48-22.62-29.23-45.06-43.6-67.73,22.65,14.29,45,29.12,67.54,43.55-1.74-20.33-3.74-40.63-5.4-61,12.49,15.27,24.52,30.9,36.9,46.25q5.58-41,11.17-82"/></g></g></svg>