<svg xmlns="http://www.w3.org/2000/svg" width="18" height="18" viewBox="0 0 18 18">
  <g fill="#979797">
    <path d="M7.5,0 C11.6421356,0 15,3.35786438 15,7.5 C15,11.6421356 11.6421356,15 7.5,15 C3.35786438,15 0,11.6421356 0,7.5 C0,3.35786438 3.35786438,0 7.5,0 Z M7.5,1 C3.91014913,1 1,3.91014913 1,7.5 C1,11.0898509 3.91014913,14 7.5,14 C11.0898509,14 14,11.0898509 14,7.5 C14,3.91014913 11.0898509,1 7.5,1 Z"/>
    <path d="M12.1464466,12.1464466 C12.320013,11.9728803 12.5894374,11.9535951 12.7843055,12.0885912 L12.8535534,12.1464466 L17.8535534,17.1464466 C18.0488155,17.3417088 18.0488155,17.6582912 17.8535534,17.8535534 C17.679987,18.0271197 17.4105626,18.0464049 17.2156945,17.9114088 L17.1464466,17.8535534 L12.1464466,12.8535534 C11.9511845,12.6582912 11.9511845,12.3417088 12.1464466,12.1464466 Z"/>
  </g>
</svg>
