<svg height="18" viewBox="0 0 18 18" width="18" xmlns="http://www.w3.org/2000/svg"><g fill="#979797"><path d="m7.5 0c4.1421356 0 7.5 3.35786438 7.5 7.5 0 4.1421356-3.3578644 7.5-7.5 7.5-4.14213562 0-7.5-3.3578644-7.5-7.5 0-4.14213562 3.35786438-7.5 7.5-7.5zm0 1c-3.58985087 0-6.5 2.91014913-6.5 6.5 0 3.5898509 2.91014913 6.5 6.5 6.5 3.5898509 0 6.5-2.9101491 6.5-6.5 0-3.58985087-2.9101491-6.5-6.5-6.5z"/><path d="m12.1464466 12.1464466c.1735664-.1735663.4429908-.1928515.6378589-.0578554l.0692479.0578554 5 5c.1952621.1952622.1952621.5118446 0 .7071068-.1735664.1735663-.4429908.1928515-.6378589.0578554l-.0692479-.0578554-5-5c-.1952621-.1952622-.1952621-.5118446 0-.7071068z"/></g></svg>