<?xml version="1.0" encoding="UTF-8"?>
<svg width="166px" height="16px" viewBox="0 0 166 16" version="1.1" xmlns="http://www.w3.org/2000/svg" xmlns:xlink="http://www.w3.org/1999/xlink">
    <title>Group 46</title>
    <defs>
        <filter id="filter-1">
            <feColorMatrix in="SourceGraphic" type="matrix" values="0 0 0 0 0.690196 0 0 0 0 0.576471 0 0 0 0 0.427451 0 0 0 1.000000 0"></feColorMatrix>
        </filter>
        <linearGradient x1="0%" y1="50%" x2="129.15335%" y2="50%" id="linearGradient-2">
            <stop stop-color="#B0936D" stop-opacity="0" offset="0%"></stop>
            <stop stop-color="#D8C5A6" offset="100%"></stop>
        </linearGradient>
    </defs>
    <g id="Home" stroke="none" stroke-width="1" fill="none" fill-rule="evenodd">
        <g id="Group-46">
            <g id="Group-7-Copy" transform="translate(68.000000, 0.000000)" filter="url(#filter-1)">
                <g transform="translate(0.020001, 0.000000)">
                    <path d="M12.3850175,2.700791 L12.3402578,12.2644497 L2.77659908,12.3092094 L2.8213588,2.74555072 L12.3850175,2.700791 Z" id="Rectangle" stroke="#B0936D" transform="translate(7.580808, 7.505000) rotate(-315.000000) translate(-7.580808, -7.505000) "></path>
                    <path d="M19.8023253,2.700791 L19.7575656,12.2644497 L10.1939069,12.3092094 L10.2386666,2.74555072 L19.8023253,2.700791 Z" id="Rectangle-Copy-2" stroke="#B0936D" transform="translate(14.998116, 7.505000) rotate(-315.000000) translate(-14.998116, -7.505000) "></path>
                    <path d="M27.2196332,2.700791 L27.1748735,12.2644497 L17.6112148,12.3092094 L17.6559745,2.74555072 L27.2196332,2.700791 Z" id="Rectangle-Copy-3" stroke="#B0936D" transform="translate(22.415424, 7.505000) rotate(-315.000000) translate(-22.415424, -7.505000) "></path>
                </g>
            </g>
            <rect id="Rectangle-Copy-6" stroke="url(#linearGradient-2)" x="0.5" y="7.5" width="65" height="1"></rect>
            <rect id="Rectangle-Copy-12" stroke="url(#linearGradient-2)" transform="translate(133.000000, 7.395000) rotate(-180.000000) translate(-133.000000, -7.395000) " x="100.5" y="7.5" width="65" height="1"></rect>
        </g>
    </g>
</svg>