<svg height="32" viewBox="0 0 32 32" width="32" xmlns="http://www.w3.org/2000/svg"><g fill="none" fill-rule="evenodd"><path d="m0 0h31.267176v31.288889h-31.267176z"/><ellipse cx="15.633588" cy="16.006978" fill="#979797" rx="15.633588" ry="15.644444"/><path d="m11.3169492 19.9233304.0118065-2.8808782.538043-.0056455.5374808-.0067745-.0061844-.4437332-.0067466-.4442977-1.5528472-.00621-1.55172268-.00621v.4505077.4499432l.52511196.0067745.52511192.0056455.0061844 2.8571673c.0028111 1.5711315.0106822 2.8707164.0168666 2.8870883.0084333.0231463.1175036.0287918.4778856.0237109l.4672035-.00621zm8.9567008-.202672c-.0219265-.0575837.0084333-.7231834.0376686-.8197208.0680284-.2269475.2125186-.3375985.440217-.3375985.1894676 0 .3097823.073391.3907418.2382384.0511618.104441.0562218.1490402.0640929.5351896l.007871.4205868h-.4638301c-.3986129 0-.4649546-.0050809-.4767612-.0366955zm.8658163 3.1038739c.4542724-.1281519.7685525-.4397813.8871806-.8795626.0196776-.0750846.0427286-.2890476.0505996-.4747832l.0134933-.3375985h-.4374059-.4379681l-.0106822.3025966c-.0123688.3438085-.0477886.4617987-.172601.5718851-.1326836.1168611-.3766863.1253292-.5352319.0180655-.1889054-.1281519-.2355695-.3443731-.2260118-1.0466683l.0067466-.4979296.9057338-.0056454.9057338-.0067746-.0118066-.7406843c-.0146177-.8264954-.0314842-.9518246-.1697899-1.2453885-.2636805-.5560778-.9940021-.8366572-1.6006357-.6147906-.4576458.1676702-.7280728.4697023-.836581.9371464-.0382308.1648474-.0427286.3127584-.0427286 1.522016 0 1.4830623.00506 1.5434688.1557345 1.8471945.2693026.5402705.9434025.8225435 1.5562205.6509215zm-3.586391-.8445608c.0556596-.0378246.0922038-.0903273.1208769-.1721865.0365442-.1078283.0399176-.245013.0348576-1.5169351-.00506-1.325554-.0078711-1.4034614-.0505997-1.4904015-.1096325-.2218665-.3856818-.2433193-.63868-.0491155l-.0832084.0632292v1.5118542 1.5118542l.0826461.0632291c.1872188.1433947.3924285.1733157.5341075.0784719zm.5481629.8535936c.1377435-.0400828.3041601-.2043657.3789352-.3720358.1439279-.3212267.1444901-.3291304.1444901-2.135113 0-1.4824978-.0044977-1.6654107-.0410419-1.8257418-.1186281-.5131723-.3772486-.7372971-.8124056-.7045534-.2434405.0191946-.435157.1162965-.6651043.3392922-.1000749.0965373-.1894676.1761383-.1995875.1761383-.0089955 0-.0174288-.491155-.0174288-1.0907029v-1.0907028h-.4250371-.4250371v3.3426768 3.3432415h.4250371.4250371v-.2252539c0-.1496047.0089955-.2252539.0264243-.2252539.0140554 0 .1096325.0790365.2125185.1761384.3305844.3121939.6167536.3980049.9732.2918703zm-4.5241712-.0220173c.1697899-.0632292.3693775-.2021075.5374808-.3737295.0770239-.0790364.1540478-.1433947.1709143-.1433947.0224888 0 .0303598.0643583.0303598.2608203v.2608203h.4250371.4250371v-2.4777924-2.4772279h-.4250371-.4250371v1.9109882 1.9115528l-.1832832.1823483c-.1450523.1450884-.2057719.1891229-.2957268.213963-.151799.0423409-.2485005.0129845-.3109068-.0948438-.0472263-.0801655-.0483508-.1174255-.0550974-2.1029338l-.0061844-2.0210747h-.4250371-.4239126v2.1458393c0 2.337785.0022489 2.3885942.1326835 2.613848.1428035.2461421.4767612.3234849.8287099.1908166zm4.0794565-8.3439899c1.6725996.03726 3.4795695.1151674 3.9597039.1699283.6212513.0711328 1.0575328.3940531 1.3594441 1.0065855.2282606.4623632.3007868.8225436.3935528 1.932441.0725262.8784336.0905172 1.4260432.0770239 2.4405324-.0151799 1.2137739-.0922038 2.283024-.2074585 2.8831364-.1214392.6345497-.4081706 1.1753848-.7797969 1.4683842-.2861692.2263829-.5914537.3274366-1.0721504.3545348-.1428035.0084682-.3232756.0197592-.401424.0259692-.2766114.0214527-1.7597435.0812946-2.5732734.104441-1.2087695.0338727-3.323835.0457282-4.4741338.0254045-.5520985-.0095972-1.2053962-.02484-1.4522101-.0338727-1.6568575-.0598419-2.79422525-.1236356-3.02136147-.1699284-.32383778-.0654873-.68590641-.2856602-.89617608-.5447869-.33620659-.4149413-.51611647-.9185163-.60326031-1.693638-.2018364-1.8020308-.19733865-3.9038356.0123688-5.6426372.09220381-.7621372.32102669-1.3125695.70502184-1.6964608.21926516-.2196084.43009705-.3415503.71064401-.4138122.60832031-.1563792 5.36806101-.2805794 8.26348561-.2162211zm-3.451522-7.35565988.4806967.00282273-.0106822.0773428c-.0084333.06266461-.3367688 1.16917477-.6802842 2.29318586-.0371064.12420012-.1332458.4442977-.2125186.71189249-.0792728.2670303-.1748499.5843051-.2130807.705118l-.0691529.2201729-.0001169 1.7243792c-.0007995.9528391-.0065173 1.0237178-.040925 1.0328635-.0865817.0237109-.9973754.01242-1.0125553-.01242-.0202399-.0333082-.0168666-1.9838147.0033733-2.2598777.0264243-.3539703-.0331709-.632856-.2861691-1.3453131-.0820839-.2308993-.2305096-.67914883-.32946-.99529459-.715704-2.28584676-.6780354-2.15204936-.6094447-2.15261391.4717012-.00395182 1.0535972-.00112909 1.0603438.00564546.0044978.00451637.1574212.56228782.3401421 1.24030757.1832832.6774552.3356444 1.24143666.3395799 1.25385667.0033733.01129092.110757-.38332674.2383806-.87730449.2670537-1.03650646.417166-1.60839156.4227882-1.61347247.0118066-.01129092.1444902-.01354911.579085-.01129092zm4.4538939 6.83778118c-.2372562-.0316146-.3761241-.1236356-.471139-.3127585-.1191903-.2371093-.1191903-.2359802-.1191903-2.5986052v-2.20455218h.47901.4784479l.0101199 2.03236558c.0106821 2.2073749.0078711 2.1560012.1394301 2.1893094.120877.029921.254685-.0350018.4211016-.2054947l.15967-.1631538.0061844-1.9267955.0056222-1.92623098.4784478-.00677455.4784479-.00564546v2.52295609 2.5235206l-.0652174.0135491c-.0781483.0163719-.80341.0152428-.8618807-.0016936-.0354198-.0095973-.041042-.042341-.041042-.2399321v-.2292056l-.1360568.1332328c-.3125934.3054194-.6499244.447685-.9619556.4059086zm-2.4107924-.96368c.1641678-.1253292.1652922-.1360556.1737255-1.5547597.0073088-1.1025584.0033733-1.2899876-.0297976-1.44015687-.0449775-.20323656-.123688-.29920938-.2777359-.34155033-.1990253-.05306733-.381184.06097096-.4452769.27945027-.0483508.16823473-.0477886 2.66917353.0011244 2.83740823.0371064.1264583.1557345.264772.2434406.2839666.1141303.0242755.2541227-.0028227.3350821-.0643582zm-.3749996.9625509c-.4284104-.0519382-.8219633-.3048548-1.0114309-.650357-.1928409-.3517122-.2108319-.5357541-.1995875-2.0848684.0089955-1.1996602.0123688-1.27474485.0595951-1.44693138.1130059-.40929585.3317089-.68818158.6707265-.85698083.4655169-.23089932.9675779-.20097838 1.4066704.0846819.2799848.18121927.4497747.4442977.5408541.83552808.0399175.17275103.043853.30541943.043853 1.51693513 0 1.473465-.0067466 1.5587115-.1574211 1.87768-.1444902.3076776-.4717012.5786596-.8129678.6740679-.1506745.0412119-.4121061.0660519-.5402918.0502446z" fill="#000"/></g></svg>