<?xml version="1.0" encoding="UTF-8"?>
<svg width="27px" height="21px" viewBox="0 0 27 21" version="1.1" xmlns="http://www.w3.org/2000/svg" xmlns:xlink="http://www.w3.org/1999/xlink">
    <title>twitter</title>
    <g id="What's-New" stroke="none" stroke-width="1" fill="none" fill-rule="evenodd">
        <g id="details_event" transform="translate(-444.000000, -423.000000)" fill="#545454" fill-rule="nonzero">
            <g id="Group-14" transform="translate(368.000000, 166.000000)">
                <g id="Group" transform="translate(2.000000, 255.000000)">
                    <g id="twitter" transform="translate(74.000000, 2.000000)">
                        <path d="M26.570583,2.44295123 C25.9706852,2.69168428 25.3479448,2.88791317 24.7089448,3.02997599 C25.4130495,2.40435791 25.9424446,1.62184288 26.2411099,0.748415027 L26.2411099,0.748415027 C26.3263581,0.499066456 26.0367115,0.283448573 25.7959098,0.416955621 L25.7959098,0.416955621 C24.9069578,0.909989946 23.9494122,1.27985802 22.949802,1.5164037 C22.8918069,1.53012988 22.8319685,1.53708529 22.7719326,1.53708529 C22.5898502,1.53708529 22.4128366,1.47387103 22.2736087,1.35913745 C21.2100788,0.482693531 19.8422224,0 18.4220979,0 C17.8075861,0 17.1871498,0.0895586696 16.5779702,0.266213915 C14.6905271,0.813598966 13.2341968,2.2693736 12.7772792,4.06547118 C12.605861,4.73916166 12.5594517,5.41346765 12.6392362,6.06961571 C12.6483864,6.14501734 12.6102715,6.1976446 12.5867707,6.22232709 C12.545496,6.26559839 12.4869742,6.29040399 12.4262142,6.29040399 C12.4194339,6.29040399 12.412456,6.29009623 12.405544,6.2894807 C8.27399752,5.93056895 4.54835134,4.06941053 1.91487062,1.0489136 L1.91487062,1.0489136 C1.78057989,0.894848068 1.52305766,0.91374464 1.41602005,1.08541414 L1.41602005,1.08541414 C0.900317312,1.91267773 0.627786123,2.85886046 0.627786123,3.82166232 C0.627786123,5.29719526 1.2617832,6.68772441 2.36303302,7.70143007 C1.89992748,7.59876075 1.45169925,7.43706272 1.03533216,7.22082932 L1.03533216,7.22082932 C0.833896063,7.11619032 0.58605067,7.25068221 0.583220032,7.46611543 L0.583220032,7.46611543 C0.554387022,9.65811773 1.92691729,11.6085886 3.9830137,12.4868791 C3.94160739,12.4878024 3.90020108,12.4882332 3.85872894,12.4882332 C3.53281061,12.4882332 3.20281088,12.4588112 2.87801164,12.4007674 L2.87801164,12.4007674 C2.65116563,12.3602659 2.46059128,12.5614805 2.53102809,12.7671269 L2.53102809,12.7671269 C3.19840036,14.7153204 4.99236653,16.1513367 7.13917501,16.4773795 C5.357453,17.5957242 3.28259538,18.1856419 1.12308194,18.1856419 L0.449850904,18.1852726 C0.242424389,18.1852726 0.0669906643,18.3117011 0.0141301463,18.4995589 C-0.0379404263,18.6845852 0.0579721201,18.8797677 0.234854078,18.9759741 C2.66828111,20.3001498 5.44395203,21 8.26300411,21 C10.7305963,21 13.038817,20.5421121 15.1236147,19.6391391 C17.034822,18.8113215 18.7237254,17.6279776 20.1433891,16.1219762 C21.4658895,14.7190751 22.5000597,13.0995712 23.2170669,11.3085209 C23.9005672,9.60124336 24.2618356,7.77954 24.2618356,6.04031679 L24.2618356,5.95746733 C24.2617698,5.67820431 24.3968505,5.41543733 24.6325176,5.2365662 C25.5268017,4.55764378 26.3055562,3.75844806 26.9470578,2.86119945 L26.9470578,2.86119945 C27.1164353,2.62428445 26.849302,2.32735592 26.570583,2.44295123 L26.570583,2.44295123 Z" id="Path"></path>
                    </g>
                </g>
            </g>
        </g>
    </g>
</svg>