<?xml version="1.0" encoding="UTF-8"?>
<svg width="23px" height="23px" viewBox="0 0 23 23" version="1.1" xmlns="http://www.w3.org/2000/svg" xmlns:xlink="http://www.w3.org/1999/xlink">
    <title>instagram</title>
    <g id="What's-New" stroke="none" stroke-width="1" fill="none" fill-rule="evenodd">
        <g id="details_event" transform="translate(-401.000000, -422.000000)" fill="#545454" fill-rule="nonzero">
            <g id="Group-14" transform="translate(368.000000, 166.000000)">
                <g id="Group" transform="translate(2.000000, 255.000000)">
                    <g id="instagram" transform="translate(31.000000, 1.000000)">
                        <path d="M16.12995,0 L6.84409059,0 C3.07024313,0 0,3.07024313 0,6.84409059 L0,16.12995 C0,19.9037975 3.07024313,22.9740406 6.84409059,22.9740406 L16.12995,22.9740406 C19.9037975,22.9740406 22.9740406,19.9037975 22.9740406,16.12995 L22.9740406,6.84409059 C22.9740406,3.07024313 19.9037558,0 16.12995,0 Z M20.662853,16.12995 C20.662853,18.6333823 18.6333823,20.662853 16.12995,20.662853 L6.84409059,20.662853 C4.34065837,20.662853 2.31118764,18.6333823 2.31118764,16.12995 L2.31118764,6.84409059 C2.31118764,4.34061667 4.34065837,2.31118764 6.84409059,2.31118764 L16.12995,2.31118764 C18.6333823,2.31118764 20.662853,4.34061667 20.662853,6.84409059 L20.662853,16.12995 L20.662853,16.12995 Z" id="Shape"></path>
                        <path d="M11.4870203,5.54511591 C8.21064896,5.54511591 5.54511591,8.21064896 5.54511591,11.4869786 C5.54511591,14.7633083 8.21064896,17.428883 11.4870203,17.428883 C14.7633917,17.428883 17.4289247,14.76335 17.4289247,11.4869786 C17.4289247,8.21060727 14.7633917,5.54511591 11.4870203,5.54511591 Z M11.4870203,15.1177371 C9.48181467,15.1177371 7.85630355,13.4922259 7.85630355,11.4870203 C7.85630355,9.48181467 9.48185636,7.85630355 11.4870203,7.85630355 C13.4922259,7.85630355 15.1177371,9.48181467 15.1177371,11.4870203 C15.1177371,13.4921843 13.4921843,15.1177371 11.4870203,15.1177371 Z" id="Shape"></path>
                        <circle id="Oval" cx="17.4404319" cy="5.589727" r="1.42380232"></circle>
                    </g>
                </g>
            </g>
        </g>
    </g>
</svg>