<?xml version="1.0" encoding="UTF-8"?>
<svg width="24px" height="24px" viewBox="0 0 24 24" version="1.1" xmlns="http://www.w3.org/2000/svg" xmlns:xlink="http://www.w3.org/1999/xlink">
    <title>link_icon</title>
    <g id="What's-New" stroke="none" stroke-width="1" fill="none" fill-rule="evenodd">
        <g id="details_event" transform="translate(-489.000000, -421.000000)" fill="#545454">
            <g id="Group-14" transform="translate(368.000000, 166.000000)">
                <g id="Group" transform="translate(2.000000, 255.000000)">
                    <g id="link_icon" transform="translate(119.000000, 0.000000)">
                        <path d="M9.61660897,18.1675127 L6.88318108,21.0575296 C5.74995773,22.2556716 3.91479013,22.2556716 2.78251822,21.0577691 C1.65001978,19.8603936 1.65001978,17.9199037 2.78229169,16.7227677 L8.25009891,10.9417279 C9.38237081,9.74454396 11.2177196,9.74454396 12.3499915,10.9417279 C12.7274457,11.3408052 13.3394552,11.3408052 13.7169094,10.9417279 C14.0943635,10.5426506 14.0943635,9.89558113 13.7169094,9.49650385 C11.8297291,7.50116538 8.77040664,7.50116538 6.88318108,9.49650385 L1.41541917,15.2774958 C-0.471806389,17.2727863 -0.471806389,20.5073673 1.41541917,22.5027058 C3.30241819,24.4990981 6.3619219,24.4990981 8.25014421,22.5027058 L10.9835721,19.6126888 C11.3610263,19.2136115 11.3610263,18.5665421 10.9835721,18.1674648 C10.6061179,17.7683875 9.99406314,17.7684354 9.61660897,18.1675127" id="Fill-1"></path>
                        <path d="M22.540417,1.44444388 C20.5943064,-0.481481294 17.4385461,-0.481481294 15.4924355,1.44444388 L12.1105929,4.79120933 C11.7213615,5.17640361 11.7213615,5.80096301 12.1105929,6.1861573 C12.4998244,6.57135158 13.1309298,6.57135158 13.5201612,6.1861573 L16.9020038,2.83939185 C18.0696047,1.68385524 19.9632011,1.68385524 21.1308488,2.83939185 C22.2984497,3.99488222 22.2984497,5.86786688 21.1308488,7.02335726 L14.929309,13.1605735 C13.7616613,14.3161563 11.8690928,14.3161563 10.7014919,13.1605735 C10.3122604,12.7753792 9.68115506,12.7753792 9.2919236,13.1605735 C8.90269213,13.545814 8.90269213,14.1703272 9.2919236,14.5555214 C11.2380342,16.4814929 14.3927667,16.4814929 16.3388773,14.5555214 L22.540417,8.41835146 C24.4865277,6.49242628 24.4865277,3.37036906 22.540417,1.44444388" id="Fill-4"></path>
                    </g>
                </g>
            </g>
        </g>
    </g>
</svg>