<svg height="134" viewBox="0 0 123 134" width="123" xmlns="http://www.w3.org/2000/svg" xmlns:xlink="http://www.w3.org/1999/xlink"><linearGradient id="a"><stop offset="0" stop-color="#000f24" stop-opacity=".9"/><stop offset="1" stop-color="#011b3e"/></linearGradient><linearGradient id="b" x1="-17.240767%" x2="50%" xlink:href="#a" y1="-56.358754%" y2="100%"/><linearGradient id="c" x1="-50.085449%" x2="36.804199%" xlink:href="#a" y1="-49.005127%" y2="42.788696%"/><linearGradient id="d" x1="39.624369%" x2="176.664605%" y1="0%" y2="178.388672%"><stop offset="0" stop-color="#c8aa82"/><stop offset=".796659393" stop-color="#7c6341"/><stop offset="1" stop-color="#afa286"/></linearGradient><linearGradient id="e" x1="50%" x2="50%" xlink:href="#a" y1="3.410051%" y2="100%"/><linearGradient id="f" x1="24.132775%" x2="349.232604%" y1="0%" y2="179.944345%"><stop offset="0" stop-color="#c8aa82"/><stop offset=".913405231" stop-color="#7c6341"/><stop offset="1" stop-color="#afa286"/></linearGradient><g fill="none" fill-rule="evenodd" stroke-width="2.377375" transform="translate(1.7 2)"><g stroke="#b0936d" transform="translate(0 10.868)"><circle cx="59.774" cy="59.774" fill="url(#b)" r="59.774"/><path d="m17.507399 17.507399 84.533202 84.533202"/><path d="m102.040601 17.507399-84.533202 84.533202"/><path d="m119.548 62.534336h-119.548"/><path d="m59.774 119.548v-119.548"/><circle cx="59.774" cy="59.774" fill="url(#c)" r="43.472"/><circle cx="59.774" cy="59.774" r="28.5285"/><circle cx="59.774" cy="59.774" r="5.434"/><circle cx="59.774" cy="59.774" r="59.774"/></g><path d="m60.45325 40.755 12.90575-29.221141-12.90575-11.533859-12.90575 11.533859z" fill="#001127" stroke="url(#d)"/><path d="m54.34 65.208h10.868v10.868h-10.868z" fill="url(#e)" stroke="url(#f)" transform="matrix(.70710678 .70710678 -.70710678 .70710678 67.458836 -21.576038)"/><path d="m60.45325 27.17 4.75475-14.7836157-4.75475-4.2353843-4.75475 4.2353843z" fill="#001127" stroke="#b0936d"/></g></svg>