<svg height="120" viewBox="0 0 109 120" width="109" xmlns="http://www.w3.org/2000/svg" xmlns:xlink="http://www.w3.org/1999/xlink"><linearGradient id="a" x1="50%" x2="50%" y1="3.410051%" y2="100%"><stop offset="0" stop-color="#000f24" stop-opacity=".9"/><stop offset="1" stop-color="#011b3e"/></linearGradient><g fill="none" fill-rule="evenodd" transform="translate(-24.5 -18.5)"><path d="m76.5 31.2h.6c15.0773737 0 27.3 12.2226263 27.3 27.3v63.9h-55.2v-63.9c0-15.0773737 12.2226263-27.3 27.3-27.3z" fill="url(#a)"/><g stroke="#b0936d" transform="translate(26.123077 19.2)"><g fill="url(#a)"><path d="m52.1769231 13.85c7.3591943 0 14.0216943 2.9829029 18.8443957 7.8056043s7.8056043 11.4852014 7.8056043 18.8443957v63.25h-53.9v-63.25c0-7.3591943 2.9829028-14.0216943 7.8056043-18.8443957 4.8227014-4.8227014 11.4852014-7.8056043 18.8443957-7.8056043z" stroke-width="1.3"/><path d="m52.8002271.539352c22.36572 0 40.5 16.27128 40.5 36.34956v67.33044l-12.96-.001v.001h-55.08l-.001-.001h55.081v-67.32944c0-12.7694556-12.108273-23.1794969-27.0852827-23.3864207l-.4547173-.0031393c-15.18588 0-27.54 10.49112-27.54 23.38956l-.001 67.32944-12.959.001v-67.33044c0-20.07828 18.13104-36.34956 40.5-36.34956z" stroke-width="2.27448"/><path d="m38.2202271 91.259352v-54.37044c0-5.5566 6.81372-10.42956 14.58-10.42956s14.58 4.87296 14.58 10.42956v54.37044z" stroke-width="2.27448"/><path d="m102.305159 117.70488h-99.01439992l-3.24-13.48488h105.49439992z" stroke-width="2.27448"/></g><path d="m52.8002271 46.953-6.48-6.48 6.48-6.48 6.48 6.48z" stroke-width="2.275"/><path d="m52.8002271 65.51982-6.48-6.48 6.48-6.48 6.48 6.48z" stroke-width="2.275"/><path d="m52.8002271 84.08988-6.48-6.48 6.48-6.48 6.48 6.48z" stroke-width="2.275"/></g></g></svg>