<svg height="132" viewBox="0 0 123 132" width="123" xmlns="http://www.w3.org/2000/svg" xmlns:xlink="http://www.w3.org/1999/xlink"><linearGradient id="a" x1="50%" x2="50%" y1="3.410051%" y2="100%"><stop offset="0" stop-color="#000f24" stop-opacity=".9"/><stop offset="1" stop-color="#011b3e"/></linearGradient><linearGradient id="b" x1="7.121969%" x2="89.800119%" y1="245.956717%" y2="245.956717%"><stop offset="0" stop-color="#a78c68"/><stop offset=".524440456" stop-color="#7c6341"/><stop offset="1" stop-color="#afa286"/></linearGradient><g fill="none" fill-rule="evenodd" transform="translate(1.846154 1.923077)"><path d="m60.4987595.06425314c-26.1029655 0-47.2612543 18.99037376-47.2612543 42.41511936v70.2038505h94.5225088v-70.2038505c0-23.4247456-21.158289-42.41511936-47.2612545-42.41511936z" fill="url(#a)" stroke="url(#b)" stroke-width="2.287938"/><path d="m75.4612454 50.0121738c-.3343376-.358973-.6827525-.7038686-1.0417255-1.0382061-3.6495584 3.3996851-8.5344062 5.4972134-13.9190007 5.4972134s-10.2694423-2.0975283-13.9225201-5.4972134c-.358973.3343375-.7038686.6792331-1.0382061 1.0382061 3.3996851 3.6530778 5.4972134 8.5379256 5.4972134 13.9225201 0 5.3810751-2.0975283 10.2659229-5.4972134 13.9190007.3343375.3624923.6792331.7038686 1.0382061 1.0417255 3.6530778-3.4032045 8.5379256-5.4936941 13.9225201-5.4936941s10.2694423 2.0904896 13.9190007 5.4936941c.358973-.3378569.7073879-.6792332 1.0417255-1.0417255-3.3996851-3.6530778-5.4972134-8.5379256-5.4972134-13.9190007 0-5.3845945 2.0975283-10.2694423 5.4972134-13.9225201z" stroke="#231f20" stroke-linecap="round" stroke-linejoin="round" stroke-width="2.639507"/><g stroke="url(#b)" stroke-width="2.287938"><path d="m60.4984076 73.3982067c5.3845945 0 10.2694423 2.0940089 13.9225201 5.4972134-3.6530778 3.3996851-8.5379256 5.4972134-13.9225201 5.4972134s-10.2659229-2.0975283-13.9190008-5.4972134c3.6530779-3.4032045 8.5344063-5.4972134 13.9190008-5.4972134zm14.9628378-23.3860329c3.3996851 3.6530778 5.4972134 8.5379256 5.4972134 13.9225201 0 5.3810751-2.0975283 10.2659229-5.4972134 13.9190007-3.3996851-3.6530778-5.4972134-8.5379256-5.4972134-13.9190007 0-5.3845945 2.0975283-10.2694423 5.4972134-13.9225201zm-29.9232121 0c3.3996851 3.6530778 5.4972135 8.5379256 5.4972135 13.9225201 0 5.3810751-2.0975284 10.2659229-5.4972135 13.9190007-3.3996851-3.6530778-5.4972134-8.5379256-5.4972134-13.9190007 0-5.3845945 2.0975283-10.2694423 5.4972134-13.9225201zm14.9593185-6.5350676c5.3881138 0 10.2694423 2.0940089 13.9225201 5.4972134-3.6530778 3.3996851-8.5344063 5.4972135-13.9225201 5.4972135-5.3810751 0-10.2659229-2.0975284-13.9190008-5.4972135 3.6530779-3.4032045 8.5379257-5.4972134 13.9190008-5.4972134z" fill="url(#a)"/><path d="m60.4987595 91.3405201-7.1935366 7.197056 7.1935366 7.1970559 7.197056-7.1970559z" fill="url(#a)"/><path d="m60.4987595 22.2307692-7.1935366 7.197056 7.1935366 7.1970561 7.197056-7.1970561z" fill="url(#a)"/><path d="m28.3625847 112.683223v-70.2038505c0-15.0487098 14.4187474-27.2925034 32.1386384-27.2925034 17.7198909 0 32.1386383 12.2437936 32.1386383 27.2925034v70.2038505z"/></g><path d="m23.538462 112.461538h83.692308v9.153846h-83.692308z" fill="url(#a)"/><path d="m111.153846 120.307692-24.8055137.149759c-2.1292024 0-3.8571997-1.724478-3.8571997-3.8572v-3.917028h33.1627674c1.942677 0 3.515823 1.573146 3.515823 3.515823v8.527368c0 1.942677-1.573146 3.515823-3.515823 3.515823h-35.8022745c-2.4811366 0-4.8602124-.981897-6.6128451-2.738049l-1.5625882-1.562588c-1.7526327-1.752633-4.1317084-2.738049-6.6128451-2.738049h-10.3996579c-2.4811367 0-4.8602124.985416-6.6128451 2.738049l-1.5590689 1.562588c-1.756152 1.756152-4.1317084 2.738049-6.6128451 2.738049h-36.29850157c-1.94267722 0-3.51582345-1.573146-3.51582345-3.515823v-8.527368c0-1.942677 1.57314623-3.515823 3.51582345-3.515823h33.16276717v3.917028c0 2.132722-1.7279973 3.8572-3.8571997 3.8572l-24.385996-.149759m73.9911326-7.624469h-45.7514563" fill="url(#a)" stroke="url(#b)" stroke-width="2.287938"/></g></svg>