<svg height="161" viewBox="0 0 155 161" width="155" xmlns="http://www.w3.org/2000/svg" xmlns:xlink="http://www.w3.org/1999/xlink"><linearGradient id="a" x1="50%" x2="50%" y1="3.410051%" y2="100%"><stop offset="0" stop-color="#000f24" stop-opacity=".9"/><stop offset="1" stop-color="#011b3e"/></linearGradient><linearGradient id="b" x1="7.121969%" x2="89.800119%" y1="245.956717%" y2="245.956717%"><stop offset="0" stop-color="#a78c68"/><stop offset=".524440456" stop-color="#7c6341"/><stop offset="1" stop-color="#afa286"/></linearGradient><linearGradient id="c" x1="24.132775%" x2="349.232604%" y1="0%" y2="179.944345%"><stop offset="0" stop-color="#c8aa82"/><stop offset=".913405231" stop-color="#7c6341"/><stop offset="1" stop-color="#afa286"/></linearGradient><g fill="url(#a)" fill-rule="evenodd" transform="translate(3.333333 1.666667)"><g stroke="#b0936d" stroke-width="2.288462"><path d="m116.886794 72.7786105h31.295519l-31.295519-30.9731915"/><path d="m30.854439 42.2456514-30.854439 30.5321109h31.0961851"/><path d="m13.733686 54.045833 17.85 18.4875" transform="matrix(-1 0 0 1 45.317372 0)"/><path d="m116.371186 54.045833 17.85 18.4875"/><path d="m31.2972161 84.0813019h-31.29551964l31.91048784 31.4778891m-.3284983-13.063358-17.85-18.4874997"/><path d="m116.886794 115.057886 31.295519-30.9774323h-31.295519m-.515608 18.4153793 17.85-18.4874997"/><path d="m50.6525569 134.158333 6.5908037 6.590804 16.8501287 16.663518 16.7313762-16.565971 6.6883505-6.688351"/><path d="m51.6652116 0 5.578149 5.57814903 16.8501287 16.66351767 16.7313762-16.56597099 5.6756957-5.67569571" transform="matrix(1 0 0 -1 0 22.241666)"/></g><path d="m112.403933 33.14325 30.275172 8.1119112-26.032882 97.1560398-26.4472896-7.086951 22.2055856.00075zm-75.0829996-.38.0002526 98.56175 20.7877474-.00075-26.4461177 7.086951-26.03288231-97.1560398z" stroke="url(#b)" stroke-width="1.85323"/><path d="m37.321186 19.408333h75.083333v111.916667h-75.083333z" stroke="url(#b)" stroke-width="2.059145"/><path d="m65.6545193 66.1583333h18.4166667v18.4166667h-18.4166667z" stroke="url(#c)" stroke-width="2.406154" transform="matrix(.70710678 .70710678 -.70710678 .70710678 75.219103 -30.861645)"/></g></svg>