<svg xmlns="http://www.w3.org/2000/svg" width="17" height="17" viewBox="0 0 17 17">
  <g fill="#B0936D" transform="translate(.033)">
    <path d="M0.146867094,0.146026629 C0.320639624,-0.0273333002 0.590086757,-0.0462981994 0.784794304,0.0889293766 L0.853973376,0.146867094 L16.2670373,15.5966146 C16.4620673,15.7921087 16.461691,16.1086909 16.2661969,16.3037208 C16.0924243,16.4770808 15.8229772,16.4960457 15.6282697,16.3608181 L15.5590906,16.3028804 L0.146026629,0.85313291 C-0.0490032912,0.657638814 -0.0486270019,0.341056548 0.146867094,0.146026629 Z" transform="matrix(-1 0 0 1 16.413 0)"/>
    <path d="M0.146867094,0.146026629 C0.320639624,-0.0273333002 0.590086757,-0.0462981994 0.784794304,0.0889293766 L0.853973376,0.146867094 L16.2670373,15.5966146 C16.4620673,15.7921087 16.461691,16.1086909 16.2661969,16.3037208 C16.0924243,16.4770808 15.8229772,16.4960457 15.6282697,16.3608181 L15.5590906,16.3028804 L0.146026629,0.85313291 C-0.0490032912,0.657638814 -0.0486270019,0.341056548 0.146867094,0.146026629 Z"/>
  </g>
</svg>
