<?xml version="1.0" encoding="UTF-8"?>
<svg width="123px" height="132px" viewBox="0 0 123 132" version="1.1" xmlns="http://www.w3.org/2000/svg" xmlns:xlink="http://www.w3.org/1999/xlink">
    <title>game_icon</title>
    <defs>
        <linearGradient x1="50%" y1="3.41005068%" x2="50%" y2="100%" id="linearGradient-1">
            <stop stop-color="#000F24" stop-opacity="0.9" offset="0%"></stop>
            <stop stop-color="#011B3E" offset="100%"></stop>
        </linearGradient>
        <linearGradient x1="7.12196892%" y1="245.956717%" x2="89.8001189%" y2="245.956717%" id="linearGradient-2">
            <stop stop-color="#A78C68" offset="0%"></stop>
            <stop stop-color="#7C6341" offset="52.4440456%"></stop>
            <stop stop-color="#AFA286" offset="100%"></stop>
        </linearGradient>
        <linearGradient x1="50%" y1="3.41005068%" x2="50%" y2="100%" id="linearGradient-3">
            <stop stop-color="#000F24" stop-opacity="0.9" offset="0%"></stop>
            <stop stop-color="#011B3E" offset="100%"></stop>
        </linearGradient>
        <linearGradient x1="7.12196892%" y1="245.956717%" x2="89.8001189%" y2="245.956717%" id="linearGradient-4">
            <stop stop-color="#A78C68" offset="0%"></stop>
            <stop stop-color="#7C6341" offset="52.4440456%"></stop>
            <stop stop-color="#AFA286" offset="100%"></stop>
        </linearGradient>
        <linearGradient x1="50%" y1="3.41005068%" x2="50%" y2="100%" id="linearGradient-5">
            <stop stop-color="#000F24" stop-opacity="0.9" offset="0%"></stop>
            <stop stop-color="#011B3E" offset="100%"></stop>
        </linearGradient>
        <linearGradient x1="7.12196892%" y1="245.956717%" x2="89.8001189%" y2="245.956717%" id="linearGradient-6">
            <stop stop-color="#A78C68" offset="0%"></stop>
            <stop stop-color="#7C6341" offset="52.4440456%"></stop>
            <stop stop-color="#AFA286" offset="100%"></stop>
        </linearGradient>
        <linearGradient x1="7.12196892%" y1="245.956717%" x2="89.8001189%" y2="245.956717%" id="linearGradient-7">
            <stop stop-color="#A78C68" offset="0%"></stop>
            <stop stop-color="#7C6341" offset="52.4440456%"></stop>
            <stop stop-color="#AFA286" offset="100%"></stop>
        </linearGradient>
        <linearGradient x1="50%" y1="3.41005068%" x2="50%" y2="100%" id="linearGradient-8">
            <stop stop-color="#000F24" stop-opacity="0.9" offset="0%"></stop>
            <stop stop-color="#011B3E" offset="100%"></stop>
        </linearGradient>
        <linearGradient x1="50%" y1="3.41005068%" x2="50%" y2="100%" id="linearGradient-9">
            <stop stop-color="#000F24" stop-opacity="0.9" offset="0%"></stop>
            <stop stop-color="#011B3E" offset="100%"></stop>
        </linearGradient>
        <linearGradient x1="7.12196892%" y1="245.956717%" x2="89.8001189%" y2="245.956717%" id="linearGradient-10">
            <stop stop-color="#A78C68" offset="0%"></stop>
            <stop stop-color="#7C6341" offset="52.4440456%"></stop>
            <stop stop-color="#AFA286" offset="100%"></stop>
        </linearGradient>
    </defs>
    <g id="Game" stroke="none" stroke-width="1" fill="none" fill-rule="evenodd">
        <g id="WE_games_God-of-Fortune-roulette-Copy" transform="translate(-658.000000, -393.000000)">
            <g id="Group" transform="translate(635.000000, 374.000000)">
                <g id="Group" transform="translate(6.538462, 6.538462)">
                    <g id="Group-23" transform="translate(18.307692, 14.384615)">
                        <path d="M60.4987595,0.0642531441 C34.395794,0.0642531441 13.2375052,19.0546269 13.2375052,42.4793725 L13.2375052,112.683223 L107.760014,112.683223 L107.760014,42.4793725 C107.760014,19.0546269 86.601725,0.0642531441 60.4987595,0.0642531441 Z" id="Stroke-15" stroke="url(#linearGradient-2)" stroke-width="2.28793846" fill="url(#linearGradient-1)"></path>
                        <path d="M75.4612454,50.0121738 C75.1269078,49.6532008 74.7784929,49.3083052 74.4195199,48.9739677 C70.7699615,52.3736528 65.8851137,54.4711811 60.5005192,54.4711811 C55.1159247,54.4711811 50.2310769,52.3736528 46.5779991,48.9739677 C46.2190261,49.3083052 45.8741305,49.6532008 45.539793,50.0121738 C48.9394781,53.6652516 51.0370064,58.5500994 51.0370064,63.9346939 C51.0370064,69.315769 48.9394781,74.2006168 45.539793,77.8536946 C45.8741305,78.2161869 46.2190261,78.5575632 46.5779991,78.8954201 C50.2310769,75.4922156 55.1159247,73.401726 60.5005192,73.401726 C65.8851137,73.401726 70.7699615,75.4922156 74.4195199,78.8954201 C74.7784929,78.5575632 75.1269078,78.2161869 75.4612454,77.8536946 C72.0615603,74.2006168 69.964032,69.315769 69.964032,63.9346939 C69.964032,58.5500994 72.0615603,53.6652516 75.4612454,50.0121738 Z" id="Stroke-1" stroke="#231F20" stroke-width="2.63950709" stroke-linecap="round" stroke-linejoin="round"></path>
                        <path d="M60.4984076,73.3982067 C65.8830021,73.3982067 70.7678499,75.4922156 74.4209277,78.8954201 C70.7678499,82.2951052 65.8830021,84.3926335 60.4984076,84.3926335 C55.1138131,84.3926335 50.2324847,82.2951052 46.5794068,78.8954201 C50.2324847,75.4922156 55.1138131,73.3982067 60.4984076,73.3982067 Z M75.4612454,50.0121738 C78.8609305,53.6652516 80.9584588,58.5500994 80.9584588,63.9346939 C80.9584588,69.315769 78.8609305,74.2006168 75.4612454,77.8536946 C72.0615603,74.2006168 69.964032,69.315769 69.964032,63.9346939 C69.964032,58.5500994 72.0615603,53.6652516 75.4612454,50.0121738 Z M45.5380333,50.0121738 C48.9377184,53.6652516 51.0352468,58.5500994 51.0352468,63.9346939 C51.0352468,69.315769 48.9377184,74.2006168 45.5380333,77.8536946 C42.1383482,74.2006168 40.0408199,69.315769 40.0408199,63.9346939 C40.0408199,58.5500994 42.1383482,53.6652516 45.5380333,50.0121738 Z M60.4973518,43.4771062 C65.8854656,43.4771062 70.7667941,45.5711151 74.4198719,48.9743196 C70.7667941,52.3740047 65.8854656,54.4715331 60.4973518,54.4715331 C55.1162767,54.4715331 50.2314289,52.3740047 46.578351,48.9743196 C50.2314289,45.5711151 55.1162767,43.4771062 60.4973518,43.4771062 Z" id="Combined-Shape" stroke="url(#linearGradient-4)" stroke-width="2.28793846" fill="url(#linearGradient-3)"></path>
                        <polygon id="Stroke-11" stroke="url(#linearGradient-6)" stroke-width="2.28793846" fill="url(#linearGradient-5)" points="60.4987595 91.3405201 53.3052229 98.5375761 60.4987595 105.734632 67.6958155 98.5375761"></polygon>
                        <polygon id="Stroke-13" stroke="url(#linearGradient-6)" stroke-width="2.28793846" fill="url(#linearGradient-5)" points="60.4987595 22.2307692 53.3052229 29.4278252 60.4987595 36.6248813 67.6958155 29.4278252"></polygon>
                        <path d="M28.3625847,112.683223 L28.3625847,42.4793725 C28.3625847,27.4306627 42.7813321,15.1868691 60.5012231,15.1868691 C78.221114,15.1868691 92.6398614,27.4306627 92.6398614,42.4793725 L92.6398614,112.683223 L28.3625847,112.683223 Z" id="Stroke-17" stroke="url(#linearGradient-7)" stroke-width="2.28793846"></path>
                        <rect id="Rectangle" fill="url(#linearGradient-8)" x="23.5384615" y="112.461538" width="83.6923077" height="9.15384615"></rect>
                        <path d="M111.153846,120.307692 L86.3483323,120.457451 C84.2191299,120.457451 82.4911326,118.732973 82.4911326,116.600251 L82.4911326,112.683223 L115.6539,112.683223 C117.596577,112.683223 119.169723,114.256369 119.169723,116.199046 L119.169723,124.726414 C119.169723,126.669091 117.596577,128.242237 115.6539,128.242237 L79.8516255,128.242237 C77.3704889,128.242237 74.9914131,127.26034 73.2387804,125.504188 L71.6761922,123.9416 C69.9235595,122.188967 67.5444838,121.203551 65.0633471,121.203551 L54.6636892,121.203551 C52.1825525,121.203551 49.8034768,122.188967 48.0508441,123.9416 L46.4917752,125.504188 C44.7356232,127.26034 42.3600668,128.242237 39.8789301,128.242237 L3.58042853,128.242237 C1.63775131,128.242237 0.0646050784,126.669091 0.0646050784,124.726414 L0.0646050784,116.199046 C0.0646050784,114.256369 1.63775131,112.683223 3.58042853,112.683223 L36.7431957,112.683223 L36.7431957,116.600251 C36.7431957,118.732973 35.0151984,120.457451 32.885996,120.457451 L8.5,120.307692 M82.4911326,112.683223 L36.7396763,112.683223" id="Combined-Shape" stroke="url(#linearGradient-10)" stroke-width="2.28793846" fill="url(#linearGradient-9)"></path>
                    </g>
                </g>
            </g>
        </g>
    </g>
</svg>