<?xml version="1.0" encoding="UTF-8"?>
<svg width="120px" height="120px" viewBox="0 0 120 120" version="1.1" xmlns="http://www.w3.org/2000/svg" xmlns:xlink="http://www.w3.org/1999/xlink">
    <title>game_icon_God of Wealth Roulette</title>
    <defs>
        <linearGradient x1="50%" y1="3.41005068%" x2="50%" y2="100%" id="linearGradient-1">
            <stop stop-color="#000F24" stop-opacity="0.9" offset="0%"></stop>
            <stop stop-color="#011B3E" offset="100%"></stop>
        </linearGradient>
        <linearGradient x1="46.5542588%" y1="0%" x2="77.0567867%" y2="133.886978%" id="linearGradient-2">
            <stop stop-color="#C8AA82" offset="0%"></stop>
            <stop stop-color="#7C6341" offset="39.9718033%"></stop>
            <stop stop-color="#AFA286" offset="100%"></stop>
        </linearGradient>
        <linearGradient x1="50%" y1="3.41005068%" x2="50%" y2="100%" id="linearGradient-3">
            <stop stop-color="#000F24" stop-opacity="0.9" offset="0%"></stop>
            <stop stop-color="#011B3E" offset="100%"></stop>
        </linearGradient>
        <linearGradient x1="24.1327751%" y1="11.8765456%" x2="253.115655%" y2="113.961228%" id="linearGradient-4">
            <stop stop-color="#C8AA82" offset="0%"></stop>
            <stop stop-color="#7C6341" offset="39.9718033%"></stop>
            <stop stop-color="#AFA286" offset="100%"></stop>
        </linearGradient>
        <linearGradient x1="50%" y1="50.7508974%" x2="50%" y2="100%" id="linearGradient-5">
            <stop stop-color="#000F24" offset="0%"></stop>
            <stop stop-color="#011B3E" offset="100%"></stop>
        </linearGradient>
        <linearGradient x1="24.1327751%" y1="19.458601%" x2="253.115655%" y2="101.240513%" id="linearGradient-6">
            <stop stop-color="#C8AA82" offset="0%"></stop>
            <stop stop-color="#7C6341" offset="39.9718033%"></stop>
            <stop stop-color="#AFA286" offset="100%"></stop>
        </linearGradient>
        <linearGradient x1="24.1327751%" y1="49.7426584%" x2="253.115655%" y2="50.4317521%" id="linearGradient-7">
            <stop stop-color="#C8AA82" offset="0%"></stop>
            <stop stop-color="#7C6341" offset="39.9718033%"></stop>
            <stop stop-color="#AFA286" offset="100%"></stop>
        </linearGradient>
        <linearGradient x1="24.1349619%" y1="0%" x2="253.098483%" y2="133.886978%" id="linearGradient-8">
            <stop stop-color="#C8AA82" offset="0%"></stop>
            <stop stop-color="#7C6341" offset="39.9718033%"></stop>
            <stop stop-color="#AFA286" offset="100%"></stop>
        </linearGradient>
        <linearGradient x1="-42.7295762%" y1="74.2704223%" x2="89.8001189%" y2="245.956717%" id="linearGradient-9">
            <stop stop-color="#A78C68" offset="0%"></stop>
            <stop stop-color="#7C6341" offset="52.4440456%"></stop>
            <stop stop-color="#AFA286" offset="100%"></stop>
        </linearGradient>
        <linearGradient x1="-61.9433047%" y1="22.9297627%" x2="253.115655%" y2="72.4162828%" id="linearGradient-10">
            <stop stop-color="#C8AA82" offset="0%"></stop>
            <stop stop-color="#7C6341" offset="39.9718033%"></stop>
            <stop stop-color="#AFA286" offset="100%"></stop>
        </linearGradient>
        <linearGradient x1="84.7796146%" y1="44.8578047%" x2="253.115655%" y2="72.4162828%" id="linearGradient-11">
            <stop stop-color="#C8AA82" offset="0%"></stop>
            <stop stop-color="#7C6341" offset="73.1462007%"></stop>
            <stop stop-color="#AFA286" offset="100%"></stop>
        </linearGradient>
    </defs>
    <g id="game_icon_God-of-Wealth-Roulette" stroke="none" stroke-width="1" fill="none" fill-rule="evenodd">
        <g id="Group-39" transform="translate(11.000000, 13.000000)">
            <polygon id="Stroke-33" stroke="url(#linearGradient-2)" stroke-width="1.75" fill="url(#linearGradient-1)" points="11.3188364 41.9262545 21.1632 88.3815273 28.9770182 86.9706182 21.5 40"></polygon>
            <polygon id="Stroke-23" stroke="url(#linearGradient-2)" stroke-width="1.75" fill="url(#linearGradient-1)" points="84.1511273 41.9262545 74.3067636 88.3815273 66.4929455 86.9706182 74 40"></polygon>
            <path d="M68.2567273,9.13090909 C71.288,9.63127273 75.6661818,10.5389091 78.68,11.2952727 L78.68,11.2952727 L74.0547759,40.0149091 L77.1314909,21.6202182 L92.6165818,24.4362182 C94.4289455,24.7678545 95.6391273,26.4958545 95.3307636,28.3140364 L95.3307636,28.3140364 L93.3234909,40.1104 C93.0093091,41.9518545 91.2580364,43.1853091 89.4224,42.8594909 L89.4224,42.8594909 L74.0367759,40.1299091 L65.6298182,92.3367273 C59.1686008,91.3015968 54.4427634,90.9292112 48.5499766,90.9064243 L47.7389091,90.9054545 L47.6690909,90.9054545 C41.3912727,90.8967273 36.5330909,91.2545455 29.7781818,92.3367273 L29.7781818,92.3367273 L16.7250909,11.2952727 C19.7418182,10.5389091 24.1170909,9.63127273 27.1483636,9.13090909 L27.1483636,9.13090909 Z M18.3399273,21.6187636 L21.3799273,40.1991273 L6.04901818,42.8609455 C4.21047273,43.1838545 2.4592,41.9533091 2.14501818,40.1118545 L0.137745455,28.3125818 C-0.170618182,26.4944 1.03956364,24.7664 2.85192727,24.4376727 L18.3399273,21.6187636 Z" id="Combined-Shape" stroke="url(#linearGradient-4)" stroke-width="1.75" fill="url(#linearGradient-3)"></path>
            <path d="M31.8244364,34.3495273 C29.7997091,21.5640727 27.7749818,14.5997091 25.7502545,1.81425455 C40.2724364,-0.486836364 55.0651636,-0.486836364 69.5873455,1.81425455 C67.5626182,14.5997091 65.5378909,21.5640727 63.5131636,34.3495273 M51.6510545,0.230254545 L67.4561455,15.2789818 M43.4282182,0.230254545 L28.3125818,15.2789818 M44.1170909,33.4264727 L28.9781818,19.0119273 M52.3399273,33.4264727 L66.2424727,19.5850182" id="Combined-Shape" stroke="url(#linearGradient-6)" stroke-width="1.75" fill="url(#linearGradient-5)"></path>
            <path d="M21.4677818,37.0427636 C21.4677818,37.0427636 33.0052364,33.3336727 47.6670545,33.2784 L47.7368727,33.2784 C62.3986909,33.3336727 73.9390545,37.0427636 73.9390545,37.0427636" id="Stroke-27" stroke="url(#linearGradient-7)" stroke-width="1.75"></path>
            <path d="M60.2846545,49.7758545 C60.0024727,49.4733091 59.7115636,49.1824 59.4090182,48.9002182 C56.3399273,51.7598545 52.2293818,53.5227636 47.7028364,53.5227636 C43.1762909,53.5227636 39.0686545,51.7598545 35.9966545,48.9002182 C35.6941091,49.1824 35.4032,49.4733091 35.1210182,49.7758545 C37.9806545,52.8478545 39.7435636,56.9554909 39.7435636,61.4820364 C39.7435636,66.0114909 37.9806545,70.1162182 35.1210182,73.1911273 C35.4032,73.4907636 35.6941091,73.7816727 35.9966545,74.0638545 C39.0686545,71.2042182 43.1762909,69.4413091 47.7028364,69.4413091 C52.2293818,69.4413091 56.3399273,71.2042182 59.4090182,74.0638545 C59.7115636,73.7816727 60.0024727,73.4907636 60.2846545,73.1911273 C57.4250182,70.1162182 55.6621091,66.0114909 55.6621091,61.4820364 C55.6621091,56.9554909 57.4250182,52.8478545 60.2846545,49.7758545 Z" id="Stroke-1" stroke="#231F20" stroke-width="2.18181818"></path>
            <path d="M47.7025455,69.4401455 C52.232,69.4401455 56.3396364,71.2059636 59.4087273,74.0626909 C56.3396364,76.9223273 52.232,78.6881455 47.7025455,78.6881455 C43.176,78.6881455 39.0683636,76.9223273 35.9963636,74.0626909 C39.0683636,71.2059636 43.176,69.4401455 47.7025455,69.4401455 Z M60.2846545,49.7758545 C63.1442909,52.8478545 64.9072,56.9554909 64.9072,61.4820364 C64.9072,66.0114909 63.1442909,70.1162182 60.2846545,73.1911273 C57.4250182,70.1162182 55.6621091,66.0114909 55.6621091,61.4820364 C55.6621091,56.9554909 57.4250182,52.8478545 60.2846545,49.7758545 Z M35.1213091,49.7758545 C37.9809455,52.8478545 39.7438545,56.9554909 39.7438545,61.4820364 C39.7438545,66.0114909 37.9809455,70.1162182 35.1213091,73.1911273 C32.2616727,70.1162182 30.4987636,66.0114909 30.4987636,61.4820364 C30.4987636,56.9554909 32.2616727,52.8478545 35.1213091,49.7758545 Z M47.7034182,44.2782545 C52.2299636,44.2782545 56.3376,46.0411636 59.4096,48.9008 C56.3376,51.7575273 52.2299636,53.5233455 47.7034182,53.5233455 C43.1739636,53.5233455 39.0663273,51.7575273 35.9972364,48.9008 C39.0663273,46.0411636 43.1739636,44.2782545 47.7034182,44.2782545 Z" id="Combined-Shape" stroke="url(#linearGradient-8)" stroke-width="1.75"></path>
            <polygon id="Stroke-11" stroke="url(#linearGradient-9)" stroke-width="2.18181818" points="47.6682182 8.56567273 39.0136727 17.2202182 47.6682182 25.8747636 56.3227636 17.2202182"></polygon>
            <path d="M75.2760727,33.6961455 L86.3858909,35.6277818 C87.0549818,35.7441455 87.6891636,35.2961455 87.8026182,34.6270545 L88.3669818,31.3077818 C88.4804364,30.6416 88.0324364,30.0074182 87.3662545,29.8968727 L81.4811636,28.8699636" id="Stroke-29" stroke="url(#linearGradient-10)" stroke-width="1.75"></path>
            <path d="M20.1938909,33.6961455 L9.08407273,35.6277818 C8.41498182,35.7441455 7.7808,35.2961455 7.66734545,34.6270545 L7.10298182,31.3077818 C6.98952727,30.6416 7.43752727,30.0074182 8.10370909,29.8968727 L13.9888,28.8699636" id="Stroke-35" stroke="url(#linearGradient-11)" stroke-width="1.75"></path>
        </g>
    </g>
</svg>