<?xml version="1.0" encoding="UTF-8"?>
<svg width="128px" height="124px" viewBox="0 0 128 124" version="1.1" xmlns="http://www.w3.org/2000/svg" xmlns:xlink="http://www.w3.org/1999/xlink">
    <title>game_icon</title>
    <defs>
        <linearGradient x1="50%" y1="3.41005068%" x2="50%" y2="100%" id="linearGradient-1">
            <stop stop-color="#000F24" stop-opacity="0.9" offset="0%"></stop>
            <stop stop-color="#011B3E" offset="100%"></stop>
        </linearGradient>
        <linearGradient x1="46.5542588%" y1="0%" x2="77.0567867%" y2="133.886978%" id="linearGradient-2">
            <stop stop-color="#C8AA82" offset="0%"></stop>
            <stop stop-color="#7C6341" offset="39.9718033%"></stop>
            <stop stop-color="#AFA286" offset="100%"></stop>
        </linearGradient>
        <linearGradient x1="50%" y1="3.41005068%" x2="50%" y2="100%" id="linearGradient-3">
            <stop stop-color="#000F24" stop-opacity="0.9" offset="0%"></stop>
            <stop stop-color="#011B3E" offset="100%"></stop>
        </linearGradient>
        <linearGradient x1="24.1327751%" y1="11.8765456%" x2="253.115655%" y2="113.961228%" id="linearGradient-4">
            <stop stop-color="#C8AA82" offset="0%"></stop>
            <stop stop-color="#7C6341" offset="39.9718033%"></stop>
            <stop stop-color="#AFA286" offset="100%"></stop>
        </linearGradient>
        <linearGradient x1="50%" y1="50.7508974%" x2="50%" y2="100%" id="linearGradient-5">
            <stop stop-color="#000F24" offset="0%"></stop>
            <stop stop-color="#011B3E" offset="100%"></stop>
        </linearGradient>
        <linearGradient x1="24.1327751%" y1="19.458601%" x2="253.115655%" y2="101.240513%" id="linearGradient-6">
            <stop stop-color="#C8AA82" offset="0%"></stop>
            <stop stop-color="#7C6341" offset="39.9718033%"></stop>
            <stop stop-color="#AFA286" offset="100%"></stop>
        </linearGradient>
        <linearGradient x1="24.1327751%" y1="49.7426584%" x2="253.115655%" y2="50.4317521%" id="linearGradient-7">
            <stop stop-color="#C8AA82" offset="0%"></stop>
            <stop stop-color="#7C6341" offset="39.9718033%"></stop>
            <stop stop-color="#AFA286" offset="100%"></stop>
        </linearGradient>
        <linearGradient x1="24.1349619%" y1="0%" x2="253.098483%" y2="133.886978%" id="linearGradient-8">
            <stop stop-color="#C8AA82" offset="0%"></stop>
            <stop stop-color="#7C6341" offset="39.9718033%"></stop>
            <stop stop-color="#AFA286" offset="100%"></stop>
        </linearGradient>
        <linearGradient x1="-42.7295762%" y1="74.2704223%" x2="89.8001189%" y2="245.956717%" id="linearGradient-9">
            <stop stop-color="#A78C68" offset="0%"></stop>
            <stop stop-color="#7C6341" offset="52.4440456%"></stop>
            <stop stop-color="#AFA286" offset="100%"></stop>
        </linearGradient>
        <linearGradient x1="-61.9433047%" y1="22.9297627%" x2="253.115655%" y2="72.4162828%" id="linearGradient-10">
            <stop stop-color="#C8AA82" offset="0%"></stop>
            <stop stop-color="#7C6341" offset="39.9718033%"></stop>
            <stop stop-color="#AFA286" offset="100%"></stop>
        </linearGradient>
        <linearGradient x1="84.7796146%" y1="44.8578047%" x2="253.115655%" y2="72.4162828%" id="linearGradient-11">
            <stop stop-color="#C8AA82" offset="0%"></stop>
            <stop stop-color="#7C6341" offset="73.1462007%"></stop>
            <stop stop-color="#AFA286" offset="100%"></stop>
        </linearGradient>
    </defs>
    <g id="Game" stroke="none" stroke-width="1" fill="none" fill-rule="evenodd">
        <g id="WE_games_God-of-Fortune-roulette" transform="translate(-654.000000, -396.000000)">
            <g id="Group" transform="translate(635.000000, 374.000000)">
                <g id="Group" transform="translate(6.538462, 6.538462)">
                    <g id="Group-39" transform="translate(14.384615, 17.000000)">
                        <polygon id="Stroke-33" stroke="url(#linearGradient-2)" stroke-width="2.28846154" fill="url(#linearGradient-1)" points="14.8015552 54.8266406 27.6749538 115.575843 37.8930238 113.730808 28.1153846 52.3076923"></polygon>
                        <polygon id="Stroke-23" stroke="url(#linearGradient-2)" stroke-width="2.28846154" fill="url(#linearGradient-1)" points="110.043782 54.8266406 97.1703832 115.575843 86.9523133 113.730808 96.7692308 52.3076923"></polygon>
                        <path d="M89.2587972,11.9404196 C93.2227692,12.5947413 98.9480839,13.7816503 102.889231,14.7707413 L102.889231,14.7707413 L85.8236084,120.748028 C76.9902657,119.332867 70.6372587,118.864951 62.4278042,118.876364 L62.4278042,118.876364 L62.3365035,118.876364 C54.127049,118.864951 47.774042,119.332867 38.9406993,120.748028 L38.9406993,120.748028 L21.8712727,14.7707413 C25.8162238,13.7816503 31.5377343,12.5947413 35.5017063,11.9404196 L35.5017063,11.9404196 Z M23.9829818,28.2706909 L27.9583664,52.5680895 L7.91025455,56.0489287 C5.5060028,56.4711944 3.21587692,54.8620196 2.80502378,52.4539636 L0.180128671,37.0241455 C-0.223116084,34.6465231 1.35942937,32.3868308 3.72944336,31.9569566 L23.9829818,28.2706909 Z M100.864257,28.272593 L121.113992,31.9550545 C123.484006,32.3887329 125.066551,34.6484252 124.663306,37.0260476 L124.663306,37.0260476 L122.038411,52.4520615 C121.627558,54.8601175 119.337432,56.4730965 116.936985,56.0470266 L116.936985,56.0470266 L96.816593,52.4786909 L100.864257,28.272593 Z" id="Combined-Shape" stroke="url(#linearGradient-4)" stroke-width="2.28846154" fill="url(#linearGradient-3)"></path>
                        <path d="M41.6165706,44.9186126 C38.9688503,28.199172 36.3211301,19.0919273 33.6734098,2.37248671 C52.6639552,-0.636632168 72.0082909,-0.636632168 90.9988364,2.37248671 C88.3511161,19.0919273 85.7033958,28.199172 83.0556755,44.9186126 M67.5436867,0.301102098 L88.2118825,19.980207 M56.7907469,0.301102098 L37.0241455,19.980207 M57.6915804,43.7115413 L37.8945455,24.861751 M68.4445203,43.7115413 L86.624772,25.6111776" id="Combined-Shape" stroke="url(#linearGradient-6)" stroke-width="2.28846154" fill="url(#linearGradient-5)"></path>
                        <path d="M28.0732531,48.4405371 C28.0732531,48.4405371 43.1606937,43.5901874 62.3338406,43.5179077 L62.4251413,43.5179077 C81.5982881,43.5901874 96.6895329,48.4405371 96.6895329,48.4405371" id="Stroke-27" stroke="url(#linearGradient-7)" stroke-width="2.28846154"></path>
                        <path d="M78.833779,65.0915021 C78.464772,64.6958657 78.0843524,64.3154462 77.6887161,63.9464392 C73.6752895,67.6859636 68.2999608,69.9913063 62.3806322,69.9913063 C56.4613035,69.9913063 51.089779,67.6859636 47.0725483,63.9464392 C46.6769119,64.3154462 46.2964923,64.6958657 45.9274853,65.0915021 C49.6670098,69.1087329 51.9723524,74.4802573 51.9723524,80.399586 C51.9723524,86.3227189 49.6670098,91.6904392 45.9274853,95.7114741 C46.2964923,96.1033063 46.6769119,96.4837259 47.0725483,96.8527329 C51.089779,93.1132084 56.4613035,90.8078657 62.3806322,90.8078657 C68.2999608,90.8078657 73.6752895,93.1132084 77.6887161,96.8527329 C78.0843524,96.4837259 78.464772,96.1033063 78.833779,95.7114741 C75.0942545,91.6904392 72.7889119,86.3227189 72.7889119,80.399586 C72.7889119,74.4802573 75.0942545,69.1087329 78.833779,65.0915021 Z" id="Stroke-1" stroke="#231F20" stroke-width="2.85314685"></path>
                        <path d="M62.3802517,90.8063441 C68.3033846,90.8063441 73.6749091,93.1154909 77.6883357,96.8512112 C73.6749091,100.590736 68.3033846,102.899883 62.3802517,102.899883 C56.4609231,102.899883 51.0893986,100.590736 47.0721678,96.8512112 C51.0893986,93.1154909 56.4609231,90.8063441 62.3802517,90.8063441 Z M78.833779,65.0915021 C82.5733035,69.1087329 84.8786462,74.4802573 84.8786462,80.399586 C84.8786462,86.3227189 82.5733035,91.6904392 78.833779,95.7114741 C75.0942545,91.6904392 72.7889119,86.3227189 72.7889119,80.399586 C72.7889119,74.4802573 75.0942545,69.1087329 78.833779,65.0915021 Z M45.9278657,65.0915021 C49.6673902,69.1087329 51.9727329,74.4802573 51.9727329,80.399586 C51.9727329,86.3227189 49.6673902,91.6904392 45.9278657,95.7114741 C42.1883413,91.6904392 39.8829986,86.3227189 39.8829986,80.399586 C39.8829986,74.4802573 42.1883413,69.1087329 45.9278657,65.0915021 Z M62.381393,57.9023329 C68.3007217,57.9023329 73.6722462,60.2076755 77.6894769,63.9472 C73.6722462,67.6829203 68.3007217,69.9920671 62.381393,69.9920671 C56.4582601,69.9920671 51.0867357,67.6829203 47.0733091,63.9472 C51.0867357,60.2076755 56.4582601,57.9023329 62.381393,57.9023329 Z" id="Combined-Shape" stroke="url(#linearGradient-8)" stroke-width="2.28846154"></path>
                        <polygon id="Stroke-11" stroke="url(#linearGradient-9)" stroke-width="2.85314685" points="62.3353622 11.2012643 51.0178797 22.5187469 62.3353622 33.8362294 73.6528448 22.5187469"></polygon>
                        <path d="M98.4379413,44.0641902 L112.966165,46.5901762 C113.84113,46.7423441 114.670445,46.1564979 114.818808,45.2815329 L115.556822,40.9409455 C115.705186,40.0697846 115.11934,39.2404699 114.248179,39.0959105 L106.552291,37.7530294" id="Stroke-29" stroke="url(#linearGradient-10)" stroke-width="2.28846154"></path>
                        <path d="M26.4073958,44.0641902 L11.879172,46.5901762 C11.004207,46.7423441 10.1748923,46.1564979 10.0265287,45.2815329 L9.28851469,40.9409455 C9.14015105,40.0697846 9.7259972,39.2404699 10.597158,39.0959105 L18.2930462,37.7530294" id="Stroke-35" stroke="url(#linearGradient-11)" stroke-width="2.28846154"></path>
                    </g>
                </g>
            </g>
        </g>
    </g>
</svg>