<?xml version="1.0" encoding="UTF-8"?>
<svg width="120px" height="120px" viewBox="0 0 120 120" version="1.1" xmlns="http://www.w3.org/2000/svg" xmlns:xlink="http://www.w3.org/1999/xlink">
    <title>game_icon_win 3 card</title>
    <defs>
        <linearGradient x1="50%" y1="3.41005068%" x2="50%" y2="100%" id="linearGradient-1">
            <stop stop-color="#000F24" stop-opacity="0.9" offset="0%"></stop>
            <stop stop-color="#011B3E" offset="100%"></stop>
        </linearGradient>
        <linearGradient x1="50%" y1="3.41005068%" x2="50%" y2="100%" id="linearGradient-2">
            <stop stop-color="#000F24" stop-opacity="0.9" offset="0%"></stop>
            <stop stop-color="#011B3E" offset="100%"></stop>
        </linearGradient>
        <linearGradient x1="50%" y1="3.41005068%" x2="50%" y2="100%" id="linearGradient-3">
            <stop stop-color="#000F24" stop-opacity="0.9" offset="0%"></stop>
            <stop stop-color="#011B3E" offset="100%"></stop>
        </linearGradient>
        <linearGradient x1="51.4640965%" y1="-3.5437228%" x2="50%" y2="80.5979115%" id="linearGradient-4">
            <stop stop-color="#000F24" stop-opacity="0.9" offset="0%"></stop>
            <stop stop-color="#011B3E" offset="100%"></stop>
        </linearGradient>
        <linearGradient x1="7.12196892%" y1="245.956717%" x2="89.8001189%" y2="245.956717%" id="linearGradient-5">
            <stop stop-color="#A78C68" offset="0%"></stop>
            <stop stop-color="#7C6341" offset="52.4440456%"></stop>
            <stop stop-color="#AFA286" offset="100%"></stop>
        </linearGradient>
        <linearGradient x1="50%" y1="3.41005068%" x2="50%" y2="100%" id="linearGradient-6">
            <stop stop-color="#000F24" stop-opacity="0.9" offset="0%"></stop>
            <stop stop-color="#011B3E" offset="100%"></stop>
        </linearGradient>
        <linearGradient x1="7.12196892%" y1="245.956717%" x2="89.8001189%" y2="245.956717%" id="linearGradient-7">
            <stop stop-color="#A78C68" offset="0%"></stop>
            <stop stop-color="#7C6341" offset="52.4440456%"></stop>
            <stop stop-color="#AFA286" offset="100%"></stop>
        </linearGradient>
        <linearGradient x1="50%" y1="3.41005068%" x2="50%" y2="100%" id="linearGradient-8">
            <stop stop-color="#000F24" stop-opacity="0.9" offset="0%"></stop>
            <stop stop-color="#011B3E" offset="100%"></stop>
        </linearGradient>
        <linearGradient x1="24.1327751%" y1="0%" x2="349.232604%" y2="179.944345%" id="linearGradient-9">
            <stop stop-color="#C8AA82" offset="0%"></stop>
            <stop stop-color="#7C6341" offset="91.3405231%"></stop>
            <stop stop-color="#AFA286" offset="100%"></stop>
        </linearGradient>
    </defs>
    <g id="game_icon_win-3-card" stroke="none" stroke-width="1" fill="none" fill-rule="evenodd">
        <g id="Group-46" transform="translate(4.000000, 3.000000)">
            <path d="M11.591,42.922 L14.559,54 L0,54 L11.591,42.922 Z M101.161,42.685 L113,54 L98.129,54 L101.161,42.685 Z M56.5,0 L72.926,15.699 L40.074,15.699 L56.5,0 Z" id="Combined-Shape" stroke="#B0936D" stroke-width="1.75" fill="url(#linearGradient-1)"></path>
            <path d="M13.845,49.41 L14.905,54 L9,54 L13.845,49.41 Z M98.9,49.168 L104,54 L97.784,54 L98.9,49.168 Z M56.5,9 L63.571,15.699 L49.429,15.699 L56.5,9 Z" id="Combined-Shape" stroke="#B0936D" stroke-width="1.75" fill="url(#linearGradient-2)"></path>
            <path d="M56.3440706,89.967 L76.105,95.262 L56.5,114 L36.827,95.196 L56.3440706,89.967 Z M113,60 L90.849,81.17 L96.521,59.999 L113,60 Z M16.167,59.999 L21.732,80.769 L0,60 L16.167,59.999 Z" id="Combined-Shape" stroke="#B0936D" stroke-width="1.75" fill="url(#linearGradient-3)"></path>
            <path d="M56.3440706,89.967 L68.834,93.314 L56.5,105 L44.096,93.249 L56.3440706,89.967 Z M104,60.0008333 L94.271,69.215 L95.637,63.299 L96.521,60 L104,60.0008333 Z M16.167,60 L17.053,63.307 L18.33,68.839 L9,60.0008333 L16.167,60 Z" id="Combined-Shape" stroke="#B0936D" stroke-width="1.75" fill="url(#linearGradient-2)"></path>
            <path d="M83.3437226,23.608 L103.715011,28.3107119 L87.7434857,97.4909865 L75.6577226,94.7 L83.3443666,94.7 L83.3437226,23.608 Z M30.3437226,23.377 L30.3443666,94.7 L37.0297226,94.7 L24.9452474,97.4909865 L8.97372258,28.3107119 L30.3437226,23.377 Z" id="Combined-Shape" stroke="url(#linearGradient-5)" stroke-width="1.5" fill="url(#linearGradient-4)"></path>
            <rect id="Rectangle-Copy-36" stroke="url(#linearGradient-7)" stroke-width="1.417176" fill="url(#linearGradient-6)" x="30.3443666" y="15.7" width="53" height="79"></rect>
            <rect id="Rectangle-Copy-56" stroke="url(#linearGradient-9)" stroke-width="1.45728005" fill="url(#linearGradient-8)" transform="translate(57.500000, 55.500000) rotate(-315.000000) translate(-57.500000, -55.500000) " x="52" y="50" width="11" height="11"></rect>
        </g>
    </g>
</svg>