<?xml version="1.0" encoding="UTF-8"?>
<svg width="90px" height="128px" viewBox="0 0 90 128" version="1.1" xmlns="http://www.w3.org/2000/svg" xmlns:xlink="http://www.w3.org/1999/xlink">
    <title>game_icon</title>
    <defs>
        <linearGradient x1="50%" y1="3.41005068%" x2="50%" y2="100%" id="linearGradient-1">
            <stop stop-color="#000F24" stop-opacity="0.9" offset="0%"></stop>
            <stop stop-color="#011B3E" offset="100%"></stop>
        </linearGradient>
        <linearGradient x1="7.12196892%" y1="245.956717%" x2="89.8001189%" y2="245.956717%" id="linearGradient-2">
            <stop stop-color="#A78C68" offset="0%"></stop>
            <stop stop-color="#7C6341" offset="52.4440456%"></stop>
            <stop stop-color="#AFA286" offset="100%"></stop>
        </linearGradient>
        <linearGradient x1="50%" y1="3.41005068%" x2="50%" y2="100%" id="linearGradient-3">
            <stop stop-color="#000F24" stop-opacity="0.9" offset="0%"></stop>
            <stop stop-color="#011B3E" offset="100%"></stop>
        </linearGradient>
        <linearGradient x1="48.4610439%" y1="287.295792%" x2="48.4610439%" y2="204.617642%" id="linearGradient-4">
            <stop stop-color="#A78C68" offset="0%"></stop>
            <stop stop-color="#7C6341" offset="52.4440456%"></stop>
            <stop stop-color="#AFA286" offset="100%"></stop>
        </linearGradient>
        <linearGradient x1="50%" y1="3.41005068%" x2="50%" y2="100%" id="linearGradient-5">
            <stop stop-color="#000F24" stop-opacity="0.9" offset="0%"></stop>
            <stop stop-color="#011B3E" offset="100%"></stop>
        </linearGradient>
        <linearGradient x1="7.12196892%" y1="245.956717%" x2="89.8001189%" y2="245.956717%" id="linearGradient-6">
            <stop stop-color="#A78C68" offset="0%"></stop>
            <stop stop-color="#7C6341" offset="52.4440456%"></stop>
            <stop stop-color="#AFA286" offset="100%"></stop>
        </linearGradient>
        <linearGradient x1="7.12196892%" y1="245.956717%" x2="89.8001189%" y2="245.956717%" id="linearGradient-7">
            <stop stop-color="#A78C68" offset="0%"></stop>
            <stop stop-color="#7C6341" offset="52.4440456%"></stop>
            <stop stop-color="#AFA286" offset="100%"></stop>
        </linearGradient>
    </defs>
    <g id="Game" stroke="none" stroke-width="1" fill="none" fill-rule="evenodd">
        <g id="WE_games_squeeze-ba" transform="translate(-678.000000, -395.000000)">
            <g id="Group" transform="translate(638.000000, 373.000000)">
                <g id="Group-42-Copy" transform="translate(42.250000, 23.941667)">
                    <g id="Group-51-Copy-2">
                        <path d="M74.6416667,0 L74.641,12.674 L11.2666667,12.675 L11.266,111.258 L0,111.258333 L0,0 L74.6416667,0 Z" id="Combined-Shape" stroke="url(#linearGradient-2)" stroke-width="2.8829034" fill="url(#linearGradient-1)"></path>
                        <path d="M11.2666667,123.933333 L11.2666667,12.675 L85.9083333,12.675 L85.9083333,99.8548412 L79.9579875,105.874464 L79.9579875,105.874464 L74.0076416,111.894087 C70.0407444,115.907169 66.0738471,119.920251 62.1069499,123.933333 L62.1069499,123.933333 L11.2666667,123.933333 Z" id="Combined-Shape" stroke="url(#linearGradient-2)" stroke-width="2.87440833" fill="url(#linearGradient-1)"></path>
                        <line x1="74.6416667" y1="12.675" x2="74.6416667" y2="99.8548412" id="Path-12" stroke="url(#linearGradient-4)" stroke-width="2.87440833" fill="url(#linearGradient-3)" stroke-linejoin="round"></line>
                        <line x1="11.2666667" y1="111.258333" x2="62.1069499" y2="111.258333" id="Path-13" stroke="url(#linearGradient-6)" stroke-width="2.87440833" fill="url(#linearGradient-5)" stroke-linejoin="round"></line>
                        <polyline id="Path-14" stroke="url(#linearGradient-7)" stroke-width="2.87440833" points="62.1069499 123.933333 62.1069499 99.8548412 85.9083333 99.8548412"></polyline>
                    </g>
                    <g id="Group-Copy-8" transform="translate(28.448333, 40.278333)" fill="#B0936D" fill-rule="nonzero">
                        <path d="M14.2412987,1.07947839e-14 C22.111046,1.07947839e-14 28.4899721,6.37892604 28.4899721,14.244986 C28.4899721,16.7326043 27.8525605,19.0713634 26.7321014,21.1067806 L26.7723342,21.1303004 L14.452253,42.2500642 L11.487253,42.2500642 L20.2997077,27.145417 C18.4612487,28.0102452 16.4078051,28.4936594 14.2412987,28.4936594 C6.37704629,28.4936594 -1.02714418e-12,22.1128538 -1.02714418e-12,14.244986 C-1.02714418e-12,6.3801791 6.37767265,1.07947839e-14 14.2412987,1.07947839e-14 Z M14.2412987,2.56064778 C7.79210465,2.56064778 2.56064778,7.79416064 2.56064778,14.244986 C2.56064778,20.6989848 7.79159093,25.9330116 14.2412987,25.9330116 C20.6973533,25.9330116 25.9293243,20.7000129 25.9293243,14.244986 C25.9293243,7.79313276 20.6968393,2.56064778 14.2412987,2.56064778 Z" id="Combined-Shape"></path>
                    </g>
                </g>
            </g>
        </g>
    </g>
</svg>