<?xml version="1.0" encoding="UTF-8"?>
<svg width="130px" height="130px" viewBox="0 0 130 130" version="1.1" xmlns="http://www.w3.org/2000/svg" xmlns:xlink="http://www.w3.org/1999/xlink">
    <title>game_icon_lotry</title>
    <defs>
        <linearGradient x1="7.12196892%" y1="245.956717%" x2="89.8001189%" y2="245.956717%" id="linearGradient-1">
            <stop stop-color="#A78C68" offset="0%"></stop>
            <stop stop-color="#7C6341" offset="52.4440456%"></stop>
            <stop stop-color="#AFA286" offset="100%"></stop>
        </linearGradient>
    </defs>
    <g id="game_icon_lotry" stroke="none" stroke-width="1" fill="none" fill-rule="evenodd">
        <path d="M115,95 L113.364212,106 L103,103.513506 C106.404224,102.321917 109.47342,100.480772 112.183242,97.9950429 C113.214618,97.0493104 114.153278,96.0501974 115,95 L115,95 Z M81.8544333,23 L112.411001,23.4880568 L114.958242,25.757289 L115.247684,39.1717065 L91.7589259,37.154032 L89.7812009,45.601584 C90.2132607,45.6205039 90.6409234,45.6481116 91.0638067,45.6849861 L91.0638067,45.6849861 L92.7406193,38.5224443 L116.543672,40.5669542 L116.269142,27.2038908 L125,23.7019677 L118.540706,68.3591608 C117.954175,66.7086873 117.216424,65.1464423 116.321142,63.682079 C115.409802,62.0958945 114.369991,60.8242055 113.209165,59.3777968 C110.871645,56.4652872 108.305669,54.3450976 105.964325,52.5077416 C106.22662,52.7718482 106.481268,53.0461871 106.739165,53.3211051 C109.972922,56.7699366 111.493926,58.895918 112.267045,59.8589034 C113.286018,61.1282757 114.363109,62.8223809 115.229331,64.3313412 L115.229331,64.3313412 L115.238508,64.346786 C117.773513,68.4894766 119.014634,73.4576936 118.927266,79.1133988 C118.80778,86.826935 116.109318,93.2251506 110.907204,98.1302368 C105.724398,103.017755 99.1226776,105.317683 91.2819396,104.964769 C83.7277757,104.624983 77.49885,100.623419 72.8356632,96.1388185 C71.4096747,94.6796678 71.0938505,94.2541627 70.1106277,93.296776 L70.1106277,93.296776 L70.6977319,93.2197449 C71.2945862,93.6761397 71.9036758,94.1039616 72.5284419,94.4927853 C76.1934942,96.7743735 80.4374301,97.9686452 85.1413377,98.0427804 C92.7889871,98.1618987 99.2557368,95.7847457 104.358057,90.9729077 C109.453877,86.1678267 112.097089,79.9003131 112.21428,72.3441211 C112.327075,65.0321505 110.172129,58.9241048 105.808707,54.189684 C101.481609,49.4301653 95.7986849,46.9636253 88.9149784,46.8547392 C88.5219187,46.8489474 88.0818295,46.8576351 87.605799,46.8808024 C87.131298,46.9041627 86.6242968,46.943547 86.0989427,46.9976039 L86.0989427,46.9976039 L85.1422935,47.0960648 L89.3573618,33.5376241 L111.720279,33.8903455 L111.861368,24.7527956 L82.7780089,24.2942771 L73.9127538,52.5924951 L59,50.1751855 L75.402213,43.5960723 L81.8544333,23 Z M74,91 L15,102 L17.4635029,97.6394953 L74,91 Z M10.8074109,45 L16,96.6949939 L13.7655123,101 L5,58.8649983 L10.8074109,45 Z M68.8362906,93 C69.794066,93.9975148 70.8486358,95.0109574 72,96 L72,96 L63,94.0219147 Z M12,44 L78.1049372,54.421765 L83.7111668,55.3590288 L83.7111668,55.3590288 L83.8917634,55.3339591 L86.2072287,55.6991786 L91,87.1479381 L17.9277844,95.953849 L17.544935,96 L13.7259159,60.1864593 L12,44 Z M16.9718211,50.410808 L20.4834006,89.98233 L35.146918,88.9087024 L33.9409425,78.604309 L25.9668476,79.0720863 L22.9574196,51.3026805 L16.9718211,50.410808 Z M41.0041266,52.725764 C39.3470463,52.5039354 37.9887045,52.9458833 36.9401226,54.0668013 C35.873365,55.2076612 35.1065061,56.8117401 34.6474736,58.8849257 C34.1828337,60.9852701 34.014612,63.4400085 34.1472558,66.2472416 C34.2818331,69.077835 34.7018073,72.0233312 35.4077583,75.0708152 C35.9083629,77.2332641 36.5447049,79.1981943 37.3140775,80.9593385 C38.0817098,82.7153548 38.9556891,84.2102287 39.9327285,85.4394022 C40.9030002,86.6605989 41.950422,87.5746922 43.0707398,88.1820619 C44.1790693,88.7822146 45.3332248,89.0313919 46.528759,88.9356713 C48.1537418,88.8042455 49.4322267,88.0381012 50.375815,86.653192 C51.3039347,85.2903136 51.9308022,83.5474019 52.2660854,81.426356 C52.5971148,79.3313294 52.6647902,76.9833271 52.4729788,74.3789304 C52.2829076,71.7946654 51.86158,69.1444976 51.2097692,66.4177913 C50.7489965,64.4916051 50.1872907,62.7331198 49.522525,61.135878 C48.8562124,59.5359774 48.1015351,58.1463201 47.2548193,56.9636775 C46.4036562,55.7747674 45.4616147,54.814903 44.4259878,54.0831346 C43.3793395,53.3449088 42.2406527,52.890806 41.0041266,52.725764 Z M87,55 C91.5044891,55.2262716 95.3108448,56.8591573 98.322953,59.8617301 C101.503763,62.9389104 103.076373,66.9068584 102.99715,71.6559238 C102.920138,76.2755565 101.202351,80.2389829 97.8912443,83.4359873 C96.1726536,85.0462646 94.2411241,86.2358389 92.1123398,87 L92.1123398,87 L88.2808497,63.0170975 C89.6204135,62.6753352 91.0096428,62.5016279 92.4473313,62.5016279 L92.4473313,62.5016279 L92.7133539,62.5035119 C95.3906717,62.5426997 97.8128249,63.0949078 99.9645318,64.1446873 C99.6106393,63.4877273 99.2012499,62.8603465 98.7377713,62.2631102 C96.8933075,61.6240484 94.8889888,61.2866193 92.7342657,61.2551561 C91.1256632,61.2297217 89.5739651,61.4026753 88.081182,61.767988 L88.081182,61.767988 Z M51.1879198,54.950697 L52.2931556,62.8632162 L55.5413811,63.1220795 L58.9406194,86.9990394 L64.0124067,86.6212851 L60.5770104,63.5228143 L63.5002007,63.7558483 L62.3839434,56.3868852 L51.1879198,54.950697 Z M63.7357111,56.5604736 L64.8523551,63.8631541 L67.6144779,64.0832734 L71.0297649,86.0984306 L75.3435878,85.777083 L71.9137989,64.4260821 L74.4193353,64.6251201 L73.3053984,57.7881277 L63.7357111,56.5604736 Z M79.7283732,57.9011311 C78.7387656,57.7685658 77.9659127,58.1455604 77.415615,59.0406615 C76.8579698,59.9482975 76.502964,61.2046297 76.3538848,62.8117474 C76.2036454,64.4348185 76.2452174,66.3216909 76.4803411,68.4697057 C76.7173983,70.6317746 77.1251909,72.8758898 77.7035255,75.1946442 C78.1136384,76.8391765 78.5912333,78.3338605 79.13457,79.6739482 C79.6771333,81.011377 80.2676494,82.1526167 80.9043782,83.0948184 C81.5378199,84.0320822 82.2012321,84.7389708 82.8921012,85.2145349 C83.5771695,85.6861105 84.2724859,85.8923655 84.9759232,85.8355789 C85.935947,85.7579009 86.6594936,85.1881357 87.1521705,84.136919 C87.6386599,83.0980471 87.9250235,81.7583392 88.0160952,80.1202643 C88.1063936,78.4983327 88.0236362,76.6739446 87.7701435,74.64672 C87.5181977,72.6312706 87.1223933,70.563023 86.5821503,68.4345701 C86.2000744,66.93039 85.7659851,65.5589652 85.2785289,64.3149779 C84.7899126,63.0700409 84.2601109,61.992615 83.6866103,61.0809907 C83.1109827,60.1648082 82.4941699,59.4322801 81.8353983,58.8818869 C81.1712126,58.3280752 80.4695155,57.9998904 79.7283732,57.9011311 Z M41.6655206,62.0002691 L41.7932028,62.003811 C42.4612174,62.0529778 43.0771294,62.5851247 43.6436922,63.5976848 C44.208137,64.6074804 44.6751542,65.8538297 45.0451674,67.3389046 C45.3338497,68.4956083 45.5678877,69.7494609 45.748976,71.1032269 C45.9306997,72.4615343 46.0133014,73.722298 45.9982637,74.8870974 C45.9828023,76.0574257 45.8428031,77.0316791 45.5774187,77.8090677 C45.3103399,78.5917877 44.8858944,78.9894663 44.3023877,78.9997341 C43.5401224,79.0131612 42.8841804,78.5181362 42.3362559,77.5109075 C41.7881196,76.5022966 41.3266092,75.2417304 40.9540545,73.7337505 C40.6496991,72.5016181 40.408248,71.1883309 40.2299131,69.7934939 C40.0513664,68.4033958 39.9772367,67.1220967 40.0060414,65.9513735 C40.0348461,64.7867715 40.1884005,63.8251553 40.4667046,63.0661302 C40.7431025,62.3126339 41.185551,61.9587908 41.7932028,62.003811 Z M81.6185075,65.0015879 C81.9089679,65.0286848 82.1981929,65.400092 82.4861825,66.1136419 C82.7732457,66.8257467 83.0283443,67.7074776 83.2511695,68.7597379 C83.4248898,69.5789655 83.5786902,70.4668384 83.713806,71.4258856 C83.8490762,72.3874619 83.9374033,73.2800315 83.9790962,74.1034139 C84.0207891,74.9302286 84.0000971,75.6174043 83.9171746,76.1651216 C83.8336344,76.7157292 83.6662452,76.9944653 83.4143894,77 C83.0857878,77.0072912 82.7823563,76.6579227 82.5045583,75.9497921 C82.2264514,75.2411196 81.9753676,74.3559564 81.7520791,73.2964703 C81.569557,72.4308168 81.4106608,71.5075374 81.2752362,70.5262708 C81.139966,69.5473525 81.0538007,68.6446667 81.016586,67.8173101 C80.9795256,66.9939277 81.0045414,66.3114488 81.091942,65.7709573 C81.1788793,65.2337175 81.3544527,64.9772008 81.6185075,65.0015879 Z" id="Combined-Shape" fill="url(#linearGradient-1)" fill-rule="nonzero"></path>
    </g>
</svg>