<?xml version="1.0" encoding="UTF-8"?>
<svg width="109px" height="120px" viewBox="0 0 109 120" version="1.1" xmlns="http://www.w3.org/2000/svg" xmlns:xlink="http://www.w3.org/1999/xlink">
    <title>game_icon</title>
    <defs>
        <linearGradient x1="50%" y1="3.41005068%" x2="50%" y2="100%" id="linearGradient-1">
            <stop stop-color="#000F24" stop-opacity="0.9" offset="0%"></stop>
            <stop stop-color="#011B3E" offset="100%"></stop>
        </linearGradient>
        <linearGradient x1="50%" y1="3.41005068%" x2="50%" y2="100%" id="linearGradient-2">
            <stop stop-color="#000F24" stop-opacity="0.9" offset="0%"></stop>
            <stop stop-color="#011B3E" offset="100%"></stop>
        </linearGradient>
        <linearGradient x1="50%" y1="3.41005068%" x2="50%" y2="100%" id="linearGradient-3">
            <stop stop-color="#000F24" stop-opacity="0.9" offset="0%"></stop>
            <stop stop-color="#011B3E" offset="100%"></stop>
        </linearGradient>
        <linearGradient x1="50%" y1="3.41005068%" x2="50%" y2="100%" id="linearGradient-4">
            <stop stop-color="#000F24" stop-opacity="0.9" offset="0%"></stop>
            <stop stop-color="#011B3E" offset="100%"></stop>
        </linearGradient>
        <linearGradient x1="50%" y1="3.41005068%" x2="50%" y2="100%" id="linearGradient-5">
            <stop stop-color="#000F24" stop-opacity="0.9" offset="0%"></stop>
            <stop stop-color="#011B3E" offset="100%"></stop>
        </linearGradient>
    </defs>
    <g id="Game" stroke="none" stroke-width="1" fill="none" fill-rule="evenodd">
        <g id="WE_games_sb" transform="translate(-669.000000, -398.000000)">
            <g id="Group" transform="translate(638.000000, 373.000000)">
                <g id="game_icon_baccart" transform="translate(6.500000, 6.500000)">
                    <path d="M76.5,31.2 L77.1,31.2 C92.1773737,31.2 104.4,43.4226263 104.4,58.5 L104.4,122.4 L104.4,122.4 L49.2,122.4 L49.2,58.5 C49.2,43.4226263 61.4226263,31.2 76.5,31.2 Z" id="Rectangle" fill="url(#linearGradient-1)"></path>
                    <g id="Group" transform="translate(6.000000, 6.000000)" stroke="#B0936D">
                        <g id="Group" transform="translate(20.123077, 13.200000)">
                            <path d="M53.3769231,13.85 C60.7361174,13.85 67.3986174,16.8329029 72.2213188,21.6556043 C77.0440202,26.4783057 80.0269231,33.1408057 80.0269231,40.5 L80.0269231,40.5 L80.0269231,103.75 L24.9269231,103.75 L24.9269231,40.5 C24.9269231,33.1408057 27.9098259,26.4783057 32.7325274,21.6556043 C37.5552288,16.8329029 44.2177288,13.85 51.5769231,13.85 L51.5769231,13.85 Z" id="Rectangle" stroke-width="1.3" fill="url(#linearGradient-2)"></path>
                            <g id="Group-17">
                                <path d="M52.8002271,0.539352 C75.1659471,0.539352 93.3002271,16.810632 93.3002271,36.888912 L93.3002271,36.888912 L93.3002271,104.219352 L80.3402271,104.218352 L80.3402271,104.219352 L25.2602271,104.219352 L25.2592271,104.218352 L80.3402271,104.218352 L80.3402271,36.888912 C80.3402271,24.1194564 68.2319541,13.7094151 53.2549444,13.5024913 L52.8002271,13.499352 C37.6143471,13.499352 25.2602271,23.990472 25.2602271,36.888912 L25.2602271,36.888912 L25.2592271,104.218352 L12.3002271,104.219352 L12.3002271,36.888912 C12.3002271,16.810632 30.4312671,0.539352 52.8002271,0.539352 Z" id="Combined-Shape" stroke-width="2.27448" fill="url(#linearGradient-3)"></path>
                                <path d="M38.2202271,91.259352 L38.2202271,36.888912 C38.2202271,31.332312 45.0339471,26.459352 52.8002271,26.459352 C60.5665071,26.459352 67.3802271,31.332312 67.3802271,36.888912 L67.3802271,91.259352 L38.2202271,91.259352 Z" id="Stroke-5" stroke-width="2.27448" fill="url(#linearGradient-4)"></path>
                                <polygon id="Stroke-7" stroke-width="2.27448" fill="url(#linearGradient-5)" points="102.305159 117.70488 3.29075908 117.70488 0.0507590769 104.22 105.545159 104.22"></polygon>
                                <polygon id="Stroke-11" stroke-width="2.275" points="52.8002271 46.953 46.3202271 40.473 52.8002271 33.993 59.2802271 40.473"></polygon>
                                <polygon id="Stroke-13" stroke-width="2.275" points="52.8002271 65.51982 46.3202271 59.03982 52.8002271 52.55982 59.2802271 59.03982"></polygon>
                                <polygon id="Stroke-15" stroke-width="2.275" points="52.8002271 84.08988 46.3202271 77.60988 52.8002271 71.12988 59.2802271 77.60988"></polygon>
                            </g>
                        </g>
                    </g>
                </g>
            </g>
        </g>
    </g>
</svg>