<?xml version="1.0" encoding="UTF-8"?>
<svg width="120px" height="120px" viewBox="0 0 120 120" version="1.1" xmlns="http://www.w3.org/2000/svg" xmlns:xlink="http://www.w3.org/1999/xlink">
    <title>game_icon_sequeeze baccart </title>
    <defs>
        <linearGradient x1="50%" y1="3.41005068%" x2="50%" y2="100%" id="linearGradient-1">
            <stop stop-color="#000F24" stop-opacity="0.9" offset="0%"></stop>
            <stop stop-color="#011B3E" offset="100%"></stop>
        </linearGradient>
        <linearGradient x1="7.12196892%" y1="245.956717%" x2="89.8001189%" y2="245.956717%" id="linearGradient-2">
            <stop stop-color="#A78C68" offset="0%"></stop>
            <stop stop-color="#7C6341" offset="52.4440456%"></stop>
            <stop stop-color="#AFA286" offset="100%"></stop>
        </linearGradient>
        <linearGradient x1="50%" y1="3.41005068%" x2="50%" y2="100%" id="linearGradient-3">
            <stop stop-color="#000F24" stop-opacity="0.9" offset="0%"></stop>
            <stop stop-color="#011B3E" offset="100%"></stop>
        </linearGradient>
        <linearGradient x1="48.4610439%" y1="287.295792%" x2="48.4610439%" y2="204.617642%" id="linearGradient-4">
            <stop stop-color="#A78C68" offset="0%"></stop>
            <stop stop-color="#7C6341" offset="52.4440456%"></stop>
            <stop stop-color="#AFA286" offset="100%"></stop>
        </linearGradient>
        <linearGradient x1="50%" y1="3.41005068%" x2="50%" y2="100%" id="linearGradient-5">
            <stop stop-color="#000F24" stop-opacity="0.9" offset="0%"></stop>
            <stop stop-color="#011B3E" offset="100%"></stop>
        </linearGradient>
        <linearGradient x1="7.12196892%" y1="245.956717%" x2="89.8001189%" y2="245.956717%" id="linearGradient-6">
            <stop stop-color="#A78C68" offset="0%"></stop>
            <stop stop-color="#7C6341" offset="52.4440456%"></stop>
            <stop stop-color="#AFA286" offset="100%"></stop>
        </linearGradient>
        <linearGradient x1="7.12196892%" y1="245.956717%" x2="89.8001189%" y2="245.956717%" id="linearGradient-7">
            <stop stop-color="#A78C68" offset="0%"></stop>
            <stop stop-color="#7C6341" offset="52.4440456%"></stop>
            <stop stop-color="#AFA286" offset="100%"></stop>
        </linearGradient>
    </defs>
    <g id="game_icon_sequeeze-baccart-" stroke="none" stroke-width="1" fill="none" fill-rule="evenodd">
        <g id="Group-42-Copy" transform="translate(30.000000, 17.000000)">
            <g id="Group-51-Copy-2">
                <path d="M53,0 L53,9 L8,9 L8,79 L0,79 L0,0 L53,0 Z" id="Combined-Shape" stroke="url(#linearGradient-2)" stroke-width="1.57464" fill="url(#linearGradient-1)"></path>
                <path d="M8,88 L8,9 L61,9 L61,70.9028459 L56.7749023,75.1771344 L56.7749023,75.1771344 L48.324707,83.7257115 L48.324707,83.7257115 L44.0996094,88 L8,88 Z" id="Combined-Shape" stroke="url(#linearGradient-2)" stroke-width="1.57" fill="url(#linearGradient-1)"></path>
                <line x1="53" y1="9" x2="53" y2="70.9028459" id="Path-12" stroke="url(#linearGradient-4)" stroke-width="1.57" fill="url(#linearGradient-3)" stroke-linejoin="round"></line>
                <line x1="8" y1="79" x2="44.0996094" y2="79" id="Path-13" stroke="url(#linearGradient-6)" stroke-width="1.57" fill="url(#linearGradient-5)" stroke-linejoin="round"></line>
                <polyline id="Path-14" stroke="url(#linearGradient-7)" stroke-width="1.57" points="44.0996094 88 44.0996094 70.9028459 61 70.9028459"></polyline>
            </g>
            <g id="Group-Copy-8" transform="translate(20.200000, 28.600000)" fill="#B0936D" fill-rule="nonzero">
                <path d="M10.1121648,3.55271368e-15 C15.700151,3.55271368e-15 20.229566,4.52941494 20.229566,10.114783 C20.229566,11.8813369 19.7768647,13.5421683 18.9811066,14.9875485 L19.0099415,15.0037636 L10.2613394,29.9996195 L8.15733938,29.9996195 L14.4136024,19.2750363 C13.1082877,19.8890001 11.6503588,20.2321842 10.1121648,20.2321842 C4.5280802,20.2321842 -3.64153152e-13,15.7014347 -3.64153152e-13,10.114783 C-3.64153152e-13,4.53030469 4.52852496,3.55271368e-15 10.1121648,3.55271368e-15 Z M10.1121648,1.81821144 C5.53285537,1.81821144 1.81821144,5.53431524 1.81821144,10.114783 C1.81821144,14.697504 5.5324906,18.4139728 10.1121648,18.4139728 C14.6963455,18.4139728 18.4113545,14.698234 18.4113545,10.114783 C18.4113545,5.53358539 14.6959806,1.81821144 10.1121648,1.81821144 Z" id="Combined-Shape"></path>
            </g>
        </g>
    </g>
</svg>