<?xml version="1.0" encoding="UTF-8"?>
<svg width="120px" height="120px" viewBox="0 0 120 120" version="1.1" xmlns="http://www.w3.org/2000/svg" xmlns:xlink="http://www.w3.org/1999/xlink">
    <title>game_icon_d &amp; t</title>
    <defs>
        <polygon id="path-1" points="0 -2.81374923e-14 98.621622 -2.81374923e-14 98.621622 101.477871 0 101.477871"></polygon>
    </defs>
    <g id="game_icon_d-&amp;-t" stroke="none" stroke-width="1" fill="none" fill-rule="evenodd">
        <g id="Group-53" transform="translate(11.000000, 9.000000)">
            <path d="M69.699069,65.244267 C69.699069,65.244267 69.541659,65.244267 69.273369,65.273967" id="Fill-1" fill="#021B3B"></path>
            <path d="M77.837562,70.402167 C77.837562,70.402167 77.728662,70.402167 77.529672,70.421967" id="Fill-3" fill="#021B3B"></path>
            <path d="M18.288666,27.188271 C18.278766,27.199161 18.268866,27.199161 18.268866,27.199161 L18.268866,27.188271 L18.288666,27.188271 Z" id="Fill-5" fill="#021B3B"></path>
            <path d="M18.724761,26.732871 C18.576261,26.881371 18.426771,27.040761 18.289161,27.188271" id="Fill-7" fill="#021B3B"></path>
            <path d="M59.511969,42.077871 C59.511969,46.999161 63.501669,50.987871 68.421969,50.987871 C71.066259,50.987871 73.422459,49.829571 75.054969,48.017871 L97.626969,48.017871 L97.626969,53.462871 C97.626969,53.462871 95.646969,58.412871 87.726969,58.412871 L77.826969,58.412871 C77.826969,58.412871 72.876969,63.362871 67.926969,63.362871 C66.313269,63.362871 64.155069,62.937171 61.986969,62.185761 L60.889059,62.512461 C63.819459,63.115371 66.630069,64.045971 69.273369,65.274561 C72.253269,66.640761 75.026259,68.373261 77.529969,70.422561 C86.252859,77.520861 91.816659,88.331661 91.816659,100.459161 L88.122969,100.487871 L10.625769,100.487871 C5.369859,100.487871 1.101969,96.220971 1.101969,90.965061 L1.101969,90.617571 C2.487969,91.420461 4.092759,91.875861 5.804469,91.875861 C10.992069,91.875861 15.189669,87.678261 15.189669,82.489671 C15.189669,77.302071 10.992069,73.094571 5.804469,73.094571 C4.092759,73.094571 2.487969,73.549971 1.101969,74.352861 L1.101969,61.730361 L5.359959,61.730361 L5.359959,60.293871 C5.359959,60.293871 5.656959,40.277061 18.269559,27.208071 L18.269559,27.199161 C18.269559,27.199161 18.279459,27.199161 18.288369,27.188271 L18.269559,27.188271 C10.120869,27.188271 9.904059,18.823761 9.904059,18.823761 C4.983759,18.823761 0.994059,14.833071 0.994059,9.902871 C0.994059,4.982571 4.983759,0.992871 9.904059,0.992871 C9.904059,0.992871 13.864059,12.844161 24.754059,12.844161 L55.551969,12.844161 C55.551969,12.844161 60.996969,12.438261 60.996969,18.812871 L67.452759,18.812871 C67.452759,18.812871 73.866969,18.595071 73.866969,26.732871 L84.718359,26.732871 C84.718359,23.168871 87.609159,20.278071 91.172169,20.278071 C94.736169,20.278071 97.626969,23.168871 97.626969,26.732871 L97.626969,36.137871 L75.054969,36.137871 C73.422459,34.316271 71.066259,33.167871 68.421969,33.167871 C63.501669,33.167871 59.511969,37.157571 59.511969,42.077871" id="Fill-9" fill="#021B3B"></path>
            <path d="M54.182997,23.735844 L54.756207,24.309054 C56.948067,26.501904 59.922027,27.733464 63.022707,27.733464 L63.022707,23.735844 L55.566027,23.735844 L54.182997,23.735844 Z" id="Fill-11" fill="#B0936D"></path>
            <path d="M32.225094,65.249118 L31.652874,65.821338 C29.460024,68.014188 26.486064,69.245748 23.386374,69.245748 L23.386374,65.249118 L30.842064,65.249118 L32.225094,65.249118 Z" id="Fill-13" fill="#B0936D"></path>
            <path d="M38.625246,72.18684 L38.625246,65.24397 L36.645246,65.24397 L36.645246,72.18684 C36.645246,78.62382 31.408146,83.86092 24.970176,83.86092 L23.386176,83.86092 L23.386176,85.84092 L24.970176,85.84092 C32.500116,85.84092 38.625246,79.7148 38.625246,72.18684" id="Fill-15" fill="#957E5C"></path>
            <path d="M46.161423,70.832322 L46.161423,65.243772 L44.181423,65.243772 L44.181423,70.832322 C44.181423,83.940912 37.126683,92.411352 26.207973,92.411352 L23.386473,92.411352 L23.386473,94.391352 L26.207973,94.391352 C38.329533,94.391352 46.161423,85.143762 46.161423,70.832322" id="Fill-17" fill="#957E5C"></path>
            <mask id="mask-2" fill="white">
                <use xlink:href="#path-1"></use>
            </mask>
            <g id="Clip-20"></g>
            <path d="M58.52682,42.075 C58.52682,47.53386 62.96796,51.975 68.42682,51.975 C71.07804,51.975 73.62432,50.89788 75.48255,49.005 L96.64182,49.005 L96.64182,53.24022 C96.23988,54.02727 94.13514,57.42 87.73182,57.42 L77.42196,57.42 L77.13189,57.71007 C77.08536,57.7566 72.41949,62.37 67.93182,62.37 C66.52899,62.37 64.65888,62.01261 62.76699,61.40079 C64.02132,59.09013 64.46682,56.35971 64.46682,54.45 L64.46682,53.46 L54.07182,53.46 L54.07182,44.91135 L54.09657,44.91135 L54.07182,43.8966 L54.07182,29.02878 L53.44812,28.78029 C53.36001,28.74564 45.14598,25.40835 44.25102,19.81584 L61.00182,19.81584 L61.00182,19.8 L67.48236,19.79901 C67.49325,19.7802 69.51879,19.7802 71.03745,21.24936 C72.26109,22.43241 72.88182,24.27678 72.88182,26.73 L72.88182,27.72 L85.70826,27.72 L85.70826,26.73 C85.70826,23.71545 88.16049,21.26421 91.17504,21.26421 C94.1886,21.26421 96.64182,23.71545 96.64182,26.73 L96.64182,35.145 L75.48255,35.145 C73.62333,33.25212 71.07705,32.175 68.42682,32.175 C62.96796,32.175 58.52682,36.61614 58.52682,42.075 L58.52682,42.075 Z M85.23603,80.76123 C78.6852,92.28582 66.50622,99.43758 53.23032,99.49203 L47.57445,99.495 L39.95541,99.495 C44.748,97.38828 48.71295,93.73617 51.20478,89.16633 L53.07885,89.16633 C64.19358,89.16633 73.99656,82.35711 77.94072,72.09081 C80.79093,74.60046 83.25108,77.5269 85.23603,80.76123 L85.23603,80.76123 Z M65.3301,99.48807 C74.00745,96.6141 81.50571,90.73944 86.37453,82.73034 C89.07525,87.78429 90.6543,93.49065 90.81072,99.47718 L65.3301,99.48807 Z M10.62171,99.495 C6.34491,99.495 2.7918,96.33096 2.18394,92.21949 C3.3363,92.64816 4.56192,92.86992 5.80239,92.86992 C11.52657,92.86992 16.18353,88.21296 16.18353,82.48779 C16.18353,76.76361 11.52657,72.10665 5.80239,72.10665 C4.52925,72.10665 3.27096,72.34029 2.09187,72.78975 L2.09187,62.71551 L19.07532,62.71551 L19.07532,61.72551 C19.07532,58.25952 21.89583,55.44 25.36182,55.44 L29.41191,55.44 L52.08885,55.44 L52.08885,77.91894 C52.08885,89.78013 42.471,99.43362 30.62466,99.495 L22.63932,99.495 L10.62171,99.495 Z M55.55682,63.855 L54.06885,63.855 L54.06885,55.44 L62.43336,55.44 C62.21853,57.86649 61.12062,63.855 55.55682,63.855 L55.55682,63.855 Z M54.06885,77.91894 L54.06885,75.78153 C60.09993,75.33504 65.0232,70.86717 66.14982,65.04894 C69.8643,66.42207 73.2897,68.35455 76.32801,70.7454 C72.8442,80.60184 63.59562,87.18633 53.07885,87.18633 L52.16607,87.18633 C53.38971,84.34008 54.06885,81.20772 54.06885,77.91894 L54.06885,77.91894 Z M61.15131,63.58671 C62.20269,63.81639 63.23526,64.08765 64.24704,64.40148 C63.39762,69.43662 59.22774,73.35207 54.06885,73.80153 L54.06885,65.835 L55.55682,65.835 C58.00608,65.835 59.8158,64.92519 61.15131,63.58671 L61.15131,63.58671 Z M6.3459,60.30486 C6.34887,60.11478 6.77358,42.0354 17.59527,29.41488 C18.34767,32.45418 20.6019,36.10332 25.72317,36.49734 C26.136,39.83859 28.42191,44.91135 35.00343,44.91135 L52.09182,44.91135 L52.09182,53.46 L29.41191,53.46 L25.36182,53.46 C21.13848,53.46 17.64477,56.64285 17.15472,60.73551 L6.3459,60.73551 L6.3459,60.30486 Z M11.00979,19.81584 L27.98532,19.81584 C33.52239,19.81584 34.90443,24.1659 35.24796,26.20134 L18.27342,26.20134 C18.24372,26.20134 18.21699,26.19738 18.18729,26.19738 L18.02097,26.03007 C17.97048,26.07957 17.92593,26.13204 17.87544,26.18154 C12.67794,25.97265 11.34441,21.79782 11.00979,19.81584 L11.00979,19.81584 Z M44.71632,36.54684 C50.2524,36.54684 51.63543,40.8969 51.97995,42.93135 L35.00343,42.93135 C29.46636,42.93135 28.08432,38.5803 27.7398,36.54684 L44.71632,36.54684 Z M19.37529,28.18134 L36.35082,28.18134 C41.8869,28.18134 43.26993,32.5314 43.61445,34.56684 L26.63793,34.56684 C21.09987,34.56684 19.71882,30.2148 19.37529,28.18134 L19.37529,28.18134 Z M1.98,9.90792 C1.98,5.75982 5.18067,2.3463 9.24264,2.00772 C10.3455,4.65201 14.8896,13.83129 24.75792,13.83129 L55.62414,13.82931 C55.64691,13.82535 57.42,13.7313 58.66938,14.90445 C59.38416,15.57567 59.80194,16.56765 59.94549,17.83584 L42.19182,17.83584 L42.19182,18.82584 C42.19182,25.3539 49.80987,29.31093 52.09182,30.35043 L52.09182,38.05461 C50.79294,36.28053 48.73374,34.85493 45.63108,34.61634 C45.23706,31.43646 43.13826,26.70327 37.26459,26.25084 C36.85176,22.9086 34.56783,17.83584 27.98532,17.83584 L9.90792,17.83584 C5.53707,17.83584 1.98,14.27877 1.98,9.90792 L1.98,9.90792 Z M68.42682,34.155 C70.66521,34.155 72.81252,35.11827 74.31732,36.79632 L74.61234,37.125 L98.62182,37.125 L98.62182,26.73 C98.62182,22.62447 95.28057,19.28421 91.17504,19.28421 C87.40413,19.28421 84.27969,22.09977 83.7936,25.74 L74.83113,25.74 C74.66679,23.20659 73.85499,21.22065 72.41355,19.82574 C70.26921,17.7507 67.54077,17.82396 67.44969,17.82 L61.94925,17.82 C61.78194,15.95781 61.12953,14.48766 60.00192,13.44024 C58.10508,11.68002 55.59048,11.84436 55.55682,11.85129 L24.75792,11.85129 C14.72427,11.85129 10.99989,1.13157 10.84644,0.67518 L10.61874,1.40687462e-14 L9.90792,1.40687462e-14 C4.44411,1.40687462e-14 1.96962446e-13,4.44411 1.96962446e-13,9.90792 C1.96962446e-13,15.06285 3.95802,19.30599 8.99316,19.76931 C9.36045,22.73238 11.21076,27.04086 16.21521,27.98235 C4.79853,41.12064 4.37778,59.46237 4.3659,60.28902 L4.3659,60.73551 L0.11187,60.73551 L0.11187,76.07259 L1.59786,75.21228 C2.86902,74.47671 4.32333,74.08665 5.80239,74.08665 C10.43559,74.08665 14.20353,77.85558 14.20353,82.48779 C14.20353,87.12099 10.43559,90.88992 5.80239,90.88992 C4.32333,90.88992 2.86902,90.49986 1.59786,89.76429 L0.11187,88.90398 L0.11187,90.96615 C0.11187,96.76062 4.82724,101.475 10.62171,101.475 L22.63932,101.475 L30.51081,101.475 L30.51081,101.47797 C30.54942,101.47797 30.58704,101.475 30.62466,101.475 L33.4323,101.475 L45.17172,101.475 L45.17172,101.47599 L53.07885,101.47599 L53.07885,101.47797 C53.09469,101.47797 53.10954,101.47599 53.12538,101.47599 L88.13079,101.47797 L92.80359,101.44233 L92.80359,100.46025 C92.80359,84.63312 83.3382,70.52661 69.37029,64.22328 C73.45899,63.57087 77.15763,60.39396 78.22782,59.4 L87.73182,59.4 C96.22404,59.4 98.46045,54.05598 98.55153,53.82729 L98.62182,53.65008 L98.62182,47.025 L74.61234,47.025 L74.31633,47.35467 C72.81252,49.03173 70.6662,49.995 68.42682,49.995 C64.05993,49.995 60.50682,46.44189 60.50682,42.075 C60.50682,37.70811 64.05993,34.155 68.42682,34.155 L68.42682,34.155 Z" id="Fill-19" fill="#B0936D" mask="url(#mask-2)"></path>
        </g>
    </g>
</svg>