<?xml version="1.0" encoding="UTF-8"?>
<svg width="145px" height="100px" viewBox="0 0 145 100" version="1.1" xmlns="http://www.w3.org/2000/svg" xmlns:xlink="http://www.w3.org/1999/xlink">
    <title>game_icon</title>
    <defs>
        <linearGradient x1="7.12196892%" y1="245.956717%" x2="89.8001189%" y2="245.956717%" id="linearGradient-1">
            <stop stop-color="#A78C68" offset="0%"></stop>
            <stop stop-color="#7C6341" offset="52.4440456%"></stop>
            <stop stop-color="#AFA286" offset="100%"></stop>
        </linearGradient>
    </defs>
    <g id="Game" stroke="none" stroke-width="1" fill="none" fill-rule="evenodd">
        <g id="WE_games_lot" transform="translate(-650.000000, -396.000000)" fill="url(#linearGradient-1)" fill-rule="nonzero">
            <g id="Group" transform="translate(638.000000, 362.000000)">
                <g id="game_icon_baccart" transform="translate(6.500000, 6.500000)">
                    <path d="M138,114 L136.037054,127.2 L123.6,124.216207 C127.685068,122.786301 131.368104,120.576926 134.619891,117.594051 C135.857542,116.459172 136.983934,115.260237 138,114 L138,114 Z M98.2253199,27.6 L134.893202,28.1856681 L137.949891,30.9087468 L138.297221,47.0060478 L110.110711,44.5848384 L107.737441,54.7219008 C108.255913,54.7446047 108.769108,54.7777339 109.276568,54.8219833 L109.276568,54.8219833 L111.288743,46.2269332 L139.852407,48.6803451 L139.522971,32.6446689 L150,28.4423612 L142.248847,82.030993 C141.545011,80.0504247 140.659709,78.1757308 139.585371,76.4184948 C138.491763,74.5150734 137.243989,72.9890466 135.850998,71.2533562 C133.045974,67.7583447 129.966802,65.2141171 127.15719,63.0092899 C127.471944,63.3262179 127.777521,63.6554245 128.086998,63.9853262 C131.967507,68.1239239 133.792711,70.6751016 134.720454,71.830684 C135.943222,73.3539308 137.23573,75.3868571 138.275197,77.1976094 L138.275197,77.1976094 L138.286209,77.2161432 C141.328216,82.187372 142.81756,88.1492324 142.712719,94.9360785 C142.569336,104.192322 139.331182,111.870181 133.088645,117.756284 C126.869278,123.621305 118.947213,126.38122 109.538327,125.957723 C100.473331,125.549979 92.9986201,120.748103 87.4027958,115.366582 C86.4249752,114.366022 85.8821576,113.770482 85.376335,113.22943 L85.1246639,112.961822 C84.830345,112.651123 84.5260423,112.339086 84.1327532,111.956131 L84.1327532,111.956131 L84.8372783,111.863694 C85.5535035,112.411368 86.284411,112.924754 87.0341303,113.391342 C91.432193,116.129248 96.5249161,117.562374 102.169605,117.651337 C111.346784,117.794278 119.106884,114.941695 125.229668,109.167489 C131.344653,103.401392 134.516507,95.8803757 134.657136,86.8129453 C134.79249,78.0385806 132.206554,70.7089258 126.970449,65.0276208 C121.777931,59.3161984 114.958422,56.3563504 106.697974,56.2256871 C106.226302,56.2187369 105.698195,56.2291622 105.126959,56.2569629 C104.557558,56.2849952 103.949156,56.3322564 103.318731,56.3971247 L103.318731,56.3971247 L102.170752,56.5152777 L107.228834,40.245149 L134.064335,40.6684146 L134.233641,29.7033547 L99.3336106,29.1531325 L88.6953046,63.1109941 L70.8,60.2102226 L90.4826556,52.3152868 L98.2253199,27.6 Z M88.8,109.2 L18,122.4 L20.9562035,117.167394 L88.8,109.2 Z M12.9688931,54 L19.2,116.033993 L16.5186147,121.2 L6,70.637998 L12.9688931,54 Z M82.6035487,111.6 C83.7528791,112.797018 85.0183629,114.013149 86.4,115.2 L86.4,115.2 L75.6,112.826298 Z M14.4,52.8 L93.7259247,65.306118 L100.4534,66.4308345 C100.525097,66.4192113 100.597955,66.4116904 100.670116,66.4007509 L100.670116,66.4007509 L103.448674,66.8390143 L109.2,104.577526 L21.5133412,115.144619 L21.053922,115.2 L16.4710991,72.2237512 L14.4,52.8 Z M20.3661853,60.4929696 L24.5800807,107.978796 L42.1763016,106.690443 L40.729131,94.3251708 L31.1602171,94.8865035 L27.5489035,61.5632165 L20.3661853,60.4929696 Z M49.2049519,63.2709168 C47.2164555,63.0047225 45.5864453,63.5350599 44.3281471,64.8801616 C43.048038,66.2491934 42.1278074,68.1740881 41.5769683,70.6619108 C41.0194004,73.1823241 40.8175344,76.1280102 40.9767069,79.4966899 C41.1381998,82.893402 41.6421687,86.4279974 42.48931,90.0849783 C43.0900354,92.6799169 43.8536459,95.0378331 44.776893,97.1512062 C45.6980517,99.2584258 46.746827,101.052274 47.9192741,102.527283 C49.0836003,103.992719 50.3405064,105.089631 51.6848877,105.818474 C53.0148832,106.538657 54.3998698,106.83767 55.8345108,106.722806 C57.7844902,106.565095 59.318672,105.645721 60.4509781,103.98383 C61.5647217,102.348376 62.3169627,100.256882 62.7193025,97.7116272 C63.1165378,95.1975953 63.1977482,92.3799925 62.9675746,89.2547165 C62.7394891,86.1535985 62.2338959,82.9733971 61.4517231,79.7013495 C60.8987958,77.3899261 60.2247489,75.2797438 59.42703,73.3630536 C58.6274549,71.4431729 57.7218421,69.7755841 56.7057831,68.356413 C55.6843874,66.9297209 54.5539377,65.7778836 53.3111854,64.8997615 C52.0552075,64.0138906 50.6887833,63.4689672 49.2049519,63.2709168 Z M104.4,66 C109.805387,66.2715259 114.373014,68.2309887 117.987544,71.8340761 C121.804516,75.5266925 123.691648,80.2882301 123.59658,85.9871085 C123.504165,91.5306678 121.442822,96.2867794 117.469493,100.123185 C115.407184,102.055518 113.089349,103.483007 110.534808,104.4 L110.534808,104.4 L105.93702,75.620517 C107.544496,75.2104022 109.211571,75.0019535 110.936798,75.0019535 C111.042965,75.0019535 111.149616,75.0026317 111.256025,75.0042143 C114.468806,75.0512396 117.37539,75.7138894 119.957438,76.9736248 C119.532767,76.1852728 119.0415,75.4324159 118.485326,74.7157322 C116.271969,73.9488581 113.866787,73.5439431 111.281119,73.5061873 C109.350796,73.475666 107.488758,73.6832104 105.697418,74.1215856 L105.697418,74.1215856 Z M61.4255037,65.9408365 L62.7517867,75.4358594 L66.6496573,75.7464954 L70.7287433,104.398847 L76.8148881,103.945542 L72.6924125,76.2273772 L76.2002408,76.507018 L74.8607321,67.6642622 L61.4255037,65.9408365 Z M76.4828533,67.8725684 L77.8228261,76.6357849 L81.1373735,76.899928 L85.2357179,103.318117 L90.4123054,102.9325 L86.2965587,77.3112985 L89.3032024,77.5501441 L87.966478,69.3457532 L76.4828533,67.8725684 Z M95.6740479,69.4813574 C94.4865188,69.3222789 93.5590952,69.7746725 92.898738,70.8487938 C92.2295637,71.937957 91.8035568,73.4455556 91.6246617,75.3740969 C91.4443745,77.3217822 91.4942609,79.5860291 91.7764093,82.1636468 C92.060878,84.7581296 92.5502291,87.4510678 93.2442306,90.233573 C93.736366,92.2070118 94.3094799,94.0006326 94.961484,95.6087379 C95.61256,97.2136525 96.3211793,98.5831401 97.0852539,99.7137821 C97.8453839,100.838499 98.6414785,101.686765 99.4705214,102.257442 C100.292603,102.823333 101.126983,103.070839 101.971108,103.002695 C103.123136,102.909481 103.991392,102.225763 104.582605,100.964303 C105.166392,99.7176565 105.510028,98.110007 105.619314,96.1443171 C105.727672,94.1979992 105.628363,92.0087335 105.324172,89.576064 C105.021837,87.1575247 104.546872,84.6756276 103.89858,82.1214842 C103.440089,80.316468 102.919182,78.6707583 102.334235,77.1779735 C101.747895,75.6840491 101.112133,74.391138 100.423932,73.2971888 C99.7331793,72.1977699 98.9930039,71.3187361 98.2024779,70.6582643 C97.4054552,69.9936902 96.5634186,69.5998685 95.6740479,69.4813574 Z M50.0086505,74.4001504 L50.1518434,74.4045732 C50.9534609,74.4635734 51.6925553,75.1021496 52.3724307,76.3172217 C53.0497644,77.5289765 53.6101851,79.0245956 54.0542009,80.8066855 C54.4006196,82.19473 54.6814653,83.6993531 54.8987712,85.3238723 C55.1168397,86.9538412 55.2159617,88.4667575 55.1979164,89.8645169 C55.1793628,91.2689109 55.0113637,92.4380149 54.6929024,93.3708813 C54.3724079,94.3101452 53.8630733,94.7873596 53.1628652,94.7996809 C52.2481469,94.8157934 51.4610165,94.2217634 50.8035071,93.013089 C50.1457436,91.8027559 49.5919311,90.2900765 49.1448654,88.4805006 C48.7796389,87.0019417 48.4898976,85.4259971 48.2758957,83.7521927 C48.0616397,82.084075 47.972684,80.546516 48.0072496,79.1416482 C48.0418153,77.7441257 48.2260806,76.5901864 48.5600455,75.6793563 C48.891723,74.7751607 49.4226612,74.3505489 50.1518434,74.4045732 Z M97.942209,78.0019055 C98.2907614,78.0344217 98.6378314,78.4801104 98.983419,79.3363703 C99.3278948,80.190896 99.6340131,81.2489731 99.9014034,82.5116855 C100.109868,83.4947586 100.294428,84.5602061 100.456567,85.7110627 C100.618891,86.8649542 100.724884,87.9360378 100.774915,88.9240967 C100.824947,89.9162743 100.800116,90.7408852 100.700609,91.3981459 C100.600361,92.0588751 100.399494,92.3933584 100.097267,92.4 C99.7029454,92.4087494 99.3388276,91.9895072 99.0054699,91.1397505 C98.6717416,90.2893435 98.3704411,89.2271477 98.102495,87.9557643 C97.8834684,86.9169802 97.692793,85.8090449 97.5302834,84.6315249 C97.3679592,83.456823 97.2645609,82.3736001 97.2199032,81.3807721 C97.1754308,80.3927132 97.2054496,79.5737386 97.3103304,78.9251488 C97.4146552,78.2804609 97.6253432,77.9726409 97.942209,78.0019055 Z" id="Combined-Shape"></path>
                </g>
            </g>
        </g>
    </g>
</svg>