<?xml version="1.0" encoding="UTF-8"?>
<svg width="120px" height="120px" viewBox="0 0 120 120" version="1.1" xmlns="http://www.w3.org/2000/svg" xmlns:xlink="http://www.w3.org/1999/xlink">
    <title>game_icon_Roulette</title>
    <defs>
        <linearGradient x1="50%" y1="3.41005068%" x2="50%" y2="100%" id="linearGradient-1">
            <stop stop-color="#000F24" stop-opacity="0.9" offset="0%"></stop>
            <stop stop-color="#011B3E" offset="100%"></stop>
        </linearGradient>
        <linearGradient x1="50%" y1="3.41005068%" x2="50%" y2="100%" id="linearGradient-2">
            <stop stop-color="#000F24" stop-opacity="0.9" offset="0%"></stop>
            <stop stop-color="#011B3E" offset="100%"></stop>
        </linearGradient>
        <linearGradient x1="50%" y1="3.41005068%" x2="50%" y2="100%" id="linearGradient-3">
            <stop stop-color="#000F24" stop-opacity="0.9" offset="0%"></stop>
            <stop stop-color="#011B3E" offset="100%"></stop>
        </linearGradient>
        <linearGradient x1="50%" y1="3.41005068%" x2="50%" y2="100%" id="linearGradient-4">
            <stop stop-color="#000F24" stop-opacity="0.9" offset="0%"></stop>
            <stop stop-color="#011B3E" offset="100%"></stop>
        </linearGradient>
        <linearGradient x1="7.12196892%" y1="245.956717%" x2="89.8001189%" y2="245.956717%" id="linearGradient-5">
            <stop stop-color="#A78C68" offset="0%"></stop>
            <stop stop-color="#7C6341" offset="52.4440456%"></stop>
            <stop stop-color="#AFA286" offset="100%"></stop>
        </linearGradient>
        <linearGradient x1="50%" y1="3.41005068%" x2="50%" y2="100%" id="linearGradient-6">
            <stop stop-color="#000F24" stop-opacity="0.9" offset="0%"></stop>
            <stop stop-color="#011B3E" offset="100%"></stop>
        </linearGradient>
        <linearGradient x1="7.12196892%" y1="245.956717%" x2="89.8001189%" y2="245.956717%" id="linearGradient-7">
            <stop stop-color="#A78C68" offset="0%"></stop>
            <stop stop-color="#7C6341" offset="52.4440456%"></stop>
            <stop stop-color="#AFA286" offset="100%"></stop>
        </linearGradient>
        <linearGradient x1="-42.7295762%" y1="74.2593235%" x2="89.8001189%" y2="245.867106%" id="linearGradient-8">
            <stop stop-color="#A78C68" offset="0%"></stop>
            <stop stop-color="#7C6341" offset="52.4440456%"></stop>
            <stop stop-color="#AFA286" offset="100%"></stop>
        </linearGradient>
    </defs>
    <g id="game_icon_Roulette" stroke="none" stroke-width="1" fill="none" fill-rule="evenodd">
        <g id="Group-32" transform="translate(15.000000, 13.000000)">
            <path d="M88.7474893,35.0615703 L90.1458072,35.3050344 L80.4346373,88.5495325 C77.5420766,88.0381063 74.626389,87.6482695 71.696075,87.3731478 L81.0765963,33.950205 C83.6436141,34.259585 86.2013935,34.6298915 88.7474893,35.0615703 Z" id="Combined-Shape" stroke="#B0936D" stroke-width="1.7496" fill="url(#linearGradient-1)"></path>
            <path d="M8.94849971,33.8714642 L17.7110095,87.3199156 C15.5585664,87.5543307 13.4208829,87.851548 11.3004731,88.2122412 L10.0140083,88.439261 L7.77156117e-13,35.2567343 C2.95982758,34.7113139 5.94375865,34.2494826 8.94849971,33.8714642 Z" id="Combined-Shape" stroke="#B0936D" stroke-width="1.7496" fill="url(#linearGradient-2)"></path>
            <path d="M73.0295342,15.549185 L75.0916142,2.13126505 C59.9687342,-0.567294955 31.1831342,-0.766014955 15.1732142,1.89510505 L17.0941742,15.269825 C13.4538542,15.698945 9.80489419,16.197185 6.15017419,16.804865 L18.8480942,94.256705 C36.4218542,91.370945 53.8055342,91.607105 70.4346542,94.556225 L84.0167342,17.205185 C80.3821742,16.557185 76.7130542,16.021505 73.0295342,15.549185 Z" id="Combined-Shape" stroke="#B0936D" stroke-width="1.7496" fill="url(#linearGradient-3)"></path>
            <path d="M17.1315182,15.5204285 L20.2417262,37.167617 C33.6682862,34.636097 56.1754862,34.754177 69.6798062,37.337537 L71.5225182,25.3434285 L62.7833582,83.883521 C56.4847982,83.143361 50.1315182,82.771841 43.8099182,82.771841 C38.1017582,82.771841 32.3503982,83.077121 26.6249582,83.681921 L17.0835182,15.520961 L17.1315182,15.5204285 Z M44.9596142,49.748033 C39.3695342,49.748033 34.8364142,54.284033 34.8364142,59.874113 C34.8364142,65.467073 39.3695342,70.003073 44.9596142,70.003073 C50.5554542,70.003073 55.0885742,65.467073 55.0885742,59.874113 C55.0885742,54.284033 50.5554542,49.748033 44.9596142,49.748033 Z" id="Combined-Shape" stroke="url(#linearGradient-5)" stroke-width="1.7496" fill="url(#linearGradient-4)"></path>
            <path d="M69.6798062,37.337537 L75.0913262,2.12953705 C59.9684462,-0.566142955 31.1828462,-0.764862955 15.1729262,1.89337705 L20.2417262,37.167617 C33.6682862,34.636097 56.1754862,34.754177 69.6798062,37.337537 Z M30.9628142,35.759585 L25.5138542,0.589025045 M59.1467822,35.759585 L64.5957422,0.589025045" id="Combined-Shape" stroke="url(#linearGradient-7)" stroke-width="1.7496" fill="url(#linearGradient-6)"></path>
            <polygon id="Fill-21" stroke="url(#linearGradient-8)" stroke-width="1.75" points="44.9607662 23.606849 38.6650862 17.311169 44.9607662 11.015489 51.2593262 17.311169"></polygon>
        </g>
    </g>
</svg>