<svg height="139" viewBox="0 0 134 139" width="134" xmlns="http://www.w3.org/2000/svg" xmlns:xlink="http://www.w3.org/1999/xlink"><mask id="a" fill="#fff"><path d="m0 0h133.961037v137.840775h-133.961037z" fill="#fff" fill-rule="evenodd"/></mask><g fill="none" fill-rule="evenodd" transform="translate(-.058333 .225)"><g fill="#021b3b"><path d="m94.6745687 88.6234627s-.2138152 0-.5782425.0403425"/><path d="m105.729355 95.6296102s-.147922 0-.418217.026895"/><path d="m24.8421046 36.9307348c-.0134475.0147922-.026895.0147922-.026895.0147922v-.0147922z"/><path d="m25.434467 36.3121498c-.2017125.2017125-.4047697.4182172-.59169.618585"/><path d="m80.8370912 57.1557748c0 6.6847522 5.4193425 12.10275 12.10275 12.10275 3.5918273 0 6.7923323-1.5733575 9.0098248-4.03425h30.6603v7.396125s-2.6895 6.72375-13.4475 6.72375h-13.4475s-6.7237498 6.72375-13.4474998 6.72375c-2.1919425 0-5.1234975-.5782425-8.0685-1.5989078l-1.4913277.4437675c3.98046.8189528 7.7982052 2.0830178 11.3886877 3.7518525 4.0476975 1.855755 7.8143418 4.2090675 11.2152148 6.9927 11.848592 9.641858 19.406087 24.326528 19.406087 40.799715l-5.017262.038998h-105.2670298c-7.13927773 0-12.93649498-5.795873-12.93649498-12.93515v-.472008c1.88265 1.090593 4.06248975 1.709178 6.3875625 1.709178 7.04648998 0 12.74822998-5.70174 12.74822998-12.749575 0-7.04649-5.70174-12.7616777-12.74822998-12.7616777-2.32507275 0-4.5049125.618585-6.3875625 1.7091777v-17.145563h5.78376975v-1.9512322s.403425-27.1895003 17.53554003-44.941545v-.0121028s.0134475 0 .0255502-.0147922h-.0255502c-11.0686373 0-11.3631375-11.3617928-11.3631375-11.3617928-6.68340753 0-12.10275003-5.4206872-12.10275003-12.1175422 0-6.68340752 5.4193425-12.10275002 12.10275003-12.10275002 0 0 5.379 16.09800222 20.17125 16.09800222h41.8338277s7.396125-.5513475 7.396125 8.1074978h8.7691148s8.712635-.295845 8.712635 10.758h14.739805c0-4.8411 3.92667-8.76777 8.766425-8.76777 4.8411 0 8.76777 3.92667 8.76777 8.76777v12.775125h-30.6603c-2.2174925-2.47434-5.4179975-4.03425-9.0098248-4.03425-6.6834075 0-12.10275 5.4193425-12.10275 12.10275"/></g><path d="m73.5985709 32.2411881.7786103.7786103c2.9772765 2.9786212 7.0169055 4.6514902 11.2286625 4.6514902v-5.4301005h-10.128657z" fill="#b0936d"/><path d="m43.7724193 88.630052-.7772655.7772655c-2.9786212 2.9786212-7.0182502 4.6514902-11.2286625 4.6514902v-5.4287557h10.1273123z" fill="#b0936d"/><path d="m52.4659591 98.053791v-9.4307318h-2.6895v9.4307318c0 8.743564-7.1137275 15.857292-15.8586367 15.857292h-2.1516v2.6895h2.1516c10.2281685 0 18.5481367-8.321313 18.5481367-18.546792" fill="#957e5c"/><path d="m62.7025996 96.2139041v-7.5911138h-2.6895v7.5911138c0 17.8058349-9.5826885 29.3115159-24.4139363 29.3115159h-3.8325375v2.6895h3.8325375c16.465119 0 27.1034363-12.56131 27.1034363-32.0010159" fill="#957e5c"/><path d="m79.4989305 57.151875c0 7.4149515 6.0325485 13.4475 13.4475 13.4475 3.6012405 0 7.0599375-1.463088 9.5840335-4.03425h28.741342v5.7528405c-.545969 1.0690763-3.404907 5.6775345-12.10275 5.6775345h-14.004227l-.394012.3940118c-.063203.0632032-6.4010097 6.3297382-12.4967615 6.3297382-1.9055107 0-4.4457435-.4854547-7.0155607-1.3165102 1.7037982-3.1386465 2.3089357-6.847467 2.3089357-9.4414898v-1.34475h-14.119875v-11.6119162h.0336188l-.0336188-1.3783688v-20.1954555l-.8471925-.3375322c-.1196827-.0470663-11.2770735-4.5802185-12.4927275-12.1767113h22.75317v-.021516l8.8027335-.0013447c.0147923-.0255503 2.7661508-.0255503 4.8289973 1.9700587 1.662111 1.6069763 2.5052692 4.1122455 2.5052692 7.444536v1.34475h17.4225815v-1.34475c0-4.0947637 3.330945-7.4243647 7.425709-7.4243647 4.093419 0 7.42571 3.329601 7.42571 7.4243647v11.430375h-28.741342c-2.525441-2.571162-5.9841377-4.03425-9.5840335-4.03425-7.4149515 0-13.4475 6.0325485-13.4475 13.4475zm36.2800105 52.548796c-8.898211 15.654235-25.4413255 25.368709-43.474423 25.44267l-7.6825567.004034h-10.349196c6.5099347-2.861628 11.8956585-7.822411 15.2803942-14.029777h2.5456118c15.0975082 0 28.4132227-9.24919 33.7707067-23.1942477 3.871535 3.4089417 7.213239 7.3840227 9.909463 11.7773207zm-27.0388885 25.437291c11.7867335-3.903809 21.9718705-11.883556 28.5853505-22.762583 3.668478 6.864948 5.813355 14.616087 6.025825 22.747791zm-74.3122297.009413c-5.80932005 0-10.6356278-4.297821-11.4613043-9.882568 1.565289.582277 3.2300895.883501 4.91506125.883501 7.77534455 0 14.10104855-6.325704 14.10104855-14.102393 0-7.775345-6.325704-14.1010487-14.10104855-14.1010487-1.7293485 0-3.43852575.317361-5.040123.9278775v-13.684176h23.06918625v-1.34475c0-4.7079698 3.8311928-8.5378178 8.5391625-8.5378178h5.5013723 30.8028435v30.533894c0 16.111449-13.0642463 29.224107-29.1555248 29.307481h-10.8467535zm61.0368577-48.411h-2.0211592v-11.430375h11.3617927c-.2918107 3.2959823-1.7831385 11.430375-9.3406335 11.430375zm-2.0211592 19.103519v-2.903316c8.192217-.606482 14.8796587-6.6753387 16.4099842-14.5784345 5.045502 1.8651683 9.698337 4.4901203 13.8253745 7.7376915-4.732175 13.388331-17.2948295 22.332263-31.5801087 22.332263h-1.2398595c1.662111-3.866156 2.5846095-8.120945 2.5846095-12.588204zm9.6203415-19.4679462c1.4281245.311982 2.8306987.6804435 4.2050332 1.1067292-1.1537955 6.8393985-6.8178825 12.1578848-13.8253747 12.768401v-10.821203h2.0211592c3.3269115 0 5.7851145-1.2358252 7.5991823-3.0539272zm-74.4440153-4.4578463c.00403425-.258192.580932-24.8160165 15.2803943-41.9588895 1.02201 4.1283825 4.0840057 9.085131 11.0403975 9.6203415.5607607 4.5385313 3.6657885 11.4290303 12.6056865 11.4290303h23.2117297v11.6119162h-30.8068777-5.5013723c-5.7367035 0-10.4823262 4.3233713-11.1479775 9.8825678h-14.6819805zm6.3351173-54.9975855h23.0584282c7.5211868 0 9.3984578 5.9088315 9.865086 8.6736375h-23.0570835c-.0403425 0-.0766507-.005379-.1169932-.005379l-.225918-.2272627c-.0685823.0672375-.129096.1385092-.1976783.2057467-7.0599375-.2837422-8.8713157-5.954553-9.3258412-8.6467425zm45.7847032 22.726275c7.519842 0 9.3984578 5.9088315 9.8664308 8.6722928h-23.059773c-7.5211868 0-9.3984578-5.9101763-9.8664308-8.6722928zm-34.4215657-11.3631375h23.0584282c7.519842 0 9.3984578 5.9088315 9.8664308 8.6736375h-23.059773c-7.5225315 0-9.3984578-5.911521-9.865086-8.6736375zm-23.6286023-24.8213955c0-5.6345025 4.34757675-10.2712005 9.865086-10.731105 1.4980515 3.59182725 7.670454 16.0603493 21.074922 16.0603493l41.9266155-.0026895c.0309293-.005379 2.4393765-.1331303 4.136451 1.4603985.9709095.9117405 1.538394 2.25918 1.7333828 3.9818047h-24.1154018v1.34475c0 8.8672815 10.3478513 14.2422473 13.4475 15.6542348v10.4648445c-1.764312-2.409792-4.561392-4.346232-8.7758385-4.6703168-.5352105-4.319337-3.3860805-10.7485867-11.3644822-11.3631375-.5607608-4.539876-3.663099-11.430375-12.6043418-11.430375h-24.555135c-5.93707125 0-10.768758-4.8316867-10.768758-10.768758zm90.2569305 32.935617c3.0404798 0 5.9572425 1.3084418 8.0012625 3.587793l.400736.446457h32.612877v-14.119875c0-5.5766782-4.538532-10.1138647-10.11521-10.1138647-5.122153 0-9.366184 3.824469-10.026456 8.7691147h-12.174022c-.223228-3.4412152-1.325923-6.1387837-3.2838792-8.0335365-2.9127285-2.818596-6.6188595-2.7190845-6.7425765-2.7244635h-7.471431c-.2272628-2.5294747-1.113453-4.5264285-2.6451233-5.949174-2.576541-2.3909655-5.992206-2.167737-6.0379275-2.1583237h-41.8351725c-13.6290412 0-18.6879907-14.56095305-18.896427-15.1808828l-.3092925-.9171195h-.9655305c-7.42167525 0-13.458258 6.03658275-13.458258 13.458258 0 7.0021133 5.3763105 12.7657118 12.215709 13.3950548.4989023 4.0248367 3.01224 9.8771887 9.8099513 11.156046-15.50765705 17.8461772-16.0791758 42.7603605-16.0953128 43.8832267v.6064823h-5.77839075v20.8328672l2.01846975-1.168588c1.726659-.999149 3.70209675-1.528981 5.71115325-1.528981 6.29343005 0 11.41154855 5.119464 11.41154855 11.411549 0 6.29343-5.1181185 11.412893-11.41154855 11.412893-2.0090565 0-3.98449425-.529831-5.71115325-1.528981l-2.01846975-1.168587v2.801114c0 7.870822 6.40504425 14.274521 14.27586605 14.274521h16.3239202 10.6921073v.004034c.0524452 0 .1035457-.004034.1546462-.004034h3.813711 15.9460455v.001345h10.7405183v.002689c.021516 0 .0416872-.002689.0632032-.002689l47.5490155.002689 6.34722-.048411v-1.333992c0-21.498518-12.857155-40.6598607-31.8302327-49.221884 5.5538175-.8861902 10.5778037-5.201493 12.0314787-6.551622h12.9096c11.535265 0 14.573055-7.2589605 14.696772-7.5695977l.095478-.2407103v-8.999067h-32.612877l-.402081.4478018c-2.042675 2.2780065-4.958093 3.5864482-7.9999175 3.5864482-5.9316922 0-10.758-4.8263077-10.758-10.758 0-5.9316922 4.8263078-10.758 10.758-10.758z" fill="#b0936d" mask="url(#a)"/></g></svg>