<svg height="167" viewBox="0 0 167 167" width="167" xmlns="http://www.w3.org/2000/svg"><g fill="none" fill-rule="evenodd" stroke="#c5955e" stroke-width="1.75" transform="translate(1 1)"><path d="m20.0502701 102.346726-19.76386864-19.7638683 19.76386864-19.7638686"/><path d="m102.142708 144.911066-19.7638686 19.763868-19.7638686-19.763868"/><path d="m144.707047 62.8186277 19.763869 19.7638687-19.763869 19.7638686"/><path d="m62.6146095 20.2542883 19.7638686-19.76386859 19.7638689 19.76386859"/><path d="m101.459343 139.74488-19.0809853 19.080985-19.0809854-19.080985"/><path d="m63.2979745 25.4204745 19.0809854-19.08098545 19.0809851 19.08098545"/><path d="m125.707478 89.2778832h-11.364525v6.1929197l-6.109818 2.7146716-6.108613-2.7146716v-6.1929197h-12.8218249v11.3645258h-6.0471898l-2.7146715 6.108613 2.7146715 6.109817h6.0471898v12.820621h12.8218249v6.207372l6.108613 2.715876 6.109818-2.715876v-6.207372h11.364525z"/><path d="m75.3634489 100.642529v-11.3645254h-12.1943431v-6.114635l-6.1086131-2.7158759-6.1098175 2.7158759v6.114635h-11.9908029v11.3645254h-5.9315694l-2.7158759 6.108613 2.7158759 6.109818h5.9315694v12.82062h36.4035766v-12.82062h-5.6846715l-2.7146716-6.109818 2.7146716-6.108613z"/><path d="m131.728774 52.2825949h-6.021898v-12.9844161h-36.4035767v12.9844161h5.6280657l2.7146715 6.1098175-2.7146715 6.1086131h-5.6280657v11.20073h12.8206207v6.1929197l6.109817 2.7158759 6.108613-2.7158759v-6.1929197h11.364526v-11.20073h6.021898l2.714671-6.1086131z"/><path d="m81.3547555 52.2825949h-5.9917883v-12.9844161h-12.1943431v-6.0218978l-6.1086132-2.7158759-6.1098175 2.7158759v6.0218978h-11.9908029v36.4035767h11.9908029v-6.1146351l6.1098175-2.7146715 6.1086132 2.7146715v6.1146351h12.1943431v-11.20073h5.9917883l2.7146715-6.1086131z"/><path d="m38.9592701 75.7021168h5v-36.4035767h-5z"/><path d="m120.707117 125.68146h5v-36.4035768h-5z"/><path d="m89.3035401 44.2973358h36.4047809v-5h-36.4047809z"/><path d="m38.9592701 125.68146h36.4035766v-5h-36.4035766z"/></g></svg>