<?xml version="1.0" encoding="UTF-8"?>
<svg width="167px" height="167px" viewBox="0 0 167 167" version="1.1" xmlns="http://www.w3.org/2000/svg" xmlns:xlink="http://www.w3.org/1999/xlink">
    <!-- Generator: Sketch 64 (93537) - https://sketch.com -->
    <title>Solutions</title>
    <desc>Created with Sketch.</desc>
    <g id="Services" stroke="none" stroke-width="1" fill="none" fill-rule="evenodd">
        <g transform="translate(-221.000000, -556.000000)" id="Solutions" stroke="#C5955E" stroke-width="1.75">
            <g transform="translate(222.000000, 557.000000)">
                <polyline id="Stroke-1" points="20.0502701 102.346726 0.28640146 82.5828577 20.0502701 62.8189891"></polyline>
                <polyline id="Stroke-3" points="102.142708 144.911066 82.3788394 164.674934 62.6149708 144.911066"></polyline>
                <polyline id="Stroke-5" points="144.707047 62.8186277 164.470916 82.5824964 144.707047 102.346365"></polyline>
                <polyline id="Stroke-7" points="62.6146095 20.2542883 82.3784781 0.490419708 102.142347 20.2542883"></polyline>
                <polyline id="Stroke-10" points="101.459343 139.74488 82.3783577 158.825865 63.2973723 139.74488"></polyline>
                <polyline id="Stroke-11" points="63.2979745 25.4204745 82.3789599 6.33948905 101.459945 25.4204745"></polyline>
                <polygon id="Stroke-12" points="125.707478 89.2778832 114.342953 89.2778832 114.342953 95.4708029 108.233135 98.1854745 102.124522 95.4708029 102.124522 89.2778832 89.3026971 89.2778832 89.3026971 100.642409 83.2555073 100.642409 80.5408358 106.751022 83.2555073 112.860839 89.3026971 112.860839 89.3026971 125.68146 102.124522 125.68146 102.124522 131.888832 108.233135 134.604708 114.342953 131.888832 114.342953 125.68146 125.707478 125.68146"></polygon>
                <polygon id="Stroke-13" points="75.3634489 100.642529 75.3634489 89.2780036 63.1691058 89.2780036 63.1691058 83.1633686 57.0604927 80.4474927 50.9506752 83.1633686 50.9506752 89.2780036 38.9598723 89.2780036 38.9598723 100.642529 33.0283029 100.642529 30.312427 106.751142 33.0283029 112.86096 38.9598723 112.86096 38.9598723 125.68158 75.3634489 125.68158 75.3634489 112.86096 69.6787774 112.86096 66.9641058 106.751142 69.6787774 100.642529"></polygon>
                <polygon id="Stroke-14" points="131.728774 52.2825949 125.706876 52.2825949 125.706876 39.2981788 89.3032993 39.2981788 89.3032993 52.2825949 94.931365 52.2825949 97.6460365 58.3924124 94.931365 64.5010255 89.3032993 64.5010255 89.3032993 75.7017555 102.12392 75.7017555 102.12392 81.8946752 108.233737 84.6105511 114.34235 81.8946752 114.34235 75.7017555 125.706876 75.7017555 125.706876 64.5010255 131.728774 64.5010255 134.443445 58.3924124"></polygon>
                <polygon id="Stroke-15" points="81.3547555 52.2825949 75.3629672 52.2825949 75.3629672 39.2981788 63.1686241 39.2981788 63.1686241 33.276281 57.0600109 30.5604051 50.9501934 33.276281 50.9501934 39.2981788 38.9593905 39.2981788 38.9593905 75.7017555 50.9501934 75.7017555 50.9501934 69.5871204 57.0600109 66.8724489 63.1686241 69.5871204 63.1686241 75.7017555 75.3629672 75.7017555 75.3629672 64.5010255 81.3547555 64.5010255 84.069427 58.3924124"></polygon>
                <polygon id="Stroke-16" points="38.9592701 75.7021168 43.9592701 75.7021168 43.9592701 39.2985401 38.9592701 39.2985401"></polygon>
                <polygon id="Stroke-17" points="120.707117 125.68146 125.707117 125.68146 125.707117 89.2778832 120.707117 89.2778832"></polygon>
                <polygon id="Stroke-18" points="89.3035401 44.2973358 125.708321 44.2973358 125.708321 39.2973358 89.3035401 39.2973358"></polygon>
                <polygon id="Stroke-19" points="38.9592701 125.68146 75.3628467 125.68146 75.3628467 120.68146 38.9592701 120.68146"></polygon>
            </g>
        </g>
    </g>
</svg>