<?xml version="1.0" encoding="UTF-8"?>
<svg width="68px" height="153px" viewBox="0 0 68 153" version="1.1" xmlns="http://www.w3.org/2000/svg" xmlns:xlink="http://www.w3.org/1999/xlink">
    <!-- Generator: Sketch 64 (93537) - https://sketch.com -->
    <title>2</title>
    <desc>Created with Sketch.</desc>
    <defs>
        <linearGradient x1="45.4953236%" y1="0%" x2="63.3087008%" y2="99.2900127%" id="linearGradient-1">
            <stop stop-color="#89663D" offset="0%"></stop>
            <stop stop-color="#4A3D2B" offset="38.6428421%"></stop>
            <stop stop-color="#060B1A" offset="100%"></stop>
        </linearGradient>
    </defs>
    <g id="Game" stroke="none" stroke-width="1" fill="none" fill-rule="evenodd">
        <g id="WE_games_sb" transform="translate(-301.000000, -1431.000000)" fill="url(#linearGradient-1)" fill-rule="nonzero">
            <g id="text-2" transform="translate(250.000000, 1431.000000)">
                <path d="M117.210938,153 L117.210938,135.617188 L79.90625,135.617188 C80.4921875,134.380208 80.9479167,133.436198 81.2734375,132.785156 C81.5989583,132.134115 81.7942708,131.74349 81.859375,131.613281 L93.8710938,109.054688 C110.472656,77.8046875 118.773438,53.8789062 118.773438,37.2773438 C118.773438,12.6679688 107.673177,0.36328125 85.4726562,0.36328125 C73.6888021,0.36328125 65.2903646,3.74869792 60.2773438,10.5195312 C55.3294271,17.2252604 52.8554688,28.8138021 52.8554688,45.2851562 L53.0507812,51.2421875 L72.9726562,51.2421875 L72.875,49.6796875 L72.7773438,41.0859375 C72.7773438,25.5911458 76.9440104,17.84375 85.2773438,17.84375 C93.9361979,17.84375 98.265625,24.09375 98.265625,36.59375 C98.265625,43.6901042 96.5078125,52.1210937 92.9921875,61.8867187 C91.234375,66.7695312 88.6302083,73.0195312 85.1796875,80.6367188 C81.7291667,88.2539062 77.4322917,97.53125 72.2890625,108.46875 C66.234375,120.96875 61.4492188,130.897135 57.9335938,138.253906 C54.4179688,145.610677 52.1067708,150.526042 51,153 L117.210938,153 Z" id="2"></path>
            </g>
        </g>
    </g>
</svg>