<svg height="126" viewBox="0 0 121 126" width="121" xmlns="http://www.w3.org/2000/svg" xmlns:xlink="http://www.w3.org/1999/xlink"><linearGradient id="a" x1="50%" x2="50%" y1="3.41%" y2="100%"><stop offset="0" stop-color="#000f24" stop-opacity=".9"/><stop offset="1" stop-color="#011b3e"/></linearGradient><linearGradient id="b"><stop offset="0" stop-color="#a78c68"/><stop offset=".52444" stop-color="#7c6341"/><stop offset="1" stop-color="#afa286"/></linearGradient><linearGradient id="c" x1="7.122%" x2="89.8%" xlink:href="#b" y1="245.957%" y2="245.957%"/><linearGradient id="d" x1="-42.73%" x2="89.8%" xlink:href="#b" y1="74.259%" y2="245.867%"/><g fill="none" fill-rule="evenodd" transform="translate(-14.9 1.1)"><g fill="url(#a)" stroke-width="2.274"><path d="m104.753024 38.7634624c12.572352 3.305952 24.796512 7.708896 36.489024 13.193856l-30.109248 63.5918396c-5.9904-2.796768-12.190464-5.159232-18.5328-7.117344l4.987-28.5883516 5.049166-28.9558048c.000668.0001788.001336.0003577.002003.0005365l-5.051169 28.9552683-2.8619056 16.4139872c3.474432 1.037088 6.9301436 2.1528 10.3334396 3.429504l19.656-41.513472c-7.225274-2.8676479-14.600283-5.2823528-22.076365-7.2852875z" stroke="#b0936d" transform="matrix(.96592583 -.25881905 .25881905 .96592583 -15.985456 32.890409)"/><path d="m45.82288 38.471056 2.006112 12.156-1.5872337.4408422c-6.8744588 1.9332398-13.6428468 4.2089041-20.2691919 6.8719578l19.888128 41.393664c3.122496-1.190592 6.28992-2.235168 9.479808-3.21984l-6.7825104-41.077624-.729-4.409.0010464.000768.7279536 4.408232 8.800152 53.290552c-5.557248 1.783296-10.9613686 3.879227-16.1829143 6.287793l-1.3015657.608655-30.468672-63.412128c11.561472-5.499936 23.748192-9.962784 36.417888-13.339872z" stroke="#b0936d" transform="matrix(.96592583 .25881905 -.25881905 .96592583 21.026931 -6.021399)"/><path d="m111.640195 20.8386048 2.680704-17.443296c-19.6597438-3.508128-57.0810238-3.766464-77.8939198-.307008l2.497248 17.387136c-4.732416.557856-9.476064 1.205568-14.2272 1.995552l16.507296 100.6873922c22.845888-3.751488 45.444672-3.44448 67.0625278.389376l17.656704-100.5563522c-4.724928-.8424-9.494784-1.538784-14.28336-2.1528z" stroke="#b0936d"/><path d="m111.588902 20.8019136-13.2687356 88.8713284c-8.188128-.962208-16.447392-1.445184-24.665472-1.445184-7.420608 0-14.897376.396864-22.340448 1.183104l-12.403872-88.6092484zm-36.4396028 44.4951936c-7.267104 0-13.16016 5.8968-13.16016 13.163904 0 7.270848 5.893056 13.167648 13.16016 13.167648 7.274592 0 13.167648-5.8968 13.167648-13.167648 0-7.267104-5.893056-13.163904-13.167648-13.163904z" stroke="url(#c)"/><path d="m107.285549 49.1634624 7.034976-45.7704c-19.6597442-3.504384-57.0810242-3.76272-77.8939202-.307008l6.58944 45.856512c17.454528-3.290976 46.713888-3.137472 64.2695042.220896zm-50.3320898-2.0513376-7.083648-45.721728m43.7228064 45.721728 7.0836484-45.721728" stroke="#b0936d"/></g><path d="m75.151 31.314-8.185-8.185 8.185-8.184 8.188 8.184z" stroke="url(#d)" stroke-width="2.275"/></g></svg>