<svg xmlns="http://www.w3.org/2000/svg" width="121" height="126" viewBox="0 0 121 126">
  <defs>
    <linearGradient id="game_icon_roulette-a" x1="50%" x2="50%" y1="3.41%" y2="100%">
      <stop offset="0%" stop-color="#000F24" stop-opacity=".9"/>
      <stop offset="100%" stop-color="#011B3E"/>
    </linearGradient>
    <linearGradient id="game_icon_roulette-b" x1="50%" x2="50%" y1="3.41%" y2="100%">
      <stop offset="0%" stop-color="#000F24" stop-opacity=".9"/>
      <stop offset="100%" stop-color="#011B3E"/>
    </linearGradient>
    <linearGradient id="game_icon_roulette-c" x1="50%" x2="50%" y1="3.41%" y2="100%">
      <stop offset="0%" stop-color="#000F24" stop-opacity=".9"/>
      <stop offset="100%" stop-color="#011B3E"/>
    </linearGradient>
    <linearGradient id="game_icon_roulette-d" x1="50%" x2="50%" y1="3.41%" y2="100%">
      <stop offset="0%" stop-color="#000F24" stop-opacity=".9"/>
      <stop offset="100%" stop-color="#011B3E"/>
    </linearGradient>
    <linearGradient id="game_icon_roulette-e" x1="7.122%" x2="89.8%" y1="245.957%" y2="245.957%">
      <stop offset="0%" stop-color="#A78C68"/>
      <stop offset="52.444%" stop-color="#7C6341"/>
      <stop offset="100%" stop-color="#AFA286"/>
    </linearGradient>
    <linearGradient id="game_icon_roulette-f" x1="50%" x2="50%" y1="3.41%" y2="100%">
      <stop offset="0%" stop-color="#000F24" stop-opacity=".9"/>
      <stop offset="100%" stop-color="#011B3E"/>
    </linearGradient>
    <linearGradient id="game_icon_roulette-g" x1="-42.73%" x2="89.8%" y1="74.259%" y2="245.867%">
      <stop offset="0%" stop-color="#A78C68"/>
      <stop offset="52.444%" stop-color="#7C6341"/>
      <stop offset="100%" stop-color="#AFA286"/>
    </linearGradient>
  </defs>
  <g fill="none" fill-rule="evenodd" transform="translate(-14.9 1.1)">
    <path fill="url(#game_icon_roulette-a)" stroke="#B0936D" stroke-width="2.274" d="M104.753024,38.7634624 C117.325376,42.0694144 129.549536,46.4723584 141.242048,51.9573184 L141.242048,51.9573184 L111.1328,115.549158 C105.1424,112.75239 98.942336,110.389926 92.6,108.431814 L92.6,108.431814 L97.587,79.8434624 L102.636166,50.8876576 C102.636834,50.8878364 102.637502,50.8880153 102.638169,50.8881941 L97.587,79.8434624 L94.7250944,96.2574496 C98.1995264,97.2945376 101.655238,98.4102496 105.058534,99.6869536 L124.714534,58.1734816 C117.48926,55.3058337 110.114251,52.8911288 102.638169,50.8881941 Z" transform="rotate(-15 116.921 77.156)"/>
    <path fill="url(#game_icon_roulette-b)" stroke="#B0936D" stroke-width="2.274" d="M45.82288,38.471056 L47.828992,50.627056 L46.2417583,51.0678982 C39.3672995,53.001138 32.5989115,55.2768023 25.9725664,57.939856 L45.8606944,99.33352 C48.9831904,98.142928 52.1506144,97.098352 55.3405024,96.11368 L48.557992,55.036056 L47.828992,50.627056 L47.8300384,50.627824 L48.557992,55.036056 L57.358144,108.326608 C51.800896,110.109904 46.3967754,112.205835 41.1752297,114.614401 L39.873664,115.223056 L9.404992,51.810928 C20.966464,46.310992 33.153184,41.848144 45.82288,38.471056 L45.82288,38.471056 Z" transform="rotate(15 33.382 76.847)"/>
    <path fill="url(#game_icon_roulette-c)" stroke="#B0936D" stroke-width="2.274" d="M111.640195,20.8386048 L114.320899,3.3953088 C94.6611552,-0.1128192 57.2398752,-0.3711552 36.4269792,3.0883008 L38.9242272,20.4754368 C34.1918112,21.0332928 29.4481632,21.6810048 24.6970272,22.4709888 L41.2043232,123.158381 C64.0502112,119.406893 86.6489952,119.713901 108.266851,123.547757 L125.923555,22.9914048 C121.198627,22.1490048 116.428771,21.4526208 111.640195,20.8386048 Z"/>
    <path fill="url(#game_icon_roulette-d)" stroke="url(#game_icon_roulette-e)" stroke-width="2.274" d="M111.588902,20.8019136 L98.3201664,109.673242 C90.1320384,108.711034 81.8727744,108.228058 73.6546944,108.228058 C66.2340864,108.228058 58.7573184,108.624922 51.3142464,109.411162 L38.9103744,20.8019136 L111.588902,20.8019136 Z M75.1492992,65.2971072 C67.8821952,65.2971072 61.9891392,71.1939072 61.9891392,78.4610112 C61.9891392,85.7318592 67.8821952,91.6286592 75.1492992,91.6286592 C82.4238912,91.6286592 88.3169472,85.7318592 88.3169472,78.4610112 C88.3169472,71.1939072 82.4238912,65.2971072 75.1492992,65.2971072 Z"/>
    <path fill="url(#game_icon_roulette-f)" stroke="#B0936D" stroke-width="2.274" d="M107.285549,49.1634624 L114.320525,3.3930624 C94.6607808,-0.1113216 57.2395008,-0.3696576 36.4266048,3.0860544 L43.0160448,48.9425664 C60.4705728,45.6515904 89.7299328,45.8050944 107.285549,49.1634624 Z M56.9534592,47.1121248 L49.8698112,1.3903968 M93.5926176,47.1121248 L100.676266,1.3903968"/>
    <polygon stroke="url(#game_icon_roulette-g)" stroke-width="2.275" points="75.151 31.314 66.966 23.129 75.151 14.945 83.339 23.129"/>
  </g>
</svg>
